<svg width="386" height="242" viewBox="0 0 386 242" fill="none" xmlns="http://www.w3.org/2000/svg">
    <g clip-path="url(#clip0_492_554)">
        <path d="M297.783 86V132.924H306.078V118.954L318.231 132.924H329.001L313.968 115.606L327.964 100.427H317.424L306.078 112.955V86H297.783Z" fill="#EF3124"/>
        <mask id="mask0_492_554" style="mask-type:luminance" maskUnits="userSpaceOnUse" x="56" y="86" width="273" height="70">
            <path d="M329 86H56V156H329V86Z" fill="white"/>
        </mask>
        <g mask="url(#mask0_492_554)">
            <path d="M280.33 99.0459C275.551 99.0459 272.495 101.581 271.002 104.006V100.427H262.707V132.924H271.002V113.066C271.002 108.564 273.191 106.486 276.993 106.486C280.68 106.486 282.809 108.564 282.809 113.066V132.924H291.104V112.664C291.104 103.775 287.358 99.0459 280.33 99.0459Z" fill="#EF3124"/>
            <path d="M131.117 97.7159C131.117 94.5433 132.44 93.0979 135.495 93.0979H144.828V86H133.113C126.375 86 122.822 89.5189 122.822 96.1597V102.449H115.375V109.954H122.822V132.924H131.117V109.954H139.238V102.449H131.117V97.7159Z" fill="#EF3124"/>
            <path d="M111.057 86H102.762V132.924H111.057V86Z" fill="#EF3124"/>
            <path d="M100.333 146.769H56V156H100.333V146.769Z" fill="#EF3124"/>
            <path d="M86.227 93.8506C84.9597 90.0731 83.5034 87.0898 78.5125 87.0898C73.5215 87.0898 71.9685 90.0592 70.6412 93.8506L56.9219 132.924H66.019L69.185 123.632H86.6971L89.6419 132.924H99.3196L86.227 93.8506ZM71.8348 115.786L78.0516 97.268H78.282L84.1532 115.786H71.8348Z" fill="#EF3124"/>
            <path d="M255.449 122.944V112.032C255.449 104.066 250.38 99.0459 241.859 99.0459C233.048 99.0459 228.379 104.352 227.978 109.894H236.384C236.675 108.684 237.942 106.606 241.859 106.606C245.085 106.606 247.159 108.106 247.159 112.032H238.919C231.545 112.032 227.172 115.897 227.172 122.362C227.172 129.114 231.96 133.732 238.864 133.732C243.933 133.732 246.735 131.335 247.965 129.52C249.057 131.714 251.477 132.924 254.643 132.924H257.523V125.419C256.025 125.419 255.449 124.727 255.449 122.94M247.154 120.801C247.154 124.556 244.504 126.689 241.048 126.689C238.052 126.689 235.688 125.595 235.688 122.362C235.688 119.13 238.283 118.668 240.527 118.668H247.159L247.154 120.801Z" fill="#EF3124"/>
            <path d="M169.4 122.944V112.032C169.4 104.066 164.331 99.0459 155.81 99.0459C146.994 99.0459 142.33 104.352 141.93 109.894H150.335C150.626 108.684 151.893 106.606 155.81 106.606C159.036 106.606 161.105 108.106 161.105 112.032H152.87C145.496 112.032 141.123 115.897 141.123 122.362C141.123 129.114 145.911 133.732 152.815 133.732C157.884 133.732 160.686 131.335 161.912 129.52C163.009 131.714 165.428 132.924 168.594 132.924H171.474V125.419C169.977 125.419 169.4 124.727 169.4 122.94M161.105 120.801C161.105 124.556 158.46 126.689 155.004 126.689C152.008 126.689 149.644 125.595 149.644 122.362C149.644 119.13 152.239 118.668 154.483 118.668H161.105V120.801Z" fill="#EF3124"/>
            <path d="M215.826 109.09C217.6 108.307 219.106 107.021 220.16 105.391C221.214 103.76 221.769 101.857 221.757 99.9141C221.757 92.239 216.747 87.6209 208.337 87.6209H186.797V132.928H207.586C217.263 132.928 222.734 128.139 222.734 119.767C222.734 113.824 219.337 110.42 215.821 109.09M195.378 95.5224H207.36C210.931 95.5224 212.835 97.1987 212.835 100.602C212.835 103.89 210.931 105.682 207.42 105.682H195.378V95.5224ZM206.609 125.018H195.378V113.473H206.609C211.388 113.473 213.807 115.435 213.807 119.245C213.807 123.055 211.332 125.018 206.609 125.018Z" fill="#EF3124"/>
        </g>
    </g>
    <path d="M385.641 0.411367V241.639H0.359055V0.411367H385.641ZM386 0H0V242H386V0Z" fill="#C2C2C2"/>
    <defs>
        <clipPath id="clip0_492_554">
            <rect width="273" height="70" fill="white" transform="translate(56 86)"/>
        </clipPath>
    </defs>
</svg>
