<svg width="386" height="242" viewBox="0 0 386 242" fill="none" xmlns="http://www.w3.org/2000/svg">
    <g clip-path="url(#clip0_481_179)">
        <path d="M331.848 105.749L321.748 117.067V105.749H314.439V134.321H321.748V122.292L332.559 134.321H342L328.703 119.351L341.037 105.749H331.848Z" fill="#EF3124"/>
        <path d="M301.553 116.405H291.453V105.749H284.141V134.321H291.453V123.056H301.553V134.321H308.861V105.749H301.553V116.405Z" fill="#EF3124"/>
        <mask id="mask0_481_179" style="mask-type:luminance" maskUnits="userSpaceOnUse" x="46" y="94" width="296" height="61">
            <path d="M342 94H46V154.626H342V94Z" fill="white"/>
        </mask>
        <g mask="url(#mask0_481_179)">
            <path d="M89.3966 121.219C89.2219 126.549 88.5353 127.614 85.5371 127.614V134.321H86.6543C94.1254 134.321 95.9211 130.466 96.1973 121.89L96.502 112.395H103.506V134.333H110.819V105.749H89.9044L89.3966 121.219Z" fill="#EF3124"/>
            <path d="M128.983 114.427H123.701V105.749H116.389V134.321H129.08C137.047 134.321 139.891 129.145 139.891 124.274C139.891 117.981 135.93 114.427 128.979 114.427M128.418 128.028H123.701V120.772H128.422C130.961 120.772 132.485 121.89 132.485 124.274C132.485 126.862 131.014 128.028 128.422 128.028" fill="#EF3124"/>
            <path d="M163.697 105.087V94.4794H156.385V105.087C148.016 105.781 142.381 111.737 142.381 120.001C142.381 128.264 148.016 134.264 156.389 134.975V145.737H163.701V134.983C172.074 134.321 177.709 128.333 177.709 120.001C177.709 111.668 172.074 105.741 163.697 105.079M156.385 128.073C152.322 127.512 149.787 124.469 149.787 120.001C149.787 115.532 152.326 112.489 156.385 111.932V128.073ZM163.697 128.073V111.94C167.76 112.497 170.315 115.532 170.315 120.001C170.315 124.469 167.78 127.512 163.718 128.073" fill="#EF3124"/>
            <path d="M205.115 125.542V115.938C205.115 108.934 200.646 104.518 193.139 104.518C185.371 104.518 181.26 109.186 180.906 114.061H188.316C188.568 112.993 189.686 111.164 193.139 111.164C195.983 111.164 197.807 112.485 197.807 115.938H190.547C184.047 115.938 180.195 119.338 180.195 125.022C180.195 130.97 184.412 135.032 190.498 135.032C194.967 135.032 197.437 132.924 198.518 131.327C199.48 133.257 201.613 134.321 204.404 134.321H206.943V127.719C205.623 127.719 205.115 127.11 205.115 125.538M197.803 123.661C197.803 126.96 195.467 128.837 192.424 128.837C189.783 128.837 187.703 127.874 187.703 125.03C187.703 122.186 189.986 121.78 191.965 121.78H197.803V123.661Z" fill="#EF3124"/>
            <path d="M236.434 109.808H228.26V101.739H247.191V94.4794H220.598V134.321H236.442C245.221 134.321 250.255 129.958 250.255 121.938C250.255 114.378 245.229 109.808 236.442 109.808M236.084 127.114H228.26V116.75H236.076C240.139 116.75 242.422 118.627 242.422 121.926C242.422 125.327 240.139 127.102 236.076 127.102" fill="#EF3124"/>
            <path d="M278.205 125.542V115.938C278.205 108.934 273.736 104.518 266.225 104.518C258.473 104.53 254.35 109.198 254.004 114.073H261.415C261.67 113.005 262.788 111.177 266.237 111.177C269.081 111.177 270.909 112.497 270.909 115.95H263.637C257.137 115.95 253.281 119.351 253.281 125.034C253.281 130.97 257.502 135.032 263.588 135.032C268.057 135.032 270.523 132.924 271.604 131.327C272.57 133.257 274.703 134.321 277.494 134.321H280.029V127.719C278.713 127.719 278.205 127.11 278.205 125.538M270.893 123.661C270.893 126.96 268.557 128.837 265.51 128.837C262.873 128.837 260.789 127.874 260.789 125.03C260.789 122.186 263.076 121.78 265.055 121.78H270.893V123.661Z" fill="#EF3124"/>
            <path d="M85.0821 146.505H46V154.626H85.0821V146.505Z" fill="#EF3124"/>
            <path d="M72.6465 99.9476C71.5293 96.6244 70.2455 94 65.8457 94C61.4459 94 60.0768 96.6163 58.9068 99.9476L46.8125 134.321H54.832L57.623 126.151H73.0609L75.6569 134.321H84.1883L72.6465 99.9476ZM59.959 119.249L65.4395 102.938H65.6426L70.8183 119.249H59.959Z" fill="#EF3124"/>
        </g>
    </g>
    <path d="M385.641 0.411367V241.639H0.359055V0.411367H385.641ZM386 0H0V242H386V0Z" fill="#C2C2C2"/>
    <defs>
        <clipPath id="clip0_481_179">
            <rect width="296" height="60.626" fill="white" transform="translate(46 94)"/>
        </clipPath>
    </defs>
</svg>
