<svg width="301" height="192" viewBox="0 0 301 192" fill="none" xmlns="http://www.w3.org/2000/svg">
    <path d="M300.717 0.330017V191.66H0.282694V0.330017H300.717ZM301 0.039978H0V192H301V0V0.039978Z" fill="#C2C2C2"/>
    <path d="M192.79 54H109V137.79H192.79V54Z" fill="#BC1E1E"/>
    <path d="M153.34 112.67C153.85 112.67 154.349 112.519 154.773 112.235C155.198 111.952 155.528 111.549 155.724 111.077C155.919 110.606 155.97 110.087 155.87 109.587C155.771 109.086 155.525 108.627 155.164 108.266C154.803 107.905 154.344 107.659 153.843 107.56C153.343 107.46 152.824 107.511 152.353 107.706C151.881 107.902 151.478 108.232 151.195 108.657C150.911 109.081 150.76 109.58 150.76 110.09C150.763 110.773 151.035 111.428 151.519 111.912C152.002 112.395 152.657 112.667 153.34 112.67Z" fill="white"/>
    <path d="M179.7 95.89C179.7 101.32 177.34 105.37 172.01 105.37C166.68 105.37 164.23 101.51 164.23 95.89C164.23 90.61 166.68 86.41 171.82 86.41C177.29 86.41 179.7 90.56 179.7 95.89ZM188.9 96.0801C188.9 85.8001 182.06 78.72 171.96 78.72C161.44 78.72 155.03 86.13 155.03 96.27C155.03 105.99 162.15 113.06 171.96 113.06C181.77 113.06 188.9 105.75 188.9 96.0601M139.48 101.58C139.48 103.89 138.06 105.35 134.9 105.35H126.9V98.66H134.9C137.97 98.66 139.48 99.6001 139.48 101.58ZM149.71 101.58C149.71 94.1801 143.96 93.23 138.3 93.23H126.93V86.4401H139.24L139.38 90.92H147.64V79.4H113.39V86.72H118.68V105.16H113.39V112.47H136.09C145.24 112.47 149.76 108.18 149.76 101.62" fill="white"/>
</svg>
