<svg width="301" height="192" viewBox="0 0 301 192" fill="none" xmlns="http://www.w3.org/2000/svg">
     <path d="M300.717 0.330017V191.66H0.282694V0.330017H300.717ZM301 0.039978H0V192H301V0V0.039978Z" fill="#C2C2C2"/>
    <path d="M192.79 36H109V119.79H192.79V36Z" fill="#BC1E1E"/>
    <path d="M153.34 94.67C153.85 94.67 154.349 94.5187 154.773 94.2352C155.198 93.9517 155.528 93.5488 155.724 93.0774C155.919 92.606 155.97 92.0871 155.87 91.5867C155.771 91.0862 155.525 90.6266 155.164 90.2658C154.803 89.9049 154.344 89.6591 153.843 89.5596C153.343 89.46 152.824 89.5112 152.353 89.7064C151.881 89.9017 151.478 90.2323 151.195 90.6566C150.911 91.0809 150.76 91.5797 150.76 92.09C150.763 92.7734 151.035 93.4282 151.519 93.9115C152.002 94.3948 152.657 94.6674 153.34 94.67Z" fill="white"/>
    <path d="M179.7 77.89C179.7 83.32 177.34 87.37 172.01 87.37C166.68 87.37 164.23 83.51 164.23 77.89C164.23 72.61 166.68 68.41 171.82 68.41C177.29 68.41 179.7 72.56 179.7 77.89ZM188.9 78.0801C188.9 67.8001 182.06 60.72 171.96 60.72C161.44 60.72 155.03 68.13 155.03 78.27C155.03 87.99 162.15 95.0601 171.96 95.0601C181.77 95.0601 188.9 87.7501 188.9 78.0601M139.48 83.5801C139.48 85.8901 138.06 87.35 134.9 87.35H126.9V80.66H134.9C137.97 80.66 139.48 81.6001 139.48 83.5801ZM149.71 83.5801C149.71 76.1801 143.96 75.23 138.3 75.23H126.93V68.4401H139.24L139.38 72.92H147.64V61.4H113.39V68.72H118.68V87.16H113.39V94.47H136.09C145.24 94.47 149.76 90.18 149.76 83.62" fill="white"/>
</svg>
