<svg width="301" height="192" viewBox="0 0 301 192" fill="none" xmlns="http://www.w3.org/2000/svg">
    <path d="M300.717 0.330017V191.66H0.282694V0.330017H300.717ZM301 0.039978H0V192H301V0V0.039978Z" fill="#C2C2C2"/>
    <path d="M214.04 27.5283H86.9199V124.138H214.04V27.5283Z" fill="#DB0812"/>
    <path d="M133.29 93.8585H130.29V96.7485H133.29V93.8585ZM130.29 98.3885V100.698H137V103.698H129C126.63 103.698 126.13 102.038 126.13 100.698V94.4485C126.13 92.4485 127.07 91.2986 128.98 91.2686H131.83H134.64C136.64 91.2686 137.44 92.3286 137.44 94.2686V98.3885H130.29Z" fill="white"/>
    <path d="M141.8 91.2383H147.29L151.17 103.708H146.61L144.56 95.1682H144.21L142.16 103.708H137.92L141.8 91.2383Z" fill="white"/>
    <path d="M159 94.0785H156.09V100.869H159V94.0785ZM160.33 103.708L157.52 103.759C156.86 103.759 154.7 103.708 154.7 103.708C153.26 103.708 151.9 103.158 151.9 100.708V94.3986C151.9 92.8786 152.4 91.2685 154.77 91.2185L157.55 91.1685C158.21 91.1685 160.37 91.2185 160.37 91.2185C161.78 91.2185 163.2 91.7285 163.2 94.2185V100.509C163.2 101.999 162.74 103.618 160.33 103.658" fill="white"/>
    <path d="M184.09 94.0785H181.18V100.869H184.09V94.0785ZM185.42 103.708L182.61 103.759C181.95 103.759 179.79 103.708 179.79 103.708C178.35 103.708 176.98 103.158 176.98 100.708V94.3986C176.98 92.8786 177.49 91.2685 179.86 91.2185L182.64 91.1685C183.29 91.1685 185.46 91.2185 185.46 91.2185C186.88 91.2185 188.29 91.7285 188.29 94.2185V100.509C188.29 101.999 187.83 103.618 185.42 103.658" fill="white"/>
    <path d="M117.38 89.5583H117.83L119.83 100.788H115.32L117.38 89.5583ZM124.58 100.788L121.43 85.7883H113.85L110.72 100.788H109.63V103.788H125.55V100.788H124.58Z" fill="white"/>
    <path d="M171.58 96.5382H168.58V94.0083H171.58V96.5382ZM171.58 101.018H168.58V98.4983H171.58V101.018ZM173.84 97.4482C175.28 97.2482 175.43 96.1482 175.43 95.1782V93.4883C175.43 91.5783 173.51 91.1782 171.93 91.1782H164.4V103.718H173.5C175.13 103.718 175.78 102.828 175.78 101.328V99.7083C175.78 97.8883 175.2 97.5883 173.84 97.4583" fill="white"/>
    <path d="M191.43 103.848H189.64V91.3384H193.8V97.9584C196.91 92.2684 196.71 92.6284 196.91 92.2484C197.11 91.9564 197.381 91.7198 197.698 91.5607C198.014 91.4016 198.366 91.3251 198.72 91.3384H200.86V103.898H196.71V97.0484C196.71 97.0484 193.91 102.048 193.5 102.838C193.294 103.196 192.989 103.486 192.621 103.674C192.254 103.862 191.84 103.94 191.43 103.898" fill="white"/>
    <path d="M199 85.5884C199.013 86.2139 198.88 86.8339 198.61 87.3984C198.374 87.862 198.031 88.2629 197.61 88.5684C197.227 88.8527 196.792 89.0599 196.33 89.1783C195.878 89.2878 195.415 89.3449 194.95 89.3484C194.488 89.3454 194.028 89.2883 193.58 89.1783C193.114 89.0619 192.676 88.8546 192.29 88.5684C191.884 88.2607 191.558 87.8593 191.34 87.3984C191.062 86.8363 190.925 86.2152 190.94 85.5884H193.71C193.704 85.7736 193.737 85.958 193.806 86.13C193.875 86.302 193.978 86.4581 194.11 86.5884C194.347 86.7807 194.644 86.8834 194.95 86.8784C195.255 86.8852 195.554 86.7823 195.79 86.5884C195.922 86.4587 196.025 86.3025 196.092 86.1301C196.159 85.9578 196.189 85.7732 196.18 85.5884H199Z" fill="white"/>
    <path d="M170.13 117.428H165.56V114.338H170.13V117.428ZM173.13 114.428C173.18 113.702 172.994 112.98 172.6 112.368C172.549 112.319 172.496 112.272 172.44 112.228C171.91 111.804 171.236 111.603 170.56 111.668H165.56V109.668H172.64V106.668H164.44C164.007 106.654 163.575 106.726 163.17 106.878C162.858 107.005 162.583 107.207 162.37 107.468C162.168 107.727 162.028 108.028 161.96 108.348C161.879 108.696 161.839 109.051 161.84 109.408V117.408C161.786 118.16 162.006 118.906 162.46 119.508C162.722 119.767 163.035 119.966 163.38 120.094C163.725 120.221 164.093 120.274 164.46 120.248H170.53C170.972 120.262 171.414 120.208 171.84 120.088C172.147 120.009 172.425 119.842 172.64 119.608C172.842 119.364 172.977 119.071 173.03 118.758C173.099 118.355 173.132 117.947 173.13 117.538V114.428Z" fill="white"/>
    <path d="M102.42 119.528V103.859H97.4199V119.528H91.5499V104.408C91.5499 101.318 92.9899 99.7485 96.0299 99.7485H103.69C107.02 99.7485 108.14 101.428 108.14 104.408V119.528H102.42Z" fill="white"/>
    <path d="M117 109.389H114V112.389H117V109.389ZM114 114.048V116.428H120.83V119.528H112.66C110.22 119.528 109.66 117.818 109.66 116.408V109.958C109.66 107.878 110.66 106.718 112.59 106.688C112.59 106.688 114.91 106.688 115.52 106.688C116.13 106.688 118.41 106.688 118.41 106.688C120.48 106.688 121.3 107.778 121.3 109.818V114.048H114Z" fill="white"/>
    <path d="M142.77 109.389H139.7V112.389H142.77V109.389ZM139.77 114.048V116.428H146.6V119.528H138.43C135.99 119.528 135.43 117.818 135.43 116.408V109.958C135.43 107.878 136.43 106.718 138.37 106.688C138.37 106.688 140.69 106.688 141.3 106.688C141.91 106.688 144.19 106.688 144.19 106.688C146.26 106.688 147.08 107.778 147.08 109.818V114.048H139.77Z" fill="white"/>
    <path d="M156.24 109.589H152.93V114.339H156.24V109.589ZM157.56 117.278H153V119.708H148.72V106.708H157.64C159.78 106.708 160.64 107.879 160.64 109.859V114.149C160.64 116.229 159.8 117.298 157.64 117.298" fill="white"/>
    <path d="M196.3 109.589H193V114.339H196.31L196.3 109.589ZM197.61 117.278H193V119.708H188.73V106.708H197.65C199.79 106.708 200.65 107.879 200.65 109.859V114.149C200.65 116.229 199.8 117.298 197.65 117.298" fill="white"/>
    <path d="M182.78 119.928H178L179 117.278C178.624 117.326 178.243 117.233 177.931 117.017C177.619 116.801 177.398 116.477 177.31 116.109L173.7 106.688H178.56L180.5 113.208H180.86L182.86 106.688H187.36C187.36 106.688 182.1 121.958 182.77 119.928" fill="white"/>
    <path d="M206.12 109.619V119.528H201.81V109.818C201.81 107.908 202.65 106.688 204.81 106.688H210.18V109.619H206.12Z" fill="white"/>
    <path d="M130.81 109.719V119.528H125.84V109.719H122.41V106.769H134.31V109.719H130.81Z" fill="white"/>
</svg>
