<svg width="301" height="192" viewBox="0 0 301 192" fill="none" xmlns="http://www.w3.org/2000/svg">
    <path d="M300.717 0.330017V191.66H0.282694V0.330017H300.717ZM301 0.039978H0V192H301V0V0.039978Z" fill="#C2C2C2"/>
    <path d="M214.04 48H86.9199V144.61H214.04V48Z" fill="#DB0812"/>
    <path d="M133.29 114.33H130.29V117.22H133.29V114.33ZM130.29 118.86V121.17H137V124.17H129C126.63 124.17 126.13 122.51 126.13 121.17V114.92C126.13 112.92 127.07 111.77 128.98 111.74H131.83H134.64C136.64 111.74 137.44 112.8 137.44 114.74V118.86H130.29Z" fill="white"/>
    <path d="M141.8 111.71H147.29L151.17 124.18H146.61L144.56 115.64H144.21L142.16 124.18H137.92L141.8 111.71Z" fill="white"/>
    <path d="M159 114.55H156.09V121.34H159V114.55ZM160.33 124.18L157.52 124.23C156.86 124.23 154.7 124.18 154.7 124.18C153.26 124.18 151.9 123.63 151.9 121.18V114.87C151.9 113.35 152.4 111.74 154.77 111.69L157.55 111.64C158.21 111.64 160.37 111.69 160.37 111.69C161.78 111.69 163.2 112.2 163.2 114.69V120.98C163.2 122.47 162.74 124.09 160.33 124.13" fill="white"/>
    <path d="M184.09 114.55H181.18V121.34H184.09V114.55ZM185.42 124.18L182.61 124.23C181.95 124.23 179.79 124.18 179.79 124.18C178.35 124.18 176.98 123.63 176.98 121.18V114.87C176.98 113.35 177.49 111.74 179.86 111.69L182.64 111.64C183.29 111.64 185.46 111.69 185.46 111.69C186.88 111.69 188.29 112.2 188.29 114.69V120.98C188.29 122.47 187.83 124.09 185.42 124.13" fill="white"/>
    <path d="M117.38 110.03H117.83L119.83 121.26H115.32L117.38 110.03ZM124.58 121.26L121.43 106.26H113.85L110.72 121.26H109.63V124.26H125.55V121.26H124.58Z" fill="white"/>
    <path d="M171.58 117.01H168.58V114.48H171.58V117.01ZM171.58 121.49H168.58V118.97H171.58V121.49ZM173.84 117.92C175.28 117.72 175.43 116.62 175.43 115.65V113.96C175.43 112.05 173.51 111.65 171.93 111.65H164.4V124.19H173.5C175.13 124.19 175.78 123.3 175.78 121.8V120.18C175.78 118.36 175.2 118.06 173.84 117.93" fill="white"/>
    <path d="M191.43 124.32H189.64V111.81H193.8V118.43C196.91 112.74 196.71 113.1 196.91 112.72C197.11 112.428 197.381 112.191 197.698 112.032C198.014 111.873 198.366 111.797 198.72 111.81H200.86V124.37H196.71V117.52C196.71 117.52 193.91 122.52 193.5 123.31C193.294 123.668 192.989 123.958 192.621 124.146C192.254 124.334 191.84 124.412 191.43 124.37" fill="white"/>
    <path d="M199 106.06C199.013 106.686 198.88 107.306 198.61 107.87C198.374 108.334 198.031 108.735 197.61 109.04C197.227 109.324 196.792 109.532 196.33 109.65C195.878 109.759 195.415 109.817 194.95 109.82C194.488 109.817 194.028 109.76 193.58 109.65C193.114 109.534 192.676 109.326 192.29 109.04C191.884 108.732 191.558 108.331 191.34 107.87C191.062 107.308 190.925 106.687 190.94 106.06H193.71C193.704 106.245 193.737 106.43 193.806 106.602C193.875 106.774 193.978 106.93 194.11 107.06C194.347 107.252 194.644 107.355 194.95 107.35C195.255 107.357 195.554 107.254 195.79 107.06C195.922 106.93 196.025 106.774 196.092 106.602C196.159 106.429 196.189 106.245 196.18 106.06H199Z" fill="white"/>
    <path d="M170.13 137.9H165.56V134.81H170.13V137.9ZM173.13 134.9C173.18 134.174 172.994 133.452 172.6 132.84C172.549 132.791 172.496 132.744 172.44 132.7C171.91 132.276 171.236 132.075 170.56 132.14H165.56V130.14H172.64V127.14H164.44C164.007 127.126 163.575 127.197 163.17 127.35C162.858 127.476 162.583 127.679 162.37 127.94C162.168 128.198 162.028 128.499 161.96 128.82C161.879 129.167 161.839 129.523 161.84 129.88V137.88C161.786 138.632 162.006 139.378 162.46 139.98C162.722 140.238 163.035 140.438 163.38 140.565C163.725 140.693 164.093 140.746 164.46 140.72H170.53C170.972 140.734 171.414 140.68 171.84 140.56C172.147 140.481 172.425 140.314 172.64 140.08C172.842 139.836 172.977 139.543 173.03 139.23C173.099 138.827 173.132 138.419 173.13 138.01V134.9Z" fill="white"/>
    <path d="M102.42 140V124.33H97.4199V140H91.5499V124.88C91.5499 121.79 92.9899 120.22 96.0299 120.22H103.69C107.02 120.22 108.14 121.9 108.14 124.88V140H102.42Z" fill="white"/>
    <path d="M117 129.86H114V132.86H117V129.86ZM114 134.52V136.9H120.83V140H112.66C110.22 140 109.66 138.29 109.66 136.88V130.43C109.66 128.35 110.66 127.19 112.59 127.16C112.59 127.16 114.91 127.16 115.52 127.16C116.13 127.16 118.41 127.16 118.41 127.16C120.48 127.16 121.3 128.25 121.3 130.29V134.52H114Z" fill="white"/>
    <path d="M142.77 129.86H139.7V132.86H142.77V129.86ZM139.77 134.52V136.9H146.6V140H138.43C135.99 140 135.43 138.29 135.43 136.88V130.43C135.43 128.35 136.43 127.19 138.37 127.16C138.37 127.16 140.69 127.16 141.3 127.16C141.91 127.16 144.19 127.16 144.19 127.16C146.26 127.16 147.08 128.25 147.08 130.29V134.52H139.77Z" fill="white"/>
    <path d="M156.24 130.06H152.93V134.81H156.24V130.06ZM157.56 137.75H153V140.18H148.72V127.18H157.64C159.78 127.18 160.64 128.35 160.64 130.33V134.62C160.64 136.7 159.8 137.77 157.64 137.77" fill="white"/>
    <path d="M196.3 130.06H193V134.81H196.31L196.3 130.06ZM197.61 137.75H193V140.18H188.73V127.18H197.65C199.79 127.18 200.65 128.35 200.65 130.33V134.62C200.65 136.7 199.8 137.77 197.65 137.77" fill="white"/>
    <path d="M182.78 140.4H178L179 137.75C178.624 137.797 178.243 137.704 177.931 137.488C177.619 137.273 177.398 136.949 177.31 136.58L173.7 127.16H178.56L180.5 133.68H180.86L182.86 127.16H187.36C187.36 127.16 182.1 142.43 182.77 140.4" fill="white"/>
    <path d="M206.12 130.09V140H201.81V130.29C201.81 128.38 202.65 127.16 204.81 127.16H210.18V130.09H206.12Z" fill="white"/>
    <path d="M130.81 130.19V140H125.84V130.19H122.41V127.24H134.31V130.19H130.81Z" fill="white"/>
</svg>
