<svg width="301" height="192" viewBox="0 0 301 192" fill="none" xmlns="http://www.w3.org/2000/svg">
    <path d="M42.3955 151.98L33.8075 163H32.6485V149.7H33.9975V160.72L42.5665 149.7H43.7445V163H42.3955V151.98ZM55.2259 163H53.9909V158.554H47.7019V163H46.4669V153.12H47.7019V157.376H53.9909V153.12H55.2259V163ZM63.7526 166.8H62.5176V163.19H62.4036C60.8203 163.19 59.5409 162.728 58.5656 161.803C57.5903 160.866 57.1026 159.624 57.1026 158.079C57.1026 156.559 57.6093 155.324 58.6226 154.374C59.6359 153.424 60.8899 152.949 62.3846 152.949H62.5176V149.13H63.7526V152.949H63.9046C65.4626 152.949 66.7293 153.424 67.7046 154.374C68.6926 155.324 69.1866 156.559 69.1866 158.079C69.1866 159.662 68.6863 160.91 67.6856 161.822C66.6976 162.734 65.4246 163.19 63.8666 163.19H63.7526V166.8ZM58.4136 158.079C58.4136 159.308 58.7746 160.27 59.4966 160.967C60.2313 161.664 61.2003 162.012 62.4036 162.012H62.5176V154.127H62.3846C61.1813 154.127 60.2186 154.488 59.4966 155.21C58.7746 155.932 58.4136 156.888 58.4136 158.079ZM63.8666 154.127H63.7526V162.012H63.8666C65.1079 162.012 66.0833 161.664 66.7926 160.967C67.5146 160.27 67.8756 159.308 67.8756 158.079C67.8756 156.901 67.5019 155.951 66.7546 155.229C66.0073 154.494 65.0446 154.127 63.8666 154.127ZM70.481 158.041C70.481 156.521 70.975 155.28 71.963 154.317C72.951 153.354 74.1923 152.873 75.687 152.873C77.207 152.873 78.4546 153.361 79.43 154.336C80.4053 155.311 80.893 156.546 80.893 158.041C80.893 159.561 80.399 160.802 79.411 161.765C78.423 162.715 77.1816 163.19 75.687 163.19C74.167 163.19 72.9193 162.709 71.944 161.746C70.9686 160.771 70.481 159.536 70.481 158.041ZM71.792 158.041C71.792 159.194 72.1593 160.144 72.894 160.891C73.6286 161.638 74.5596 162.012 75.687 162.012C76.8396 162.012 77.777 161.638 78.499 160.891C79.221 160.144 79.582 159.194 79.582 158.041C79.582 156.888 79.2146 155.938 78.48 155.191C77.758 154.431 76.827 154.051 75.687 154.051C74.5343 154.051 73.597 154.431 72.875 155.191C72.153 155.951 71.792 156.901 71.792 158.041ZM84.032 166.8H82.797V153.12H84.032V154.583C84.3613 154.038 84.8553 153.62 85.514 153.329C86.1726 153.025 86.8503 152.873 87.547 152.873C89.0036 152.873 90.1436 153.348 90.967 154.298C91.803 155.235 92.221 156.426 92.221 157.87C92.221 159.377 91.765 160.644 90.853 161.67C89.941 162.683 88.7566 163.19 87.3 163.19C85.9066 163.19 84.8173 162.797 84.032 162.012V166.8ZM87.433 154.051C86.6856 154.051 85.9953 154.273 85.362 154.716C84.7286 155.147 84.2853 155.71 84.032 156.407V160.245C84.754 161.423 85.8306 162.012 87.262 162.012C88.364 162.012 89.2443 161.619 89.903 160.834C90.5743 160.036 90.91 159.08 90.91 157.965C90.91 156.825 90.5996 155.888 89.979 155.153C89.371 154.418 88.5223 154.051 87.433 154.051ZM95.3689 163H94.1339V153.12H95.2929L99.3399 158.345L103.311 153.12H104.394V163H103.159V155.248L99.3399 160.245L95.3689 155.248V163ZM107.47 155.21L106.805 154.26C107.273 153.829 107.856 153.494 108.553 153.253C109.262 153 109.952 152.873 110.624 152.873C111.941 152.873 112.948 153.215 113.645 153.899C114.341 154.57 114.69 155.558 114.69 156.863V163H113.455V161.366C113.062 161.936 112.524 162.373 111.84 162.677C111.168 162.981 110.465 163.133 109.731 163.133C108.743 163.133 107.9 162.88 107.204 162.373C106.507 161.866 106.159 161.138 106.159 160.188C106.159 158.187 107.761 157.186 110.966 157.186C111.928 157.186 112.758 157.287 113.455 157.49C113.455 156.35 113.227 155.495 112.771 154.925C112.327 154.342 111.561 154.051 110.472 154.051C109.446 154.051 108.445 154.437 107.47 155.21ZM108.249 161.537C108.781 161.841 109.389 161.993 110.073 161.993C110.757 161.993 111.422 161.784 112.068 161.366C112.726 160.948 113.189 160.422 113.455 159.789V158.611C112.859 158.408 112.087 158.307 111.137 158.307C108.679 158.307 107.451 158.909 107.451 160.112C107.451 160.745 107.717 161.22 108.249 161.537ZM125.884 163H117.03V153.12H118.265V161.822H124.383V153.12H125.618V161.822H127.062V165.47H125.884V163ZM136.193 154.963L129.676 163H128.479V153.12H129.714V161.176L136.231 153.12H137.428V163H136.193V154.963ZM139.319 158.041C139.319 156.521 139.813 155.28 140.801 154.317C141.789 153.354 143.03 152.873 144.525 152.873C146.045 152.873 147.293 153.361 148.268 154.336C149.243 155.311 149.731 156.546 149.731 158.041C149.731 159.561 149.237 160.802 148.249 161.765C147.261 162.715 146.02 163.19 144.525 163.19C143.005 163.19 141.757 162.709 140.782 161.746C139.807 160.771 139.319 159.536 139.319 158.041ZM140.63 158.041C140.63 159.194 140.997 160.144 141.732 160.891C142.467 161.638 143.398 162.012 144.525 162.012C145.678 162.012 146.615 161.638 147.337 160.891C148.059 160.144 148.42 159.194 148.42 158.041C148.42 156.888 148.053 155.938 147.318 155.191C146.596 154.431 145.665 154.051 144.525 154.051C143.372 154.051 142.435 154.431 141.713 155.191C140.991 155.951 140.63 156.901 140.63 158.041ZM160.394 163H159.159V158.554H152.87V163H151.635V153.12H152.87V157.376H159.159V153.12H160.394V163ZM171.657 163H170.422V158.554H164.133V163H162.898V153.12H164.133V157.376H170.422V153.12H171.657V163ZM177.637 163H174.16V153.12H175.395V156.35H177.808C180.456 156.35 181.779 157.452 181.779 159.656C181.779 160.834 181.387 161.689 180.601 162.221C179.829 162.74 178.841 163 177.637 163ZM177.618 157.528H175.395V161.822H177.599C179.512 161.822 180.468 161.106 180.468 159.675C180.468 158.244 179.518 157.528 177.618 157.528ZM184.705 163H183.47V153.12H184.705V163ZM194.9 154.963L188.383 163H187.186V153.12H188.421V161.176L194.938 153.12H196.135V163H194.9V154.963ZM188.706 148.826H189.903C189.915 149.358 190.099 149.782 190.454 150.099C190.821 150.403 191.277 150.555 191.822 150.555C192.088 150.555 192.366 150.498 192.658 150.384C192.962 150.283 193.202 150.086 193.38 149.795C193.557 149.504 193.658 149.181 193.684 148.826H194.843C194.817 149.649 194.513 150.314 193.931 150.821C193.348 151.328 192.645 151.581 191.822 151.581C190.935 151.581 190.194 151.34 189.599 150.859C189.016 150.378 188.718 149.7 188.706 148.826ZM212.975 163H211.74V154.298H205.565V163H204.33V153.12H212.975V163ZM216.052 155.21L215.387 154.26C215.855 153.829 216.438 153.494 217.135 153.253C217.844 153 218.534 152.873 219.206 152.873C220.523 152.873 221.53 153.215 222.227 153.899C222.923 154.57 223.272 155.558 223.272 156.863V163H222.037V161.366C221.644 161.936 221.106 162.373 220.422 162.677C219.75 162.981 219.047 163.133 218.313 163.133C217.325 163.133 216.482 162.88 215.786 162.373C215.089 161.866 214.741 161.138 214.741 160.188C214.741 158.187 216.343 157.186 219.548 157.186C220.51 157.186 221.34 157.287 222.037 157.49C222.037 156.35 221.809 155.495 221.353 154.925C220.909 154.342 220.143 154.051 219.054 154.051C218.028 154.051 217.027 154.437 216.052 155.21ZM216.831 161.537C217.363 161.841 217.971 161.993 218.655 161.993C219.339 161.993 220.004 161.784 220.65 161.366C221.308 160.948 221.771 160.422 222.037 159.789V158.611C221.441 158.408 220.669 158.307 219.719 158.307C217.261 158.307 216.033 158.909 216.033 160.112C216.033 160.745 216.299 161.22 216.831 161.537ZM226.847 166.8H225.612V153.12H226.847V154.583C227.177 154.038 227.671 153.62 228.329 153.329C228.988 153.025 229.666 152.873 230.362 152.873C231.819 152.873 232.959 153.348 233.782 154.298C234.618 155.235 235.036 156.426 235.036 157.87C235.036 159.377 234.58 160.644 233.668 161.67C232.756 162.683 231.572 163.19 230.115 163.19C228.722 163.19 227.633 162.797 226.847 162.012V166.8ZM230.248 154.051C229.501 154.051 228.811 154.273 228.177 154.716C227.544 155.147 227.101 155.71 226.847 156.407V160.245C227.569 161.423 228.646 162.012 230.077 162.012C231.179 162.012 232.06 161.619 232.718 160.834C233.39 160.036 233.725 159.08 233.725 157.965C233.725 156.825 233.415 155.888 232.794 155.153C232.186 154.418 231.338 154.051 230.248 154.051ZM239.201 154.298H235.306V153.12H244.369V154.298H240.436V163H239.201V154.298ZM254.392 163H253.157V158.554H246.868V163H245.633V153.12H246.868V157.376H253.157V153.12H254.392V163ZM264.629 160.378L265.465 161.119C265.034 161.778 264.47 162.291 263.774 162.658C263.077 163.013 262.33 163.19 261.532 163.19C259.961 163.19 258.694 162.715 257.732 161.765C256.769 160.815 256.288 159.574 256.288 158.041C256.288 156.496 256.744 155.248 257.656 154.298C258.568 153.348 259.777 152.873 261.285 152.873C261.538 152.873 261.886 152.905 262.33 152.968C263.419 153.183 264.274 153.696 264.895 154.507C265.515 155.305 265.826 156.255 265.826 157.357C265.826 157.661 265.8 158.016 265.75 158.421H257.599C257.637 159.548 258.023 160.429 258.758 161.062C259.505 161.695 260.449 162.012 261.589 162.012C262.171 162.012 262.741 161.86 263.299 161.556C263.856 161.252 264.299 160.859 264.629 160.378ZM261.19 154.032C260.202 154.032 259.378 154.33 258.72 154.925C258.061 155.52 257.681 156.306 257.58 157.281H264.496C264.47 156.255 264.16 155.457 263.565 154.887C262.982 154.317 262.19 154.032 261.19 154.032ZM268.967 166.8H267.732V153.12H268.967V154.583C269.296 154.038 269.79 153.62 270.449 153.329C271.107 153.025 271.785 152.873 272.482 152.873C273.938 152.873 275.078 153.348 275.902 154.298C276.738 155.235 277.156 156.426 277.156 157.87C277.156 159.377 276.7 160.644 275.788 161.67C274.876 162.683 273.691 163.19 272.235 163.19C270.841 163.19 269.752 162.797 268.967 162.012V166.8ZM272.368 154.051C271.62 154.051 270.93 154.273 270.297 154.716C269.663 155.147 269.22 155.71 268.967 156.407V160.245C269.689 161.423 270.765 162.012 272.197 162.012C273.299 162.012 274.179 161.619 274.838 160.834C275.509 160.036 275.845 159.08 275.845 157.965C275.845 156.825 275.534 155.888 274.914 155.153C274.306 154.418 273.457 154.051 272.368 154.051Z" fill="#878787"/>
    <path d="M300.717 0.330017V191.66H0.282694V0.330017H300.717ZM301 0.039978H0V192H301V0V0.039978Z" fill="#C2C2C2"/>
    <path d="M214.04 27.5283H86.9199V124.138H214.04V27.5283Z" fill="#DB0812"/>
    <path d="M133.29 93.8585H130.29V96.7485H133.29V93.8585ZM130.29 98.3885V100.698H137V103.698H129C126.63 103.698 126.13 102.038 126.13 100.698V94.4485C126.13 92.4485 127.07 91.2986 128.98 91.2686H131.83H134.64C136.64 91.2686 137.44 92.3286 137.44 94.2686V98.3885H130.29Z" fill="white"/>
    <path d="M141.8 91.2383H147.29L151.17 103.708H146.61L144.56 95.1682H144.21L142.16 103.708H137.92L141.8 91.2383Z" fill="white"/>
    <path d="M159 94.0785H156.09V100.869H159V94.0785ZM160.33 103.708L157.52 103.759C156.86 103.759 154.7 103.708 154.7 103.708C153.26 103.708 151.9 103.158 151.9 100.708V94.3986C151.9 92.8786 152.4 91.2685 154.77 91.2185L157.55 91.1685C158.21 91.1685 160.37 91.2185 160.37 91.2185C161.78 91.2185 163.2 91.7285 163.2 94.2185V100.509C163.2 101.999 162.74 103.618 160.33 103.658" fill="white"/>
    <path d="M184.09 94.0785H181.18V100.869H184.09V94.0785ZM185.42 103.708L182.61 103.759C181.95 103.759 179.79 103.708 179.79 103.708C178.35 103.708 176.98 103.158 176.98 100.708V94.3986C176.98 92.8786 177.49 91.2685 179.86 91.2185L182.64 91.1685C183.29 91.1685 185.46 91.2185 185.46 91.2185C186.88 91.2185 188.29 91.7285 188.29 94.2185V100.509C188.29 101.999 187.83 103.618 185.42 103.658" fill="white"/>
    <path d="M117.38 89.5583H117.83L119.83 100.788H115.32L117.38 89.5583ZM124.58 100.788L121.43 85.7883H113.85L110.72 100.788H109.63V103.788H125.55V100.788H124.58Z" fill="white"/>
    <path d="M171.58 96.5382H168.58V94.0083H171.58V96.5382ZM171.58 101.018H168.58V98.4983H171.58V101.018ZM173.84 97.4482C175.28 97.2482 175.43 96.1482 175.43 95.1782V93.4883C175.43 91.5783 173.51 91.1782 171.93 91.1782H164.4V103.718H173.5C175.13 103.718 175.78 102.828 175.78 101.328V99.7083C175.78 97.8883 175.2 97.5883 173.84 97.4583" fill="white"/>
    <path d="M191.43 103.848H189.64V91.3384H193.8V97.9584C196.91 92.2684 196.71 92.6284 196.91 92.2484C197.11 91.9564 197.381 91.7198 197.698 91.5607C198.014 91.4016 198.366 91.3251 198.72 91.3384H200.86V103.898H196.71V97.0484C196.71 97.0484 193.91 102.048 193.5 102.838C193.294 103.196 192.989 103.486 192.621 103.674C192.254 103.862 191.84 103.94 191.43 103.898" fill="white"/>
    <path d="M199 85.5884C199.013 86.2139 198.88 86.8339 198.61 87.3984C198.374 87.862 198.031 88.2629 197.61 88.5684C197.227 88.8527 196.792 89.0599 196.33 89.1783C195.878 89.2878 195.415 89.3449 194.95 89.3484C194.488 89.3454 194.028 89.2883 193.58 89.1783C193.114 89.0619 192.676 88.8546 192.29 88.5684C191.884 88.2607 191.558 87.8593 191.34 87.3984C191.062 86.8363 190.925 86.2152 190.94 85.5884H193.71C193.704 85.7736 193.737 85.958 193.806 86.13C193.875 86.302 193.978 86.4581 194.11 86.5884C194.347 86.7807 194.644 86.8834 194.95 86.8784C195.255 86.8852 195.554 86.7823 195.79 86.5884C195.922 86.4587 196.025 86.3025 196.092 86.1301C196.159 85.9578 196.189 85.7732 196.18 85.5884H199Z" fill="white"/>
    <path d="M170.13 117.428H165.56V114.338H170.13V117.428ZM173.13 114.428C173.18 113.702 172.994 112.98 172.6 112.368C172.549 112.319 172.496 112.272 172.44 112.228C171.91 111.804 171.236 111.603 170.56 111.668H165.56V109.668H172.64V106.668H164.44C164.007 106.654 163.575 106.726 163.17 106.878C162.858 107.005 162.583 107.207 162.37 107.468C162.168 107.727 162.028 108.028 161.96 108.348C161.879 108.696 161.839 109.051 161.84 109.408V117.408C161.786 118.16 162.006 118.906 162.46 119.508C162.722 119.767 163.035 119.966 163.38 120.094C163.725 120.221 164.093 120.274 164.46 120.248H170.53C170.972 120.262 171.414 120.208 171.84 120.088C172.147 120.009 172.425 119.842 172.64 119.608C172.842 119.364 172.977 119.071 173.03 118.758C173.099 118.355 173.132 117.947 173.13 117.538V114.428Z" fill="white"/>
    <path d="M102.42 119.528V103.859H97.4199V119.528H91.5499V104.408C91.5499 101.318 92.9899 99.7485 96.0299 99.7485H103.69C107.02 99.7485 108.14 101.428 108.14 104.408V119.528H102.42Z" fill="white"/>
    <path d="M117 109.389H114V112.389H117V109.389ZM114 114.048V116.428H120.83V119.528H112.66C110.22 119.528 109.66 117.818 109.66 116.408V109.958C109.66 107.878 110.66 106.718 112.59 106.688C112.59 106.688 114.91 106.688 115.52 106.688C116.13 106.688 118.41 106.688 118.41 106.688C120.48 106.688 121.3 107.778 121.3 109.818V114.048H114Z" fill="white"/>
    <path d="M142.77 109.389H139.7V112.389H142.77V109.389ZM139.77 114.048V116.428H146.6V119.528H138.43C135.99 119.528 135.43 117.818 135.43 116.408V109.958C135.43 107.878 136.43 106.718 138.37 106.688C138.37 106.688 140.69 106.688 141.3 106.688C141.91 106.688 144.19 106.688 144.19 106.688C146.26 106.688 147.08 107.778 147.08 109.818V114.048H139.77Z" fill="white"/>
    <path d="M156.24 109.589H152.93V114.339H156.24V109.589ZM157.56 117.278H153V119.708H148.72V106.708H157.64C159.78 106.708 160.64 107.879 160.64 109.859V114.149C160.64 116.229 159.8 117.298 157.64 117.298" fill="white"/>
    <path d="M196.3 109.589H193V114.339H196.31L196.3 109.589ZM197.61 117.278H193V119.708H188.73V106.708H197.65C199.79 106.708 200.65 107.879 200.65 109.859V114.149C200.65 116.229 199.8 117.298 197.65 117.298" fill="white"/>
    <path d="M182.78 119.928H178L179 117.278C178.624 117.326 178.243 117.233 177.931 117.017C177.619 116.801 177.398 116.477 177.31 116.109L173.7 106.688H178.56L180.5 113.208H180.86L182.86 106.688H187.36C187.36 106.688 182.1 121.958 182.77 119.928" fill="white"/>
    <path d="M206.12 109.619V119.528H201.81V109.818C201.81 107.908 202.65 106.688 204.81 106.688H210.18V109.619H206.12Z" fill="white"/>
    <path d="M130.81 109.719V119.528H125.84V109.719H122.41V106.769H134.31V109.719H130.81Z" fill="white"/>
</svg>
