<svg width="301" height="192" viewBox="0 0 301 192" fill="none" xmlns="http://www.w3.org/2000/svg">
    <path d="M42.3955 151.98L33.8075 163H32.6485V149.7H33.9975V160.72L42.5665 149.7H43.7445V163H42.3955V151.98ZM55.2259 163H53.9909V158.554H47.7019V163H46.4669V153.12H47.7019V157.376H53.9909V153.12H55.2259V163ZM63.7526 166.8H62.5176V163.19H62.4036C60.8203 163.19 59.5409 162.728 58.5656 161.803C57.5903 160.866 57.1026 159.624 57.1026 158.079C57.1026 156.559 57.6093 155.324 58.6226 154.374C59.6359 153.424 60.8899 152.949 62.3846 152.949H62.5176V149.13H63.7526V152.949H63.9046C65.4626 152.949 66.7293 153.424 67.7046 154.374C68.6926 155.324 69.1866 156.559 69.1866 158.079C69.1866 159.662 68.6863 160.91 67.6856 161.822C66.6976 162.734 65.4246 163.19 63.8666 163.19H63.7526V166.8ZM58.4136 158.079C58.4136 159.308 58.7746 160.27 59.4966 160.967C60.2313 161.664 61.2003 162.012 62.4036 162.012H62.5176V154.127H62.3846C61.1813 154.127 60.2186 154.488 59.4966 155.21C58.7746 155.932 58.4136 156.888 58.4136 158.079ZM63.8666 154.127H63.7526V162.012H63.8666C65.1079 162.012 66.0833 161.664 66.7926 160.967C67.5146 160.27 67.8756 159.308 67.8756 158.079C67.8756 156.901 67.5019 155.951 66.7546 155.229C66.0073 154.494 65.0446 154.127 63.8666 154.127ZM70.481 158.041C70.481 156.521 70.975 155.28 71.963 154.317C72.951 153.354 74.1923 152.873 75.687 152.873C77.207 152.873 78.4546 153.361 79.43 154.336C80.4053 155.311 80.893 156.546 80.893 158.041C80.893 159.561 80.399 160.802 79.411 161.765C78.423 162.715 77.1816 163.19 75.687 163.19C74.167 163.19 72.9193 162.709 71.944 161.746C70.9686 160.771 70.481 159.536 70.481 158.041ZM71.792 158.041C71.792 159.194 72.1593 160.144 72.894 160.891C73.6286 161.638 74.5596 162.012 75.687 162.012C76.8396 162.012 77.777 161.638 78.499 160.891C79.221 160.144 79.582 159.194 79.582 158.041C79.582 156.888 79.2146 155.938 78.48 155.191C77.758 154.431 76.827 154.051 75.687 154.051C74.5343 154.051 73.597 154.431 72.875 155.191C72.153 155.951 71.792 156.901 71.792 158.041ZM84.032 166.8H82.797V153.12H84.032V154.583C84.3613 154.038 84.8553 153.62 85.514 153.329C86.1726 153.025 86.8503 152.873 87.547 152.873C89.0036 152.873 90.1436 153.348 90.967 154.298C91.803 155.235 92.221 156.426 92.221 157.87C92.221 159.377 91.765 160.644 90.853 161.67C89.941 162.683 88.7566 163.19 87.3 163.19C85.9066 163.19 84.8173 162.797 84.032 162.012V166.8ZM87.433 154.051C86.6856 154.051 85.9953 154.273 85.362 154.716C84.7286 155.147 84.2853 155.71 84.032 156.407V160.245C84.754 161.423 85.8306 162.012 87.262 162.012C88.364 162.012 89.2443 161.619 89.903 160.834C90.5743 160.036 90.91 159.08 90.91 157.965C90.91 156.825 90.5996 155.888 89.979 155.153C89.371 154.418 88.5223 154.051 87.433 154.051ZM95.3689 163H94.1339V153.12H95.2929L99.3399 158.345L103.311 153.12H104.394V163H103.159V155.248L99.3399 160.245L95.3689 155.248V163ZM107.47 155.21L106.805 154.26C107.273 153.829 107.856 153.494 108.553 153.253C109.262 153 109.952 152.873 110.624 152.873C111.941 152.873 112.948 153.215 113.645 153.899C114.341 154.57 114.69 155.558 114.69 156.863V163H113.455V161.366C113.062 161.936 112.524 162.373 111.84 162.677C111.168 162.981 110.465 163.133 109.731 163.133C108.743 163.133 107.9 162.88 107.204 162.373C106.507 161.866 106.159 161.138 106.159 160.188C106.159 158.187 107.761 157.186 110.966 157.186C111.928 157.186 112.758 157.287 113.455 157.49C113.455 156.35 113.227 155.495 112.771 154.925C112.327 154.342 111.561 154.051 110.472 154.051C109.446 154.051 108.445 154.437 107.47 155.21ZM108.249 161.537C108.781 161.841 109.389 161.993 110.073 161.993C110.757 161.993 111.422 161.784 112.068 161.366C112.726 160.948 113.189 160.422 113.455 159.789V158.611C112.859 158.408 112.087 158.307 111.137 158.307C108.679 158.307 107.451 158.909 107.451 160.112C107.451 160.745 107.717 161.22 108.249 161.537ZM125.884 163H117.03V153.12H118.265V161.822H124.383V153.12H125.618V161.822H127.062V165.47H125.884V163ZM136.193 154.963L129.676 163H128.479V153.12H129.714V161.176L136.231 153.12H137.428V163H136.193V154.963ZM139.319 158.041C139.319 156.521 139.813 155.28 140.801 154.317C141.789 153.354 143.03 152.873 144.525 152.873C146.045 152.873 147.293 153.361 148.268 154.336C149.243 155.311 149.731 156.546 149.731 158.041C149.731 159.561 149.237 160.802 148.249 161.765C147.261 162.715 146.02 163.19 144.525 163.19C143.005 163.19 141.757 162.709 140.782 161.746C139.807 160.771 139.319 159.536 139.319 158.041ZM140.63 158.041C140.63 159.194 140.997 160.144 141.732 160.891C142.467 161.638 143.398 162.012 144.525 162.012C145.678 162.012 146.615 161.638 147.337 160.891C148.059 160.144 148.42 159.194 148.42 158.041C148.42 156.888 148.053 155.938 147.318 155.191C146.596 154.431 145.665 154.051 144.525 154.051C143.372 154.051 142.435 154.431 141.713 155.191C140.991 155.951 140.63 156.901 140.63 158.041ZM160.394 163H159.159V158.554H152.87V163H151.635V153.12H152.87V157.376H159.159V153.12H160.394V163ZM171.657 163H170.422V158.554H164.133V163H162.898V153.12H164.133V157.376H170.422V153.12H171.657V163ZM177.637 163H174.16V153.12H175.395V156.35H177.808C180.456 156.35 181.779 157.452 181.779 159.656C181.779 160.834 181.387 161.689 180.601 162.221C179.829 162.74 178.841 163 177.637 163ZM177.618 157.528H175.395V161.822H177.599C179.512 161.822 180.468 161.106 180.468 159.675C180.468 158.244 179.518 157.528 177.618 157.528ZM184.705 163H183.47V153.12H184.705V163ZM194.9 154.963L188.383 163H187.186V153.12H188.421V161.176L194.938 153.12H196.135V163H194.9V154.963ZM188.706 148.826H189.903C189.915 149.358 190.099 149.782 190.454 150.099C190.821 150.403 191.277 150.555 191.822 150.555C192.088 150.555 192.366 150.498 192.658 150.384C192.962 150.283 193.202 150.086 193.38 149.795C193.557 149.504 193.658 149.181 193.684 148.826H194.843C194.817 149.649 194.513 150.314 193.931 150.821C193.348 151.328 192.645 151.581 191.822 151.581C190.935 151.581 190.194 151.34 189.599 150.859C189.016 150.378 188.718 149.7 188.706 148.826ZM212.975 163H211.74V154.298H205.565V163H204.33V153.12H212.975V163ZM216.052 155.21L215.387 154.26C215.855 153.829 216.438 153.494 217.135 153.253C217.844 153 218.534 152.873 219.206 152.873C220.523 152.873 221.53 153.215 222.227 153.899C222.923 154.57 223.272 155.558 223.272 156.863V163H222.037V161.366C221.644 161.936 221.106 162.373 220.422 162.677C219.75 162.981 219.047 163.133 218.313 163.133C217.325 163.133 216.482 162.88 215.786 162.373C215.089 161.866 214.741 161.138 214.741 160.188C214.741 158.187 216.343 157.186 219.548 157.186C220.51 157.186 221.34 157.287 222.037 157.49C222.037 156.35 221.809 155.495 221.353 154.925C220.909 154.342 220.143 154.051 219.054 154.051C218.028 154.051 217.027 154.437 216.052 155.21ZM216.831 161.537C217.363 161.841 217.971 161.993 218.655 161.993C219.339 161.993 220.004 161.784 220.65 161.366C221.308 160.948 221.771 160.422 222.037 159.789V158.611C221.441 158.408 220.669 158.307 219.719 158.307C217.261 158.307 216.033 158.909 216.033 160.112C216.033 160.745 216.299 161.22 216.831 161.537ZM226.847 166.8H225.612V153.12H226.847V154.583C227.177 154.038 227.671 153.62 228.329 153.329C228.988 153.025 229.666 152.873 230.362 152.873C231.819 152.873 232.959 153.348 233.782 154.298C234.618 155.235 235.036 156.426 235.036 157.87C235.036 159.377 234.58 160.644 233.668 161.67C232.756 162.683 231.572 163.19 230.115 163.19C228.722 163.19 227.633 162.797 226.847 162.012V166.8ZM230.248 154.051C229.501 154.051 228.811 154.273 228.177 154.716C227.544 155.147 227.101 155.71 226.847 156.407V160.245C227.569 161.423 228.646 162.012 230.077 162.012C231.179 162.012 232.06 161.619 232.718 160.834C233.39 160.036 233.725 159.08 233.725 157.965C233.725 156.825 233.415 155.888 232.794 155.153C232.186 154.418 231.338 154.051 230.248 154.051ZM239.201 154.298H235.306V153.12H244.369V154.298H240.436V163H239.201V154.298ZM254.392 163H253.157V158.554H246.868V163H245.633V153.12H246.868V157.376H253.157V153.12H254.392V163ZM264.629 160.378L265.465 161.119C265.034 161.778 264.47 162.291 263.774 162.658C263.077 163.013 262.33 163.19 261.532 163.19C259.961 163.19 258.694 162.715 257.732 161.765C256.769 160.815 256.288 159.574 256.288 158.041C256.288 156.496 256.744 155.248 257.656 154.298C258.568 153.348 259.777 152.873 261.285 152.873C261.538 152.873 261.886 152.905 262.33 152.968C263.419 153.183 264.274 153.696 264.895 154.507C265.515 155.305 265.826 156.255 265.826 157.357C265.826 157.661 265.8 158.016 265.75 158.421H257.599C257.637 159.548 258.023 160.429 258.758 161.062C259.505 161.695 260.449 162.012 261.589 162.012C262.171 162.012 262.741 161.86 263.299 161.556C263.856 161.252 264.299 160.859 264.629 160.378ZM261.19 154.032C260.202 154.032 259.378 154.33 258.72 154.925C258.061 155.52 257.681 156.306 257.58 157.281H264.496C264.47 156.255 264.16 155.457 263.565 154.887C262.982 154.317 262.19 154.032 261.19 154.032ZM268.967 166.8H267.732V153.12H268.967V154.583C269.296 154.038 269.79 153.62 270.449 153.329C271.107 153.025 271.785 152.873 272.482 152.873C273.938 152.873 275.078 153.348 275.902 154.298C276.738 155.235 277.156 156.426 277.156 157.87C277.156 159.377 276.7 160.644 275.788 161.67C274.876 162.683 273.691 163.19 272.235 163.19C270.841 163.19 269.752 162.797 268.967 162.012V166.8ZM272.368 154.051C271.62 154.051 270.93 154.273 270.297 154.716C269.663 155.147 269.22 155.71 268.967 156.407V160.245C269.689 161.423 270.765 162.012 272.197 162.012C273.299 162.012 274.179 161.619 274.838 160.834C275.509 160.036 275.845 159.08 275.845 157.965C275.845 156.825 275.534 155.888 274.914 155.153C274.306 154.418 273.457 154.051 272.368 154.051Z" fill="#878787"/>
    <path d="M17.184 179.84V182H16.616V176.4H18.632C20.1467 176.4 20.904 176.971 20.904 178.112C20.904 178.427 20.8373 178.701 20.704 178.936C20.576 179.165 20.4 179.344 20.176 179.472C19.952 179.6 19.7093 179.693 19.448 179.752C19.192 179.811 18.9173 179.84 18.624 179.84H17.184ZM18.672 176.92H17.184V179.32H18.608C18.8267 179.32 19.0293 179.301 19.216 179.264C19.408 179.227 19.5893 179.165 19.76 179.08C19.936 178.995 20.072 178.869 20.168 178.704C20.2693 178.533 20.32 178.333 20.32 178.104C20.32 177.315 19.7707 176.92 18.672 176.92ZM24.5809 180.896L24.9329 181.208C24.7515 181.485 24.5142 181.701 24.2209 181.856C23.9275 182.005 23.6129 182.08 23.2769 182.08C22.6155 182.08 22.0822 181.88 21.6769 181.48C21.2715 181.08 21.0689 180.557 21.0689 179.912C21.0689 179.261 21.2609 178.736 21.6449 178.336C22.0289 177.936 22.5382 177.736 23.1729 177.736C23.2795 177.736 23.4262 177.749 23.6129 177.776C24.0715 177.867 24.4315 178.083 24.6929 178.424C24.9542 178.76 25.0849 179.16 25.0849 179.624C25.0849 179.752 25.0742 179.901 25.0529 180.072H21.6209C21.6369 180.547 21.7995 180.917 22.1089 181.184C22.4235 181.451 22.8209 181.584 23.3009 181.584C23.5462 181.584 23.7862 181.52 24.0209 181.392C24.2555 181.264 24.4422 181.099 24.5809 180.896ZM23.1329 178.224C22.7169 178.224 22.3702 178.349 22.0929 178.6C21.8155 178.851 21.6555 179.181 21.6129 179.592H24.5249C24.5142 179.16 24.3835 178.824 24.1329 178.584C23.8875 178.344 23.5542 178.224 23.1329 178.224ZM26.4074 182H25.8874V177.84H26.4074V179.848L28.7114 177.84H29.4234L27.1914 179.768L29.5514 182H28.8314L26.7834 180.088L26.4074 180.424V182ZM33.6594 182H33.1394V178.336H31.0674V179.08C31.0674 179.256 31.0621 179.432 31.0514 179.608C31.0408 179.779 31.0221 179.984 30.9954 180.224C30.9688 180.464 30.9234 180.685 30.8594 180.888C30.7954 181.085 30.7154 181.275 30.6194 181.456C30.5288 181.637 30.4061 181.779 30.2514 181.88C30.1021 181.981 29.9288 182.032 29.7314 182.032C29.6728 182.032 29.6274 182.029 29.5954 182.024L29.5474 181.504C29.8621 181.547 30.1074 181.365 30.2834 180.96C30.4594 180.56 30.5474 179.928 30.5474 179.064V177.84H33.6594V182ZM34.9477 178.72L34.6677 178.32C34.865 178.139 35.1104 177.997 35.4037 177.896C35.7024 177.789 35.993 177.736 36.2757 177.736C36.8304 177.736 37.2544 177.88 37.5477 178.168C37.841 178.451 37.9877 178.867 37.9877 179.416V182H37.4677V181.312C37.3024 181.552 37.0757 181.736 36.7877 181.864C36.505 181.992 36.209 182.056 35.8997 182.056C35.4837 182.056 35.129 181.949 34.8357 181.736C34.5424 181.523 34.3957 181.216 34.3957 180.816C34.3957 179.973 35.0704 179.552 36.4197 179.552C36.825 179.552 37.1744 179.595 37.4677 179.68C37.4677 179.2 37.3717 178.84 37.1797 178.6C36.993 178.355 36.6704 178.232 36.2117 178.232C35.7797 178.232 35.3584 178.395 34.9477 178.72ZM35.2757 181.384C35.4997 181.512 35.7557 181.576 36.0437 181.576C36.3317 181.576 36.6117 181.488 36.8837 181.312C37.161 181.136 37.3557 180.915 37.4677 180.648V180.152C37.217 180.067 36.8917 180.024 36.4917 180.024C35.457 180.024 34.9397 180.277 34.9397 180.784C34.9397 181.051 35.0517 181.251 35.2757 181.384ZM39.4933 182H38.9733V177.84H39.4613L41.1653 180.04L42.8373 177.84H43.2933V182H42.7733V178.736L41.1653 180.84L39.4933 178.736V182ZM44.5883 178.72L44.3083 178.32C44.5056 178.139 44.751 177.997 45.0443 177.896C45.343 177.789 45.6336 177.736 45.9163 177.736C46.471 177.736 46.895 177.88 47.1883 178.168C47.4816 178.451 47.6283 178.867 47.6283 179.416V182H47.1083V181.312C46.943 181.552 46.7163 181.736 46.4283 181.864C46.1456 181.992 45.8496 182.056 45.5403 182.056C45.1243 182.056 44.7696 181.949 44.4763 181.736C44.183 181.523 44.0363 181.216 44.0363 180.816C44.0363 179.973 44.711 179.552 46.0603 179.552C46.4656 179.552 46.815 179.595 47.1083 179.68C47.1083 179.2 47.0123 178.84 46.8203 178.6C46.6336 178.355 46.311 178.232 45.8523 178.232C45.4203 178.232 44.999 178.395 44.5883 178.72ZM44.9163 181.384C45.1403 181.512 45.3963 181.576 45.6843 181.576C45.9723 181.576 46.2523 181.488 46.5243 181.312C46.8016 181.136 46.9963 180.915 47.1083 180.648V180.152C46.8576 180.067 46.5323 180.024 46.1323 180.024C45.0976 180.024 44.5803 180.277 44.5803 180.784C44.5803 181.051 44.6923 181.251 44.9163 181.384Z" fill="#C2C2C2"/>
    <path d="M300.717 0.330017V191.66H0.282694V0.330017H300.717ZM301 0.039978H0V192H301V0V0.039978Z" fill="#C2C2C2"/>
    <path d="M90.65 94.6H64.29C56.7634 94.6 53 90.54 53 82.42V66.1801C53 58.0601 56.7634 54 64.29 54H90.65V62.12H64.29C61.7834 62.12 60.53 63.4734 60.53 66.1801V82.42C60.53 85.1334 61.7834 86.4866 64.29 86.48H90.65V94.6Z" fill="#1C3E93"/>
    <path d="M153.4 84.8699C153.4 91.7699 149.95 95.2232 143.05 95.2299H136.14C129.24 95.2299 125.79 91.7765 125.79 84.8699V76.7098C125.79 69.8098 129.24 66.3599 136.14 66.3599H143.05C149.95 66.3599 153.4 69.8098 153.4 76.7098V84.8699ZM146.5 84.8699V76.7098C146.5 74.4098 145.35 73.2599 143.05 73.2599H136.14C133.84 73.2599 132.69 74.4098 132.69 76.7098V84.8699C132.69 87.1699 133.84 88.3198 136.14 88.3198H143.05C145.35 88.3198 146.5 87.1699 146.5 84.8699Z" fill="#1C3E93"/>
    <path d="M247.53 86C247.53 91.6867 244.663 94.5533 238.93 94.6H221.8V87.7H238.93C239.161 87.7314 239.395 87.7091 239.616 87.6348C239.837 87.5604 240.037 87.4361 240.202 87.2715C240.366 87.1069 240.491 86.9066 240.565 86.686C240.639 86.4655 240.661 86.2306 240.63 86C240.668 85.7656 240.65 85.5256 240.579 85.2992C240.508 85.0728 240.385 84.866 240.22 84.6953C240.055 84.5246 239.852 84.3946 239.629 84.3156C239.405 84.2365 239.166 84.2106 238.93 84.24H228.53C222.79 84.2 219.923 81.2733 219.93 75.46C219.93 69.8133 222.797 66.99 228.53 66.99H245.66V73.89H228.53C228.301 73.863 228.069 73.8879 227.851 73.9631C227.633 74.0384 227.435 74.1618 227.272 74.3243C227.108 74.4868 226.984 74.6842 226.907 74.9016C226.831 75.119 226.804 75.3509 226.83 75.58C226.83 76.76 227.44 77.34 228.53 77.34H238.94C244.673 77.34 247.54 80.2267 247.54 86" fill="#1C3E93"/>
    <path d="M111.67 66.99H101.32V62.23L94.41 65.23V94.65H111.67C118.57 94.65 122.023 91.1967 122.03 84.29V77.39C122.03 70.49 118.577 67.04 111.67 67.04M115.12 84.29C115.12 86.59 113.97 87.75 111.67 87.75H101.32V73.9399H111.67C113.97 73.9399 115.12 75.09 115.12 77.39V84.29Z" fill="#1C3E93"/>
    <path d="M101.32 60.76V54H94.41V63.7L101.32 60.76Z" fill="#F05A30"/>
    <path d="M157.14 87.8398V94.5999H164.04V84.8999L157.14 87.8398Z" fill="#F05A30"/>
    <path d="M174.4 66.99H157.14V86.37L164.04 83.37V73.84H174.4C176.7 73.84 177.85 74.99 177.85 77.29V94.55H184.75V77.29C184.75 70.39 181.3 66.9399 174.4 66.9399" fill="#1C3E93"/>
    <path d="M209.21 54V66.9H198.86C191.947 66.9 188.493 70.3533 188.5 77.26V84.16C188.5 91.06 191.953 94.5134 198.86 94.52H216.11V54H209.21ZM209.21 87.61H198.86C196.56 87.61 195.41 86.46 195.41 84.16V77.26C195.41 74.96 196.56 73.8099 198.86 73.8099H209.21V87.61Z" fill="#1C3E93"/>
</svg>
