<svg width="301" height="192" viewBox="0 0 301 192" fill="none" xmlns="http://www.w3.org/2000/svg">
    <path d="M300.717 0.330017V191.66H0.282694V0.330017H300.717ZM301 0.039978H0V192H301V0V0.039978Z" fill="#C2C2C2"/>
    <path d="M90.65 115.6H64.29C56.7634 115.6 53 111.54 53 103.42V87.1801C53 79.0601 56.7634 75 64.29 75H90.65V83.12H64.29C61.7834 83.12 60.53 84.4734 60.53 87.1801V103.42C60.53 106.133 61.7834 107.487 64.29 107.48H90.65V115.6Z" fill="#1C3E93"/>
    <path d="M153.4 105.87C153.4 112.77 149.95 116.223 143.05 116.23H136.14C129.24 116.23 125.79 112.777 125.79 105.87V97.7098C125.79 90.8098 129.24 87.3599 136.14 87.3599H143.05C149.95 87.3599 153.4 90.8098 153.4 97.7098V105.87ZM146.5 105.87V97.7098C146.5 95.4098 145.35 94.2599 143.05 94.2599H136.14C133.84 94.2599 132.69 95.4098 132.69 97.7098V105.87C132.69 108.17 133.84 109.32 136.14 109.32H143.05C145.35 109.32 146.5 108.17 146.5 105.87Z" fill="#1C3E93"/>
    <path d="M247.53 107C247.53 112.687 244.663 115.553 238.93 115.6H221.8V108.7H238.93C239.161 108.731 239.395 108.709 239.616 108.635C239.837 108.56 240.037 108.436 240.202 108.271C240.366 108.107 240.491 107.907 240.565 107.686C240.639 107.465 240.661 107.231 240.63 107C240.668 106.766 240.65 106.526 240.579 106.299C240.508 106.073 240.385 105.866 240.22 105.695C240.055 105.525 239.852 105.395 239.629 105.316C239.405 105.237 239.166 105.211 238.93 105.24H228.53C222.79 105.2 219.923 102.273 219.93 96.46C219.93 90.8133 222.797 87.99 228.53 87.99H245.66V94.89H228.53C228.301 94.863 228.069 94.8879 227.851 94.9631C227.633 95.0384 227.435 95.1618 227.272 95.3243C227.108 95.4868 226.984 95.6842 226.907 95.9016C226.831 96.119 226.804 96.3509 226.83 96.58C226.83 97.76 227.44 98.34 228.53 98.34H238.94C244.673 98.34 247.54 101.227 247.54 107" fill="#1C3E93"/>
    <path d="M111.67 87.99H101.32V83.23L94.41 86.23V115.65H111.67C118.57 115.65 122.023 112.197 122.03 105.29V98.39C122.03 91.49 118.577 88.04 111.67 88.04M115.12 105.29C115.12 107.59 113.97 108.75 111.67 108.75H101.32V94.9399H111.67C113.97 94.9399 115.12 96.09 115.12 98.39V105.29Z" fill="#1C3E93"/>
    <path d="M101.32 81.76V75H94.41V84.7L101.32 81.76Z" fill="#F05A30"/>
    <path d="M157.14 108.84V115.6H164.04V105.9L157.14 108.84Z" fill="#F05A30"/>
    <path d="M174.4 87.99H157.14V107.37L164.04 104.37V94.84H174.4C176.7 94.84 177.85 95.99 177.85 98.29V115.55H184.75V98.29C184.75 91.39 181.3 87.9399 174.4 87.9399" fill="#1C3E93"/>
    <path d="M209.21 75V87.9H198.86C191.947 87.9 188.493 91.3533 188.5 98.26V105.16C188.5 112.06 191.953 115.513 198.86 115.52H216.11V75H209.21ZM209.21 108.61H198.86C196.56 108.61 195.41 107.46 195.41 105.16V98.26C195.41 95.96 196.56 94.8099 198.86 94.8099H209.21V108.61Z" fill="#1C3E93"/>
</svg>
