<svg width="301" height="192" viewBox="0 0 301 192" fill="none" xmlns="http://www.w3.org/2000/svg">
    <path d="M300.717 0.330017V191.66H0.282694V0.330017H300.717ZM301 0.039978H0V192H301V0V0.039978Z" fill="#C2C2C2"/>
    <path d="M90.65 94.6H64.29C56.7634 94.6 53 90.54 53 82.42V66.1801C53 58.0601 56.7634 54 64.29 54H90.65V62.12H64.29C61.7834 62.12 60.53 63.4734 60.53 66.1801V82.42C60.53 85.1334 61.7834 86.4866 64.29 86.48H90.65V94.6Z" fill="#1C3E93"/>
    <path d="M153.4 84.8699C153.4 91.7699 149.95 95.2232 143.05 95.2299H136.14C129.24 95.2299 125.79 91.7765 125.79 84.8699V76.7098C125.79 69.8098 129.24 66.3599 136.14 66.3599H143.05C149.95 66.3599 153.4 69.8098 153.4 76.7098V84.8699ZM146.5 84.8699V76.7098C146.5 74.4098 145.35 73.2599 143.05 73.2599H136.14C133.84 73.2599 132.69 74.4098 132.69 76.7098V84.8699C132.69 87.1699 133.84 88.3198 136.14 88.3198H143.05C145.35 88.3198 146.5 87.1699 146.5 84.8699Z" fill="#1C3E93"/>
    <path d="M247.53 86C247.53 91.6867 244.663 94.5533 238.93 94.6H221.8V87.7H238.93C239.161 87.7314 239.395 87.7091 239.616 87.6348C239.837 87.5604 240.037 87.4361 240.202 87.2715C240.366 87.1069 240.491 86.9066 240.565 86.686C240.639 86.4655 240.661 86.2306 240.63 86C240.668 85.7656 240.65 85.5256 240.579 85.2992C240.508 85.0728 240.385 84.866 240.22 84.6953C240.055 84.5246 239.852 84.3946 239.629 84.3156C239.405 84.2365 239.166 84.2106 238.93 84.24H228.53C222.79 84.2 219.923 81.2733 219.93 75.46C219.93 69.8133 222.797 66.99 228.53 66.99H245.66V73.89H228.53C228.301 73.863 228.069 73.8879 227.851 73.9631C227.633 74.0384 227.435 74.1618 227.272 74.3243C227.108 74.4868 226.984 74.6842 226.907 74.9016C226.831 75.119 226.804 75.3509 226.83 75.58C226.83 76.76 227.44 77.34 228.53 77.34H238.94C244.673 77.34 247.54 80.2267 247.54 86" fill="#1C3E93"/>
    <path d="M111.67 66.99H101.32V62.23L94.41 65.23V94.65H111.67C118.57 94.65 122.023 91.1967 122.03 84.29V77.39C122.03 70.49 118.577 67.04 111.67 67.04M115.12 84.29C115.12 86.59 113.97 87.75 111.67 87.75H101.32V73.9399H111.67C113.97 73.9399 115.12 75.09 115.12 77.39V84.29Z" fill="#1C3E93"/>
    <path d="M101.32 60.76V54H94.41V63.7L101.32 60.76Z" fill="#F05A30"/>
    <path d="M157.14 87.8398V94.5999H164.04V84.8999L157.14 87.8398Z" fill="#F05A30"/>
    <path d="M174.4 66.99H157.14V86.37L164.04 83.37V73.84H174.4C176.7 73.84 177.85 74.99 177.85 77.29V94.55H184.75V77.29C184.75 70.39 181.3 66.9399 174.4 66.9399" fill="#1C3E93"/>
    <path d="M209.21 54V66.9H198.86C191.947 66.9 188.493 70.3533 188.5 77.26V84.16C188.5 91.06 191.953 94.5134 198.86 94.52H216.11V54H209.21ZM209.21 87.61H198.86C196.56 87.61 195.41 86.46 195.41 84.16V77.26C195.41 74.96 196.56 73.8099 198.86 73.8099H209.21V87.61Z" fill="#1C3E93"/>
</svg>
