<svg width="386" height="242" viewBox="0 0 386 242" fill="none" xmlns="http://www.w3.org/2000/svg">
    <path d="M385.641 0.411367V241.639H0.359055V0.411367H385.641ZM386 0H0V242H386V0Z" fill="#C2C2C2"/>
    <path d="M309.324 134.004V108.896H314.209V120.818L322.305 108.896H328.181L319.743 120.681L329.001 134.004H323.023L314.209 120.886V134.004H309.324Z" fill="#2F444E"/>
    <path d="M296.752 134.004V123.517H288.28V134.004H283.396V108.896H288.28V119.144H296.752V108.896H301.671V134.004H296.752Z" fill="#2F444E"/>
    <path d="M267.306 116.309L264.129 125.464H270.347L267.306 116.309ZM273.148 134.004L271.679 129.563H262.763L261.26 134.004H256.136L265.257 108.896H269.117L278.272 134.004H273.148Z" fill="#2F444E"/>
    <path d="M243.838 122.731H238.953V129.666H243.838C246.025 129.666 247.323 128.299 247.323 126.215C247.323 124.132 246.025 122.731 243.838 122.731ZM244.112 134.004H234.068V108.896H250.67V113.269H238.987V118.359H244.146C249.167 118.359 252.276 121.604 252.276 126.181C252.242 130.759 249.167 134.004 244.112 134.004Z" fill="#2F444E"/>
    <path d="M196.116 73.9839H190.548V168.916H196.116V73.9839Z" fill="#8BC540"/>
    <path d="M91.1746 157.78H63.2654V146.609H91.1746V157.78ZM57.6631 141.007V168.916H63.2313V163.348H96.7428V141.007H57.6631Z" fill="#2F444E"/>
    <path d="M147.027 157.78H130.288V146.609H147.027V157.78ZM107.947 146.609H124.72V157.78H107.947V146.609ZM102.345 141.007V163.348H124.686V168.916H130.254V163.348H152.595V141.007H102.345Z" fill="#2F444E"/>
    <path d="M152.595 129.836H57.6631V135.439H152.595V129.836Z" fill="#2F444E"/>
    <path d="M144.226 74.018L135.857 82.3874V73.9839H127.487L113.516 87.9556V124.268H119.118V90.7567L130.288 79.5862V124.268H135.857V90.7567L147.027 79.5862V124.268H152.63V73.9839L144.226 74.018Z" fill="#2F444E"/>
    <path d="M74.4359 79.5862V118.666H63.2654V90.7567L74.4359 79.5862ZM57.6631 124.268H80.0041V73.9839H71.6348L57.6631 87.9556V124.268Z" fill="#2F444E"/>
    <path d="M91.1746 79.5862H102.345V118.666H91.1746V79.5862ZM107.947 73.9839H85.6064V124.234H107.947V73.9839Z" fill="#2F444E"/>
</svg>
