<svg width="386" height="243" viewBox="0 0 386 243" fill="none" xmlns="http://www.w3.org/2000/svg">
    <path d="M385.641 0.413067V242.637H0.359055V0.413067H385.641ZM386 0H0V243H386V0Z" fill="#C2C2C2"/>
    <path d="M321.444 133.617L312.644 120.499L320.733 108.604H326.554L318.161 120.329L327.4 133.617H321.444ZM307.906 108.604H312.779V133.617H307.736L307.906 108.604Z" fill="#2F444E"/>
    <path d="M296.495 133.617L286.579 118.256V133.617H281.705V108.604H286.071L295.988 123.931V108.604H300.861V133.617H296.495Z" fill="#2F444E"/>
    <path d="M266.545 115.979L263.398 125.087H269.625L266.545 115.979ZM272.4 133.617L270.911 129.199H262.01L260.521 133.617H255.41L264.684 108.604H268.508L277.646 133.617H272.4Z" fill="#2F444E"/>
    <path d="M243.328 123.116H238.217V129.267H243.328C243.762 129.334 244.204 129.302 244.624 129.175C245.044 129.048 245.43 128.828 245.755 128.531C246.079 128.235 246.333 127.869 246.499 127.462C246.665 127.054 246.738 126.614 246.713 126.175C246.739 125.736 246.666 125.297 246.5 124.891C246.335 124.484 246.079 124.12 245.754 123.826C245.429 123.532 245.042 123.316 244.622 123.193C244.202 123.07 243.76 123.044 243.328 123.116ZM242.99 112.92H238.217V118.698H242.99C245.088 118.698 246.374 117.542 246.374 115.809C246.374 114.076 245.223 112.92 242.99 112.92ZM243.802 133.583H233.344V108.604H243.497C244.477 108.474 245.474 108.562 246.417 108.86C247.36 109.158 248.227 109.66 248.956 110.331C249.685 111.001 250.259 111.824 250.637 112.741C251.016 113.658 251.189 114.647 251.146 115.639C251.148 116.7 250.862 117.741 250.32 118.651C249.777 119.561 248.998 120.306 248.066 120.805C249.13 121.285 250.023 122.078 250.628 123.08C251.232 124.081 251.519 125.243 251.451 126.412C251.521 127.421 251.366 128.433 250.997 129.374C250.628 130.315 250.054 131.162 249.318 131.852C248.582 132.543 247.702 133.059 246.742 133.365C245.782 133.67 244.766 133.756 243.768 133.617" fill="#2F444E"/>
    <path d="M195.741 73.8718H190.225V168.316H195.741V73.8718Z" fill="#8BC540"/>
    <path d="M91.7683 157.236H64.117V146.123H91.7683V157.236ZM58.5664 140.55V168.349H64.117V162.776H97.3189V140.55H58.5664Z" fill="#2F444E"/>
    <path d="M147.105 157.236H130.521V146.123H147.105V157.236ZM108.387 146.123H124.971V157.236H108.387V146.123ZM102.836 140.55V162.776H124.971V168.349H130.521V162.776H152.656V140.55H102.836Z" fill="#2F444E"/>
    <path d="M152.621 129.437H58.5664V134.976H152.621V129.437Z" fill="#2F444E"/>
    <path d="M144.363 73.9058L136.037 82.2321V73.8718H127.745L113.902 87.7716V123.897H119.453V90.5584L130.52 79.4453V123.897H136.037V90.5584L147.104 79.4453V123.897H152.655V73.8718L144.363 73.9058Z" fill="#2F444E"/>
    <path d="M75.1504 79.4453V118.324H64.117V90.5244L75.1504 79.4453ZM58.5664 123.897H80.701V73.8718H72.409L58.5664 87.7716V123.897Z" fill="#2F444E"/>
    <path d="M91.7667 79.4453H102.834V118.324H91.7667V79.4453ZM108.385 73.8718H86.25V123.897H108.385V73.8718Z" fill="#2F444E"/>
</svg>
