<svg width="386" height="243" viewBox="0 0 386 243" fill="none" xmlns="http://www.w3.org/2000/svg">
    <path d="M385.641 0.413067V242.637H0.368696V0.413067H385.641ZM386 0.0402797H0V243H385.97V0L386 0.0402797Z" fill="#C2C2C2"/>
    <g clip-path="url(#clip0_522_650)">
        <path d="M203.595 106.4H201.508V136.804H203.595V106.4Z" fill="#D10000"/>
        <path d="M33 106.464H53.4535V111.761H40.0669V118.803H50.7737V123.753H40.0669V131.239H54.1506V136.54H33V106.464Z" fill="black"/>
        <path d="M57.4863 121.688V121.352C57.4863 112.226 64.1567 106 73.0728 106C80.6239 106 86.2382 109.533 86.9853 116.935H79.693C79.1671 113.334 77.0591 111.385 73.1103 111.385C68.1514 111.385 64.9915 115.086 64.9915 121.312V121.648C64.9915 127.874 67.9761 131.491 73.1562 131.491C77.0591 131.491 79.7807 129.598 80.3525 125.729H87.3276C86.5387 133.175 80.9662 137 73.2439 137C62.9712 137 57.4863 130.942 57.4863 121.688Z" fill="black"/>
        <path d="M90.75 121.688V121.352C90.75 112.402 97.5957 106.04 106.883 106.04C116.317 106.04 123.033 112.142 123.033 121.184V121.52C123.033 130.482 116.626 137 106.842 137C97.0572 137 90.75 130.482 90.75 121.688ZM115.649 121.604V121.268C115.649 115.422 112.402 111.425 106.917 111.425C101.432 111.425 98.1842 115.254 98.1842 121.312V121.648C98.1842 127.79 101.87 131.575 107.004 131.575C112.31 131.575 115.649 127.662 115.649 121.604Z" fill="black"/>
        <path d="M128.623 106.464H136.875L148.809 126.273V106.464H155.129V136.54H148.033L134.943 115.126V136.54H128.623V106.464Z" fill="black"/>
        <path d="M160.35 127.117H167.154C167.458 129.81 168.644 132.039 173.294 132.039C176.412 132.039 178.474 130.398 178.474 128.038C178.474 125.677 177.159 124.797 172.551 124.125C164.52 123.116 161.226 120.804 161.226 114.998C161.226 109.869 165.705 106.04 172.638 106.04C179.701 106.04 183.829 109.069 184.397 115.042H177.844C177.405 112.31 175.736 111.041 172.622 111.041C169.508 111.041 167.926 112.43 167.926 114.446C167.926 116.591 168.936 117.603 173.77 118.275C181.371 119.203 185.278 121.204 185.278 127.41C185.278 132.751 180.711 137.012 173.294 137.012C164.695 137 160.729 133.131 160.35 127.117Z" fill="black"/>
        <path d="M212.422 106.464H219.735V108.113H214.601V111.201H218.725V112.77H214.601V116.047H220.027V117.695H212.422V106.464Z" fill="black"/>
        <path d="M221.389 112.142V112.002C221.389 108.629 223.814 106.276 227.07 106.276C229.75 106.276 231.828 107.56 232.079 110.197H229.871C229.637 108.721 228.769 107.953 227.099 107.953C225.037 107.953 223.693 109.493 223.693 112.002V112.126C223.693 114.65 224.945 116.127 227.116 116.127C228.735 116.127 229.879 115.326 230.109 113.758H232.233C231.891 116.455 229.896 117.819 227.116 117.819C223.434 117.835 221.389 115.603 221.389 112.142Z" fill="black"/>
        <path d="M233.678 112.142V112.002C233.678 108.721 236.132 106.292 239.601 106.292C243.07 106.292 245.495 108.661 245.495 111.954V112.078C245.495 115.359 243.153 117.819 239.601 117.819C236.049 117.819 233.678 115.375 233.678 112.142ZM243.237 112.11V112.002C243.237 109.697 241.893 108.001 239.601 108.001C237.309 108.001 235.953 109.601 235.953 112.002V112.126C235.953 114.574 237.51 116.159 239.634 116.159C241.842 116.159 243.237 114.542 243.237 112.11Z" fill="black"/>
        <path d="M247.752 106.464H250.352L255.278 114.574V106.464H257.257V117.667H254.998L249.731 109.085V117.679H247.752V106.464Z" fill="black"/>
        <path d="M259.516 112.142V112.002C259.516 108.721 261.97 106.292 265.439 106.292C268.908 106.292 271.345 108.677 271.345 111.97V112.094C271.345 115.375 269.008 117.835 265.456 117.835C261.903 117.835 259.516 115.375 259.516 112.142ZM269.07 112.11V112.002C269.07 109.697 267.73 108.001 265.439 108.001C263.147 108.001 261.791 109.601 261.791 112.002V112.126C261.791 114.574 263.343 116.159 265.472 116.159C267.68 116.159 269.07 114.542 269.07 112.11Z" fill="black"/>
        <path d="M273.588 106.464H276.51L279.586 114.118L282.596 106.464H285.476V117.667H283.301V109.201L279.816 117.671H279.11L275.554 109.201V117.679H273.588V106.464Z" fill="black"/>
        <path d="M288.381 106.464H290.572V117.667H288.381V106.464Z" fill="black"/>
        <path d="M292.914 112.142V112.002C292.914 108.629 295.335 106.276 298.591 106.276C301.275 106.276 303.354 107.56 303.6 110.197H301.4C301.154 108.705 300.29 107.937 298.603 107.937C296.541 107.937 295.197 109.477 295.197 111.986V112.11C295.197 114.634 296.45 116.111 298.62 116.111C300.24 116.111 301.384 115.31 301.613 113.742H303.742C303.395 116.439 301.4 117.803 298.62 117.803C294.959 117.835 292.914 115.603 292.914 112.142Z" fill="black"/>
        <path d="M211.834 130.947V130.807C211.834 127.434 214.255 125.081 217.511 125.081C220.195 125.081 222.274 126.365 222.52 129.002H220.312C220.065 127.514 219.197 126.741 217.511 126.741C215.449 126.741 214.109 128.282 214.109 130.791V130.915C214.109 133.439 215.361 134.916 217.528 134.916C219.147 134.916 220.295 134.115 220.525 132.547H222.649C222.307 135.244 220.312 136.608 217.528 136.608C213.879 136.64 211.834 134.407 211.834 130.947Z" fill="black"/>
        <path d="M224.123 130.946V130.806C224.123 127.526 226.577 125.097 230.046 125.097C233.515 125.097 235.936 127.466 235.936 130.758V130.882C235.936 134.163 233.598 136.624 230.046 136.624C226.494 136.624 224.123 134.179 224.123 130.946ZM233.678 130.914V130.806C233.678 128.502 232.338 126.805 230.046 126.805C227.755 126.805 226.398 128.406 226.398 130.838V130.962C226.398 133.411 227.951 134.995 230.08 134.995C232.288 134.963 233.678 133.347 233.678 130.914Z" fill="black"/>
        <path d="M238.193 125.269H240.794L245.719 133.379V125.269H247.702V136.472H245.465L240.176 127.89V136.484H238.193V125.269Z" fill="black"/>
        <path d="M249.586 125.269H251.857L254.904 134.367L257.964 125.269H260.009L256.048 136.472H253.543L249.586 125.269Z" fill="black"/>
        <path d="M261.887 125.269H269.204V126.917H264.066V130.006H268.19V131.575H264.066V134.852H269.492V136.5H261.887V125.269Z" fill="black"/>
        <path d="M271.609 125.269H275.521C278.088 125.269 279.887 126.273 279.887 128.562V128.626C279.887 130.382 278.743 131.275 277.286 131.639L280.576 136.484H278.234L275.174 131.951H273.784V136.484H271.609V125.269ZM275.537 130.47C276.994 130.47 277.762 129.874 277.762 128.682V128.618C277.762 127.334 276.927 126.893 275.537 126.893H273.784V130.47H275.537Z" fill="black"/>
        <path d="M281.605 133.003H283.693C283.839 134.131 284.315 135.072 286.293 135.072C287.587 135.072 288.501 134.383 288.501 133.347C288.501 132.311 287.963 131.919 286.064 131.623C283.267 131.259 281.939 130.446 281.939 128.342C281.939 126.509 283.576 125.141 286.013 125.141C288.518 125.141 290.042 126.237 290.271 128.386H288.272C288.059 127.21 287.358 126.71 286.013 126.71C284.669 126.71 284.001 127.322 284.001 128.182C284.001 129.042 284.394 129.546 286.422 129.83C289.173 130.19 290.597 130.943 290.597 133.187C290.597 135.132 288.877 136.652 286.293 136.652C283.112 136.64 281.781 135.12 281.605 133.003Z" fill="black"/>
        <path d="M295.482 125.269H298.328L302.189 136.472H299.931L299 133.695H294.534L293.616 136.472H291.57L295.482 125.269ZM295.039 132.187H298.479L296.763 126.985L295.039 132.187Z" fill="black"/>
        <path d="M305.332 126.917H302.076V125.269H310.779V126.917H307.523V136.484H305.332V126.917Z" fill="black"/>
        <path d="M312.762 125.269H314.953V136.472H312.762V125.269Z" fill="black"/>
        <path d="M317.291 130.946V130.806C317.291 127.526 319.745 125.097 323.214 125.097C326.683 125.097 329.108 127.466 329.108 130.758V130.882C329.108 134.163 326.766 136.624 323.214 136.624C319.662 136.624 317.291 134.179 317.291 130.946ZM326.85 130.914V130.806C326.85 128.502 325.506 126.805 323.214 126.805C320.923 126.805 319.566 128.406 319.566 130.838V130.962C319.566 133.411 321.123 134.995 323.248 134.995C325.46 134.963 326.862 133.347 326.862 130.914H326.85Z" fill="black"/>
        <path d="M331.365 125.269H333.957L338.883 133.379V125.269H340.862V136.472H338.603L333.344 127.89V136.484H331.365V125.269Z" fill="black"/>
        <path d="M343 133.003H345.087C345.237 134.131 345.709 135.072 347.692 135.072C348.982 135.072 349.9 134.383 349.9 133.347C349.9 132.311 349.361 131.919 347.462 131.623C344.666 131.259 343.338 130.446 343.338 128.342C343.338 126.509 344.974 125.141 347.412 125.141C349.917 125.141 351.436 126.237 351.666 128.386H349.67C349.457 127.21 348.756 126.71 347.412 126.71C346.068 126.71 345.4 127.322 345.4 128.182C345.4 129.042 345.793 129.546 347.821 129.83C350.572 130.19 351.995 130.943 351.995 133.187C351.995 135.132 350.276 136.652 347.692 136.652C344.503 136.64 343.163 135.12 343 133.003Z" fill="black"/>
    </g>
    <defs>
        <clipPath id="clip0_522_650">
            <rect width="319" height="31" fill="white" transform="translate(33 106)"/>
        </clipPath>
    </defs>
</svg>
