<svg width="386" height="243" viewBox="0 0 386 243" fill="none" xmlns="http://www.w3.org/2000/svg">
    <path d="M385.641 0.413067V242.637H0.368696V0.413067H385.641ZM386 0.0402797H0V243H385.97V0L386 0.0402797Z" fill="#C2C2C2"/>
    <g clip-path="url(#clip0_522_512)">
        <path d="M206.683 115.226H208.712C208.959 116.71 209.913 117.456 211.482 117.456C213.264 117.456 214.481 116.233 214.65 114.113H210.003V112.535H214.665C214.449 110.51 213.343 109.377 211.588 109.377C210.019 109.377 209.081 110.167 208.865 111.67H206.82C207.189 108.979 208.959 107.723 211.62 107.723C214.759 107.723 216.851 109.922 216.851 113.249V113.375C216.851 116.793 214.787 119.114 211.467 119.114C208.959 119.094 206.942 117.78 206.683 115.226Z" fill="black"/>
        <path d="M218.975 107.877H221.019V112.894L225.234 107.862H227.444L222.88 113.154L227.664 118.941H225.25L221.019 113.774V118.941H218.975V107.877Z" fill="black"/>
        <path d="M227.789 113.478V113.356C227.789 110.123 230.097 107.723 233.358 107.723C236.619 107.723 238.896 110.06 238.896 113.308V113.431C238.896 116.667 236.694 119.094 233.358 119.094C230.022 119.094 227.789 116.667 227.789 113.478ZM236.772 113.446V113.324C236.772 111.051 235.513 109.377 233.358 109.377C231.203 109.377 229.928 110.956 229.928 113.356V113.478C229.928 115.893 231.388 117.456 233.389 117.456C235.466 117.441 236.772 115.846 236.772 113.446Z" fill="black"/>
        <path d="M241.019 107.877H243.063V112.582H248.004V107.877H250.065V118.929H248.004V114.236H243.063V118.94H241.019V107.877Z" fill="black"/>
        <path d="M252.169 113.478V113.356C252.169 110.131 254.481 107.723 257.742 107.723C261.003 107.723 263.279 110.06 263.279 113.308V113.431C263.279 116.667 261.082 119.094 257.742 119.094C254.402 119.094 252.169 116.667 252.169 113.478ZM261.152 113.446V113.324C261.152 111.051 259.893 109.377 257.738 109.377C255.583 109.377 254.308 110.956 254.308 113.356V113.478C254.308 115.893 255.768 117.456 257.769 117.456C259.849 117.441 261.156 115.846 261.156 113.446H261.152Z" fill="black"/>
        <path d="M265.402 107.877H268.15L271.042 115.428L273.872 107.877H276.58V118.929H274.539V110.585L271.262 118.94H270.599L267.263 110.585V118.94H265.414L265.402 107.877Z" fill="black"/>
        <path d="M279.248 118.94V107.889H281.308V116.178L286.41 107.889H288.471V118.94H286.41V110.601L281.308 118.94H279.248Z" fill="black"/>
        <path d="M297.325 118.94V114.019C296.509 114.616 295.519 114.922 294.511 114.887C292.125 114.887 290.755 113.446 290.755 110.679V107.877H292.819V110.77C292.819 112.471 293.51 113.261 294.88 113.261C296.65 113.261 297.325 112.286 297.325 112.286V107.877H299.369V118.929L297.325 118.94Z" fill="black"/>
        <path d="M302.05 107.877H308.926V109.503H304.095V112.535H307.972V114.078H304.095V117.314H309.196V118.94H302.05V107.877Z" fill="black"/>
        <path d="M310.479 113.478V113.356C310.479 110.028 312.756 107.708 315.817 107.708C318.34 107.708 320.295 108.974 320.526 111.575H318.45C318.219 110.107 317.406 109.349 315.821 109.349C313.882 109.349 312.618 110.865 312.618 113.34V113.462C312.618 115.953 313.796 117.409 315.837 117.409C317.359 117.409 318.435 116.62 318.65 115.072H320.652C320.326 117.733 318.45 119.079 315.837 119.079C312.403 119.094 310.479 116.884 310.479 113.478Z" fill="black"/>
        <path d="M322.587 107.877H324.632V112.894L328.847 107.862H331.052L326.492 113.154L331.276 118.941H328.862L324.632 113.774V118.941H322.587V107.877Z" fill="black"/>
        <path d="M332.878 118.94V107.889H334.938V116.178L340.04 107.889H342.101V118.94H340.04V110.601L334.938 118.94H332.878Z" fill="black"/>
        <path d="M344.788 118.94V107.889H346.852V116.178L351.954 107.889H354.015V118.94H351.954V110.601L346.852 118.94H344.788ZM347.143 105H348.56C348.603 105.525 348.834 106.006 349.372 106.006C349.91 106.006 350.2 105.541 350.282 105H351.652C351.646 105.294 351.582 105.583 351.464 105.851C351.345 106.12 351.175 106.362 350.963 106.563C350.751 106.765 350.501 106.922 350.228 107.026C349.955 107.129 349.664 107.177 349.372 107.167C349.083 107.177 348.794 107.129 348.524 107.025C348.254 106.921 348.007 106.763 347.799 106.561C347.591 106.358 347.425 106.116 347.313 105.848C347.2 105.579 347.142 105.291 347.143 105Z" fill="black"/>
        <path d="M207.429 126.428H210.961C213.425 126.428 215.038 127.525 215.038 129.85V129.909C215.038 132.245 213.363 133.283 211.008 133.283H209.469V137.491H207.429V126.428ZM210.961 131.796C212.315 131.796 213.041 131.132 213.041 129.909V129.865C213.041 128.547 212.256 128.038 210.961 128.038H209.469V131.811L210.961 131.796Z" fill="black"/>
        <path d="M219.002 126.428H221.682L225.312 137.479H223.189L222.31 134.74H218.111L217.239 137.491H215.316L219.002 126.428ZM218.59 133.252H221.835L220.218 128.121L218.59 133.252Z" fill="black"/>
        <path d="M226.235 133.899H228.198C228.382 135.083 228.92 135.991 230.49 135.991C231.875 135.991 232.597 135.277 232.597 134.132C232.597 132.987 232.028 132.51 230.505 132.51H229.249V131.085H230.466C231.726 131.085 232.22 130.465 232.22 129.447C232.22 128.429 231.588 127.912 230.497 127.912C229.265 127.912 228.712 128.516 228.48 129.707H226.557C226.82 127.466 228.28 126.274 230.572 126.274C232.774 126.274 234.265 127.497 234.265 129.289C234.293 129.849 234.125 130.402 233.791 130.852C233.458 131.301 232.978 131.62 232.436 131.752C233.896 131.969 234.697 132.865 234.697 134.242C234.697 136.267 232.974 137.645 230.466 137.645C227.958 137.645 226.483 136.145 226.235 133.899Z" fill="black"/>
        <path d="M236.773 126.428H243.444V128.085H238.825V137.491H236.765L236.773 126.428Z" fill="black"/>
        <path d="M244.358 132.028V131.906C244.358 128.681 246.674 126.274 249.927 126.274C253.181 126.274 255.465 128.61 255.465 131.859V131.981C255.465 135.217 253.263 137.645 249.927 137.645C246.591 137.645 244.358 135.217 244.358 132.028ZM253.346 131.997V131.874C253.346 129.601 252.082 127.927 249.931 127.927C247.781 127.927 246.501 129.506 246.501 131.906V132.028C246.501 134.444 247.961 136.007 249.963 136.007C252.035 135.991 253.346 134.396 253.346 131.997Z" fill="black"/>
        <path d="M257.588 126.428H261.512C263.773 126.428 265.115 127.296 265.115 129.305V129.368C265.153 129.906 264.998 130.44 264.679 130.874C264.361 131.308 263.899 131.614 263.377 131.736C264.868 132.06 265.574 132.881 265.574 134.349V134.412C265.574 136.469 264.22 137.507 261.807 137.507H257.588V126.428ZM261.281 131.085C262.635 131.085 263.157 130.592 263.157 129.459V129.4C263.157 128.346 262.556 127.9 261.25 127.9H259.586V131.085H261.281ZM261.587 136.023C262.957 136.023 263.589 135.403 263.589 134.258V134.207C263.589 133.062 262.957 132.49 261.45 132.49H259.586V136.042L261.587 136.023Z" fill="black"/>
        <path d="M267.082 132.028V131.906C267.082 128.673 269.39 126.274 272.651 126.274C275.912 126.274 278.193 128.61 278.193 131.859V131.981C278.193 135.217 275.991 137.645 272.651 137.645C269.311 137.645 267.082 135.217 267.082 132.028ZM276.069 131.997V131.874C276.069 129.601 274.806 127.927 272.651 127.927C270.496 127.927 269.221 129.506 269.221 131.906V132.028C269.221 134.444 270.685 136.007 272.682 136.007C274.77 135.991 276.081 134.396 276.081 131.997H276.069Z" fill="black"/>
        <path d="M280.327 126.428H283.859C286.32 126.428 287.937 127.525 287.937 129.85V129.909C287.937 132.245 286.261 133.283 283.906 133.283H282.388V137.491H280.343L280.327 126.428ZM283.859 131.796C285.213 131.796 285.935 131.132 285.935 129.909V129.865C285.935 128.547 285.15 128.038 283.859 128.038H282.388V131.811L283.859 131.796Z" fill="black"/>
        <path d="M198.724 107.814H196.762V137.807H198.724V107.814Z" fill="#D10000"/>
        <path d="M32 127.17H38.6443C39.2212 130.864 41.572 132.628 45.2847 132.628C49.4526 132.628 52.2194 129.992 52.8003 125.054H41.419V119.998H52.8356C52.2194 115.309 49.5782 112.775 45.6144 112.775C41.7801 112.775 39.6726 114.603 39.1388 118.254H32.3925C33.3187 110.822 38.2322 107.419 45.6968 107.419C54.0326 107.419 60.0176 113.312 60.0176 122.11V122.441C60.0176 131.819 54.6527 138 45.2023 138C38.1066 138 32.7417 134.31 32 127.17Z" fill="black"/>
        <path d="M64.8408 107.877H71.5126V120.657L81.8421 107.834H88.9377L77.2621 121.9L89.5147 137.546H81.7165L71.5126 124.225V137.546H64.8408V107.877Z" fill="black"/>
        <path d="M89.1455 122.899V122.564C89.1455 113.727 95.5818 107.463 104.326 107.463C113.199 107.463 119.518 113.478 119.518 122.398V122.733C119.518 131.571 113.494 138 104.294 138C95.0952 138 89.1455 131.571 89.1455 122.899ZM112.54 122.816V122.481C112.54 116.714 109.487 112.771 104.326 112.771C99.165 112.771 96.1156 116.549 96.1156 122.524V122.856C96.1156 128.914 99.581 132.648 104.408 132.648C109.404 132.648 112.54 128.792 112.54 122.816Z" fill="black"/>
        <path d="M124.338 107.877H131.01V119.998H142.854V107.877H149.526V137.546H142.854V125.311H131.021V137.546H124.35L124.338 107.877Z" fill="black"/>
        <path d="M154.333 122.899V122.564C154.333 113.561 160.612 107.419 168.983 107.419C176.079 107.419 181.362 110.905 182.06 118.21H175.212C174.717 114.658 172.735 112.732 169.023 112.732C164.36 112.732 161.389 116.383 161.389 122.524V122.856C161.389 128.997 164.195 132.565 169.066 132.565C172.735 132.565 175.294 130.698 175.832 126.882H182.39C181.648 134.227 176.424 138 169.148 138C159.494 138 154.333 132.028 154.333 122.899Z" fill="black"/>
    </g>
    <defs>
        <clipPath id="clip0_522_512">
            <rect width="322" height="33" fill="white" transform="translate(32 105)"/>
        </clipPath>
    </defs>
</svg>
