<svg width="386" height="243" viewBox="0 0 386 243" fill="none" xmlns="http://www.w3.org/2000/svg">
    <path d="M385.641 0.413067V242.637H0.359055V0.413067H385.641ZM386 0.0402797H0V243H386V0V0.0402797Z" fill="#C2C2C2"/>
    <g clip-path="url(#clip0_474_670)">
        <path d="M183.051 104.731L179.299 102.933C179.901 102.735 183.749 101.286 187.649 100.587C196.194 99.2696 203.349 97.9519 207.338 96.6837C212.085 95.1882 214.882 92.8856 214.882 92.8856C214.882 92.8856 214.931 93.1886 214.98 95.3858C210.698 100.185 194.198 102.488 190.933 103.084C187.669 103.68 183.027 104.731 183.027 104.731M177.427 107.129C177.427 107.129 175.178 106.141 174.917 105.443C175.228 105.068 175.579 104.728 175.965 104.431C177.095 105.199 178.373 105.723 179.717 105.97C179.078 106.23 177.427 107.129 177.427 107.129ZM174.957 110.015L173.639 108.216L173.6 107.614C173.712 108.256 175.698 108.668 175.698 108.668L174.957 110.015ZM180.254 96.2357C184.207 94.9411 198.243 92.6879 201.389 91.9369C204.386 91.2781 209.736 89.3938 209.736 89.3938C209.736 89.3938 212.783 90.6423 212.684 90.8432C212.586 91.0442 210.085 92.3454 206.426 93.4785C202.766 94.6117 186.799 97.6357 183.317 98.2879C179.835 98.9402 175.319 101.286 175.319 101.286L173.178 99.6879C174.423 97.9882 180.27 96.2357 180.27 96.2357M172.236 103.983C171.37 103.72 171.149 101.734 171.149 101.734C171.702 102.218 172.321 102.621 172.987 102.933C172.645 103.207 172.385 103.571 172.236 103.983ZM170.974 97.4875L170.276 97.3853C170.276 97.3853 169.617 96.1402 170.576 95.1388C171.534 94.1373 174.222 91.3966 183.571 89.2094C192.92 87.0221 199.758 86.1129 204.9 87.6611C205.306 87.9082 204.699 88.007 204.699 88.007C204.699 88.007 191.852 90.6423 187.863 91.3571C183.874 92.0719 173.672 94.3218 170.974 97.5039M205.763 83.0823C205.763 83.0823 209.66 84.2056 210.408 84.7294C210.108 85.7802 208.613 86.528 208.613 86.528C208.613 86.528 205.164 85.1082 203.138 84.8809C204.132 84.4712 205.03 83.8586 205.773 83.0823M207.644 81.5868C208.092 81.511 208.847 80.0122 208.847 80.0122C210.342 81.0004 210.869 81.735 211.018 82.5585C210.494 82.2588 207.196 81.6593 207.644 81.5868ZM213.491 86.528C215.178 87.055 214.48 88.9656 214.48 88.9656C214.48 88.9656 212.154 87.727 212.457 87.727C212.754 87.3548 213.505 86.528 213.505 86.528M218.004 96.4103C219.651 93.8639 217.777 92.2136 216.874 90.863C217.253 89.7397 218.228 86.887 214.48 84.4164C215.079 81.8701 212.006 79.1689 209.16 77.8974C209.084 76.0197 203.458 71.151 193.793 71.151C184.128 71.151 178.64 75.1237 178.64 75.1237C180.366 74.376 186.961 72.4885 193.035 72.4885C202.324 72.6367 205.622 76.4612 205.622 76.4612C205.622 76.4612 199.402 74.5901 190.33 75.0381C182.24 75.3379 173.395 79.9793 173.395 79.9793C173.395 79.9793 172.407 80.7995 172.641 81.4023C177.949 79.0388 183.579 77.479 189.346 76.7741C198.796 75.575 205.984 78.7242 205.984 78.7242C205.984 78.7242 204.996 80.223 204.116 80.6743C198.945 79.3995 191.819 79.3204 184.25 80.447C176.68 81.5736 169.331 87.1209 169.331 87.1209C169.331 87.1209 168.342 88.1684 169.11 88.6197C171.132 87.4207 176.904 83.5204 186.275 82.0315C195.647 80.5426 200.664 81.656 201.791 82.407C200.664 83.0658 191.444 84.3538 184.101 86.0042C176.759 87.6545 171.808 90.4282 169.561 92.4508C168.515 93.4179 167.848 94.7272 167.682 96.1424C167.516 97.5577 167.861 98.9857 168.655 100.169C168.507 100.917 167.008 103.545 170.984 105.568C170.908 106.994 168.958 109.686 175.105 112.538C175.629 115.987 181.548 120.335 190.996 121.534C200.513 122.806 205.385 118.613 205.385 118.613C205.385 118.613 199.913 120.635 191.971 120.036C184.622 120.036 178.465 114.189 178.465 114.189C178.465 114.189 182.214 116.883 193.529 117.934C204.923 118.385 210.919 114.64 210.919 114.64L211.37 113.892C209.199 114.64 201.85 116.29 193.829 116.198C185.808 116.106 177.955 111.412 177.955 111.412L178.103 110.44C178.103 110.44 177.879 109.781 178.627 109.989C179.374 110.196 185.748 114.037 197.139 113.81C208.53 113.582 214.381 109.916 214.381 109.916C214.381 109.916 215.132 108.865 214.756 108.865C208.726 111.062 202.362 112.204 195.944 112.242C188.894 112.242 181.025 108.641 181.025 108.641L184.026 107.446C184.026 107.446 189.197 109.616 199.989 109.313C210.78 109.01 217.303 103.694 217.303 103.694C217.303 103.694 217.53 103.545 217.454 103.094C212.434 105.568 205.312 107.376 199.995 107.742C194.679 108.108 188.901 106.395 188.901 106.395C188.901 106.395 194.448 105.644 203.441 103.759C213.04 102.333 217.988 96.4136 217.988 96.4136M193.137 129.48C186.606 129.479 180.223 127.542 174.793 123.913C169.363 120.285 165.131 115.127 162.633 109.094C160.134 103.06 159.481 96.4208 160.755 90.0158C162.03 83.6107 165.175 77.7274 169.793 73.1097C174.411 68.4921 180.294 65.3476 186.7 64.0738C193.105 62.7999 199.744 63.454 205.777 65.9534C211.811 68.4527 216.968 72.6849 220.596 78.115C224.224 83.5451 226.161 89.9291 226.161 96.4597C226.148 105.214 222.665 113.606 216.475 119.796C210.284 125.986 201.891 129.469 193.137 129.48ZM193.137 62C186.322 62.0007 179.66 64.0222 173.993 67.8091C168.327 71.596 163.91 76.9781 161.303 83.2748C158.695 89.5716 158.013 96.5002 159.343 103.184C160.673 109.869 163.955 116.009 168.775 120.828C173.594 125.646 179.734 128.928 186.419 130.257C193.103 131.587 200.032 130.904 206.328 128.296C212.625 125.688 218.006 121.271 221.793 115.604C225.579 109.937 227.6 103.275 227.6 96.4597C227.601 91.934 226.709 87.4525 224.978 83.2713C223.246 79.09 220.707 75.2909 217.507 72.0909C214.307 68.8909 210.507 66.3527 206.326 64.6213C202.144 62.8898 197.663 61.9991 193.137 62Z" fill="#2355D7"/>
        <path d="M84.7741 151.182V158.728H77.5765V182.275H70V151.182H84.7741ZM96.1058 170.287H93.0588L94.6235 161.222L96.1058 170.287ZM90.0941 151.182L83.8353 182.275H91.1054L91.9618 176.941H97.0447L97.9044 182.275H105.642L99.3176 151.182H90.0941ZM258.776 170.287H255.722L257.283 161.222L258.776 170.287ZM252.757 151.182L246.498 182.275H253.765L254.622 176.941H259.708L260.564 182.275H268.305L261.977 151.182H252.757ZM108.699 151.182V158.155C108.699 158.155 110.966 157.088 112.764 157.088C114.563 157.088 115.656 158.023 115.656 159.746C115.656 161.469 114.471 163.261 112.445 163.261H109.239V169.829H112.362C113.304 169.829 115.805 170.607 115.805 172.956C115.805 175.304 112.596 176.708 107.83 174.985V181.477C107.83 181.477 110.254 182.96 115.179 182.96C120.103 182.96 123.46 179.577 123.855 175.535C124.244 171.549 123.776 168.028 119.01 166.157C123.542 163.574 123.467 160.919 123.467 157.865C123.467 154.812 120.65 150.612 115.65 150.612C110.649 150.612 108.693 151.211 108.693 151.211M127.215 151.211V182.304H134.565V158.573H139.334V182.275H146.753V151.182L127.215 151.211ZM160.361 158.366C161.922 158.366 162.782 159.199 162.782 161.627C162.782 164.055 161.609 164.921 160.591 164.984C159.659 165.056 158.249 165.01 158.249 165.01V158.336L160.361 158.366ZM150.9 151.211V182.304H158.249V171.859C158.249 171.859 160.749 171.911 162.08 171.786C163.322 171.661 170.128 170.765 170.128 161.775C170.128 152.786 165.2 151.182 161.609 151.182L150.9 151.211ZM183.805 158.188C186.094 158.188 187.949 162.059 187.949 166.829C187.949 171.598 186.094 175.466 183.805 175.466C181.516 175.466 179.668 171.595 179.668 166.829C179.668 162.062 181.522 158.188 183.805 158.188ZM195.835 166.585C195.835 157.625 190.456 150.368 183.812 150.368C177.167 150.368 171.788 157.625 171.788 166.585C171.788 175.545 177.174 182.798 183.808 182.798C190.443 182.798 195.832 175.551 195.832 166.585M198.592 151.182V182.275H206.093V163.498L210.155 168.439L214.921 163.123V182.291H222.188V151.182H215.468L210.151 158.099L204.755 151.182H198.592ZM271.277 151.182V182.275H278.59V170.146H283.129V182.275H290.738V151.182H283.129V162.246H278.586V151.182H271.277ZM295.12 151.182V182.275H302.61V169.355H303.711L308.164 182.275H316.923L310.118 165.844L315.672 151.182H307.766L303.707 162.47H302.607V151.172L295.12 151.182ZM235.826 169.118C237.387 169.118 238.247 170.011 238.247 172.597C238.247 175.182 237.077 176.101 236.059 176.184C235.124 176.26 233.609 176.217 233.609 176.217V169.118H235.826ZM226.655 151.182V182.275H236.023C237.509 182.275 245.247 181.237 245.247 172.33C245.247 163.422 237.268 162.635 235.16 162.635H233.595V158.264H243.445V151.182H226.655Z" fill="#2355D7"/>
    </g>
    <defs>
        <clipPath id="clip0_474_670">
            <rect width="246.92" height="120.96" fill="white" transform="translate(70 62)"/>
        </clipPath>
    </defs>
</svg>
