<svg width="386" height="243" viewBox="0 0 386 243" fill="none" xmlns="http://www.w3.org/2000/svg">
    <path d="M385.641 0.413067V242.637H0.359055V0.413067H385.641ZM386 0.0402797H0V243H386V0V0.0402797Z" fill="#C2C2C2"/>
    <g clip-path="url(#clip0_492_583)">
        <path d="M183.343 104.842L179.582 103.039C180.186 102.841 184.043 101.388 187.954 100.687C196.521 99.3663 203.694 98.0452 207.694 96.7737C212.453 95.2743 215.257 92.9657 215.257 92.9657C215.257 92.9657 215.306 93.2696 215.356 95.4724C211.062 100.284 194.519 102.593 191.247 103.191C187.974 103.789 183.32 104.842 183.32 104.842M177.706 107.246C177.706 107.246 175.45 106.256 175.189 105.555C175.5 105.179 175.852 104.839 176.239 104.542C177.372 105.311 178.654 105.837 180.001 106.084C179.36 106.345 177.706 107.246 177.706 107.246ZM175.229 110.143L173.908 108.336L173.868 107.735C173.98 108.376 175.972 108.789 175.972 108.789L175.229 110.143ZM180.539 96.3245C184.502 95.0266 198.575 92.7676 201.729 92.0146C204.735 91.354 210.098 89.4649 210.098 89.4649C210.098 89.4649 213.153 90.7166 213.054 90.9181C212.955 91.1195 210.448 92.4241 206.779 93.5602C203.11 94.6963 187.102 97.7282 183.611 98.3821C180.12 99.036 175.592 101.388 175.592 101.388L173.445 99.7857C174.694 98.0815 180.556 96.3245 180.556 96.3245M172.501 104.092C171.632 103.828 171.411 101.84 171.411 101.84C171.966 102.324 172.586 102.727 173.254 103.039C172.911 103.314 172.65 103.679 172.501 104.092ZM171.236 97.5795L170.536 97.4805C170.536 97.4805 169.875 96.2288 170.836 95.2247C171.797 94.2207 174.492 91.4729 183.865 89.28C193.238 87.087 200.094 86.1755 205.25 87.7277C205.656 87.9754 205.048 88.0745 205.048 88.0745C205.048 88.0745 192.168 90.7166 188.168 91.4333C184.169 92.15 173.941 94.4057 171.236 97.5961M206.115 83.137C206.115 83.137 210.022 84.2665 210.772 84.7883C210.471 85.8419 208.972 86.5916 208.972 86.5916C208.972 86.5916 205.514 85.1682 203.483 84.9403C204.479 84.5295 205.379 83.9153 206.125 83.137M208.001 81.6376C208.45 81.5616 209.206 80.0589 209.206 80.0589C210.706 81.0497 211.234 81.7895 211.383 82.6119C210.858 82.3114 207.552 81.7103 208.001 81.6376ZM213.863 86.5916C215.554 87.12 214.854 89.0356 214.854 89.0356C214.854 89.0356 212.522 87.7938 212.826 87.7938C213.123 87.4206 213.876 86.5916 213.876 86.5916M218.388 96.4996C220.039 93.9466 218.16 92.292 217.255 90.9379C217.635 89.8117 218.612 86.9549 214.854 84.4746C215.455 81.9216 212.374 79.2168 209.52 77.9386C209.444 76.0561 203.803 71.1748 194.113 71.1748C184.423 71.1748 178.921 75.1578 178.921 75.1578C180.652 74.4081 187.263 72.5157 193.354 72.5157C202.667 72.6676 205.973 76.4987 205.973 76.4987C205.973 76.4987 199.738 74.6228 190.642 75.0719C182.531 75.3725 173.663 80.0259 173.663 80.0259C173.663 80.0259 172.672 80.8483 172.907 81.4527C178.228 79.083 183.873 77.5191 189.655 76.8124C199.13 75.6103 206.336 78.7676 206.336 78.7676C206.336 78.7676 205.346 80.2703 204.464 80.7228C199.279 79.4446 192.135 79.3687 184.545 80.4949C176.956 81.6211 169.588 87.1861 169.588 87.1861C169.588 87.1861 168.597 88.2363 169.366 88.6888C171.394 87.4866 177.18 83.5796 186.577 82.0835C195.973 80.5874 201.003 81.707 202.132 82.46C201.003 83.1205 191.758 84.4118 184.397 86.0665C177.035 87.7211 172.071 90.5019 169.819 92.5298C168.77 93.4995 168.102 94.8121 167.935 96.231C167.769 97.6499 168.115 99.0816 168.911 100.268C168.762 101.018 167.259 103.653 171.246 105.681C171.17 107.111 169.214 109.809 175.377 112.669C175.902 116.127 181.837 120.487 191.309 121.689C200.851 122.964 205.735 118.759 205.735 118.759C205.735 118.759 200.25 120.787 192.287 120.186C184.919 120.186 178.746 114.324 178.746 114.324C178.746 114.324 182.504 117.026 193.849 118.079C205.273 118.532 211.284 114.776 211.284 114.776L211.736 114.027C209.56 114.776 202.192 116.431 194.15 116.339C186.108 116.246 178.234 111.54 178.234 111.54L178.383 110.566C178.383 110.566 178.158 109.905 178.908 110.113C179.657 110.321 186.048 114.172 197.469 113.944C208.889 113.716 214.755 110.04 214.755 110.04C214.755 110.04 215.508 108.987 215.131 108.987C209.085 111.19 202.705 112.335 196.27 112.372C189.202 112.372 181.312 108.762 181.312 108.762L184.321 107.563C184.321 107.563 189.506 109.74 200.326 109.436C211.145 109.132 217.684 103.802 217.684 103.802C217.684 103.802 217.912 103.653 217.836 103.201C212.803 105.681 205.663 107.494 200.332 107.861C195.002 108.227 189.209 106.51 189.209 106.51C189.209 106.51 194.77 105.757 203.787 103.868C213.411 102.438 218.371 96.5029 218.371 96.5029M193.456 129.655C186.908 129.654 180.508 127.712 175.064 124.074C169.62 120.436 165.378 115.265 162.873 109.216C160.367 103.167 159.712 96.5101 160.99 90.0885C162.268 83.6668 165.421 77.7682 170.051 73.1386C174.681 68.509 180.58 65.3563 187.002 64.0791C193.424 62.802 200.08 63.4578 206.129 65.9636C212.178 68.4694 217.348 72.7127 220.986 78.1568C224.624 83.601 226.565 90.0015 226.565 96.5491C226.553 105.326 223.061 113.74 216.854 119.946C210.647 126.152 202.233 129.644 193.456 129.655ZM193.456 62C186.623 62.0007 179.944 64.0275 174.262 67.8242C168.581 71.6209 164.154 77.0169 161.539 83.33C158.925 89.6431 158.241 96.5897 159.574 103.291C160.908 109.993 164.199 116.149 169.031 120.98C173.862 125.812 180.019 129.102 186.72 130.435C193.422 131.767 200.369 131.083 206.681 128.468C212.994 125.853 218.39 121.425 222.186 115.743C225.982 110.062 228.008 103.382 228.008 96.5491C228.009 92.0117 227.115 87.5186 225.379 83.3265C223.643 79.1344 221.098 75.3254 217.889 72.1171C214.68 68.9088 210.871 66.364 206.679 64.6281C202.487 62.8922 197.993 61.9991 193.456 62Z" fill="#2355D7"/>
        <path d="M102.448 161.311L103.769 170.41H101.137L102.448 161.311ZM92.1566 182.118H99.1814L100.03 176.962H104.865L105.711 182.118H112.739L106.794 152.288H98.0882L92.1566 182.118ZM238.435 175.281H236.473V170.116H238.263C240.245 170.053 241.235 171.107 241.235 172.735C241.235 173.911 240.459 175.281 238.425 175.281M240.509 161.387C240.509 163.504 238.438 163.946 237.332 163.946H236.463V158.936H237.2C237.86 158.936 240.502 158.884 240.502 161.397M244.003 166.486C244.003 166.486 247.411 164.505 247.395 159.841C247.395 156.113 244.753 152.308 239.108 152.308H229.531V182.147H239.333C244.35 182.147 248.455 179.585 248.468 173.577C248.468 169.161 245.856 167.536 244.003 166.486ZM142.74 158.89H144.392C145.967 158.89 146.944 159.825 146.944 162.298C146.944 165.532 145.293 165.75 144.392 165.75H142.74V158.89ZM135.805 182.147H142.74V172.289H145.052C151.908 172.289 154.012 166.139 154.012 162.226C154.012 158.365 151.601 152.298 145.052 152.318H135.805V182.147ZM188.591 175.281C186.154 175.281 184.889 172.431 184.889 167.173C184.889 161.915 186.154 159.068 188.591 159.068C191.028 159.068 192.287 161.919 192.287 167.173C192.287 172.428 191.025 175.281 188.591 175.281ZM188.591 182.484C196.785 182.484 199.556 174.829 199.556 167.173C199.556 159.518 196.785 151.862 188.591 151.862C180.397 151.862 177.616 159.521 177.616 167.173C177.616 174.825 180.384 182.484 188.591 182.484ZM273.403 182.124H280.18V167.536L280.395 168.699L286.789 182.128H292.598V152.298H285.828V166.582L285.636 165.495L279.127 152.285H273.413L273.403 182.124ZM296.694 182.124H303.467V170.136H305.076L308.963 182.124H316.929L310.902 166.45L316.186 152.295H308.814L304.93 163.028H303.457V152.295H296.694V182.124ZM202.967 182.124H209.887V163.933L214.038 169.158L218.209 163.933V182.134H225.122V152.305H219.256L214.038 159.333L208.84 152.305H202.967V182.124ZM260.407 161.351L261.728 170.449H259.106L260.407 161.351ZM250.12 182.157H257.144L257.99 177.002H262.828L263.674 182.157H270.698L264.754 152.331H256.051L250.12 182.157ZM91.0404 165.079H90.9578H80.9639V170.549H84.6365C84.3624 173.795 83.3154 175.403 81.4164 175.403C78.979 175.403 77.2716 172.553 77.2716 167.302C77.2716 166.972 77.2716 166.641 77.2881 166.311C77.473 161.687 78.9592 158.854 82.1991 158.841C84.4615 158.841 85.7891 159.343 87.7014 160.327L89.7424 154.171C88.0052 152.85 84.9998 151.991 82.9819 151.991C75.0753 152.001 70.3294 157.671 70.0156 166.321C70.0156 166.651 70.0156 166.982 70.0156 167.312C70.0156 174.967 73.0508 182.616 81.2447 182.616C89.4386 182.616 91.0701 174.967 91.0701 167.312C91.0701 166.982 91.0701 165.406 91.0503 165.076M115.014 152.354V159.247H122.941L114.744 182.19H132.492V175.255H124.566L132.089 152.357L115.014 152.354ZM163.583 158.867H165.235C166.81 158.867 167.791 159.805 167.791 162.275C167.791 165.509 166.14 165.727 165.235 165.727H163.583V158.867ZM176.843 182.134L170.879 169.914C173.316 168.098 174.868 164.482 174.868 161.955C174.868 158.091 172.458 152.291 165.905 152.298H156.658V182.128H163.593V171.936L165.089 171.912L168.884 182.151L176.843 182.134Z" fill="#2355D7"/>
    </g>
    <defs>
        <clipPath id="clip0_492_583">
            <rect width="246.92" height="120.62" fill="white" transform="translate(70 62)"/>
        </clipPath>
    </defs>
</svg>
