<svg width="812" height="500" viewBox="0 0 812 500" fill="none" xmlns="http://www.w3.org/2000/svg">
    <path d="M308.812 455H307.463V441.7H316.754V442.954H308.812V455ZM322.854 452.378L323.69 453.119C323.26 453.778 322.696 454.291 321.999 454.658C321.303 455.013 320.555 455.19 319.757 455.19C318.187 455.19 316.92 454.715 315.957 453.765C314.995 452.815 314.513 451.574 314.513 450.041C314.513 448.496 314.969 447.248 315.881 446.298C316.793 445.348 318.003 444.873 319.51 444.873C319.764 444.873 320.112 444.905 320.555 444.968C321.645 445.183 322.5 445.696 323.12 446.507C323.741 447.305 324.051 448.255 324.051 449.357C324.051 449.661 324.026 450.016 323.975 450.421H315.824C315.862 451.548 316.249 452.429 316.983 453.062C317.731 453.695 318.674 454.012 319.814 454.012C320.397 454.012 320.967 453.86 321.524 453.556C322.082 453.252 322.525 452.859 322.854 452.378ZM319.415 446.032C318.427 446.032 317.604 446.33 316.945 446.925C316.287 447.52 315.907 448.306 315.805 449.281H322.721C322.696 448.255 322.386 447.457 321.79 446.887C321.208 446.317 320.416 446.032 319.415 446.032ZM334.716 455H333.481V450.554H327.192V455H325.957V445.12H327.192V449.376H333.481V445.12H334.716V455ZM344.953 452.378L345.789 453.119C345.358 453.778 344.794 454.291 344.098 454.658C343.401 455.013 342.654 455.19 341.856 455.19C340.285 455.19 339.018 454.715 338.056 453.765C337.093 452.815 336.612 451.574 336.612 450.041C336.612 448.496 337.068 447.248 337.98 446.298C338.892 445.348 340.101 444.873 341.609 444.873C341.862 444.873 342.21 444.905 342.654 444.968C343.743 445.183 344.598 445.696 345.219 446.507C345.839 447.305 346.15 448.255 346.15 449.357C346.15 449.661 346.124 450.016 346.074 450.421H337.923C337.961 451.548 338.347 452.429 339.082 453.062C339.829 453.695 340.773 454.012 341.913 454.012C342.495 454.012 343.065 453.86 343.623 453.556C344.18 453.252 344.623 452.859 344.953 452.378ZM341.514 446.032C340.526 446.032 339.702 446.33 339.044 446.925C338.385 447.52 338.005 448.306 337.904 449.281H344.82C344.794 448.255 344.484 447.457 343.889 446.887C343.306 446.317 342.514 446.032 341.514 446.032ZM349.291 458.8H348.056V445.12H349.291V446.583C349.62 446.038 350.114 445.62 350.773 445.329C351.431 445.025 352.109 444.873 352.806 444.873C354.262 444.873 355.402 445.348 356.226 446.298C357.062 447.235 357.48 448.426 357.48 449.87C357.48 451.377 357.024 452.644 356.112 453.67C355.2 454.683 354.015 455.19 352.559 455.19C351.165 455.19 350.076 454.797 349.291 454.012V458.8ZM352.692 446.051C351.944 446.051 351.254 446.273 350.621 446.716C349.987 447.147 349.544 447.71 349.291 448.407V452.245C350.013 453.423 351.089 454.012 352.521 454.012C353.623 454.012 354.503 453.619 355.162 452.834C355.833 452.036 356.169 451.08 356.169 449.965C356.169 448.825 355.858 447.888 355.238 447.153C354.63 446.418 353.781 446.051 352.692 446.051ZM359.963 447.21L359.298 446.26C359.766 445.829 360.349 445.494 361.046 445.253C361.755 445 362.445 444.873 363.117 444.873C364.434 444.873 365.441 445.215 366.138 445.899C366.834 446.57 367.183 447.558 367.183 448.863V455H365.948V453.366C365.555 453.936 365.017 454.373 364.333 454.677C363.661 454.981 362.958 455.133 362.224 455.133C361.236 455.133 360.393 454.88 359.697 454.373C359 453.866 358.652 453.138 358.652 452.188C358.652 450.187 360.254 449.186 363.459 449.186C364.421 449.186 365.251 449.287 365.948 449.49C365.948 448.35 365.72 447.495 365.264 446.925C364.82 446.342 364.054 446.051 362.965 446.051C361.939 446.051 360.938 446.437 359.963 447.21ZM360.742 453.537C361.274 453.841 361.882 453.993 362.566 453.993C363.25 453.993 363.915 453.784 364.561 453.366C365.219 452.948 365.682 452.422 365.948 451.789V450.611C365.352 450.408 364.58 450.307 363.63 450.307C361.172 450.307 359.944 450.909 359.944 452.112C359.944 452.745 360.21 453.22 360.742 453.537ZM378.093 455H376.858V446.298H371.937V448.065C371.937 448.483 371.924 448.901 371.899 449.319C371.873 449.724 371.829 450.212 371.766 450.782C371.702 451.352 371.595 451.878 371.443 452.359C371.291 452.828 371.101 453.277 370.873 453.708C370.657 454.139 370.366 454.474 369.999 454.715C369.644 454.956 369.232 455.076 368.764 455.076C368.624 455.076 368.517 455.07 368.441 455.057L368.327 453.822C369.074 453.923 369.657 453.493 370.075 452.53C370.493 451.58 370.702 450.079 370.702 448.027V445.12H378.093V455ZM384.496 455H380.582V445.12H381.817V448.35H384.648C387.295 448.35 388.619 449.452 388.619 451.656C388.619 452.821 388.233 453.67 387.46 454.202C386.687 454.734 385.699 455 384.496 455ZM384.439 449.528H381.817V453.822H384.42C386.345 453.822 387.308 453.106 387.308 451.675C387.308 450.244 386.352 449.528 384.439 449.528ZM399.157 455H397.922V450.554H391.633V455H390.398V445.12H391.633V449.376H397.922V445.12H399.157V455ZM405.137 455H401.66V445.12H402.895V448.35H405.308C407.956 448.35 409.279 449.452 409.279 451.656C409.279 452.834 408.887 453.689 408.101 454.221C407.329 454.74 406.341 455 405.137 455ZM405.118 449.528H402.895V453.822H405.099C407.012 453.822 407.968 453.106 407.968 451.675C407.968 450.244 407.018 449.528 405.118 449.528ZM412.205 455H410.97V445.12H412.205V455ZM422.4 446.963L415.883 455H414.686V445.12H415.921V453.176L422.438 445.12H423.635V455H422.4V446.963ZM416.206 440.826H417.403C417.415 441.358 417.599 441.782 417.954 442.099C418.321 442.403 418.777 442.555 419.322 442.555C419.588 442.555 419.866 442.498 420.158 442.384C420.462 442.283 420.702 442.086 420.88 441.795C421.057 441.504 421.158 441.181 421.184 440.826H422.343C422.317 441.649 422.013 442.314 421.431 442.821C420.848 443.328 420.145 443.581 419.322 443.581C418.435 443.581 417.694 443.34 417.099 442.859C416.516 442.378 416.218 441.7 416.206 440.826ZM440.475 455H439.24V446.298H433.065V455H431.83V445.12H440.475V455ZM443.552 447.21L442.887 446.26C443.355 445.829 443.938 445.494 444.635 445.253C445.344 445 446.034 444.873 446.706 444.873C448.023 444.873 449.03 445.215 449.727 445.899C450.423 446.57 450.772 447.558 450.772 448.863V455H449.537V453.366C449.144 453.936 448.606 454.373 447.922 454.677C447.25 454.981 446.547 455.133 445.813 455.133C444.825 455.133 443.982 454.88 443.286 454.373C442.589 453.866 442.241 453.138 442.241 452.188C442.241 450.187 443.843 449.186 447.048 449.186C448.01 449.186 448.84 449.287 449.537 449.49C449.537 448.35 449.309 447.495 448.853 446.925C448.409 446.342 447.643 446.051 446.554 446.051C445.528 446.051 444.527 446.437 443.552 447.21ZM444.331 453.537C444.863 453.841 445.471 453.993 446.155 453.993C446.839 453.993 447.504 453.784 448.15 453.366C448.808 452.948 449.271 452.422 449.537 451.789V450.611C448.941 450.408 448.169 450.307 447.219 450.307C444.761 450.307 443.533 450.909 443.533 452.112C443.533 452.745 443.799 453.22 444.331 453.537ZM454.347 458.8H453.112V445.12H454.347V446.583C454.677 446.038 455.171 445.62 455.829 445.329C456.488 445.025 457.166 444.873 457.862 444.873C459.319 444.873 460.459 445.348 461.282 446.298C462.118 447.235 462.536 448.426 462.536 449.87C462.536 451.377 462.08 452.644 461.168 453.67C460.256 454.683 459.072 455.19 457.615 455.19C456.222 455.19 455.133 454.797 454.347 454.012V458.8ZM457.748 446.051C457.001 446.051 456.311 446.273 455.677 446.716C455.044 447.147 454.601 447.71 454.347 448.407V452.245C455.069 453.423 456.146 454.012 457.577 454.012C458.679 454.012 459.56 453.619 460.218 452.834C460.89 452.036 461.225 451.08 461.225 449.965C461.225 448.825 460.915 447.888 460.294 447.153C459.686 446.418 458.838 446.051 457.748 446.051ZM466.701 446.298H462.806V445.12H471.869V446.298H467.936V455H466.701V446.298ZM481.892 455H480.657V450.554H474.368V455H473.133V445.12H474.368V449.376H480.657V445.12H481.892V455ZM492.129 452.378L492.965 453.119C492.534 453.778 491.97 454.291 491.274 454.658C490.577 455.013 489.83 455.19 489.032 455.19C487.461 455.19 486.194 454.715 485.232 453.765C484.269 452.815 483.788 451.574 483.788 450.041C483.788 448.496 484.244 447.248 485.156 446.298C486.068 445.348 487.277 444.873 488.785 444.873C489.038 444.873 489.386 444.905 489.83 444.968C490.919 445.183 491.774 445.696 492.395 446.507C493.015 447.305 493.326 448.255 493.326 449.357C493.326 449.661 493.3 450.016 493.25 450.421H485.099C485.137 451.548 485.523 452.429 486.258 453.062C487.005 453.695 487.949 454.012 489.089 454.012C489.671 454.012 490.241 453.86 490.799 453.556C491.356 453.252 491.799 452.859 492.129 452.378ZM488.69 446.032C487.702 446.032 486.878 446.33 486.22 446.925C485.561 447.52 485.181 448.306 485.08 449.281H491.996C491.97 448.255 491.66 447.457 491.065 446.887C490.482 446.317 489.69 446.032 488.69 446.032ZM496.467 458.8H495.232V445.12H496.467V446.583C496.796 446.038 497.29 445.62 497.949 445.329C498.607 445.025 499.285 444.873 499.982 444.873C501.438 444.873 502.578 445.348 503.402 446.298C504.238 447.235 504.656 448.426 504.656 449.87C504.656 451.377 504.2 452.644 503.288 453.67C502.376 454.683 501.191 455.19 499.735 455.19C498.341 455.19 497.252 454.797 496.467 454.012V458.8ZM499.868 446.051C499.12 446.051 498.43 446.273 497.797 446.716C497.163 447.147 496.72 447.71 496.467 448.407V452.245C497.189 453.423 498.265 454.012 499.697 454.012C500.799 454.012 501.679 453.619 502.338 452.834C503.009 452.036 503.345 451.08 503.345 449.965C503.345 448.825 503.034 447.888 502.414 447.153C501.806 446.418 500.957 446.051 499.868 446.051Z" fill="#878787"/>
    <path d="M297.72 275H280.78V192.82H243.4V206.12C243.4 209.667 243.353 213.027 243.26 216.2C243.167 219.373 242.887 223.433 242.42 228.38C241.953 233.327 241.3 237.853 240.46 241.96C239.713 245.973 238.547 250.173 236.96 254.56C235.467 258.853 233.647 262.493 231.5 265.48C229.447 268.467 226.787 270.94 223.52 272.9C220.347 274.767 216.8 275.653 212.88 275.56L207 275.14V258.76C209.8 258.76 211.947 258.527 213.44 258.06C215.027 257.593 216.613 256.427 218.2 254.56C223.987 247.56 226.88 228.94 226.88 198.7V177H297.72V275ZM326.528 261.56C316.915 251.853 312.108 240 312.108 226C312.108 212 316.962 200.147 326.668 190.44C336.468 180.733 348.322 175.88 362.228 175.88C376.602 175.88 388.548 180.687 398.068 190.3C407.588 199.913 412.348 211.813 412.348 226C412.348 240.187 407.495 252.087 397.788 261.7C388.175 271.313 376.322 276.12 362.228 276.12C348.042 276.12 336.142 271.267 326.528 261.56ZM338.848 202.06C332.782 208.687 329.748 216.667 329.748 226C329.748 235.333 332.875 243.313 339.128 249.94C345.382 256.567 353.082 259.88 362.228 259.88C371.842 259.88 379.635 256.66 385.608 250.22C391.675 243.687 394.708 235.613 394.708 226C394.708 216.573 391.582 208.593 385.328 202.06C379.168 195.433 371.468 192.12 362.228 192.12C352.802 192.12 345.008 195.433 338.848 202.06ZM443.74 275H426.8V177H498.2V192.96H443.74V275ZM512.603 261.56C502.989 251.853 498.182 240 498.182 226C498.182 212 503.036 200.147 512.743 190.44C522.543 180.733 534.396 175.88 548.303 175.88C562.676 175.88 574.623 180.687 584.143 190.3C593.663 199.913 598.423 211.813 598.423 226C598.423 240.187 593.569 252.087 583.863 261.7C574.249 271.313 562.396 276.12 548.303 276.12C534.116 276.12 522.216 271.267 512.603 261.56ZM524.923 202.06C518.856 208.687 515.823 216.667 515.823 226C515.823 235.333 518.949 243.313 525.203 249.94C531.456 256.567 539.156 259.88 548.303 259.88C557.916 259.88 565.709 256.66 571.683 250.22C577.749 243.687 580.783 235.613 580.783 226C580.783 216.573 577.656 208.593 571.403 202.06C565.243 195.433 557.543 192.12 548.303 192.12C538.876 192.12 531.083 195.433 524.923 202.06Z" fill="#C2C2C2"/>
    <path d="M33.184 479.84V482H32.616V476.4H34.632C36.1467 476.4 36.904 476.971 36.904 478.112C36.904 478.427 36.8373 478.701 36.704 478.936C36.576 479.165 36.4 479.344 36.176 479.472C35.952 479.6 35.7093 479.693 35.448 479.752C35.192 479.811 34.9173 479.84 34.624 479.84H33.184ZM34.672 476.92H33.184V479.32H34.608C34.8267 479.32 35.0293 479.301 35.216 479.264C35.408 479.227 35.5893 479.165 35.76 479.08C35.936 478.995 36.072 478.869 36.168 478.704C36.2693 478.533 36.32 478.333 36.32 478.104C36.32 477.315 35.7707 476.92 34.672 476.92ZM40.5809 480.896L40.9329 481.208C40.7515 481.485 40.5142 481.701 40.2209 481.856C39.9275 482.005 39.6129 482.08 39.2769 482.08C38.6155 482.08 38.0822 481.88 37.6769 481.48C37.2715 481.08 37.0689 480.557 37.0689 479.912C37.0689 479.261 37.2609 478.736 37.6449 478.336C38.0289 477.936 38.5382 477.736 39.1729 477.736C39.2795 477.736 39.4262 477.749 39.6129 477.776C40.0715 477.867 40.4315 478.083 40.6929 478.424C40.9542 478.76 41.0849 479.16 41.0849 479.624C41.0849 479.752 41.0742 479.901 41.0529 480.072H37.6209C37.6369 480.547 37.7995 480.917 38.1089 481.184C38.4235 481.451 38.8209 481.584 39.3009 481.584C39.5462 481.584 39.7862 481.52 40.0209 481.392C40.2555 481.264 40.4422 481.099 40.5809 480.896ZM39.1329 478.224C38.7169 478.224 38.3702 478.349 38.0929 478.6C37.8155 478.851 37.6555 479.181 37.6129 479.592H40.5249C40.5142 479.16 40.3835 478.824 40.1329 478.584C39.8875 478.344 39.5542 478.224 39.1329 478.224ZM42.4074 482H41.8874V477.84H42.4074V479.848L44.7114 477.84H45.4234L43.1914 479.768L45.5514 482H44.8314L42.7834 480.088L42.4074 480.424V482ZM49.6594 482H49.1394V478.336H47.0674V479.08C47.0674 479.256 47.0621 479.432 47.0514 479.608C47.0408 479.779 47.0221 479.984 46.9954 480.224C46.9688 480.464 46.9234 480.685 46.8594 480.888C46.7954 481.085 46.7154 481.275 46.6194 481.456C46.5288 481.637 46.4061 481.779 46.2514 481.88C46.1021 481.981 45.9288 482.032 45.7314 482.032C45.6728 482.032 45.6274 482.029 45.5954 482.024L45.5474 481.504C45.8621 481.547 46.1074 481.365 46.2834 480.96C46.4594 480.56 46.5474 479.928 46.5474 479.064V477.84H49.6594V482ZM50.9477 478.72L50.6677 478.32C50.865 478.139 51.1104 477.997 51.4037 477.896C51.7024 477.789 51.993 477.736 52.2757 477.736C52.8304 477.736 53.2544 477.88 53.5477 478.168C53.841 478.451 53.9877 478.867 53.9877 479.416V482H53.4677V481.312C53.3024 481.552 53.0757 481.736 52.7877 481.864C52.505 481.992 52.209 482.056 51.8997 482.056C51.4837 482.056 51.129 481.949 50.8357 481.736C50.5424 481.523 50.3957 481.216 50.3957 480.816C50.3957 479.973 51.0704 479.552 52.4197 479.552C52.825 479.552 53.1744 479.595 53.4677 479.68C53.4677 479.2 53.3717 478.84 53.1797 478.6C52.993 478.355 52.6704 478.232 52.2117 478.232C51.7797 478.232 51.3584 478.395 50.9477 478.72ZM51.2757 481.384C51.4997 481.512 51.7557 481.576 52.0437 481.576C52.3317 481.576 52.6117 481.488 52.8837 481.312C53.161 481.136 53.3557 480.915 53.4677 480.648V480.152C53.217 480.067 52.8917 480.024 52.4917 480.024C51.457 480.024 50.9397 480.277 50.9397 480.784C50.9397 481.051 51.0517 481.251 51.2757 481.384ZM55.4933 482H54.9733V477.84H55.4613L57.1653 480.04L58.8373 477.84H59.2933V482H58.7733V478.736L57.1653 480.84L55.4933 478.736V482ZM60.5883 478.72L60.3083 478.32C60.5056 478.139 60.751 477.997 61.0443 477.896C61.343 477.789 61.6336 477.736 61.9163 477.736C62.471 477.736 62.895 477.88 63.1883 478.168C63.4816 478.451 63.6283 478.867 63.6283 479.416V482H63.1083V481.312C62.943 481.552 62.7163 481.736 62.4283 481.864C62.1456 481.992 61.8496 482.056 61.5403 482.056C61.1243 482.056 60.7696 481.949 60.4763 481.736C60.183 481.523 60.0363 481.216 60.0363 480.816C60.0363 479.973 60.711 479.552 62.0603 479.552C62.4656 479.552 62.815 479.595 63.1083 479.68C63.1083 479.2 63.0123 478.84 62.8203 478.6C62.6336 478.355 62.311 478.232 61.8523 478.232C61.4203 478.232 60.999 478.395 60.5883 478.72ZM60.9163 481.384C61.1403 481.512 61.3963 481.576 61.6843 481.576C61.9723 481.576 62.2523 481.488 62.5243 481.312C62.8016 481.136 62.9963 480.915 63.1083 480.648V480.152C62.8576 480.067 62.5323 480.024 62.1323 480.024C61.0976 480.024 60.5803 480.277 60.5803 480.784C60.5803 481.051 60.6923 481.251 60.9163 481.384Z" fill="#C2C2C2"/>
    <path d="M811.637 0.36919V499.631H0.362535V0.36919H811.637ZM812 0H0V500H812V0Z" fill="#C2C2C2"/>
</svg>
