<svg width="386" height="242" viewBox="0 0 386 242" fill="none" xmlns="http://www.w3.org/2000/svg">
    <path d="M133.024 205H131.675V191.7H140.966V192.954H133.024V205ZM147.066 202.378L147.902 203.119C147.471 203.778 146.908 204.291 146.211 204.658C145.514 205.013 144.767 205.19 143.969 205.19C142.398 205.19 141.132 204.715 140.169 203.765C139.206 202.815 138.725 201.574 138.725 200.041C138.725 198.496 139.181 197.248 140.093 196.298C141.005 195.348 142.215 194.873 143.722 194.873C143.975 194.873 144.324 194.905 144.767 194.968C145.856 195.183 146.711 195.696 147.332 196.507C147.953 197.305 148.263 198.255 148.263 199.357C148.263 199.661 148.238 200.016 148.187 200.421H140.036C140.074 201.548 140.46 202.429 141.195 203.062C141.942 203.695 142.886 204.012 144.026 204.012C144.609 204.012 145.179 203.86 145.736 203.556C146.293 203.252 146.737 202.859 147.066 202.378ZM143.627 196.032C142.639 196.032 141.816 196.33 141.157 196.925C140.498 197.52 140.118 198.306 140.017 199.281H146.933C146.908 198.255 146.597 197.457 146.002 196.887C145.419 196.317 144.628 196.032 143.627 196.032ZM158.928 205H157.693V200.554H151.404V205H150.169V195.12H151.404V199.376H157.693V195.12H158.928V205ZM169.165 202.378L170.001 203.119C169.57 203.778 169.006 204.291 168.31 204.658C167.613 205.013 166.866 205.19 166.068 205.19C164.497 205.19 163.23 204.715 162.268 203.765C161.305 202.815 160.824 201.574 160.824 200.041C160.824 198.496 161.28 197.248 162.192 196.298C163.104 195.348 164.313 194.873 165.821 194.873C166.074 194.873 166.422 194.905 166.866 194.968C167.955 195.183 168.81 195.696 169.431 196.507C170.051 197.305 170.362 198.255 170.362 199.357C170.362 199.661 170.336 200.016 170.286 200.421H162.135C162.173 201.548 162.559 202.429 163.294 203.062C164.041 203.695 164.985 204.012 166.125 204.012C166.707 204.012 167.277 203.86 167.835 203.556C168.392 203.252 168.835 202.859 169.165 202.378ZM165.726 196.032C164.738 196.032 163.914 196.33 163.256 196.925C162.597 197.52 162.217 198.306 162.116 199.281H169.032C169.006 198.255 168.696 197.457 168.101 196.887C167.518 196.317 166.726 196.032 165.726 196.032ZM173.503 208.8H172.268V195.12H173.503V196.583C173.832 196.038 174.326 195.62 174.985 195.329C175.643 195.025 176.321 194.873 177.018 194.873C178.474 194.873 179.614 195.348 180.438 196.298C181.274 197.235 181.692 198.426 181.692 199.87C181.692 201.377 181.236 202.644 180.324 203.67C179.412 204.683 178.227 205.19 176.771 205.19C175.377 205.19 174.288 204.797 173.503 204.012V208.8ZM176.904 196.051C176.156 196.051 175.466 196.273 174.833 196.716C174.199 197.147 173.756 197.71 173.503 198.407V202.245C174.225 203.423 175.301 204.012 176.733 204.012C177.835 204.012 178.715 203.619 179.374 202.834C180.045 202.036 180.381 201.08 180.381 199.965C180.381 198.825 180.07 197.888 179.45 197.153C178.842 196.418 177.993 196.051 176.904 196.051ZM184.175 197.21L183.51 196.26C183.978 195.829 184.561 195.494 185.258 195.253C185.967 195 186.657 194.873 187.329 194.873C188.646 194.873 189.653 195.215 190.35 195.899C191.046 196.57 191.395 197.558 191.395 198.863V205H190.16V203.366C189.767 203.936 189.229 204.373 188.545 204.677C187.873 204.981 187.17 205.133 186.436 205.133C185.448 205.133 184.605 204.88 183.909 204.373C183.212 203.866 182.864 203.138 182.864 202.188C182.864 200.187 184.466 199.186 187.671 199.186C188.633 199.186 189.463 199.287 190.16 199.49C190.16 198.35 189.932 197.495 189.476 196.925C189.032 196.342 188.266 196.051 187.177 196.051C186.151 196.051 185.15 196.437 184.175 197.21ZM184.954 203.537C185.486 203.841 186.094 203.993 186.778 203.993C187.462 203.993 188.127 203.784 188.773 203.366C189.431 202.948 189.894 202.422 190.16 201.789V200.611C189.564 200.408 188.792 200.307 187.842 200.307C185.384 200.307 184.156 200.909 184.156 202.112C184.156 202.745 184.422 203.22 184.954 203.537ZM202.304 205H201.069V196.298H196.148V198.065C196.148 198.483 196.136 198.901 196.11 199.319C196.085 199.724 196.041 200.212 195.977 200.782C195.914 201.352 195.806 201.878 195.654 202.359C195.502 202.828 195.312 203.277 195.084 203.708C194.869 204.139 194.578 204.474 194.21 204.715C193.856 204.956 193.444 205.076 192.975 205.076C192.836 205.076 192.728 205.07 192.652 205.057L192.538 203.822C193.286 203.923 193.868 203.493 194.286 202.53C194.704 201.58 194.913 200.079 194.913 198.027V195.12H202.304V205ZM208.708 205H204.794V195.12H206.029V198.35H208.86C211.507 198.35 212.831 199.452 212.831 201.656C212.831 202.821 212.445 203.67 211.672 204.202C210.899 204.734 209.911 205 208.708 205ZM208.651 199.528H206.029V203.822H208.632C210.557 203.822 211.52 203.106 211.52 201.675C211.52 200.244 210.564 199.528 208.651 199.528ZM223.368 205H222.133V200.554H215.844V205H214.609V195.12H215.844V199.376H222.133V195.12H223.368V205ZM229.349 205H225.872V195.12H227.107V198.35H229.52C232.167 198.35 233.491 199.452 233.491 201.656C233.491 202.834 233.098 203.689 232.313 204.221C231.54 204.74 230.552 205 229.349 205ZM229.33 199.528H227.107V203.822H229.311C231.224 203.822 232.18 203.106 232.18 201.675C232.18 200.244 231.23 199.528 229.33 199.528ZM236.417 205H235.182V195.12H236.417V205ZM246.612 196.963L240.095 205H238.898V195.12H240.133V203.176L246.65 195.12H247.847V205H246.612V196.963ZM240.418 190.826H241.615C241.627 191.358 241.811 191.782 242.166 192.099C242.533 192.403 242.989 192.555 243.534 192.555C243.8 192.555 244.078 192.498 244.37 192.384C244.674 192.283 244.914 192.086 245.092 191.795C245.269 191.504 245.37 191.181 245.396 190.826H246.555C246.529 191.649 246.225 192.314 245.643 192.821C245.06 193.328 244.357 193.581 243.534 193.581C242.647 193.581 241.906 193.34 241.311 192.859C240.728 192.378 240.43 191.7 240.418 190.826ZM79.4431 218.963L72.9261 227H71.7291V217.12H72.9641V225.176L79.4811 217.12H80.6781V227H79.4431V218.963ZM91.9363 227H90.7013V222.554H84.4123V227H83.1773V217.12H84.4123V221.376H90.7013V217.12H91.9363V227ZM100.463 230.8H99.228V227.19H99.114C97.5307 227.19 96.2514 226.728 95.276 225.803C94.3007 224.866 93.813 223.624 93.813 222.079C93.813 220.559 94.3197 219.324 95.333 218.374C96.3464 217.424 97.6004 216.949 99.095 216.949H99.228V213.13H100.463V216.949H100.615C102.173 216.949 103.44 217.424 104.415 218.374C105.403 219.324 105.897 220.559 105.897 222.079C105.897 223.662 105.397 224.91 104.396 225.822C103.408 226.734 102.135 227.19 100.577 227.19H100.463V230.8ZM95.124 222.079C95.124 223.308 95.485 224.27 96.207 224.967C96.9417 225.664 97.9107 226.012 99.114 226.012H99.228V218.127H99.095C97.8917 218.127 96.929 218.488 96.207 219.21C95.485 219.932 95.124 220.888 95.124 222.079ZM100.577 218.127H100.463V226.012H100.577C101.818 226.012 102.794 225.664 103.503 224.967C104.225 224.27 104.586 223.308 104.586 222.079C104.586 220.901 104.212 219.951 103.465 219.229C102.718 218.494 101.755 218.127 100.577 218.127ZM107.191 222.041C107.191 220.521 107.685 219.28 108.673 218.317C109.661 217.354 110.903 216.873 112.397 216.873C113.917 216.873 115.165 217.361 116.14 218.336C117.116 219.311 117.603 220.546 117.603 222.041C117.603 223.561 117.109 224.802 116.121 225.765C115.133 226.715 113.892 227.19 112.397 227.19C110.877 227.19 109.63 226.709 108.654 225.746C107.679 224.771 107.191 223.536 107.191 222.041ZM108.502 222.041C108.502 223.194 108.87 224.144 109.604 224.891C110.339 225.638 111.27 226.012 112.397 226.012C113.55 226.012 114.487 225.638 115.209 224.891C115.931 224.144 116.292 223.194 116.292 222.041C116.292 220.888 115.925 219.938 115.19 219.191C114.468 218.431 113.537 218.051 112.397 218.051C111.245 218.051 110.307 218.431 109.585 219.191C108.863 219.951 108.502 220.901 108.502 222.041ZM120.742 230.8H119.507V217.12H120.742V218.583C121.072 218.038 121.566 217.62 122.224 217.329C122.883 217.025 123.561 216.873 124.257 216.873C125.714 216.873 126.854 217.348 127.677 218.298C128.513 219.235 128.931 220.426 128.931 221.87C128.931 223.377 128.475 224.644 127.563 225.67C126.651 226.683 125.467 227.19 124.01 227.19C122.617 227.19 121.528 226.797 120.742 226.012V230.8ZM124.143 218.051C123.396 218.051 122.706 218.273 122.072 218.716C121.439 219.147 120.996 219.71 120.742 220.407V224.245C121.464 225.423 122.541 226.012 123.972 226.012C125.074 226.012 125.955 225.619 126.613 224.834C127.285 224.036 127.62 223.08 127.62 221.965C127.62 220.825 127.31 219.888 126.689 219.153C126.081 218.418 125.233 218.051 124.143 218.051ZM132.079 227H130.844V217.12H132.003L136.05 222.345L140.021 217.12H141.104V227H139.869V219.248L136.05 224.245L132.079 219.248V227ZM144.18 219.21L143.515 218.26C143.984 217.829 144.566 217.494 145.263 217.253C145.972 217 146.663 216.873 147.334 216.873C148.651 216.873 149.658 217.215 150.355 217.899C151.052 218.57 151.4 219.558 151.4 220.863V227H150.165V225.366C149.772 225.936 149.234 226.373 148.55 226.677C147.879 226.981 147.176 227.133 146.441 227.133C145.453 227.133 144.611 226.88 143.914 226.373C143.217 225.866 142.869 225.138 142.869 224.188C142.869 222.187 144.471 221.186 147.676 221.186C148.639 221.186 149.468 221.287 150.165 221.49C150.165 220.35 149.937 219.495 149.481 218.925C149.038 218.342 148.271 218.051 147.182 218.051C146.156 218.051 145.155 218.437 144.18 219.21ZM144.959 225.537C145.491 225.841 146.099 225.993 146.783 225.993C147.467 225.993 148.132 225.784 148.778 225.366C149.437 224.948 149.899 224.422 150.165 223.789V222.611C149.57 222.408 148.797 222.307 147.847 222.307C145.39 222.307 144.161 222.909 144.161 224.112C144.161 224.745 144.427 225.22 144.959 225.537ZM162.595 227H153.741V217.12H154.976V225.822H161.094V217.12H162.329V225.822H163.773V229.47H162.595V227ZM172.903 218.963L166.386 227H165.189V217.12H166.424V225.176L172.941 217.12H174.138V227H172.903V218.963ZM176.029 222.041C176.029 220.521 176.523 219.28 177.511 218.317C178.499 217.354 179.741 216.873 181.235 216.873C182.755 216.873 184.003 217.361 184.978 218.336C185.954 219.311 186.441 220.546 186.441 222.041C186.441 223.561 185.947 224.802 184.959 225.765C183.971 226.715 182.73 227.19 181.235 227.19C179.715 227.19 178.468 226.709 177.492 225.746C176.517 224.771 176.029 223.536 176.029 222.041ZM177.34 222.041C177.34 223.194 177.708 224.144 178.442 224.891C179.177 225.638 180.108 226.012 181.235 226.012C182.388 226.012 183.325 225.638 184.047 224.891C184.769 224.144 185.13 223.194 185.13 222.041C185.13 220.888 184.763 219.938 184.028 219.191C183.306 218.431 182.375 218.051 181.235 218.051C180.083 218.051 179.145 218.431 178.423 219.191C177.701 219.951 177.34 220.901 177.34 222.041ZM197.104 227H195.869V222.554H189.58V227H188.345V217.12H189.58V221.376H195.869V217.12H197.104V227ZM208.367 227H207.132V222.554H200.843V227H199.608V217.12H200.843V221.376H207.132V217.12H208.367V227ZM214.348 227H210.871V217.12H212.106V220.35H214.519C217.166 220.35 218.49 221.452 218.49 223.656C218.49 224.834 218.097 225.689 217.312 226.221C216.539 226.74 215.551 227 214.348 227ZM214.329 221.528H212.106V225.822H214.31C216.222 225.822 217.179 225.106 217.179 223.675C217.179 222.244 216.229 221.528 214.329 221.528ZM221.416 227H220.181V217.12H221.416V227ZM231.61 218.963L225.093 227H223.896V217.12H225.131V225.176L231.648 217.12H232.845V227H231.61V218.963ZM225.416 212.826H226.613C226.626 213.358 226.809 213.782 227.164 214.099C227.531 214.403 227.987 214.555 228.532 214.555C228.798 214.555 229.077 214.498 229.368 214.384C229.672 214.283 229.913 214.086 230.09 213.795C230.267 213.504 230.369 213.181 230.394 212.826H231.553C231.528 213.649 231.224 214.314 230.641 214.821C230.058 215.328 229.355 215.581 228.532 215.581C227.645 215.581 226.904 215.34 226.309 214.859C225.726 214.378 225.429 213.7 225.416 212.826ZM249.686 227H248.451V218.298H242.276V227H241.041V217.12H249.686V227ZM252.762 219.21L252.097 218.26C252.566 217.829 253.148 217.494 253.845 217.253C254.554 217 255.245 216.873 255.916 216.873C257.233 216.873 258.24 217.215 258.937 217.899C259.634 218.57 259.982 219.558 259.982 220.863V227H258.747V225.366C258.354 225.936 257.816 226.373 257.132 226.677C256.461 226.981 255.758 227.133 255.023 227.133C254.035 227.133 253.193 226.88 252.496 226.373C251.799 225.866 251.451 225.138 251.451 224.188C251.451 222.187 253.053 221.186 256.258 221.186C257.221 221.186 258.05 221.287 258.747 221.49C258.747 220.35 258.519 219.495 258.063 218.925C257.62 218.342 256.853 218.051 255.764 218.051C254.738 218.051 253.737 218.437 252.762 219.21ZM253.541 225.537C254.073 225.841 254.681 225.993 255.365 225.993C256.049 225.993 256.714 225.784 257.36 225.366C258.019 224.948 258.481 224.422 258.747 223.789V222.611C258.152 222.408 257.379 222.307 256.429 222.307C253.972 222.307 252.743 222.909 252.743 224.112C252.743 224.745 253.009 225.22 253.541 225.537ZM263.558 230.8H262.323V217.12H263.558V218.583C263.887 218.038 264.381 217.62 265.04 217.329C265.699 217.025 266.376 216.873 267.073 216.873C268.53 216.873 269.67 217.348 270.493 218.298C271.329 219.235 271.747 220.426 271.747 221.87C271.747 223.377 271.291 224.644 270.379 225.67C269.467 226.683 268.283 227.19 266.826 227.19C265.433 227.19 264.343 226.797 263.558 226.012V230.8ZM266.959 218.051C266.212 218.051 265.521 218.273 264.888 218.716C264.255 219.147 263.811 219.71 263.558 220.407V224.245C264.28 225.423 265.357 226.012 266.788 226.012C267.89 226.012 268.77 225.619 269.429 224.834C270.1 224.036 270.436 223.08 270.436 221.965C270.436 220.825 270.126 219.888 269.505 219.153C268.897 218.418 268.048 218.051 266.959 218.051ZM275.912 218.298H272.017V217.12H281.08V218.298H277.147V227H275.912V218.298ZM291.102 227H289.867V222.554H283.578V227H282.343V217.12H283.578V221.376H289.867V217.12H291.102V227ZM301.339 224.378L302.175 225.119C301.744 225.778 301.181 226.291 300.484 226.658C299.787 227.013 299.04 227.19 298.242 227.19C296.671 227.19 295.405 226.715 294.442 225.765C293.479 224.815 292.998 223.574 292.998 222.041C292.998 220.496 293.454 219.248 294.366 218.298C295.278 217.348 296.488 216.873 297.995 216.873C298.248 216.873 298.597 216.905 299.04 216.968C300.129 217.183 300.984 217.696 301.605 218.507C302.226 219.305 302.536 220.255 302.536 221.357C302.536 221.661 302.511 222.016 302.46 222.421H294.309C294.347 223.548 294.733 224.429 295.468 225.062C296.215 225.695 297.159 226.012 298.299 226.012C298.882 226.012 299.452 225.86 300.009 225.556C300.566 225.252 301.01 224.859 301.339 224.378ZM297.9 218.032C296.912 218.032 296.089 218.33 295.43 218.925C294.771 219.52 294.391 220.306 294.29 221.281H301.206C301.181 220.255 300.87 219.457 300.275 218.887C299.692 218.317 298.901 218.032 297.9 218.032ZM305.677 230.8H304.442V217.12H305.677V218.583C306.006 218.038 306.5 217.62 307.159 217.329C307.818 217.025 308.495 216.873 309.192 216.873C310.649 216.873 311.789 217.348 312.612 218.298C313.448 219.235 313.866 220.426 313.866 221.87C313.866 223.377 313.41 224.644 312.498 225.67C311.586 226.683 310.402 227.19 308.945 227.19C307.552 227.19 306.462 226.797 305.677 226.012V230.8ZM309.078 218.051C308.331 218.051 307.64 218.273 307.007 218.716C306.374 219.147 305.93 219.71 305.677 220.407V224.245C306.399 225.423 307.476 226.012 308.907 226.012C310.009 226.012 310.889 225.619 311.548 224.834C312.219 224.036 312.555 223.08 312.555 221.965C312.555 220.825 312.245 219.888 311.624 219.153C311.016 218.418 310.167 218.051 309.078 218.051Z" fill="#878787"/>
    <path d="M17.184 225.84V228H16.616V222.4H18.632C20.1467 222.4 20.904 222.971 20.904 224.112C20.904 224.427 20.8373 224.701 20.704 224.936C20.576 225.165 20.4 225.344 20.176 225.472C19.952 225.6 19.7093 225.693 19.448 225.752C19.192 225.811 18.9173 225.84 18.624 225.84H17.184ZM18.672 222.92H17.184V225.32H18.608C18.8267 225.32 19.0293 225.301 19.216 225.264C19.408 225.227 19.5893 225.165 19.76 225.08C19.936 224.995 20.072 224.869 20.168 224.704C20.2693 224.533 20.32 224.333 20.32 224.104C20.32 223.315 19.7707 222.92 18.672 222.92ZM24.5809 226.896L24.9329 227.208C24.7515 227.485 24.5142 227.701 24.2209 227.856C23.9275 228.005 23.6129 228.08 23.2769 228.08C22.6155 228.08 22.0822 227.88 21.6769 227.48C21.2715 227.08 21.0689 226.557 21.0689 225.912C21.0689 225.261 21.2609 224.736 21.6449 224.336C22.0289 223.936 22.5382 223.736 23.1729 223.736C23.2795 223.736 23.4262 223.749 23.6129 223.776C24.0715 223.867 24.4315 224.083 24.6929 224.424C24.9542 224.76 25.0849 225.16 25.0849 225.624C25.0849 225.752 25.0742 225.901 25.0529 226.072H21.6209C21.6369 226.547 21.7995 226.917 22.1089 227.184C22.4235 227.451 22.8209 227.584 23.3009 227.584C23.5462 227.584 23.7862 227.52 24.0209 227.392C24.2555 227.264 24.4422 227.099 24.5809 226.896ZM23.1329 224.224C22.7169 224.224 22.3702 224.349 22.0929 224.6C21.8155 224.851 21.6555 225.181 21.6129 225.592H24.5249C24.5142 225.16 24.3835 224.824 24.1329 224.584C23.8875 224.344 23.5542 224.224 23.1329 224.224ZM26.4074 228H25.8874V223.84H26.4074V225.848L28.7114 223.84H29.4234L27.1914 225.768L29.5514 228H28.8314L26.7834 226.088L26.4074 226.424V228ZM33.6594 228H33.1394V224.336H31.0674V225.08C31.0674 225.256 31.0621 225.432 31.0514 225.608C31.0408 225.779 31.0221 225.984 30.9954 226.224C30.9688 226.464 30.9234 226.685 30.8594 226.888C30.7954 227.085 30.7154 227.275 30.6194 227.456C30.5288 227.637 30.4061 227.779 30.2514 227.88C30.1021 227.981 29.9288 228.032 29.7314 228.032C29.6728 228.032 29.6274 228.029 29.5954 228.024L29.5474 227.504C29.8621 227.547 30.1074 227.365 30.2834 226.96C30.4594 226.56 30.5474 225.928 30.5474 225.064V223.84H33.6594V228ZM34.9477 224.72L34.6677 224.32C34.865 224.139 35.1104 223.997 35.4037 223.896C35.7024 223.789 35.993 223.736 36.2757 223.736C36.8304 223.736 37.2544 223.88 37.5477 224.168C37.841 224.451 37.9877 224.867 37.9877 225.416V228H37.4677V227.312C37.3024 227.552 37.0757 227.736 36.7877 227.864C36.505 227.992 36.209 228.056 35.8997 228.056C35.4837 228.056 35.129 227.949 34.8357 227.736C34.5424 227.523 34.3957 227.216 34.3957 226.816C34.3957 225.973 35.0704 225.552 36.4197 225.552C36.825 225.552 37.1744 225.595 37.4677 225.68C37.4677 225.2 37.3717 224.84 37.1797 224.6C36.993 224.355 36.6704 224.232 36.2117 224.232C35.7797 224.232 35.3584 224.395 34.9477 224.72ZM35.2757 227.384C35.4997 227.512 35.7557 227.576 36.0437 227.576C36.3317 227.576 36.6117 227.488 36.8837 227.312C37.161 227.136 37.3557 226.915 37.4677 226.648V226.152C37.217 226.067 36.8917 226.024 36.4917 226.024C35.457 226.024 34.9397 226.277 34.9397 226.784C34.9397 227.051 35.0517 227.251 35.2757 227.384ZM39.4933 228H38.9733V223.84H39.4613L41.1653 226.04L42.8373 223.84H43.2933V228H42.7733V224.736L41.1653 226.84L39.4933 224.736V228ZM44.5883 224.72L44.3083 224.32C44.5056 224.139 44.751 223.997 45.0443 223.896C45.343 223.789 45.6336 223.736 45.9163 223.736C46.471 223.736 46.895 223.88 47.1883 224.168C47.4816 224.451 47.6283 224.867 47.6283 225.416V228H47.1083V227.312C46.943 227.552 46.7163 227.736 46.4283 227.864C46.1456 227.992 45.8496 228.056 45.5403 228.056C45.1243 228.056 44.7696 227.949 44.4763 227.736C44.183 227.523 44.0363 227.216 44.0363 226.816C44.0363 225.973 44.711 225.552 46.0603 225.552C46.4656 225.552 46.815 225.595 47.1083 225.68C47.1083 225.2 47.0123 224.84 46.8203 224.6C46.6336 224.355 46.311 224.232 45.8523 224.232C45.4203 224.232 44.999 224.395 44.5883 224.72ZM44.9163 227.384C45.1403 227.512 45.3963 227.576 45.6843 227.576C45.9723 227.576 46.2523 227.488 46.5243 227.312C46.8016 227.136 46.9963 226.915 47.1083 226.648V226.152C46.8576 226.067 46.5323 226.024 46.1323 226.024C45.0976 226.024 44.5803 226.277 44.5803 226.784C44.5803 227.051 44.6923 227.251 44.9163 227.384Z" fill="#C2C2C2"/>
    <path d="M385.632 0.411367V241.639H0.368096V0.411367H385.632ZM386 0H0V242H386V0Z" fill="#C2C2C2"/>
    <path d="M119.125 129H107.524V72.7234H81.9266V81.8312C81.9266 84.26 81.8946 86.5609 81.8307 88.734C81.7668 90.9071 81.5751 93.6873 81.2555 97.0748C80.9359 100.462 80.4885 103.562 79.9133 106.374C79.402 109.123 78.603 111.999 77.5165 115.003C76.4939 117.943 75.2475 120.435 73.7775 122.481C72.3714 124.526 70.5498 126.22 68.3128 127.562C66.1397 128.84 63.711 129.447 61.0266 129.383L57 129.096V117.879C58.9174 117.879 60.3875 117.719 61.4101 117.4C62.4966 117.08 63.5832 116.281 64.6697 115.003C68.6324 110.209 70.6138 97.4583 70.6138 76.75V61.89H119.125V129ZM138.853 119.796C132.269 113.149 128.978 105.032 128.978 95.445C128.978 85.8578 132.301 77.7407 138.948 71.0936C145.659 64.4465 153.777 61.123 163.3 61.123C173.143 61.123 181.324 64.4146 187.843 70.9978C194.362 77.5809 197.622 85.73 197.622 95.445C197.622 105.16 194.298 113.309 187.651 119.892C181.068 126.475 172.951 129.767 163.3 129.767C153.585 129.767 145.436 126.443 138.853 119.796ZM147.289 79.051C143.135 83.5889 141.058 89.0535 141.058 95.445C141.058 101.836 143.199 107.301 147.481 111.839C151.763 116.377 157.036 118.646 163.3 118.646C169.883 118.646 175.22 116.441 179.31 112.031C183.465 107.557 185.542 102.028 185.542 95.445C185.542 88.9896 183.401 83.525 179.119 79.051C174.9 74.513 169.627 72.2441 163.3 72.2441C156.844 72.2441 151.508 74.513 147.289 79.051ZM219.119 129H207.518V61.89H256.413V72.8193H219.119V129ZM266.275 119.796C259.692 113.149 256.401 105.032 256.401 95.445C256.401 85.8578 259.724 77.7407 266.371 71.0936C273.082 64.4465 281.199 61.123 290.723 61.123C300.565 61.123 308.747 64.4146 315.266 70.9978C321.785 77.5809 325.045 85.73 325.045 95.445C325.045 105.16 321.721 113.309 315.074 119.892C308.491 126.475 300.374 129.767 290.723 129.767C281.008 129.767 272.859 126.443 266.275 119.796ZM274.712 79.051C270.558 83.5889 268.481 89.0535 268.481 95.445C268.481 101.836 270.622 107.301 274.904 111.839C279.186 116.377 284.459 118.646 290.723 118.646C297.306 118.646 302.643 116.441 306.733 112.031C310.888 107.557 312.965 102.028 312.965 95.445C312.965 88.9896 310.824 83.525 306.541 79.051C302.323 74.513 297.05 72.2441 290.723 72.2441C284.267 72.2441 278.93 74.513 274.712 79.051Z" fill="#C2C2C2"/>
</svg>
