<svg width="301" height="192" viewBox="0 0 301 192" fill="none" xmlns="http://www.w3.org/2000/svg">
    <path d="M300.717 0.330017V191.66H0.282694V0.330017H300.717ZM301 0.039978H0V192H301V0V0.039978Z" fill="#C2C2C2"/>
    <path fill-rule="evenodd" clip-rule="evenodd" d="M68.4364 83.5197V106.911H62L62.0281 83.5197H68.4364ZM62 81.9604H68.4364V76.3465H62V81.9604ZM79.2335 86.9429V83.3702H73.2636V106.911H79.7103V96.2581C79.7103 93.6285 79.8741 91.83 80.2033 90.8561C80.5303 89.8787 81.1399 89.1005 82.0256 88.507C82.9134 87.9148 83.9143 87.6227 85.0303 87.6227C85.904 87.6227 86.6478 87.8287 87.2673 88.2411C87.8859 88.6563 88.3317 89.2359 88.6121 89.9799C88.8826 90.7256 89.024 92.3714 89.024 94.9072V106.911H95.4692V92.313C95.4692 90.5014 95.3534 89.1089 95.1145 88.1376C94.8772 87.1659 94.4526 86.2932 93.8489 85.5254C93.2471 84.7606 92.3548 84.131 91.1746 83.634C89.9972 83.1417 88.6997 82.896 87.2693 82.896C84.04 82.896 81.3595 84.244 79.2335 86.9429ZM109.635 84.2915V76.3465L102.693 78.2242V84.2915H98.0435V89.4491H102.693L102.688 106.911H109.635V89.4491H114.135V84.2915H109.635ZM121.536 91.0049C123.967 91.0049 130.854 91.0049 133.122 91.0049C132.903 90.0728 132.545 89.2023 131.87 88.4392C130.779 87.2283 129.405 86.6386 127.672 86.6386C125.95 86.6386 124.534 87.1571 123.342 88.2229C122.501 88.9803 121.917 89.9035 121.536 91.0049ZM140.202 98.5857C140.202 98.5857 138.736 102.971 134.978 105.64C132.92 107.103 130.453 107.846 127.658 107.846C123.679 107.846 120.44 106.458 118.046 103.721C115.876 101.249 114.778 98.2291 114.778 94.7492C114.778 91.1648 115.879 88.1084 118.052 85.671C120.41 83.0027 123.645 81.6485 127.658 81.6485C131.579 81.6485 134.584 83.1381 136.82 85.903C140.14 90.002 139.358 96.4011 139.358 96.4011C139.358 96.4011 123.582 96.4011 121.019 96.4011C121.215 97.8665 121.748 99.1529 122.635 100.295C123.871 101.894 125.515 102.67 127.66 102.67C128.871 102.67 129.903 102.471 130.73 102.073C132.942 101 134.076 98.5857 134.076 98.5857H140.202ZM149.413 88.8365V83.5233L142.455 83.5197L142.465 106.911H149.413C149.413 104.573 149.413 94.4206 149.413 94.0252C151.063 91.4651 154.414 89.4199 157.306 88.4314C157.44 87.171 157.672 85.3354 157.902 83.5355C153.942 84.5225 151.43 87.2189 149.413 88.8365ZM207.14 102.838V94.2578C202.082 91.6786 194.766 94.0132 194.913 98.5891C195.206 103.099 201.557 105.141 207.14 102.838ZM207.315 105.186C205.637 106.87 203.519 107.294 200.372 107.151C192.781 107.298 188.462 102.841 188.413 98.528C188.711 92.7794 192.877 90.1904 199.48 89.5221C202.55 89.1847 204.737 89.5221 207.315 90.2863C207.315 88.4186 206.687 86.9813 203.1 86.9813C201.186 86.9813 194.755 86.9813 191.896 86.9813C190.006 86.9813 188.911 88.4186 188.168 89.9984C183.504 98.9125 181.864 105.957 174.768 114.724C167.178 123.061 157.286 124.905 147.313 125C146.737 125.006 146.419 124.736 146.813 123.953C147.07 123.444 147.732 121.996 148.11 121.203C148.367 120.671 148.951 119.432 150.805 119.993C157.953 122.15 162.318 121.432 165.837 116.45C171.645 105.667 172.935 103.224 178.493 89.9033C180.029 86.3581 176.705 86.835 172.589 86.7405C162.368 86.835 161.024 92.9224 161.32 95.6524C162.318 99.2949 164.398 100.781 170.106 101.453C170.505 101.501 171.147 101.785 170.603 102.266C169.711 102.939 166.637 105.573 165.644 106.436C165.594 106.482 165.05 107.106 164.147 106.768C160.774 105.334 158.496 102.794 157.552 100.925C156.362 98.4326 156.612 96.4213 157.058 94.0737C157.604 90.1904 162.368 83.2438 171.546 83.2438C173.133 83.2438 176.802 83.2438 178.344 83.2438C180.677 83.2438 181.467 83.2891 182.212 82.0917C189.159 69.3482 189.455 61.5863 209.749 62.017C211.438 62.211 210.291 63.2167 209.851 63.9808C209.358 64.796 208.704 65.8493 207.866 67.1912C206.522 69.157 206.272 69.0604 205.581 68.2459C204.737 67.2402 203.599 67.1912 201.758 66.9523C197.493 66.6162 194.962 69.9681 191.838 81.3752C191.738 81.663 191.442 83.1001 192.68 83.0525C197.941 83.0525 200.383 83.0525 205.886 83.0525C208.203 83.0525 211.483 84.0229 213.125 86.4906C214.777 88.9577 214.529 91.455 214.529 95.2707V106.841H207.315V105.186ZM237.649 83.5197L230.372 95.5563L239 106.911H232.15L227.853 100.341L224.016 106.911H216.942C216.942 106.911 222.247 99.074 224.554 95.3668L216.795 83.5197H222.813L227.625 91.0026L231.699 83.5197H237.649Z" fill="#009CA6"/>
</svg>
