<svg width="301" height="192" viewBox="0 0 301 192" fill="none" xmlns="http://www.w3.org/2000/svg">
     <path d="M300.717 0.330017V191.66H0.282694V0.330017H300.717ZM301 0.039978H0V192H301V0V0.039978Z" fill="#C2C2C2"/>
    <path d="M236.77 85.9202L226.58 73.3501L236.49 62.6001H228.96L220.76 71.6301V62.6101H214.49V85.8901H220.76V75.7701L229.03 85.9202H236.77Z" fill="#009BA9"/>
    <path d="M65.79 85.8901H59.7V82.6001C58.8914 83.8665 57.7677 84.9011 56.4388 85.6023C55.11 86.3035 53.6217 86.6473 52.12 86.6001C47.12 86.6001 44 83.8402 44 78.3002V62.6401H50.45V75.9501C50.45 78.8801 50.72 81.2301 54.38 81.2301C58.38 81.2301 59.38 78.1601 59.38 74.6401V62.6401H65.74L65.79 85.8901Z" fill="#009BA9"/>
    <path d="M83.9999 85.8899V76.0999H74.9999V85.8899H68.6299V62.6099H74.9999V71.0499H83.9999V62.6099H90.3599V85.8899H83.9999Z" fill="#009BA9"/>
    <path d="M104.93 67.5299V85.8899H98.5699V67.5299H91.9199V62.6099H111.58V67.5299H104.93Z" fill="#009BA9"/>
    <path d="M123.31 86.5701C116.13 86.5701 111.4 81.6901 111.4 74.3901C111.4 67.0901 116.32 61.9302 123.08 61.9302C130.08 61.9302 134.59 67.0801 134.59 75.2401V75.8701H117.89C117.98 79.8701 119.89 82.0502 123.35 82.0502C125.7 82.0502 127.14 81.0502 128.09 78.6702H134.2C132.78 83.7202 128.59 86.5701 123.31 86.5701ZM123.08 66.5701C120.24 66.5701 118.25 68.5702 117.89 71.8002H128.09C127.82 69.0002 126.29 66.5801 123.08 66.5801V66.5701Z" fill="#009BA9"/>
    <path d="M142.2 65.5C143.017 64.361 144.105 63.443 145.366 62.8285C146.626 62.2141 148.019 61.9225 149.42 61.98C155.69 61.98 159.79 66.9001 159.79 74.3901C159.79 81.6901 155.79 86.48 149.69 86.48C148.3 86.5399 146.917 86.2533 145.665 85.6458C144.414 85.0383 143.333 84.1291 142.52 83V93.08H136.16V62.61H142.16L142.2 65.5ZM142.29 74.3001C142.29 78.8101 144.37 81.47 147.88 81.47C151.39 81.47 153.39 78.8101 153.39 74.3901C153.39 69.9701 151.27 67.12 147.84 67.12C144.41 67.12 142.2 69.7801 142.2 74.3001H142.29Z" fill="#009BA9"/>
    <path d="M246.06 86.48C238.88 86.48 234.19 81.69 234.19 74.48C234.19 66.95 238.93 61.98 246.19 61.98C252.41 61.98 256.56 65.37 257.1 70.78H250.83C250.726 69.6493 250.189 68.6024 249.332 67.8573C248.475 67.1122 247.364 66.7263 246.23 66.78C242.76 66.78 240.68 69.57 240.68 74.36C240.68 79.15 242.68 81.66 246.1 81.66C248.85 81.66 250.56 80.04 251.1 76.97H257.2C256.39 83 252.2 86.48 246.06 86.48Z" fill="#009BA9"/>
    <path d="M201.5 62H194.72C193.53 62 193.82 60.6001 193.91 60.3101C196.91 48.9101 199.48 45.55 203.61 45.75C204.274 45.7152 204.938 45.8261 205.554 46.0749C206.171 46.3236 206.726 46.7042 207.18 47.19C207.99 47.98 208.01 48.45 209.38 46.13C211.04 43.35 211.1 43.2301 211.58 42.4101C211.91 41.8601 212.73 40.98 211.2 40.95C191.61 40.6 191.33 48.09 184.62 60.82C183.9 62.02 183.13 61.97 180.87 61.97H175.96C173.25 61.97 169.61 62.31 166.73 64.45C165.048 65.5866 163.667 67.1136 162.704 68.9003C161.741 70.687 161.225 72.6804 161.2 74.71C161.242 77.5568 162.238 80.3072 164.03 82.5201C165.118 83.8563 166.483 84.9411 168.03 85.7C168.46 85.9 168.57 85.86 168.72 85.83C169.003 85.7388 169.26 85.5811 169.47 85.37C172.8 82.44 173 82.28 174.26 81.2C174.78 80.72 174.38 80.44 173.78 80.39C171.22 80.17 169.59 79.52 168.53 78.39C167.503 77.3637 166.897 75.9905 166.83 74.5401C166.54 71.3001 169.05 68.59 171.2 67.36C172.89 66.5224 174.766 66.1332 176.65 66.23C180.05 66.23 180.99 66.3601 181.43 66.7801C181.87 67.2001 182.26 67.64 181.72 69.01C178.51 77.13 177.1 81.45 170.96 92.01C167.96 97.23 162.29 100.65 154.55 98.12C152.76 97.54 152.45 98.55 151.95 99.34C151.45 100.13 149.95 102.34 149.74 102.85C149.37 103.63 150.4 103.85 150.96 103.85C163.41 104.22 170.13 101.91 177.46 93.57C184.31 84.8 185.66 78.13 190.15 69.22C190.86 67.68 191.88 66.28 193.64 66.22H201.35C204.18 66.22 205.53 67.2201 205.55 69.2901H202.2C200.97 69.2901 193.64 69.18 190.36 74.98C189.405 76.5111 188.98 78.3136 189.15 80.11C189.47 83.19 191.71 85.36 194.75 86.21C195.184 86.346 195.629 86.4431 196.08 86.5C196.69 86.5856 197.304 86.629 197.92 86.63C200.702 86.6854 203.395 85.6478 205.42 83.74V85.74H211.62V69.5601C211.68 63.1201 206.2 62 201.5 62ZM205.5 77.58C205.489 78.8387 205.028 80.0519 204.2 81C203.448 81.6686 202.549 82.1502 201.576 82.4057C200.603 82.6611 199.583 82.6831 198.6 82.47C197.6 82.19 195.79 81.18 195.71 79.33C195.593 78.4614 195.738 77.5776 196.126 76.7919C196.514 76.0062 197.129 75.3544 197.89 74.9201C199.138 74.1263 200.591 73.716 202.07 73.74H205.5C205.5 73.74 205.48 76.29 205.48 77.62L205.5 77.58Z" fill="#009BA9"/>
</svg>
