<svg width="301" height="192" viewBox="0 0 301 192" fill="none" xmlns="http://www.w3.org/2000/svg">
    <path d="M42.3955 151.98L33.8075 163H32.6485V149.7H33.9975V160.72L42.5665 149.7H43.7445V163H42.3955V151.98ZM55.2259 163H53.9909V158.554H47.7019V163H46.4669V153.12H47.7019V157.376H53.9909V153.12H55.2259V163ZM63.7526 166.8H62.5176V163.19H62.4036C60.8203 163.19 59.5409 162.728 58.5656 161.803C57.5903 160.866 57.1026 159.624 57.1026 158.079C57.1026 156.559 57.6093 155.324 58.6226 154.374C59.6359 153.424 60.8899 152.949 62.3846 152.949H62.5176V149.13H63.7526V152.949H63.9046C65.4626 152.949 66.7293 153.424 67.7046 154.374C68.6926 155.324 69.1866 156.559 69.1866 158.079C69.1866 159.662 68.6863 160.91 67.6856 161.822C66.6976 162.734 65.4246 163.19 63.8666 163.19H63.7526V166.8ZM58.4136 158.079C58.4136 159.308 58.7746 160.27 59.4966 160.967C60.2313 161.664 61.2003 162.012 62.4036 162.012H62.5176V154.127H62.3846C61.1813 154.127 60.2186 154.488 59.4966 155.21C58.7746 155.932 58.4136 156.888 58.4136 158.079ZM63.8666 154.127H63.7526V162.012H63.8666C65.1079 162.012 66.0833 161.664 66.7926 160.967C67.5146 160.27 67.8756 159.308 67.8756 158.079C67.8756 156.901 67.5019 155.951 66.7546 155.229C66.0073 154.494 65.0446 154.127 63.8666 154.127ZM70.481 158.041C70.481 156.521 70.975 155.28 71.963 154.317C72.951 153.354 74.1923 152.873 75.687 152.873C77.207 152.873 78.4546 153.361 79.43 154.336C80.4053 155.311 80.893 156.546 80.893 158.041C80.893 159.561 80.399 160.802 79.411 161.765C78.423 162.715 77.1816 163.19 75.687 163.19C74.167 163.19 72.9193 162.709 71.944 161.746C70.9686 160.771 70.481 159.536 70.481 158.041ZM71.792 158.041C71.792 159.194 72.1593 160.144 72.894 160.891C73.6286 161.638 74.5596 162.012 75.687 162.012C76.8396 162.012 77.777 161.638 78.499 160.891C79.221 160.144 79.582 159.194 79.582 158.041C79.582 156.888 79.2146 155.938 78.48 155.191C77.758 154.431 76.827 154.051 75.687 154.051C74.5343 154.051 73.597 154.431 72.875 155.191C72.153 155.951 71.792 156.901 71.792 158.041ZM84.032 166.8H82.797V153.12H84.032V154.583C84.3613 154.038 84.8553 153.62 85.514 153.329C86.1726 153.025 86.8503 152.873 87.547 152.873C89.0036 152.873 90.1436 153.348 90.967 154.298C91.803 155.235 92.221 156.426 92.221 157.87C92.221 159.377 91.765 160.644 90.853 161.67C89.941 162.683 88.7566 163.19 87.3 163.19C85.9066 163.19 84.8173 162.797 84.032 162.012V166.8ZM87.433 154.051C86.6856 154.051 85.9953 154.273 85.362 154.716C84.7286 155.147 84.2853 155.71 84.032 156.407V160.245C84.754 161.423 85.8306 162.012 87.262 162.012C88.364 162.012 89.2443 161.619 89.903 160.834C90.5743 160.036 90.91 159.08 90.91 157.965C90.91 156.825 90.5996 155.888 89.979 155.153C89.371 154.418 88.5223 154.051 87.433 154.051ZM95.3689 163H94.1339V153.12H95.2929L99.3399 158.345L103.311 153.12H104.394V163H103.159V155.248L99.3399 160.245L95.3689 155.248V163ZM107.47 155.21L106.805 154.26C107.273 153.829 107.856 153.494 108.553 153.253C109.262 153 109.952 152.873 110.624 152.873C111.941 152.873 112.948 153.215 113.645 153.899C114.341 154.57 114.69 155.558 114.69 156.863V163H113.455V161.366C113.062 161.936 112.524 162.373 111.84 162.677C111.168 162.981 110.465 163.133 109.731 163.133C108.743 163.133 107.9 162.88 107.204 162.373C106.507 161.866 106.159 161.138 106.159 160.188C106.159 158.187 107.761 157.186 110.966 157.186C111.928 157.186 112.758 157.287 113.455 157.49C113.455 156.35 113.227 155.495 112.771 154.925C112.327 154.342 111.561 154.051 110.472 154.051C109.446 154.051 108.445 154.437 107.47 155.21ZM108.249 161.537C108.781 161.841 109.389 161.993 110.073 161.993C110.757 161.993 111.422 161.784 112.068 161.366C112.726 160.948 113.189 160.422 113.455 159.789V158.611C112.859 158.408 112.087 158.307 111.137 158.307C108.679 158.307 107.451 158.909 107.451 160.112C107.451 160.745 107.717 161.22 108.249 161.537ZM125.884 163H117.03V153.12H118.265V161.822H124.383V153.12H125.618V161.822H127.062V165.47H125.884V163ZM136.193 154.963L129.676 163H128.479V153.12H129.714V161.176L136.231 153.12H137.428V163H136.193V154.963ZM139.319 158.041C139.319 156.521 139.813 155.28 140.801 154.317C141.789 153.354 143.03 152.873 144.525 152.873C146.045 152.873 147.293 153.361 148.268 154.336C149.243 155.311 149.731 156.546 149.731 158.041C149.731 159.561 149.237 160.802 148.249 161.765C147.261 162.715 146.02 163.19 144.525 163.19C143.005 163.19 141.757 162.709 140.782 161.746C139.807 160.771 139.319 159.536 139.319 158.041ZM140.63 158.041C140.63 159.194 140.997 160.144 141.732 160.891C142.467 161.638 143.398 162.012 144.525 162.012C145.678 162.012 146.615 161.638 147.337 160.891C148.059 160.144 148.42 159.194 148.42 158.041C148.42 156.888 148.053 155.938 147.318 155.191C146.596 154.431 145.665 154.051 144.525 154.051C143.372 154.051 142.435 154.431 141.713 155.191C140.991 155.951 140.63 156.901 140.63 158.041ZM160.394 163H159.159V158.554H152.87V163H151.635V153.12H152.87V157.376H159.159V153.12H160.394V163ZM171.657 163H170.422V158.554H164.133V163H162.898V153.12H164.133V157.376H170.422V153.12H171.657V163ZM177.637 163H174.16V153.12H175.395V156.35H177.808C180.456 156.35 181.779 157.452 181.779 159.656C181.779 160.834 181.387 161.689 180.601 162.221C179.829 162.74 178.841 163 177.637 163ZM177.618 157.528H175.395V161.822H177.599C179.512 161.822 180.468 161.106 180.468 159.675C180.468 158.244 179.518 157.528 177.618 157.528ZM184.705 163H183.47V153.12H184.705V163ZM194.9 154.963L188.383 163H187.186V153.12H188.421V161.176L194.938 153.12H196.135V163H194.9V154.963ZM188.706 148.826H189.903C189.915 149.358 190.099 149.782 190.454 150.099C190.821 150.403 191.277 150.555 191.822 150.555C192.088 150.555 192.366 150.498 192.658 150.384C192.962 150.283 193.202 150.086 193.38 149.795C193.557 149.504 193.658 149.181 193.684 148.826H194.843C194.817 149.649 194.513 150.314 193.931 150.821C193.348 151.328 192.645 151.581 191.822 151.581C190.935 151.581 190.194 151.34 189.599 150.859C189.016 150.378 188.718 149.7 188.706 148.826ZM212.975 163H211.74V154.298H205.565V163H204.33V153.12H212.975V163ZM216.052 155.21L215.387 154.26C215.855 153.829 216.438 153.494 217.135 153.253C217.844 153 218.534 152.873 219.206 152.873C220.523 152.873 221.53 153.215 222.227 153.899C222.923 154.57 223.272 155.558 223.272 156.863V163H222.037V161.366C221.644 161.936 221.106 162.373 220.422 162.677C219.75 162.981 219.047 163.133 218.313 163.133C217.325 163.133 216.482 162.88 215.786 162.373C215.089 161.866 214.741 161.138 214.741 160.188C214.741 158.187 216.343 157.186 219.548 157.186C220.51 157.186 221.34 157.287 222.037 157.49C222.037 156.35 221.809 155.495 221.353 154.925C220.909 154.342 220.143 154.051 219.054 154.051C218.028 154.051 217.027 154.437 216.052 155.21ZM216.831 161.537C217.363 161.841 217.971 161.993 218.655 161.993C219.339 161.993 220.004 161.784 220.65 161.366C221.308 160.948 221.771 160.422 222.037 159.789V158.611C221.441 158.408 220.669 158.307 219.719 158.307C217.261 158.307 216.033 158.909 216.033 160.112C216.033 160.745 216.299 161.22 216.831 161.537ZM226.847 166.8H225.612V153.12H226.847V154.583C227.177 154.038 227.671 153.62 228.329 153.329C228.988 153.025 229.666 152.873 230.362 152.873C231.819 152.873 232.959 153.348 233.782 154.298C234.618 155.235 235.036 156.426 235.036 157.87C235.036 159.377 234.58 160.644 233.668 161.67C232.756 162.683 231.572 163.19 230.115 163.19C228.722 163.19 227.633 162.797 226.847 162.012V166.8ZM230.248 154.051C229.501 154.051 228.811 154.273 228.177 154.716C227.544 155.147 227.101 155.71 226.847 156.407V160.245C227.569 161.423 228.646 162.012 230.077 162.012C231.179 162.012 232.06 161.619 232.718 160.834C233.39 160.036 233.725 159.08 233.725 157.965C233.725 156.825 233.415 155.888 232.794 155.153C232.186 154.418 231.338 154.051 230.248 154.051ZM239.201 154.298H235.306V153.12H244.369V154.298H240.436V163H239.201V154.298ZM254.392 163H253.157V158.554H246.868V163H245.633V153.12H246.868V157.376H253.157V153.12H254.392V163ZM264.629 160.378L265.465 161.119C265.034 161.778 264.47 162.291 263.774 162.658C263.077 163.013 262.33 163.19 261.532 163.19C259.961 163.19 258.694 162.715 257.732 161.765C256.769 160.815 256.288 159.574 256.288 158.041C256.288 156.496 256.744 155.248 257.656 154.298C258.568 153.348 259.777 152.873 261.285 152.873C261.538 152.873 261.886 152.905 262.33 152.968C263.419 153.183 264.274 153.696 264.895 154.507C265.515 155.305 265.826 156.255 265.826 157.357C265.826 157.661 265.8 158.016 265.75 158.421H257.599C257.637 159.548 258.023 160.429 258.758 161.062C259.505 161.695 260.449 162.012 261.589 162.012C262.171 162.012 262.741 161.86 263.299 161.556C263.856 161.252 264.299 160.859 264.629 160.378ZM261.19 154.032C260.202 154.032 259.378 154.33 258.72 154.925C258.061 155.52 257.681 156.306 257.58 157.281H264.496C264.47 156.255 264.16 155.457 263.565 154.887C262.982 154.317 262.19 154.032 261.19 154.032ZM268.967 166.8H267.732V153.12H268.967V154.583C269.296 154.038 269.79 153.62 270.449 153.329C271.107 153.025 271.785 152.873 272.482 152.873C273.938 152.873 275.078 153.348 275.902 154.298C276.738 155.235 277.156 156.426 277.156 157.87C277.156 159.377 276.7 160.644 275.788 161.67C274.876 162.683 273.691 163.19 272.235 163.19C270.841 163.19 269.752 162.797 268.967 162.012V166.8ZM272.368 154.051C271.62 154.051 270.93 154.273 270.297 154.716C269.663 155.147 269.22 155.71 268.967 156.407V160.245C269.689 161.423 270.765 162.012 272.197 162.012C273.299 162.012 274.179 161.619 274.838 160.834C275.509 160.036 275.845 159.08 275.845 157.965C275.845 156.825 275.534 155.888 274.914 155.153C274.306 154.418 273.457 154.051 272.368 154.051Z" fill="#878787"/>
     <path d="M300.717 0.330017V191.66H0.282694V0.330017H300.717ZM301 0.039978H0V192H301V0V0.039978Z" fill="#C2C2C2"/>
    <path d="M236.77 85.9202L226.58 73.3501L236.49 62.6001H228.96L220.76 71.6301V62.6101H214.49V85.8901H220.76V75.7701L229.03 85.9202H236.77Z" fill="#009BA9"/>
    <path d="M65.79 85.8901H59.7V82.6001C58.8914 83.8665 57.7677 84.9011 56.4388 85.6023C55.11 86.3035 53.6217 86.6473 52.12 86.6001C47.12 86.6001 44 83.8402 44 78.3002V62.6401H50.45V75.9501C50.45 78.8801 50.72 81.2301 54.38 81.2301C58.38 81.2301 59.38 78.1601 59.38 74.6401V62.6401H65.74L65.79 85.8901Z" fill="#009BA9"/>
    <path d="M83.9999 85.8899V76.0999H74.9999V85.8899H68.6299V62.6099H74.9999V71.0499H83.9999V62.6099H90.3599V85.8899H83.9999Z" fill="#009BA9"/>
    <path d="M104.93 67.5299V85.8899H98.5699V67.5299H91.9199V62.6099H111.58V67.5299H104.93Z" fill="#009BA9"/>
    <path d="M123.31 86.5701C116.13 86.5701 111.4 81.6901 111.4 74.3901C111.4 67.0901 116.32 61.9302 123.08 61.9302C130.08 61.9302 134.59 67.0801 134.59 75.2401V75.8701H117.89C117.98 79.8701 119.89 82.0502 123.35 82.0502C125.7 82.0502 127.14 81.0502 128.09 78.6702H134.2C132.78 83.7202 128.59 86.5701 123.31 86.5701ZM123.08 66.5701C120.24 66.5701 118.25 68.5702 117.89 71.8002H128.09C127.82 69.0002 126.29 66.5801 123.08 66.5801V66.5701Z" fill="#009BA9"/>
    <path d="M142.2 65.5C143.017 64.361 144.105 63.443 145.366 62.8285C146.626 62.2141 148.019 61.9225 149.42 61.98C155.69 61.98 159.79 66.9001 159.79 74.3901C159.79 81.6901 155.79 86.48 149.69 86.48C148.3 86.5399 146.917 86.2533 145.665 85.6458C144.414 85.0383 143.333 84.1291 142.52 83V93.08H136.16V62.61H142.16L142.2 65.5ZM142.29 74.3001C142.29 78.8101 144.37 81.47 147.88 81.47C151.39 81.47 153.39 78.8101 153.39 74.3901C153.39 69.9701 151.27 67.12 147.84 67.12C144.41 67.12 142.2 69.7801 142.2 74.3001H142.29Z" fill="#009BA9"/>
    <path d="M246.06 86.48C238.88 86.48 234.19 81.69 234.19 74.48C234.19 66.95 238.93 61.98 246.19 61.98C252.41 61.98 256.56 65.37 257.1 70.78H250.83C250.726 69.6493 250.189 68.6024 249.332 67.8573C248.475 67.1122 247.364 66.7263 246.23 66.78C242.76 66.78 240.68 69.57 240.68 74.36C240.68 79.15 242.68 81.66 246.1 81.66C248.85 81.66 250.56 80.04 251.1 76.97H257.2C256.39 83 252.2 86.48 246.06 86.48Z" fill="#009BA9"/>
    <path d="M201.5 62H194.72C193.53 62 193.82 60.6001 193.91 60.3101C196.91 48.9101 199.48 45.55 203.61 45.75C204.274 45.7152 204.938 45.8261 205.554 46.0749C206.171 46.3236 206.726 46.7042 207.18 47.19C207.99 47.98 208.01 48.45 209.38 46.13C211.04 43.35 211.1 43.2301 211.58 42.4101C211.91 41.8601 212.73 40.98 211.2 40.95C191.61 40.6 191.33 48.09 184.62 60.82C183.9 62.02 183.13 61.97 180.87 61.97H175.96C173.25 61.97 169.61 62.31 166.73 64.45C165.048 65.5866 163.667 67.1136 162.704 68.9003C161.741 70.687 161.225 72.6804 161.2 74.71C161.242 77.5568 162.238 80.3072 164.03 82.5201C165.118 83.8563 166.483 84.9411 168.03 85.7C168.46 85.9 168.57 85.86 168.72 85.83C169.003 85.7388 169.26 85.5811 169.47 85.37C172.8 82.44 173 82.28 174.26 81.2C174.78 80.72 174.38 80.44 173.78 80.39C171.22 80.17 169.59 79.52 168.53 78.39C167.503 77.3637 166.897 75.9905 166.83 74.5401C166.54 71.3001 169.05 68.59 171.2 67.36C172.89 66.5224 174.766 66.1332 176.65 66.23C180.05 66.23 180.99 66.3601 181.43 66.7801C181.87 67.2001 182.26 67.64 181.72 69.01C178.51 77.13 177.1 81.45 170.96 92.01C167.96 97.23 162.29 100.65 154.55 98.12C152.76 97.54 152.45 98.55 151.95 99.34C151.45 100.13 149.95 102.34 149.74 102.85C149.37 103.63 150.4 103.85 150.96 103.85C163.41 104.22 170.13 101.91 177.46 93.57C184.31 84.8 185.66 78.13 190.15 69.22C190.86 67.68 191.88 66.28 193.64 66.22H201.35C204.18 66.22 205.53 67.2201 205.55 69.2901H202.2C200.97 69.2901 193.64 69.18 190.36 74.98C189.405 76.5111 188.98 78.3136 189.15 80.11C189.47 83.19 191.71 85.36 194.75 86.21C195.184 86.346 195.629 86.4431 196.08 86.5C196.69 86.5856 197.304 86.629 197.92 86.63C200.702 86.6854 203.395 85.6478 205.42 83.74V85.74H211.62V69.5601C211.68 63.1201 206.2 62 201.5 62ZM205.5 77.58C205.489 78.8387 205.028 80.0519 204.2 81C203.448 81.6686 202.549 82.1502 201.576 82.4057C200.603 82.6611 199.583 82.6831 198.6 82.47C197.6 82.19 195.79 81.18 195.71 79.33C195.593 78.4614 195.738 77.5776 196.126 76.7919C196.514 76.0062 197.129 75.3544 197.89 74.9201C199.138 74.1263 200.591 73.716 202.07 73.74H205.5C205.5 73.74 205.48 76.29 205.48 77.62L205.5 77.58Z" fill="#009BA9"/>
</svg>
