<svg width="301" height="192" viewBox="0 0 301 192" fill="none" xmlns="http://www.w3.org/2000/svg">
    <path d="M300.717 0.330017V191.66H0.282694V0.330017H300.717ZM301 0.039978H0V192H301V0V0.039978Z" fill="#C2C2C2"/>
    <path fill-rule="evenodd" clip-rule="evenodd" d="M68.4364 91.5197V114.911H62L62.0281 91.5197H68.4364ZM62 89.9604H68.4364V84.3465H62V89.9604ZM79.2335 94.9429V91.3702H73.2636V114.911H79.7103V104.258C79.7103 101.628 79.8741 99.83 80.2033 98.8561C80.5303 97.8787 81.1399 97.1005 82.0256 96.507C82.9134 95.9148 83.9143 95.6227 85.0303 95.6227C85.904 95.6227 86.6478 95.8287 87.2673 96.2411C87.8859 96.6563 88.3317 97.2359 88.6121 97.9799C88.8826 98.7256 89.024 100.371 89.024 102.907V114.911H95.4692V100.313C95.4692 98.5014 95.3534 97.1089 95.1145 96.1376C94.8772 95.1659 94.4526 94.2932 93.8489 93.5254C93.2471 92.7606 92.3548 92.131 91.1746 91.634C89.9972 91.1417 88.6997 90.896 87.2693 90.896C84.04 90.896 81.3595 92.244 79.2335 94.9429ZM109.635 92.2915V84.3465L102.693 86.2242V92.2915H98.0435V97.4491H102.693L102.688 114.911H109.635V97.4491H114.135V92.2915H109.635ZM121.536 99.0049C123.967 99.0049 130.854 99.0049 133.122 99.0049C132.903 98.0728 132.545 97.2023 131.87 96.4392C130.779 95.2283 129.405 94.6386 127.672 94.6386C125.95 94.6386 124.534 95.1571 123.342 96.2229C122.501 96.9803 121.917 97.9035 121.536 99.0049ZM140.202 106.586C140.202 106.586 138.736 110.971 134.978 113.64C132.92 115.103 130.453 115.846 127.658 115.846C123.679 115.846 120.44 114.458 118.046 111.721C115.876 109.249 114.778 106.229 114.778 102.749C114.778 99.1648 115.879 96.1084 118.052 93.671C120.41 91.0027 123.645 89.6485 127.658 89.6485C131.579 89.6485 134.584 91.1381 136.82 93.903C140.14 98.002 139.358 104.401 139.358 104.401C139.358 104.401 123.582 104.401 121.019 104.401C121.215 105.866 121.748 107.153 122.635 108.295C123.871 109.894 125.515 110.67 127.66 110.67C128.871 110.67 129.903 110.471 130.73 110.073C132.942 109 134.076 106.586 134.076 106.586H140.202ZM149.413 96.8365V91.5233L142.455 91.5197L142.465 114.911H149.413C149.413 112.573 149.413 102.421 149.413 102.025C151.063 99.4651 154.414 97.4199 157.306 96.4314C157.44 95.171 157.672 93.3354 157.902 91.5355C153.942 92.5225 151.43 95.2189 149.413 96.8365ZM207.14 110.838V102.258C202.082 99.6786 194.766 102.013 194.913 106.589C195.206 111.099 201.557 113.141 207.14 110.838ZM207.315 113.186C205.637 114.87 203.519 115.294 200.372 115.151C192.781 115.298 188.462 110.841 188.413 106.528C188.711 100.779 192.877 98.1904 199.48 97.5221C202.55 97.1847 204.737 97.5221 207.315 98.2863C207.315 96.4186 206.687 94.9813 203.1 94.9813C201.186 94.9813 194.755 94.9813 191.896 94.9813C190.006 94.9813 188.911 96.4186 188.168 97.9984C183.504 106.912 181.864 113.957 174.768 122.724C167.178 131.061 157.286 132.905 147.313 133C146.737 133.006 146.419 132.736 146.813 131.953C147.07 131.444 147.732 129.996 148.11 129.203C148.367 128.671 148.951 127.432 150.805 127.993C157.953 130.15 162.318 129.432 165.837 124.45C171.645 113.667 172.935 111.224 178.493 97.9033C180.029 94.3581 176.705 94.835 172.589 94.7405C162.368 94.835 161.024 100.922 161.32 103.652C162.318 107.295 164.398 108.781 170.106 109.453C170.505 109.501 171.147 109.785 170.603 110.266C169.711 110.939 166.637 113.573 165.644 114.436C165.594 114.482 165.05 115.106 164.147 114.768C160.774 113.334 158.496 110.794 157.552 108.925C156.362 106.433 156.612 104.421 157.058 102.074C157.604 98.1904 162.368 91.2438 171.546 91.2438C173.133 91.2438 176.802 91.2438 178.344 91.2438C180.677 91.2438 181.467 91.2891 182.212 90.0917C189.159 77.3482 189.455 69.5863 209.749 70.017C211.438 70.211 210.291 71.2167 209.851 71.9808C209.358 72.796 208.704 73.8493 207.866 75.1912C206.522 77.157 206.272 77.0604 205.581 76.2459C204.737 75.2402 203.599 75.1912 201.758 74.9523C197.493 74.6162 194.962 77.9681 191.838 89.3752C191.738 89.663 191.442 91.1001 192.68 91.0525C197.941 91.0525 200.383 91.0525 205.886 91.0525C208.203 91.0525 211.483 92.0229 213.125 94.4906C214.777 96.9577 214.529 99.455 214.529 103.271V114.841H207.315V113.186ZM237.649 91.5197L230.372 103.556L239 114.911H232.15L227.853 108.341L224.016 114.911H216.942C216.942 114.911 222.247 107.074 224.554 103.367L216.795 91.5197H222.813L227.625 99.0026L231.699 91.5197H237.649Z" fill="#009CA6"/>
</svg>
