<svg width="301" height="192" viewBox="0 0 301 192" fill="none" xmlns="http://www.w3.org/2000/svg">
    <path d="M300.717 0.330017V191.66H0.282694V0.330017H300.717ZM301 0.039978H0V192H301V0V0.039978Z" fill="#C2C2C2"/>
    <path fill-rule="evenodd" clip-rule="evenodd" d="M68.4364 90.5197V113.911H62L62.0281 90.5197H68.4364ZM62 88.9604H68.4364V83.3465H62V88.9604ZM79.2335 93.9429V90.3702H73.2636V113.911H79.7103V103.258C79.7103 100.628 79.8741 98.83 80.2033 97.8561C80.5303 96.8787 81.1399 96.1005 82.0256 95.507C82.9134 94.9148 83.9143 94.6227 85.0303 94.6227C85.904 94.6227 86.6478 94.8287 87.2673 95.2411C87.8859 95.6563 88.3317 96.2359 88.6121 96.9799C88.8826 97.7256 89.024 99.3714 89.024 101.907V113.911H95.4692V99.313C95.4692 97.5014 95.3534 96.1089 95.1145 95.1376C94.8772 94.1659 94.4526 93.2932 93.8489 92.5254C93.2471 91.7606 92.3548 91.131 91.1746 90.634C89.9972 90.1417 88.6997 89.896 87.2693 89.896C84.04 89.896 81.3595 91.244 79.2335 93.9429ZM109.635 91.2915V83.3465L102.693 85.2242V91.2915H98.0435V96.4491H102.693L102.688 113.911H109.635V96.4491H114.135V91.2915H109.635ZM121.536 98.0049C123.967 98.0049 130.854 98.0049 133.122 98.0049C132.903 97.0728 132.545 96.2023 131.87 95.4392C130.779 94.2283 129.405 93.6386 127.672 93.6386C125.95 93.6386 124.534 94.1571 123.342 95.2229C122.501 95.9803 121.917 96.9035 121.536 98.0049ZM140.202 105.586C140.202 105.586 138.736 109.971 134.978 112.64C132.92 114.103 130.453 114.846 127.658 114.846C123.679 114.846 120.44 113.458 118.046 110.721C115.876 108.249 114.778 105.229 114.778 101.749C114.778 98.1648 115.879 95.1084 118.052 92.671C120.41 90.0027 123.645 88.6485 127.658 88.6485C131.579 88.6485 134.584 90.1381 136.82 92.903C140.14 97.002 139.358 103.401 139.358 103.401C139.358 103.401 123.582 103.401 121.019 103.401C121.215 104.866 121.748 106.153 122.635 107.295C123.871 108.894 125.515 109.67 127.66 109.67C128.871 109.67 129.903 109.471 130.73 109.073C132.942 108 134.076 105.586 134.076 105.586H140.202ZM149.413 95.8365V90.5233L142.455 90.5197L142.465 113.911H149.413C149.413 111.573 149.413 101.421 149.413 101.025C151.063 98.4651 154.414 96.4199 157.306 95.4314C157.44 94.171 157.672 92.3354 157.902 90.5355C153.942 91.5225 151.43 94.2189 149.413 95.8365ZM207.14 109.838V101.258C202.082 98.6786 194.766 101.013 194.913 105.589C195.206 110.099 201.557 112.141 207.14 109.838ZM207.315 112.186C205.637 113.87 203.519 114.294 200.372 114.151C192.781 114.298 188.462 109.841 188.413 105.528C188.711 99.7794 192.877 97.1904 199.48 96.5221C202.55 96.1847 204.737 96.5221 207.315 97.2863C207.315 95.4186 206.687 93.9813 203.1 93.9813C201.186 93.9813 194.755 93.9813 191.896 93.9813C190.006 93.9813 188.911 95.4186 188.168 96.9984C183.504 105.912 181.864 112.957 174.768 121.724C167.178 130.061 157.286 131.905 147.313 132C146.737 132.006 146.419 131.736 146.813 130.953C147.07 130.444 147.732 128.996 148.11 128.203C148.367 127.671 148.951 126.432 150.805 126.993C157.953 129.15 162.318 128.432 165.837 123.45C171.645 112.667 172.935 110.224 178.493 96.9033C180.029 93.3581 176.705 93.835 172.589 93.7405C162.368 93.835 161.024 99.9224 161.32 102.652C162.318 106.295 164.398 107.781 170.106 108.453C170.505 108.501 171.147 108.785 170.603 109.266C169.711 109.939 166.637 112.573 165.644 113.436C165.594 113.482 165.05 114.106 164.147 113.768C160.774 112.334 158.496 109.794 157.552 107.925C156.362 105.433 156.612 103.421 157.058 101.074C157.604 97.1904 162.368 90.2438 171.546 90.2438C173.133 90.2438 176.802 90.2438 178.344 90.2438C180.677 90.2438 181.467 90.2891 182.212 89.0917C189.159 76.3482 189.455 68.5863 209.749 69.017C211.438 69.211 210.291 70.2167 209.851 70.9808C209.358 71.796 208.704 72.8493 207.866 74.1912C206.522 76.157 206.272 76.0604 205.581 75.2459C204.737 74.2402 203.599 74.1912 201.758 73.9523C197.493 73.6162 194.962 76.9681 191.838 88.3752C191.738 88.663 191.442 90.1001 192.68 90.0525C197.941 90.0525 200.383 90.0525 205.886 90.0525C208.203 90.0525 211.483 91.0229 213.125 93.4906C214.777 95.9577 214.529 98.455 214.529 102.271V113.841H207.315V112.186ZM237.649 90.5197L230.372 102.556L239 113.911H232.15L227.853 107.341L224.016 113.911H216.942C216.942 113.911 222.247 106.074 224.554 102.367L216.795 90.5197H222.813L227.625 98.0026L231.699 90.5197H237.649Z" fill="#009CA6"/>
</svg>
