<svg width="301" height="192" viewBox="0 0 301 192" fill="none" xmlns="http://www.w3.org/2000/svg">
    <path d="M300.717 0.330017V191.66H0.282694V0.330017H300.717ZM301 0.039978H0V192H301V0V0.039978Z" fill="#C2C2C2"/>
    <path d="M236.77 109.982L226.58 97.4116L236.49 86.6616H228.96L220.76 95.6917V86.6716H214.49V109.952H220.76V99.8317L229.03 109.982H236.77Z" fill="#009BA9"/>
    <path d="M65.79 109.952H59.7V106.662C58.8914 107.928 57.7677 108.963 56.4388 109.664C55.11 110.365 53.6217 110.709 52.12 110.662C47.12 110.662 44 107.902 44 102.362V86.7017H50.45V100.012C50.45 102.942 50.72 105.292 54.38 105.292C58.38 105.292 59.38 102.222 59.38 98.7017V86.7017H65.74L65.79 109.952Z" fill="#009BA9"/>
    <path d="M83.9999 109.952V100.162H74.9999V109.952H68.6299V86.6719H74.9999V95.1119H83.9999V86.6719H90.3599V109.952H83.9999Z" fill="#009BA9"/>
    <path d="M104.93 91.5919V109.952H98.5699V91.5919H91.9199V86.6719H111.58V91.5919H104.93Z" fill="#009BA9"/>
    <path d="M123.31 110.632C116.13 110.632 111.4 105.752 111.4 98.4517C111.4 91.1517 116.32 85.9917 123.08 85.9917C130.08 85.9917 134.59 91.1416 134.59 99.3016V99.9316H117.89C117.98 103.932 119.89 106.112 123.35 106.112C125.7 106.112 127.14 105.112 128.09 102.732H134.2C132.78 107.782 128.59 110.632 123.31 110.632ZM123.08 90.6316C120.24 90.6316 118.25 92.6317 117.89 95.8617H128.09C127.82 93.0617 126.29 90.6416 123.08 90.6416V90.6316Z" fill="#009BA9"/>
    <path d="M142.2 89.5618C143.017 88.4227 144.105 87.5047 145.366 86.8903C146.626 86.2759 148.019 85.9843 149.42 86.0418C155.69 86.0418 159.79 90.9618 159.79 98.4518C159.79 105.752 155.79 110.542 149.69 110.542C148.3 110.602 146.917 110.315 145.665 109.708C144.414 109.1 143.333 108.191 142.52 107.062V117.142H136.16V86.6718H142.16L142.2 89.5618ZM142.29 98.3619C142.29 102.872 144.37 105.532 147.88 105.532C151.39 105.532 153.39 102.872 153.39 98.4518C153.39 94.0318 151.27 91.1818 147.84 91.1818C144.41 91.1818 142.2 93.8419 142.2 98.3619H142.29Z" fill="#009BA9"/>
    <path d="M246.06 110.542C238.88 110.542 234.19 105.752 234.19 98.5417C234.19 91.0117 238.93 86.0417 246.19 86.0417C252.41 86.0417 256.56 89.4318 257.1 94.8418H250.83C250.726 93.7111 250.189 92.6642 249.332 91.9191C248.475 91.174 247.364 90.7881 246.23 90.8418C242.76 90.8418 240.68 93.6318 240.68 98.4218C240.68 103.212 242.68 105.722 246.1 105.722C248.85 105.722 250.56 104.102 251.1 101.032H257.2C256.39 107.062 252.2 110.542 246.06 110.542Z" fill="#009BA9"/>
    <path d="M201.5 86.0618H194.72C193.53 86.0618 193.82 84.6619 193.91 84.3719C196.91 72.9719 199.48 69.6118 203.61 69.8118C204.274 69.777 204.938 69.8879 205.554 70.1366C206.171 70.3854 206.726 70.7659 207.18 71.2517C207.99 72.0417 208.01 72.5118 209.38 70.1918C211.04 67.4118 211.1 67.2918 211.58 66.4718C211.91 65.9218 212.73 65.0417 211.2 65.0117C191.61 64.6617 191.33 72.1517 184.62 84.8817C183.9 86.0817 183.13 86.0318 180.87 86.0318H175.96C173.25 86.0318 169.61 86.3717 166.73 88.5117C165.048 89.6484 163.667 91.1753 162.704 92.9621C161.741 94.7488 161.225 96.7422 161.2 98.7718C161.242 101.619 162.238 104.369 164.03 106.582C165.118 107.918 166.483 109.003 168.03 109.762C168.46 109.962 168.57 109.922 168.72 109.892C169.003 109.801 169.26 109.643 169.47 109.432C172.8 106.502 173 106.342 174.26 105.262C174.78 104.782 174.38 104.502 173.78 104.452C171.22 104.232 169.59 103.582 168.53 102.452C167.503 101.425 166.897 100.052 166.83 98.6018C166.54 95.3618 169.05 92.6518 171.2 91.4218C172.89 90.5841 174.766 90.195 176.65 90.2918C180.05 90.2918 180.99 90.4218 181.43 90.8418C181.87 91.2618 182.26 91.7018 181.72 93.0718C178.51 101.192 177.1 105.512 170.96 116.072C167.96 121.292 162.29 124.712 154.55 122.182C152.76 121.602 152.45 122.612 151.95 123.402C151.45 124.192 149.95 126.402 149.74 126.912C149.37 127.692 150.4 127.912 150.96 127.912C163.41 128.282 170.13 125.972 177.46 117.632C184.31 108.862 185.66 102.192 190.15 93.2818C190.86 91.7418 191.88 90.3418 193.64 90.2818H201.35C204.18 90.2818 205.53 91.2818 205.55 93.3518H202.2C200.97 93.3518 193.64 93.2418 190.36 99.0418C189.405 100.573 188.98 102.375 189.15 104.172C189.47 107.252 191.71 109.422 194.75 110.272C195.184 110.408 195.629 110.505 196.08 110.562C196.69 110.647 197.304 110.691 197.92 110.692C200.702 110.747 203.395 109.71 205.42 107.802V109.802H211.62V93.6219C211.68 87.1819 206.2 86.0618 201.5 86.0618ZM205.5 101.642C205.489 102.9 205.028 104.114 204.2 105.062C203.448 105.73 202.549 106.212 201.576 106.467C200.603 106.723 199.583 106.745 198.6 106.532C197.6 106.252 195.79 105.242 195.71 103.392C195.593 102.523 195.738 101.639 196.126 100.854C196.514 100.068 197.129 99.4162 197.89 98.9818C199.138 98.1881 200.591 97.7778 202.07 97.8018H205.5C205.5 97.8018 205.48 100.352 205.48 101.682L205.5 101.642Z" fill="#009BA9"/>
</svg>
