<svg width="386" height="242" viewBox="0 0 386 242" fill="none" xmlns="http://www.w3.org/2000/svg">
    <path d="M385.641 0.411367V241.639H0.359055V0.411367H385.641ZM386 0H0V242H386V0Z" fill="#C2C2C2"/>
    <g clip-path="url(#clip0_481_182)">
        <mask id="mask0_481_182" style="mask-type:luminance" maskUnits="userSpaceOnUse" x="-41" y="0" width="463" height="247">
            <path d="M421.059 0.410706H-40.332V246.687H421.059V0.410706Z" fill="white"/>
        </mask>
        <g mask="url(#mask0_481_182)">
            <path d="M237.741 100.453V131.889H256.983V114.18H276.326C286.499 114.18 295.074 108.475 298.402 100.453H237.741Z" fill="#006644"/>
        </g>
        <mask id="mask1_481_182" style="mask-type:luminance" maskUnits="userSpaceOnUse" x="236" y="72" width="64" height="25">
            <path d="M236.854 72C236.942 73.5753 237.165 75.1401 237.523 76.6771C237.61 77.0246 237.683 77.3576 237.785 77.6907C237.886 78.0237 237.872 77.9658 237.901 78.0961C239.622 83.5267 243.035 88.2695 247.645 91.6362C252.255 95.003 257.821 96.8183 263.537 96.8188H299.055C299.596 93.7836 299.464 90.6672 298.667 87.6884C297.871 84.7096 296.43 81.9405 294.445 79.5755C292.461 77.2105 289.981 75.3069 287.18 73.9982C284.378 72.6895 281.324 72.0075 278.23 72H236.854Z" fill="white"/>
        </mask>
        <g mask="url(#mask1_481_182)">
            <path d="M299.404 72H236.854V96.8188H299.404V72Z" fill="url(#paint0_linear_481_182)"/>
        </g>
        <mask id="mask2_481_182" style="mask-type:luminance" maskUnits="userSpaceOnUse" x="-41" y="0" width="463" height="247">
            <path d="M421.059 0.410706H-40.332V246.687H421.059V0.410706Z" fill="white"/>
        </mask>
        <g mask="url(#mask2_481_182)">
            <path d="M203.662 78.3278L190.19 107.389H188.824V72H169.698V131.889H185.932C188.02 131.892 190.066 131.297 191.825 130.175C193.585 129.053 194.984 127.452 195.857 125.562L209.315 96.5002H210.696V131.889H229.821V72H213.588C211.499 71.9996 209.455 72.5953 207.695 73.7168C205.936 74.8382 204.536 76.4383 203.662 78.3278Z" fill="#006644"/>
            <path d="M114.604 79.8771L122.568 107.389H123.89L131.854 79.8771C132.512 77.6071 133.893 75.6115 135.788 74.1908C137.683 72.7702 139.99 72.0013 142.361 72H161.458V131.889H142.376V96.5002H141.01L130.081 131.889H116.42L105.491 96.5002H104.125V131.889H85V72H104.096C106.468 71.9989 108.776 72.7669 110.672 74.1879C112.567 75.6089 113.947 77.6059 114.604 79.8771Z" fill="#006644"/>
            <path d="M85.291 155.97H97.5132V170.739H94.8827V158.33H87.8924V170.739H85.291V155.97Z" fill="#006644"/>
            <path d="M112.032 170.739H109.241L105.957 162.66L102.629 170.739H99.9258L104.765 159.517H107.192L112.032 170.739Z" fill="#006644"/>
            <path d="M113.324 167.539C113.324 165.136 115.228 163.948 117.96 163.948C118.982 163.937 119.998 164.093 120.969 164.412V164.035C120.969 162.457 119.995 161.617 118.193 161.617C117.089 161.614 115.998 161.851 114.995 162.312L114.298 160.299C115.626 159.684 117.077 159.377 118.542 159.402C119.21 159.35 119.883 159.432 120.519 159.644C121.156 159.855 121.743 160.191 122.247 160.632C122.672 161.095 122.998 161.64 123.205 162.232C123.413 162.825 123.497 163.453 123.454 164.079V170.681H120.983V169.233C120.539 169.762 119.98 170.184 119.347 170.465C118.715 170.746 118.027 170.879 117.335 170.855C116.844 170.909 116.347 170.862 115.875 170.716C115.403 170.569 114.966 170.328 114.592 170.005C114.219 169.683 113.916 169.288 113.702 168.843C113.489 168.399 113.37 167.916 113.353 167.423M121.041 166.613V165.86C120.229 165.553 119.366 165.4 118.498 165.411C116.856 165.411 115.882 166.106 115.882 167.264C115.882 168.35 116.827 168.958 118.062 168.958C119.748 168.958 120.969 167.988 120.969 166.569" fill="#006644"/>
            <path d="M129.166 161.878H125.184V159.604H135.705V161.878H131.738V170.739H129.166V161.878Z" fill="#006644"/>
            <path d="M136.81 165.208C136.773 164.467 136.886 163.726 137.143 163.029C137.4 162.332 137.796 161.695 138.306 161.154C138.816 160.613 139.43 160.18 140.112 159.882C140.794 159.583 141.53 159.425 142.275 159.416C145.835 159.416 147.637 162.196 147.637 165.396C147.637 165.642 147.637 165.874 147.637 166.12H139.426C139.478 166.924 139.843 167.676 140.443 168.217C141.042 168.758 141.83 169.044 142.638 169.016C143.208 169.017 143.772 168.901 144.295 168.674C144.818 168.448 145.288 168.115 145.675 167.698L147.129 169.016C146.58 169.695 145.882 170.238 145.087 170.602C144.293 170.967 143.425 171.142 142.551 171.116C141.778 171.149 141.008 171.021 140.288 170.742C139.568 170.462 138.913 170.037 138.367 169.492C137.82 168.948 137.393 168.296 137.113 167.578C136.832 166.861 136.705 166.093 136.737 165.324M138.801 155.796H141.403V158.243H138.801V155.796ZM145.021 164.484C145.021 163.716 144.715 162.979 144.17 162.436C143.625 161.893 142.886 161.588 142.115 161.588C141.353 161.617 140.63 161.931 140.091 162.468C139.552 163.005 139.237 163.725 139.208 164.484H145.021ZM142.929 155.796H145.53V158.243H142.929V155.796Z" fill="#006644"/>
            <path d="M158.857 164.006H160.106L163.638 159.604H166.646L162.039 165.049L166.821 170.739H163.798L160.135 166.207H158.857L158.886 170.739H156.386L156.4 166.207H155.092L151.445 170.739H148.422L153.203 165.15L148.611 159.604H151.634L155.165 164.006H156.4L156.386 159.604H158.886L158.857 164.006Z" fill="#006644"/>
            <path d="M168.666 159.604H171.238V163.963H176.412V159.604H178.97V170.739H176.412V166.308H171.238V170.739H168.666V159.604Z" fill="#006644"/>
            <path d="M181.411 167.539C181.411 165.136 183.315 163.948 186.047 163.948C187.069 163.938 188.085 164.094 189.055 164.412V164.035C189.055 162.457 188.082 161.617 186.28 161.617C185.176 161.614 184.085 161.851 183.082 162.312L182.385 160.299C183.713 159.684 185.164 159.377 186.628 159.402C187.297 159.35 187.97 159.432 188.606 159.644C189.243 159.855 189.83 160.191 190.334 160.632C190.756 161.097 191.08 161.642 191.288 162.234C191.495 162.826 191.581 163.453 191.541 164.079V170.681H189.041V169.233C188.597 169.762 188.037 170.184 187.405 170.465C186.773 170.746 186.085 170.879 185.393 170.855C184.902 170.909 184.405 170.862 183.933 170.716C183.461 170.569 183.024 170.328 182.65 170.005C182.276 169.683 181.973 169.288 181.76 168.843C181.547 168.399 181.428 167.916 181.411 167.423M189.099 166.613V165.86C188.287 165.553 187.424 165.4 186.556 165.411C184.914 165.411 183.925 166.106 183.925 167.264C183.925 168.35 184.885 168.958 186.12 168.958C187.806 168.958 189.099 167.988 189.099 166.569" fill="#006644"/>
            <path d="M193.866 170.739L196.875 166.671C196.123 166.485 195.456 166.053 194.982 165.443C194.507 164.834 194.252 164.083 194.259 163.311C194.259 160.864 196.046 159.604 198.822 159.604H204.17V170.739H201.641V166.931H199.534L196.802 170.725L193.866 170.739ZM198.924 161.602C197.616 161.602 196.787 162.24 196.787 163.311C196.787 164.339 197.543 165.02 198.909 165.02H201.641V161.574L198.924 161.602Z" fill="#006644"/>
            <path d="M213.137 165.237C213.137 163.701 213.75 162.228 214.84 161.141C215.93 160.055 217.408 159.445 218.95 159.445C219.79 159.414 220.625 159.57 221.397 159.9C222.169 160.231 222.857 160.728 223.412 161.356L221.799 163.065C221.451 162.626 221.01 162.268 220.508 162.018C220.005 161.768 219.454 161.631 218.892 161.617C218.444 161.634 218.004 161.739 217.597 161.927C217.191 162.115 216.826 162.382 216.524 162.713C216.222 163.043 215.99 163.43 215.84 163.851C215.69 164.272 215.626 164.719 215.651 165.165C215.626 165.62 215.693 166.075 215.849 166.503C216.005 166.932 216.246 167.324 216.559 167.657C216.871 167.99 217.248 168.256 217.666 168.44C218.085 168.624 218.536 168.722 218.994 168.727C219.553 168.703 220.102 168.562 220.603 168.313C221.104 168.063 221.546 167.711 221.9 167.279L223.441 168.727C222.897 169.406 222.201 169.95 221.408 170.314C220.616 170.679 219.75 170.854 218.878 170.826C218.11 170.84 217.348 170.7 216.637 170.413C215.925 170.127 215.279 169.701 214.736 169.16C214.194 168.62 213.766 167.976 213.479 167.267C213.192 166.558 213.051 165.799 213.064 165.034" fill="#006644"/>
            <path d="M225.81 159.604H228.382V166.728L233.715 159.604H236.157V170.739H233.585V163.441L228.149 170.739H225.81V159.604Z" fill="#006644"/>
            <path d="M238.7 165.237C238.7 163.701 239.312 162.228 240.403 161.141C241.493 160.055 242.971 159.445 244.513 159.445C245.355 159.414 246.192 159.57 246.966 159.9C247.74 160.231 248.431 160.728 248.989 161.356L247.42 162.993C247.07 162.555 246.629 162.198 246.127 161.948C245.625 161.698 245.074 161.56 244.513 161.545C244.065 161.561 243.625 161.667 243.218 161.855C242.812 162.043 242.447 162.31 242.145 162.64C241.843 162.971 241.611 163.358 241.461 163.779C241.311 164.2 241.247 164.646 241.272 165.092C241.245 165.548 241.31 166.004 241.466 166.433C241.621 166.863 241.862 167.256 242.175 167.589C242.488 167.923 242.865 168.189 243.285 168.372C243.704 168.555 244.157 168.651 244.615 168.654C245.174 168.631 245.723 168.49 246.224 168.24C246.725 167.991 247.167 167.638 247.521 167.206L249.062 168.654C248.514 169.333 247.815 169.876 247.021 170.24C246.226 170.605 245.358 170.781 244.484 170.754C243.717 170.768 242.955 170.627 242.243 170.341C241.532 170.055 240.885 169.629 240.343 169.088C239.8 168.547 239.373 167.903 239.085 167.195C238.798 166.486 238.657 165.726 238.671 164.962" fill="#006644"/>
            <path d="M254.192 161.878H250.21V159.604H260.732V161.878H256.764V170.739H254.192V161.878Z" fill="#006644"/>
            <path d="M261.837 165.208C261.8 164.467 261.913 163.726 262.17 163.029C262.427 162.332 262.822 161.695 263.333 161.154C263.843 160.613 264.457 160.181 265.139 159.882C265.821 159.583 266.556 159.425 267.301 159.416C270.862 159.416 272.664 162.196 272.664 165.411C272.664 165.642 272.664 165.874 272.664 166.12H264.453C264.505 166.924 264.87 167.676 265.469 168.217C266.069 168.758 266.856 169.044 267.665 169.016C268.233 169.019 268.795 168.903 269.316 168.676C269.837 168.449 270.304 168.116 270.687 167.699L272.141 169.016C271.381 169.945 270.35 170.616 269.191 170.937C268.033 171.257 266.802 171.212 265.67 170.807C264.539 170.402 263.561 169.657 262.871 168.675C262.182 167.693 261.816 166.522 261.822 165.324M270.106 164.513C270.106 163.745 269.8 163.008 269.255 162.465C268.71 161.922 267.97 161.617 267.2 161.617C266.438 161.646 265.715 161.96 265.176 162.497C264.637 163.034 264.322 163.754 264.293 164.513H270.106Z" fill="#006644"/>
            <path d="M275.222 159.604H277.91L281.34 164.788L284.77 159.604H287.444V170.739H284.915V163.355L281.34 168.654H281.282L277.721 163.398V170.739H275.222V159.604Z" fill="#006644"/>
            <path d="M289.87 167.539C289.87 165.136 291.788 163.948 294.521 163.948C295.542 163.938 296.558 164.094 297.529 164.412V164.035C297.529 162.457 296.555 161.617 294.753 161.617C293.649 161.614 292.558 161.851 291.556 162.312L290.858 160.299C292.182 159.685 293.628 159.378 295.087 159.402C295.756 159.35 296.429 159.432 297.065 159.644C297.702 159.855 298.289 160.191 298.793 160.632C299.218 161.095 299.544 161.64 299.751 162.232C299.959 162.825 300.043 163.453 300 164.079V170.681H297.5V169.233C297.057 169.763 296.497 170.185 295.865 170.466C295.233 170.747 294.544 170.88 293.852 170.855C293.361 170.909 292.864 170.862 292.392 170.716C291.92 170.569 291.483 170.328 291.109 170.005C290.735 169.683 290.432 169.288 290.219 168.843C290.006 168.399 289.887 167.916 289.87 167.423M297.558 166.613V165.86C296.751 165.552 295.893 165.4 295.029 165.411C293.373 165.411 292.399 166.106 292.399 167.264C292.399 168.35 293.343 168.958 294.579 168.958C296.279 168.958 297.558 167.988 297.558 166.569" fill="#006644"/>
        </g>
    </g>
    <defs>
        <linearGradient id="paint0_linear_481_182" x1="236.854" y1="84.0428" x2="299.404" y2="84.0428" gradientUnits="userSpaceOnUse">
            <stop stop-color="#50A9DF"/>
            <stop offset="1" stop-color="#4059A4"/>
        </linearGradient>
        <clipPath id="clip0_481_182">
            <rect width="215" height="99" fill="white" transform="translate(85 72)"/>
        </clipPath>
    </defs>
</svg>
