<svg width="386" height="243" viewBox="0 0 386 243" fill="none" xmlns="http://www.w3.org/2000/svg">
    <path d="M385.641 0.413067V242.637H0.359055V0.413067H385.641ZM386 0H0V243H386V0Z" fill="#C2C2C2"/>
    <path d="M104.854 161.813V147.361H110.54C113.898 147.361 116.02 149.281 116.02 152.234C116.02 155.475 113.424 157.168 110.251 157.168H107.388V161.813H104.854ZM107.388 154.876H110.334C112.25 154.876 113.444 153.803 113.444 152.254C113.444 150.561 112.229 149.674 110.334 149.674H107.388V154.876Z" fill="#006848"/>
    <path d="M127.252 161.813H124.78V160.471C124.038 161.359 122.905 162.04 121.257 162.04C119.197 162.04 117.384 160.863 117.384 158.633C117.384 156.218 119.258 155.062 121.792 155.062C123.111 155.062 123.956 155.248 124.8 155.516V155.31C124.8 153.803 123.853 152.977 122.122 152.977C120.906 152.977 120 153.245 119.011 153.658L118.331 151.656C119.526 151.119 120.7 150.747 122.472 150.747C125.686 150.747 127.252 152.44 127.252 155.351V161.813ZM124.841 157.87V157.25C124.203 157.003 123.317 156.817 122.349 156.817C120.783 156.817 119.856 157.457 119.856 158.551C119.856 159.583 120.783 160.161 121.957 160.161C123.605 160.161 124.841 159.232 124.841 157.87Z" fill="#006848"/>
    <path d="M132.039 165.178C130.989 165.178 130.226 164.93 129.464 164.517L130.309 162.659C130.762 162.907 131.256 163.072 131.772 163.072C132.472 163.072 132.905 162.762 133.317 161.813L128.784 150.912H131.442L134.532 159.005L137.355 150.912H139.95L135.624 162.122C134.759 164.352 133.79 165.178 132.039 165.178Z" fill="#006848"/>
    <path d="M142.087 161.813V150.912H144.58V152.564C145.28 151.594 146.228 150.685 147.897 150.685C149.462 150.685 150.554 151.449 151.131 152.605C152.017 151.449 153.171 150.685 154.819 150.685C157.188 150.685 158.63 152.192 158.63 154.855V161.813H156.137V155.619C156.137 153.885 155.334 152.956 153.933 152.956C152.573 152.956 151.605 153.906 151.605 155.661V161.813H149.112V155.599C149.112 153.906 148.288 152.956 146.908 152.956C145.527 152.956 144.58 153.988 144.58 155.681V161.813H142.087Z" fill="#006848"/>
    <path d="M166.648 162.06C163.496 162.06 161.065 159.769 161.065 156.363C161.065 153.245 163.27 150.685 166.38 150.685C169.841 150.685 171.593 153.41 171.593 156.548C171.593 156.714 171.572 157.126 171.551 157.25H163.558C163.826 159.026 165.082 160.017 166.689 160.017C167.905 160.017 168.77 159.562 169.635 158.716L171.098 160.017C170.068 161.255 168.647 162.06 166.648 162.06ZM163.537 155.599H169.12C168.956 153.988 168.008 152.729 166.36 152.729C164.835 152.729 163.764 153.906 163.537 155.599Z" fill="#006848"/>
    <path d="M174.096 161.813V150.912H176.589V152.605C177.289 151.573 178.299 150.685 179.988 150.685C182.44 150.685 183.861 152.337 183.861 154.876V161.813H181.369V155.619C181.369 153.926 180.524 152.956 179.041 152.956C177.598 152.956 176.589 153.968 176.589 155.661V161.813H174.096Z" fill="#006848"/>
    <path d="M190.518 161.999C188.685 161.999 187.387 161.193 187.387 158.799V153.059H186.006V150.912H187.387V147.919H189.879V150.912H192.805V153.059H189.879V158.406C189.879 159.377 190.374 159.769 191.219 159.769C191.775 159.769 192.269 159.645 192.764 159.397V161.441C192.146 161.792 191.445 161.999 190.518 161.999Z" fill="#006848"/>
    <path d="M206.834 162.019C204.63 162.019 202.549 161.255 200.818 159.707L202.343 157.89C203.723 159.088 205.103 159.769 206.896 159.769C208.461 159.769 209.45 159.046 209.45 157.911C209.45 156.879 208.873 156.321 206.195 155.681C203.126 154.959 201.395 154.05 201.395 151.346C201.395 148.869 203.455 147.155 206.319 147.155C208.42 147.155 210.089 147.795 211.552 148.972L210.192 150.892C208.894 149.921 207.596 149.405 206.278 149.405C204.794 149.405 203.929 150.169 203.929 151.16C203.929 152.275 204.588 152.77 207.349 153.431C210.398 154.174 211.984 155.268 211.984 157.704C211.984 160.409 209.862 162.019 206.834 162.019Z" fill="#006848"/>
    <path d="M216.599 165.178C215.548 165.178 214.786 164.93 214.024 164.517L214.869 162.659C215.322 162.907 215.816 163.072 216.331 163.072C217.032 163.072 217.464 162.762 217.876 161.813L213.344 150.912H216.002L219.092 159.005L221.914 150.912H224.51L220.184 162.122C219.319 164.352 218.35 165.178 216.599 165.178Z" fill="#006848"/>
    <path d="M229.973 162.019C228.428 162.019 226.718 161.462 225.358 160.388L226.471 158.695C227.645 159.583 228.923 160.037 230.035 160.037C231.106 160.037 231.724 159.583 231.724 158.819C231.724 158.014 230.674 157.725 229.479 157.374C229.417 157.353 229.355 157.333 229.293 157.312C227.686 156.837 225.894 156.177 225.894 154.05C225.894 151.986 227.604 150.727 229.767 150.727C231.127 150.727 232.61 151.201 233.764 151.965L232.775 153.741C231.724 153.101 230.612 152.708 229.705 152.708C228.737 152.708 228.181 153.163 228.181 153.844C228.181 154.587 229.232 154.917 230.426 155.31C230.488 155.33 230.571 155.351 230.633 155.372C232.219 155.867 234.011 156.59 234.011 158.592C234.011 160.884 232.239 162.019 229.973 162.019Z" fill="#006848"/>
    <path d="M239.991 161.999C238.157 161.999 236.859 161.193 236.859 158.799V153.059H235.479V150.912H236.859V147.919H239.352V150.912H242.277V153.059H239.352V158.406C239.352 159.377 239.846 159.769 240.691 159.769C241.247 159.769 241.742 159.645 242.236 159.397V161.441C241.618 161.792 240.918 161.999 239.991 161.999Z" fill="#006848"/>
    <path d="M249.478 162.06C246.326 162.06 243.895 159.769 243.895 156.363C243.895 153.245 246.099 150.685 249.21 150.685C252.671 150.685 254.422 153.41 254.422 156.548C254.422 156.714 254.402 157.126 254.381 157.25H246.388C246.655 159.026 247.912 160.017 249.519 160.017C250.735 160.017 251.6 159.562 252.465 158.716L253.928 160.017C252.898 161.255 251.476 162.06 249.478 162.06ZM246.367 155.599H251.95C251.785 153.988 250.838 152.729 249.189 152.729C247.665 152.729 246.594 153.906 246.367 155.599Z" fill="#006848"/>
    <path d="M256.926 161.813V150.912H259.419V152.564C260.119 151.594 261.067 150.685 262.735 150.685C264.301 150.685 265.393 151.449 265.97 152.605C266.856 151.449 268.009 150.685 269.658 150.685C272.027 150.685 273.469 152.192 273.469 154.855V161.813H270.976V155.619C270.976 153.885 270.173 152.956 268.772 152.956C267.412 152.956 266.444 153.906 266.444 155.661V161.813H263.951V155.599C263.951 153.906 263.127 152.956 261.746 152.956C260.366 152.956 259.419 153.988 259.419 155.681V161.813H256.926Z" fill="#006848"/>
    <path d="M279.409 96.9763H217.986V128.99H237.455V110.97H245.666L256.718 128.99H278.791L265.782 109.452C268.786 108.434 271.545 106.798 273.881 104.65C276.218 102.502 278.08 99.8879 279.35 96.9763" fill="#006848"/>
    <mask id="mask0_526_459" style="mask-type:luminance" maskUnits="userSpaceOnUse" x="216" y="68" width="65" height="26">
        <path d="M216.75 68C216.824 69.6057 217.05 71.2006 217.427 72.763C217.515 73.1169 217.589 73.4561 217.692 73.7953C217.722 73.9352 217.762 74.0732 217.81 74.2082C219.549 79.7413 223.004 84.5746 227.672 88.006C232.34 91.4374 237.978 93.2882 243.768 93.2897H279.688C279.918 92.0345 280.036 90.7613 280.042 89.4852C280.026 83.7994 277.768 78.3502 273.76 74.3256C269.752 70.301 264.319 68.0272 258.645 68H216.75Z" fill="white"/>
    </mask>
    <g mask="url(#mask0_526_459)">
        <path d="M280.07 68H216.734V93.2897H280.07V68Z" fill="url(#paint0_linear_526_459)"/>
    </g>
    <path d="M152.37 76.0219L144.306 104.04H142.923L134.858 76.0219C134.192 73.7101 132.794 71.6779 130.875 70.2311C128.956 68.7843 126.62 68.0013 124.219 68H104.883V128.99H124.248V92.9506H125.632L136.698 128.99H150.53L161.597 92.9506H162.98V128.99H182.346V68H163.009C160.608 68.0013 158.272 68.7843 156.353 70.2311C154.434 71.6779 153.036 73.7101 152.37 76.0219Z" fill="#006848"/>
    <path d="M210.01 68H190.645V128.99H210.01V68Z" fill="#006848"/>
    <defs>
        <linearGradient id="paint0_linear_526_459" x1="216.734" y1="81.6797" x2="280.07" y2="81.6797" gradientUnits="userSpaceOnUse">
            <stop stop-color="#02AFFF"/>
            <stop offset="1" stop-color="#1F5BD7"/>
        </linearGradient>
    </defs>
</svg>
