<svg width="386" height="243" viewBox="0 0 386 243" fill="none" xmlns="http://www.w3.org/2000/svg">
    <path d="M385.641 0.413067V242.637H0.359055V0.413067H385.641ZM386 0.0402797H0V243H386V0V0.0402797Z" fill="#C2C2C2"/>
    <g clip-path="url(#clip0_481_267)">
        <path d="M302.061 131.6L304.444 131.942C303.9 134.606 301.664 136.022 299.108 136.022C295.131 136.022 293.254 133.19 293.254 129.511C293.254 125.833 295.245 123.055 299.238 123.055C301.681 123.055 303.498 124.243 304.346 126.451L302.078 127.417C301.507 126.115 300.598 125.209 299.124 125.209C296.567 125.209 295.713 127.244 295.713 129.511C295.713 131.779 296.681 133.852 299.238 133.852C300.756 133.868 301.664 133.076 302.061 131.6ZM218.514 150.35H221.577C222.773 150.35 223.622 149.726 223.622 148.538C223.622 147.35 222.773 146.78 221.577 146.78H218.514V150.35ZM216.186 152.52V139.988H225.325V142.158H218.514V144.653H221.919C224.416 144.653 225.95 145.787 225.95 148.451C225.95 151.001 224.416 152.531 221.919 152.531L216.186 152.52ZM227.37 152.52V139.988H229.758V150.35H230.156L233.338 139.988H237.766V152.504H235.378V142.136H235.008L231.885 152.504L227.37 152.52ZM242.254 146.346H245.148C245.429 146.349 245.707 146.294 245.965 146.184C246.223 146.074 246.456 145.912 246.648 145.709C246.841 145.505 246.988 145.263 247.082 144.999C247.176 144.735 247.214 144.455 247.194 144.176C247.219 143.902 247.183 143.625 247.089 143.367C246.995 143.108 246.845 142.873 246.65 142.678C246.455 142.483 246.219 142.334 245.96 142.24C245.7 142.147 245.423 142.111 245.148 142.136H242.254V146.346ZM239.904 152.504V139.988H245.126C247.738 139.988 249.56 141.512 249.56 144.176C249.56 146.84 247.738 148.424 245.126 148.424H242.232V152.504H239.904ZM249.614 152.504L253.531 145.874L249.723 139.988H252.563L255.403 144.914H256.365V139.988H258.754V144.914H259.716L262.556 139.988H265.401L261.593 145.874L265.51 152.504H262.752L259.738 147.008H258.781V152.504H256.393V147.008H255.43L252.416 152.504H249.614ZM270.004 147.182H273.637L272.103 142.136H271.597L270.004 147.182ZM266.016 152.504L270.221 139.988H273.681L277.886 152.504H275.389L274.366 149.33H269.367L268.344 152.504H266.016ZM216.148 135.794V123.278H220.636L222.812 133.64H223.149L225.14 123.278H229.568V135.794H227.185V125.426H226.848L224.917 135.794H220.946L218.851 125.426H218.514V135.794H216.148ZM237.331 133.868C239.948 133.868 241.025 131.888 241.025 129.528C241.025 127.168 239.773 125.225 237.162 125.225C234.551 125.225 233.528 127.206 233.528 129.528C233.528 131.85 234.698 133.868 237.309 133.868H237.331ZM237.276 136.038C233.36 136.038 231.086 133.206 231.086 129.528C231.086 125.849 233.36 123.071 237.276 123.071C241.193 123.071 243.467 125.844 243.467 129.528C243.467 133.211 241.172 136.022 237.255 136.022L237.276 136.038ZM253.596 131.616L255.985 131.958C255.441 134.622 253.199 136.038 250.648 136.038C246.671 136.038 244.795 133.206 244.795 129.528C244.795 125.849 246.786 123.071 250.779 123.071C253.221 123.071 255.038 124.26 255.892 126.468L253.618 127.433C253.074 126.131 252.144 125.225 250.67 125.225C248.113 125.225 247.259 127.26 247.259 129.528C247.259 131.795 248.227 133.868 250.779 133.868C252.247 133.868 253.156 133.076 253.553 131.6L253.596 131.616ZM257.747 135.81V123.278H260.13V128.16H261.381L265.244 123.278H268.138L263.427 129.056L268.323 135.794H265.423L261.338 130.298H260.086V135.794L257.747 135.81ZM274.502 133.884C277.114 133.884 278.191 131.904 278.191 129.544C278.191 127.184 276.945 125.242 274.328 125.242C271.712 125.242 270.694 127.222 270.694 129.544C270.694 131.866 271.842 133.868 274.459 133.868L274.502 133.884ZM274.443 136.054C270.526 136.054 268.312 133.222 268.312 129.544C268.312 125.866 270.526 123.088 274.443 123.088C278.359 123.088 280.633 125.86 280.633 129.544C280.633 133.228 278.321 136.022 274.399 136.022L274.443 136.054ZM284.512 128.372H287.575C288.597 128.372 289.392 127.922 289.392 126.902C289.392 125.768 288.712 125.426 287.575 125.426H284.512V128.372ZM284.512 133.64H287.776C288.908 133.64 289.707 133.244 289.707 132.056C289.707 130.868 288.908 130.428 287.776 130.428H284.512V133.64ZM282.178 135.81V123.278H287.917C289.963 123.278 291.611 124.124 291.611 126.332C291.611 127.808 291.04 128.882 289.734 129.392C290.388 129.547 290.965 129.928 291.363 130.467C291.762 131.007 291.956 131.67 291.91 132.338C291.91 134.606 290.278 135.794 288.102 135.794L282.178 135.81ZM306.261 135.81V123.278H308.649V128.16H309.895L313.703 123.278H316.608L311.951 129.11L316.782 135.794H313.888L309.911 130.298H308.666V135.794L306.261 135.81ZM321.259 130.455H324.893L323.359 125.41H322.848L321.259 130.455ZM317.152 135.794L321.412 123.278H324.877L329.12 135.794H326.623L325.573 132.625H320.519L319.497 135.799L317.152 135.794ZM337.655 128.942V125.426H334.886C333.641 125.426 332.787 125.822 332.787 127.184C332.787 128.546 333.641 128.942 334.886 128.942H337.655ZM330.208 135.794L330.752 132.398C330.807 131.881 330.998 131.388 331.307 130.969C331.616 130.551 332.031 130.222 332.509 130.016C331.864 129.749 331.313 129.298 330.925 128.718C330.538 128.138 330.332 127.457 330.333 126.761C330.333 124.379 332.509 123.251 334.647 123.251H340V135.767H337.672V130.998H334.886C333.755 130.998 333.352 131.394 333.184 132.582L332.672 135.837L330.208 135.794ZM68 164.005V111.494H120.648V80H204.821V164L68 164.005Z" fill="#FF0508"/>
        <path d="M96.6256 147.404H95.4887L90.0922 123.278H80.0391V152.504H85.2669V128.372H86.4039L91.6263 152.504H100.488L105.825 128.372H106.962V152.504H112.189V123.278H102.136L96.6256 147.404ZM149.676 152.504H168.02V147.404H155.04V140.096H166.23V135.213H155.04V128.372H168.047V123.278H149.676V152.504ZM130.93 148.164C124.946 148.164 122.183 143.688 122.183 137.91C122.183 132.132 124.968 127.661 130.93 127.661C136.893 127.661 139.678 132.132 139.678 137.91C139.678 143.688 136.893 148.142 130.93 148.142V148.164ZM130.93 122.561C121.96 122.561 116.732 128.735 116.732 137.796C116.732 146.856 121.96 153.242 130.93 153.242C139.901 153.242 145.129 146.84 145.129 137.774C145.129 128.708 139.906 122.54 130.93 122.54V122.561ZM171.73 152.525H177.41L183.769 140.97L190.585 152.525H196.265L187.136 137.21L195.677 123.278H189.998L184.036 133.71L177.959 123.278H172.28L180.44 137.042L171.73 152.525Z" fill="white"/>
    </g>
    <defs>
        <clipPath id="clip0_481_267">
            <rect width="272" height="84" fill="white" transform="translate(68 80)"/>
        </clipPath>
    </defs>
</svg>
