<svg width="386" height="243" viewBox="0 0 386 243" fill="none" xmlns="http://www.w3.org/2000/svg">
    <path d="M385.641 0.413067V242.637H0.359055V0.413067H385.641ZM386 0.0402797H0V243H386V0V0.0402797Z" fill="#C2C2C2"/>
    <g clip-path="url(#clip0_499_199)">
        <path d="M208.271 153.242C212.56 153.242 215.359 151.202 216.219 149.39V152.504H221.696V136.472H210.271V141.23H216.219L216.159 141.773C215.819 145.451 213.245 148.169 208.956 148.169C202.931 148.169 201.118 143.189 201.118 137.807C201.118 132.425 203.106 127.58 209.131 127.58C212.62 127.58 214.735 129.674 216.109 132.734L221.423 130.455C219.418 125.296 215.129 122.524 209.411 122.524C200.033 122.524 195.399 129.208 195.399 137.817C195.399 146.427 199.119 153.225 208.271 153.225M250.13 152.488H244.356L243.151 144.952C242.697 142.179 241.837 141.214 239.147 141.214H232.629V152.488H227.152V123.278H239.564C244.652 123.278 249.741 125.882 249.741 131.416C249.735 133.036 249.25 134.619 248.346 135.969C247.441 137.319 246.157 138.377 244.652 139.011C245.786 139.479 246.771 140.242 247.504 141.219C248.237 142.196 248.69 143.351 248.815 144.561L250.13 152.488ZM232.602 136.456H239.12C242.094 136.456 244.099 135.55 244.099 132.381C244.099 129.213 242.122 128.285 239.147 128.285H232.629L232.602 136.456ZM316.269 152.488V123.278H328.56C334.684 123.278 338.967 126.842 338.967 133.076C338.967 139.309 334.679 142.988 328.56 142.988H321.785V152.504L316.269 152.488ZM321.747 138.045H328.549C331.469 138.045 333.359 135.832 333.359 133.06C333.359 130.114 331.639 128.242 328.549 128.242H321.785L321.747 138.045ZM267.63 153.242C258.362 153.242 253.389 146.498 253.389 137.888C253.389 129.278 258.362 122.54 267.63 122.54C276.898 122.54 281.871 129.278 281.871 137.888C281.871 146.498 276.892 153.242 267.63 153.242ZM267.63 148.088C273.803 148.088 276.262 143.438 276.262 137.888C276.262 132.17 273.803 127.694 267.63 127.694C261.457 127.694 258.976 132.452 258.976 137.888C258.976 143.438 261.435 148.088 267.613 148.088M310.847 141.176V123.272H305.369V141.339C305.369 146.72 302.63 148.25 298.736 148.25C294.842 148.25 292.097 146.72 292.097 141.339V123.278H286.499V141.181C286.499 149.791 291.818 153.247 298.741 153.247C305.665 153.247 310.863 149.791 310.863 141.181" fill="#FF0508"/>
        <path d="M47 164V111.494H100.01V80H184.762V164H47Z" fill="#FF0508"/>
        <path d="M75.8217 147.404H74.6769L69.2433 123.278H59.1211V152.504H64.3849V128.372H65.5296L70.7879 152.504H79.7106L85.084 128.372H86.2287V152.504H91.4925V123.278H81.3703L75.8217 147.404ZM129.237 152.504H147.707V147.404H134.638V140.096H145.905V135.213H134.638V128.372H147.734V123.278H129.237V152.504ZM110.362 148.164C104.337 148.164 101.554 143.688 101.554 137.91C101.554 132.132 104.359 127.661 110.362 127.661C116.365 127.661 119.17 132.132 119.17 137.91C119.17 143.688 116.365 148.142 110.362 148.142V148.164ZM110.362 122.561C101.33 122.561 96.0661 128.735 96.0661 137.796C96.0661 146.856 101.33 153.242 110.362 153.242C119.394 153.242 124.658 146.84 124.658 137.774C124.658 128.708 119.4 122.54 110.362 122.54V122.561ZM151.443 152.525H157.161L163.564 140.97L170.427 152.525H176.146L166.955 137.21L175.554 123.278H169.836L163.832 133.71L157.714 123.278H151.996L160.212 137.042L151.443 152.525Z" fill="white"/>
    </g>
    <defs>
        <clipPath id="clip0_499_199">
            <rect width="292" height="84" fill="white" transform="translate(47 80)"/>
        </clipPath>
    </defs>
</svg>
