<svg width="386" height="242" viewBox="0 0 386 242" fill="none" xmlns="http://www.w3.org/2000/svg">
    <path d="M88.722 198.35C88.722 196.437 89.368 194.822 90.66 193.505C91.9647 192.188 93.5607 191.529 95.448 191.529C97.386 191.529 98.9883 192.188 100.255 193.505C101.522 194.81 102.155 196.425 102.155 198.35C102.155 200.275 101.509 201.897 100.217 203.214C98.9377 204.519 97.348 205.171 95.448 205.171C93.5353 205.171 91.933 204.512 90.641 203.195C89.3617 201.865 88.722 200.25 88.722 198.35ZM90.109 198.35C90.109 199.883 90.622 201.194 91.648 202.283C92.674 203.372 93.9407 203.917 95.448 203.917C96.9933 203.917 98.2663 203.379 99.267 202.302C100.268 201.213 100.768 199.895 100.768 198.35C100.768 196.817 100.255 195.506 99.229 194.417C98.2157 193.328 96.9553 192.783 95.448 192.783C93.9027 192.783 92.6233 193.328 91.61 194.417C90.6093 195.494 90.109 196.805 90.109 198.35ZM110.065 208.8H108.83V205.19H108.716C107.133 205.19 105.853 204.728 104.878 203.803C103.903 202.866 103.415 201.624 103.415 200.079C103.415 198.559 103.922 197.324 104.935 196.374C105.948 195.424 107.202 194.949 108.697 194.949H108.83V191.13H110.065V194.949H110.217C111.775 194.949 113.042 195.424 114.017 196.374C115.005 197.324 115.499 198.559 115.499 200.079C115.499 201.662 114.999 202.91 113.998 203.822C113.01 204.734 111.737 205.19 110.179 205.19H110.065V208.8ZM104.726 200.079C104.726 201.308 105.087 202.27 105.809 202.967C106.544 203.664 107.513 204.012 108.716 204.012H108.83V196.127H108.697C107.494 196.127 106.531 196.488 105.809 197.21C105.087 197.932 104.726 198.888 104.726 200.079ZM110.179 196.127H110.065V204.012H110.179C111.42 204.012 112.396 203.664 113.105 202.967C113.827 202.27 114.188 201.308 114.188 200.079C114.188 198.901 113.814 197.951 113.067 197.229C112.32 196.494 111.357 196.127 110.179 196.127ZM125.115 196.963L118.598 205H117.401V195.12H118.636V203.176L125.153 195.12H126.35V205H125.115V196.963ZM137.704 205H128.85V195.12H130.085V203.822H136.203V195.12H137.438V203.822H138.882V207.47H137.704V205ZM148.012 196.963L141.495 205H140.298V195.12H141.533V203.176L148.05 195.12H149.247V205H148.012V196.963ZM152.316 197.21L151.651 196.26C152.12 195.829 152.703 195.494 153.399 195.253C154.109 195 154.799 194.873 155.47 194.873C156.788 194.873 157.795 195.215 158.491 195.899C159.188 196.57 159.536 197.558 159.536 198.863V205H158.301V203.366C157.909 203.936 157.37 204.373 156.686 204.677C156.015 204.981 155.312 205.133 154.577 205.133C153.589 205.133 152.747 204.88 152.05 204.373C151.354 203.866 151.005 203.138 151.005 202.188C151.005 200.187 152.608 199.186 155.812 199.186C156.775 199.186 157.605 199.287 158.301 199.49C158.301 198.35 158.073 197.495 157.617 196.925C157.174 196.342 156.408 196.051 155.318 196.051C154.292 196.051 153.292 196.437 152.316 197.21ZM153.095 203.537C153.627 203.841 154.235 203.993 154.919 203.993C155.603 203.993 156.268 203.784 156.914 203.366C157.573 202.948 158.035 202.422 158.301 201.789V200.611C157.706 200.408 156.933 200.307 155.983 200.307C153.526 200.307 152.297 200.909 152.297 202.112C152.297 202.745 152.563 203.22 153.095 203.537ZM170.446 205H169.211V196.298H164.29V198.065C164.29 198.483 164.277 198.901 164.252 199.319C164.227 199.724 164.182 200.212 164.119 200.782C164.056 201.352 163.948 201.878 163.796 202.359C163.644 202.828 163.454 203.277 163.226 203.708C163.011 204.139 162.719 204.474 162.352 204.715C161.997 204.956 161.586 205.076 161.117 205.076C160.978 205.076 160.87 205.07 160.794 205.057L160.68 203.822C161.427 203.923 162.01 203.493 162.428 202.53C162.846 201.58 163.055 200.079 163.055 198.027V195.12H170.446V205ZM176.85 205H172.936V195.12H174.171V198.35H177.002C179.649 198.35 180.973 199.452 180.973 201.656C180.973 202.821 180.586 203.67 179.814 204.202C179.041 204.734 178.053 205 176.85 205ZM176.793 199.528H174.171V203.822H176.774C178.699 203.822 179.662 203.106 179.662 201.675C179.662 200.244 178.705 199.528 176.793 199.528ZM191.51 205H190.275V200.554H183.986V205H182.751V195.12H183.986V199.376H190.275V195.12H191.51V205ZM197.491 205H194.014V195.12H195.249V198.35H197.662C200.309 198.35 201.633 199.452 201.633 201.656C201.633 202.834 201.24 203.689 200.455 204.221C199.682 204.74 198.694 205 197.491 205ZM197.472 199.528H195.249V203.822H197.453C199.365 203.822 200.322 203.106 200.322 201.675C200.322 200.244 199.372 199.528 197.472 199.528ZM204.559 205H203.324V195.12H204.559V205ZM214.753 196.963L208.236 205H207.039V195.12H208.274V203.176L214.791 195.12H215.988V205H214.753V196.963ZM208.559 190.826H209.756C209.769 191.358 209.952 191.782 210.307 192.099C210.674 192.403 211.13 192.555 211.675 192.555C211.941 192.555 212.22 192.498 212.511 192.384C212.815 192.283 213.056 192.086 213.233 191.795C213.41 191.504 213.512 191.181 213.537 190.826H214.696C214.671 191.649 214.367 192.314 213.784 192.821C213.201 193.328 212.498 193.581 211.675 193.581C210.788 193.581 210.047 193.34 209.452 192.859C208.869 192.378 208.572 191.7 208.559 190.826ZM232.829 205H231.594V196.298H225.419V205H224.184V195.12H232.829V205ZM235.905 197.21L235.24 196.26C235.709 195.829 236.291 195.494 236.988 195.253C237.697 195 238.388 194.873 239.059 194.873C240.376 194.873 241.383 195.215 242.08 195.899C242.777 196.57 243.125 197.558 243.125 198.863V205H241.89V203.366C241.497 203.936 240.959 204.373 240.275 204.677C239.604 204.981 238.901 205.133 238.166 205.133C237.178 205.133 236.336 204.88 235.639 204.373C234.942 203.866 234.594 203.138 234.594 202.188C234.594 200.187 236.196 199.186 239.401 199.186C240.364 199.186 241.193 199.287 241.89 199.49C241.89 198.35 241.662 197.495 241.206 196.925C240.763 196.342 239.996 196.051 238.907 196.051C237.881 196.051 236.88 196.437 235.905 197.21ZM236.684 203.537C237.216 203.841 237.824 203.993 238.508 203.993C239.192 203.993 239.857 203.784 240.503 203.366C241.162 202.948 241.624 202.422 241.89 201.789V200.611C241.295 200.408 240.522 200.307 239.572 200.307C237.115 200.307 235.886 200.909 235.886 202.112C235.886 202.745 236.152 203.22 236.684 203.537ZM246.701 208.8H245.466V195.12H246.701V196.583C247.03 196.038 247.524 195.62 248.183 195.329C248.842 195.025 249.519 194.873 250.216 194.873C251.673 194.873 252.813 195.348 253.636 196.298C254.472 197.235 254.89 198.426 254.89 199.87C254.89 201.377 254.434 202.644 253.522 203.67C252.61 204.683 251.426 205.19 249.969 205.19C248.576 205.19 247.486 204.797 246.701 204.012V208.8ZM250.102 196.051C249.355 196.051 248.664 196.273 248.031 196.716C247.398 197.147 246.954 197.71 246.701 198.407V202.245C247.423 203.423 248.5 204.012 249.931 204.012C251.033 204.012 251.913 203.619 252.572 202.834C253.243 202.036 253.579 201.08 253.579 199.965C253.579 198.825 253.269 197.888 252.648 197.153C252.04 196.418 251.191 196.051 250.102 196.051ZM259.055 196.298H255.16V195.12H264.223V196.298H260.29V205H259.055V196.298ZM274.245 205H273.01V200.554H266.721V205H265.486V195.12H266.721V199.376H273.01V195.12H274.245V205ZM284.482 202.378L285.318 203.119C284.887 203.778 284.324 204.291 283.627 204.658C282.93 205.013 282.183 205.19 281.385 205.19C279.814 205.19 278.548 204.715 277.585 203.765C276.622 202.815 276.141 201.574 276.141 200.041C276.141 198.496 276.597 197.248 277.509 196.298C278.421 195.348 279.631 194.873 281.138 194.873C281.391 194.873 281.74 194.905 282.183 194.968C283.272 195.183 284.127 195.696 284.748 196.507C285.369 197.305 285.679 198.255 285.679 199.357C285.679 199.661 285.654 200.016 285.603 200.421H277.452C277.49 201.548 277.876 202.429 278.611 203.062C279.358 203.695 280.302 204.012 281.442 204.012C282.025 204.012 282.595 203.86 283.152 203.556C283.709 203.252 284.153 202.859 284.482 202.378ZM281.043 196.032C280.055 196.032 279.232 196.33 278.573 196.925C277.914 197.52 277.534 198.306 277.433 199.281H284.349C284.324 198.255 284.013 197.457 283.418 196.887C282.835 196.317 282.044 196.032 281.043 196.032ZM288.82 208.8H287.585V195.12H288.82V196.583C289.149 196.038 289.643 195.62 290.302 195.329C290.961 195.025 291.638 194.873 292.335 194.873C293.792 194.873 294.932 195.348 295.755 196.298C296.591 197.235 297.009 198.426 297.009 199.87C297.009 201.377 296.553 202.644 295.641 203.67C294.729 204.683 293.545 205.19 292.088 205.19C290.695 205.19 289.605 204.797 288.82 204.012V208.8ZM292.221 196.051C291.474 196.051 290.783 196.273 290.15 196.716C289.517 197.147 289.073 197.71 288.82 198.407V202.245C289.542 203.423 290.619 204.012 292.05 204.012C293.152 204.012 294.032 203.619 294.691 202.834C295.362 202.036 295.698 201.08 295.698 199.965C295.698 198.825 295.388 197.888 294.767 197.153C294.159 196.418 293.31 196.051 292.221 196.051Z" fill="#878787"/>
    <path d="M17.184 225.84V228H16.616V222.4H18.632C20.1467 222.4 20.904 222.971 20.904 224.112C20.904 224.427 20.8373 224.701 20.704 224.936C20.576 225.165 20.4 225.344 20.176 225.472C19.952 225.6 19.7093 225.693 19.448 225.752C19.192 225.811 18.9173 225.84 18.624 225.84H17.184ZM18.672 222.92H17.184V225.32H18.608C18.8267 225.32 19.0293 225.301 19.216 225.264C19.408 225.227 19.5893 225.165 19.76 225.08C19.936 224.995 20.072 224.869 20.168 224.704C20.2693 224.533 20.32 224.333 20.32 224.104C20.32 223.315 19.7707 222.92 18.672 222.92ZM24.5809 226.896L24.9329 227.208C24.7515 227.485 24.5142 227.701 24.2209 227.856C23.9275 228.005 23.6129 228.08 23.2769 228.08C22.6155 228.08 22.0822 227.88 21.6769 227.48C21.2715 227.08 21.0689 226.557 21.0689 225.912C21.0689 225.261 21.2609 224.736 21.6449 224.336C22.0289 223.936 22.5382 223.736 23.1729 223.736C23.2795 223.736 23.4262 223.749 23.6129 223.776C24.0715 223.867 24.4315 224.083 24.6929 224.424C24.9542 224.76 25.0849 225.16 25.0849 225.624C25.0849 225.752 25.0742 225.901 25.0529 226.072H21.6209C21.6369 226.547 21.7995 226.917 22.1089 227.184C22.4235 227.451 22.8209 227.584 23.3009 227.584C23.5462 227.584 23.7862 227.52 24.0209 227.392C24.2555 227.264 24.4422 227.099 24.5809 226.896ZM23.1329 224.224C22.7169 224.224 22.3702 224.349 22.0929 224.6C21.8155 224.851 21.6555 225.181 21.6129 225.592H24.5249C24.5142 225.16 24.3835 224.824 24.1329 224.584C23.8875 224.344 23.5542 224.224 23.1329 224.224ZM26.4074 228H25.8874V223.84H26.4074V225.848L28.7114 223.84H29.4234L27.1914 225.768L29.5514 228H28.8314L26.7834 226.088L26.4074 226.424V228ZM33.6594 228H33.1394V224.336H31.0674V225.08C31.0674 225.256 31.0621 225.432 31.0514 225.608C31.0408 225.779 31.0221 225.984 30.9954 226.224C30.9688 226.464 30.9234 226.685 30.8594 226.888C30.7954 227.085 30.7154 227.275 30.6194 227.456C30.5288 227.637 30.4061 227.779 30.2514 227.88C30.1021 227.981 29.9288 228.032 29.7314 228.032C29.6728 228.032 29.6274 228.029 29.5954 228.024L29.5474 227.504C29.8621 227.547 30.1074 227.365 30.2834 226.96C30.4594 226.56 30.5474 225.928 30.5474 225.064V223.84H33.6594V228ZM34.9477 224.72L34.6677 224.32C34.865 224.139 35.1104 223.997 35.4037 223.896C35.7024 223.789 35.993 223.736 36.2757 223.736C36.8304 223.736 37.2544 223.88 37.5477 224.168C37.841 224.451 37.9877 224.867 37.9877 225.416V228H37.4677V227.312C37.3024 227.552 37.0757 227.736 36.7877 227.864C36.505 227.992 36.209 228.056 35.8997 228.056C35.4837 228.056 35.129 227.949 34.8357 227.736C34.5424 227.523 34.3957 227.216 34.3957 226.816C34.3957 225.973 35.0704 225.552 36.4197 225.552C36.825 225.552 37.1744 225.595 37.4677 225.68C37.4677 225.2 37.3717 224.84 37.1797 224.6C36.993 224.355 36.6704 224.232 36.2117 224.232C35.7797 224.232 35.3584 224.395 34.9477 224.72ZM35.2757 227.384C35.4997 227.512 35.7557 227.576 36.0437 227.576C36.3317 227.576 36.6117 227.488 36.8837 227.312C37.161 227.136 37.3557 226.915 37.4677 226.648V226.152C37.217 226.067 36.8917 226.024 36.4917 226.024C35.457 226.024 34.9397 226.277 34.9397 226.784C34.9397 227.051 35.0517 227.251 35.2757 227.384ZM39.4933 228H38.9733V223.84H39.4613L41.1653 226.04L42.8373 223.84H43.2933V228H42.7733V224.736L41.1653 226.84L39.4933 224.736V228ZM44.5883 224.72L44.3083 224.32C44.5056 224.139 44.751 223.997 45.0443 223.896C45.343 223.789 45.6336 223.736 45.9163 223.736C46.471 223.736 46.895 223.88 47.1883 224.168C47.4816 224.451 47.6283 224.867 47.6283 225.416V228H47.1083V227.312C46.943 227.552 46.7163 227.736 46.4283 227.864C46.1456 227.992 45.8496 228.056 45.5403 228.056C45.1243 228.056 44.7696 227.949 44.4763 227.736C44.183 227.523 44.0363 227.216 44.0363 226.816C44.0363 225.973 44.711 225.552 46.0603 225.552C46.4656 225.552 46.815 225.595 47.1083 225.68C47.1083 225.2 47.0123 224.84 46.8203 224.6C46.6336 224.355 46.311 224.232 45.8523 224.232C45.4203 224.232 44.999 224.395 44.5883 224.72ZM44.9163 227.384C45.1403 227.512 45.3963 227.576 45.6843 227.576C45.9723 227.576 46.2523 227.488 46.5243 227.312C46.8016 227.136 46.9963 226.915 47.1083 226.648V226.152C46.8576 226.067 46.5323 226.024 46.1323 226.024C45.0976 226.024 44.5803 226.277 44.5803 226.784C44.5803 227.051 44.6923 227.251 44.9163 227.384Z" fill="#C2C2C2"/>
    <path d="M385.632 0.411367V241.639H0.368096V0.411367H385.632ZM386 0H0V242H386V0Z" fill="#C2C2C2"/>
    <path d="M119.125 129H107.524V72.7234H81.9266V81.8312C81.9266 84.26 81.8946 86.5609 81.8307 88.734C81.7668 90.9071 81.5751 93.6873 81.2555 97.0748C80.9359 100.462 80.4885 103.562 79.9133 106.374C79.402 109.123 78.603 111.999 77.5165 115.003C76.4939 117.943 75.2475 120.435 73.7775 122.481C72.3714 124.526 70.5498 126.22 68.3128 127.562C66.1397 128.84 63.711 129.447 61.0266 129.383L57 129.096V117.879C58.9174 117.879 60.3875 117.719 61.4101 117.4C62.4966 117.08 63.5832 116.281 64.6697 115.003C68.6324 110.209 70.6138 97.4583 70.6138 76.75V61.89H119.125V129ZM138.853 119.796C132.269 113.149 128.978 105.032 128.978 95.445C128.978 85.8578 132.301 77.7407 138.948 71.0936C145.659 64.4465 153.777 61.123 163.3 61.123C173.143 61.123 181.324 64.4146 187.843 70.9978C194.362 77.5809 197.622 85.73 197.622 95.445C197.622 105.16 194.298 113.309 187.651 119.892C181.068 126.475 172.951 129.767 163.3 129.767C153.585 129.767 145.436 126.443 138.853 119.796ZM147.289 79.051C143.135 83.5889 141.058 89.0535 141.058 95.445C141.058 101.836 143.199 107.301 147.481 111.839C151.763 116.377 157.036 118.646 163.3 118.646C169.883 118.646 175.22 116.441 179.31 112.031C183.465 107.557 185.542 102.028 185.542 95.445C185.542 88.9896 183.401 83.525 179.119 79.051C174.9 74.513 169.627 72.2441 163.3 72.2441C156.844 72.2441 151.508 74.513 147.289 79.051ZM219.119 129H207.518V61.89H256.413V72.8193H219.119V129ZM266.275 119.796C259.692 113.149 256.401 105.032 256.401 95.445C256.401 85.8578 259.724 77.7407 266.371 71.0936C273.082 64.4465 281.199 61.123 290.723 61.123C300.565 61.123 308.747 64.4146 315.266 70.9978C321.785 77.5809 325.045 85.73 325.045 95.445C325.045 105.16 321.721 113.309 315.074 119.892C308.491 126.475 300.374 129.767 290.723 129.767C281.008 129.767 272.859 126.443 266.275 119.796ZM274.712 79.051C270.558 83.5889 268.481 89.0535 268.481 95.445C268.481 101.836 270.622 107.301 274.904 111.839C279.186 116.377 284.459 118.646 290.723 118.646C297.306 118.646 302.643 116.441 306.733 112.031C310.888 107.557 312.965 102.028 312.965 95.445C312.965 88.9896 310.824 83.525 306.541 79.051C302.323 74.513 297.05 72.2441 290.723 72.2441C284.267 72.2441 278.93 74.513 274.712 79.051Z" fill="#C2C2C2"/>
</svg>
