<svg width="301" height="192" viewBox="0 0 301 192" fill="none" xmlns="http://www.w3.org/2000/svg">
    <path d="M127.597 163H126.248V150.954H117.812V163H116.463V149.7H127.597V163ZM130.907 155.21L130.242 154.26C130.711 153.829 131.293 153.494 131.99 153.253C132.699 153 133.39 152.873 134.061 152.873C135.378 152.873 136.385 153.215 137.082 153.899C137.779 154.57 138.127 155.558 138.127 156.863V163H136.892V161.366C136.499 161.936 135.961 162.373 135.277 162.677C134.606 162.981 133.903 163.133 133.168 163.133C132.18 163.133 131.338 162.88 130.641 162.373C129.944 161.866 129.596 161.138 129.596 160.188C129.596 158.187 131.198 157.186 134.403 157.186C135.366 157.186 136.195 157.287 136.892 157.49C136.892 156.35 136.664 155.495 136.208 154.925C135.765 154.342 134.998 154.051 133.909 154.051C132.883 154.051 131.882 154.437 130.907 155.21ZM131.686 161.537C132.218 161.841 132.826 161.993 133.51 161.993C134.194 161.993 134.859 161.784 135.505 161.366C136.164 160.948 136.626 160.422 136.892 159.789V158.611C136.297 158.408 135.524 158.307 134.574 158.307C132.117 158.307 130.888 158.909 130.888 160.112C130.888 160.745 131.154 161.22 131.686 161.537ZM141.703 166.8H140.468V153.12H141.703V154.583C142.032 154.038 142.526 153.62 143.185 153.329C143.844 153.025 144.521 152.873 145.218 152.873C146.675 152.873 147.815 153.348 148.638 154.298C149.474 155.235 149.892 156.426 149.892 157.87C149.892 159.377 149.436 160.644 148.524 161.67C147.612 162.683 146.428 163.19 144.971 163.19C143.578 163.19 142.488 162.797 141.703 162.012V166.8ZM145.104 154.051C144.357 154.051 143.666 154.273 143.033 154.716C142.4 155.147 141.956 155.71 141.703 156.407V160.245C142.425 161.423 143.502 162.012 144.933 162.012C146.035 162.012 146.915 161.619 147.574 160.834C148.245 160.036 148.581 159.08 148.581 157.965C148.581 156.825 148.271 155.888 147.65 155.153C147.042 154.418 146.193 154.051 145.104 154.051ZM154.057 154.298H150.162V153.12H159.225V154.298H155.292V163H154.057V154.298ZM169.247 163H168.012V158.554H161.723V163H160.488V153.12H161.723V157.376H168.012V153.12H169.247V163ZM179.484 160.378L180.32 161.119C179.889 161.778 179.326 162.291 178.629 162.658C177.932 163.013 177.185 163.19 176.387 163.19C174.816 163.19 173.55 162.715 172.587 161.765C171.624 160.815 171.143 159.574 171.143 158.041C171.143 156.496 171.599 155.248 172.511 154.298C173.423 153.348 174.633 152.873 176.14 152.873C176.393 152.873 176.742 152.905 177.185 152.968C178.274 153.183 179.129 153.696 179.75 154.507C180.371 155.305 180.681 156.255 180.681 157.357C180.681 157.661 180.656 158.016 180.605 158.421H172.454C172.492 159.548 172.878 160.429 173.613 161.062C174.36 161.695 175.304 162.012 176.444 162.012C177.027 162.012 177.597 161.86 178.154 161.556C178.711 161.252 179.155 160.859 179.484 160.378ZM176.045 154.032C175.057 154.032 174.234 154.33 173.575 154.925C172.916 155.52 172.536 156.306 172.435 157.281H179.351C179.326 156.255 179.015 155.457 178.42 154.887C177.837 154.317 177.046 154.032 176.045 154.032ZM183.822 166.8H182.587V153.12H183.822V154.583C184.151 154.038 184.645 153.62 185.304 153.329C185.963 153.025 186.64 152.873 187.337 152.873C188.794 152.873 189.934 153.348 190.757 154.298C191.593 155.235 192.011 156.426 192.011 157.87C192.011 159.377 191.555 160.644 190.643 161.67C189.731 162.683 188.547 163.19 187.09 163.19C185.697 163.19 184.607 162.797 183.822 162.012V166.8ZM187.223 154.051C186.476 154.051 185.785 154.273 185.152 154.716C184.519 155.147 184.075 155.71 183.822 156.407V160.245C184.544 161.423 185.621 162.012 187.052 162.012C188.154 162.012 189.034 161.619 189.693 160.834C190.364 160.036 190.7 159.08 190.7 157.965C190.7 156.825 190.39 155.888 189.769 155.153C189.161 154.418 188.312 154.051 187.223 154.051Z" fill="#878787"/>
    <path d="M100.798 108.407H92.4331V67.8256H73.9746V74.3933C73.9746 76.1447 73.9515 77.8038 73.9055 79.3709C73.8594 80.9379 73.7211 82.9427 73.4907 85.3854C73.2602 87.8281 72.9376 90.0634 72.5228 92.0913C72.1541 94.0732 71.578 96.1471 70.7945 98.3133C70.0571 100.433 69.1583 102.231 68.0983 103.706C67.0843 105.181 65.7708 106.402 64.1577 107.37C62.5907 108.292 60.8393 108.729 58.9036 108.683L56 108.476V100.387C57.3827 100.387 58.4427 100.272 59.1801 100.042C59.9636 99.8112 60.7471 99.2351 61.5306 98.3133C64.3881 94.8567 65.8169 85.662 65.8169 70.7292V60.0136H100.798V108.407ZM115.024 101.77C110.277 96.9767 107.903 91.1235 107.903 84.2102C107.903 77.2969 110.3 71.4436 115.093 66.6504C119.932 61.8572 125.786 59.4605 132.653 59.4605C139.751 59.4605 145.65 61.8341 150.351 66.5812C155.052 71.3284 157.403 77.2047 157.403 84.2102C157.403 91.2157 155.006 97.092 150.213 101.839C145.466 106.586 139.612 108.96 132.653 108.96C125.647 108.96 119.771 106.563 115.024 101.77ZM121.108 72.3884C118.112 75.6607 116.614 79.6013 116.614 84.2102C116.614 88.819 118.158 92.7596 121.246 96.0319C124.334 99.3042 128.136 100.94 132.653 100.94C137.4 100.94 141.248 99.3503 144.198 96.1702C147.194 92.944 148.692 88.9573 148.692 84.2102C148.692 79.5552 147.148 75.6146 144.06 72.3884C141.018 69.1161 137.216 67.48 132.653 67.48C127.998 67.48 124.15 69.1161 121.108 72.3884ZM172.904 108.407H164.539V60.0136H199.797V67.8948H172.904V108.407ZM206.909 101.77C202.162 96.9767 199.788 91.1235 199.788 84.2102C199.788 77.2969 202.185 71.4436 206.978 66.6504C211.817 61.8572 217.671 59.4605 224.538 59.4605C231.635 59.4605 237.535 61.8341 242.236 66.5812C246.937 71.3284 249.287 77.2047 249.287 84.2102C249.287 91.2157 246.891 97.092 242.098 101.839C237.35 106.586 231.497 108.96 224.538 108.96C217.532 108.96 211.656 106.563 206.909 101.77ZM212.993 72.3884C209.997 75.6607 208.499 79.6013 208.499 84.2102C208.499 88.819 210.043 92.7596 213.131 96.0319C216.219 99.3042 220.021 100.94 224.538 100.94C229.285 100.94 233.133 99.3503 236.083 96.1702C239.079 92.944 240.577 88.9573 240.577 84.2102C240.577 79.5552 239.033 75.6146 235.945 72.3884C232.903 69.1161 229.1 67.48 224.538 67.48C219.883 67.48 216.034 69.1161 212.993 72.3884Z" fill="#C2C2C2"/>
    <path d="M17.184 179.84V182H16.616V176.4H18.632C20.1467 176.4 20.904 176.971 20.904 178.112C20.904 178.427 20.8373 178.701 20.704 178.936C20.576 179.165 20.4 179.344 20.176 179.472C19.952 179.6 19.7093 179.693 19.448 179.752C19.192 179.811 18.9173 179.84 18.624 179.84H17.184ZM18.672 176.92H17.184V179.32H18.608C18.8267 179.32 19.0293 179.301 19.216 179.264C19.408 179.227 19.5893 179.165 19.76 179.08C19.936 178.995 20.072 178.869 20.168 178.704C20.2693 178.533 20.32 178.333 20.32 178.104C20.32 177.315 19.7707 176.92 18.672 176.92ZM24.5809 180.896L24.9329 181.208C24.7515 181.485 24.5142 181.701 24.2209 181.856C23.9275 182.005 23.6129 182.08 23.2769 182.08C22.6155 182.08 22.0822 181.88 21.6769 181.48C21.2715 181.08 21.0689 180.557 21.0689 179.912C21.0689 179.261 21.2609 178.736 21.6449 178.336C22.0289 177.936 22.5382 177.736 23.1729 177.736C23.2795 177.736 23.4262 177.749 23.6129 177.776C24.0715 177.867 24.4315 178.083 24.6929 178.424C24.9542 178.76 25.0849 179.16 25.0849 179.624C25.0849 179.752 25.0742 179.901 25.0529 180.072H21.6209C21.6369 180.547 21.7995 180.917 22.1089 181.184C22.4235 181.451 22.8209 181.584 23.3009 181.584C23.5462 181.584 23.7862 181.52 24.0209 181.392C24.2555 181.264 24.4422 181.099 24.5809 180.896ZM23.1329 178.224C22.7169 178.224 22.3702 178.349 22.0929 178.6C21.8155 178.851 21.6555 179.181 21.6129 179.592H24.5249C24.5142 179.16 24.3835 178.824 24.1329 178.584C23.8875 178.344 23.5542 178.224 23.1329 178.224ZM26.4074 182H25.8874V177.84H26.4074V179.848L28.7114 177.84H29.4234L27.1914 179.768L29.5514 182H28.8314L26.7834 180.088L26.4074 180.424V182ZM33.6594 182H33.1394V178.336H31.0674V179.08C31.0674 179.256 31.0621 179.432 31.0514 179.608C31.0408 179.779 31.0221 179.984 30.9954 180.224C30.9688 180.464 30.9234 180.685 30.8594 180.888C30.7954 181.085 30.7154 181.275 30.6194 181.456C30.5288 181.637 30.4061 181.779 30.2514 181.88C30.1021 181.981 29.9288 182.032 29.7314 182.032C29.6728 182.032 29.6274 182.029 29.5954 182.024L29.5474 181.504C29.8621 181.547 30.1074 181.365 30.2834 180.96C30.4594 180.56 30.5474 179.928 30.5474 179.064V177.84H33.6594V182ZM34.9477 178.72L34.6677 178.32C34.865 178.139 35.1104 177.997 35.4037 177.896C35.7024 177.789 35.993 177.736 36.2757 177.736C36.8304 177.736 37.2544 177.88 37.5477 178.168C37.841 178.451 37.9877 178.867 37.9877 179.416V182H37.4677V181.312C37.3024 181.552 37.0757 181.736 36.7877 181.864C36.505 181.992 36.209 182.056 35.8997 182.056C35.4837 182.056 35.129 181.949 34.8357 181.736C34.5424 181.523 34.3957 181.216 34.3957 180.816C34.3957 179.973 35.0704 179.552 36.4197 179.552C36.825 179.552 37.1744 179.595 37.4677 179.68C37.4677 179.2 37.3717 178.84 37.1797 178.6C36.993 178.355 36.6704 178.232 36.2117 178.232C35.7797 178.232 35.3584 178.395 34.9477 178.72ZM35.2757 181.384C35.4997 181.512 35.7557 181.576 36.0437 181.576C36.3317 181.576 36.6117 181.488 36.8837 181.312C37.161 181.136 37.3557 180.915 37.4677 180.648V180.152C37.217 180.067 36.8917 180.024 36.4917 180.024C35.457 180.024 34.9397 180.277 34.9397 180.784C34.9397 181.051 35.0517 181.251 35.2757 181.384ZM39.4933 182H38.9733V177.84H39.4613L41.1653 180.04L42.8373 177.84H43.2933V182H42.7733V178.736L41.1653 180.84L39.4933 178.736V182ZM44.5883 178.72L44.3083 178.32C44.5056 178.139 44.751 177.997 45.0443 177.896C45.343 177.789 45.6336 177.736 45.9163 177.736C46.471 177.736 46.895 177.88 47.1883 178.168C47.4816 178.451 47.6283 178.867 47.6283 179.416V182H47.1083V181.312C46.943 181.552 46.7163 181.736 46.4283 181.864C46.1456 181.992 45.8496 182.056 45.5403 182.056C45.1243 182.056 44.7696 181.949 44.4763 181.736C44.183 181.523 44.0363 181.216 44.0363 180.816C44.0363 179.973 44.711 179.552 46.0603 179.552C46.4656 179.552 46.815 179.595 47.1083 179.68C47.1083 179.2 47.0123 178.84 46.8203 178.6C46.6336 178.355 46.311 178.232 45.8523 178.232C45.4203 178.232 44.999 178.395 44.5883 178.72ZM44.9163 181.384C45.1403 181.512 45.3963 181.576 45.6843 181.576C45.9723 181.576 46.2523 181.488 46.5243 181.312C46.8016 181.136 46.9963 180.915 47.1083 180.648V180.152C46.8576 180.067 46.5323 180.024 46.1323 180.024C45.0976 180.024 44.5803 180.277 44.5803 180.784C44.5803 181.051 44.6923 181.251 44.9163 181.384Z" fill="#C2C2C2"/>
    <path d="M300.717 0.330017V191.66H0.282694V0.330017H300.717ZM301 0.039978H0V192H301V0V0.039978Z" fill="#C2C2C2"/>
</svg>
