<svg width="301" height="192" viewBox="0 0 301 192" fill="none" xmlns="http://www.w3.org/2000/svg">
    <path d="M300.717 0.330017V191.66H0.282694V0.330017H300.717ZM301 0.039978H0V192H301V0V0.039978Z" fill="#C2C2C2"/>
    <path d="M100.29 116.55H108.09V91.6001H123.46V116.55H131.26V85.3501H100.29V116.55Z" fill="#003063"/>
    <path d="M160.23 94.7101C160.23 90.4801 157.11 85.5801 149.98 85.5801H136.17V116.77H144V104.29H150.24C157.1 104.07 160.23 99.1701 160.23 94.7101ZM147.52 98.2802H144V91.1401H146.67C150.9 91.1401 152.47 92.0301 152.47 94.7101C152.2 97.1601 151.09 98.2802 147.52 98.2802Z" fill="#003063"/>
    <path d="M170 85.3601L157.53 116.55H165.77L168 110.31H181.81L184.48 116.55H192.72L178.91 85.3601H170ZM170 104.96L174.68 92.9601L179.8 104.96H170Z" fill="#003063"/>
    <path d="M219.04 85.3501L202.33 105.19V85.3501H194.53V116.55H201.21L218.37 95.8301V116.55H226.17V85.3501H219.04Z" fill="#003063"/>
    <path d="M237.75 85.3501L247.78 96.9402L257.81 85.3501H264.49V116.55H256.69V97.1602L248.23 106.97H247.11L238.65 97.1602V116.55H231.07V85.3501H237.75Z" fill="#003063"/>
    <path d="M219 81.5702L216.77 76.4502C214.878 77.2642 212.828 77.6435 210.77 77.5602C208.563 77.6449 206.362 77.2668 204.31 76.4502L202.08 81.5702C204.788 82.8641 207.771 83.4751 210.77 83.3501C213.619 83.4503 216.447 82.8386 219 81.5702Z" fill="#003063"/>
    <path d="M74.2299 85.13V116.55H89.1499V76L74.2299 85.13Z" fill="#4F8FCC"/>
    <path d="M59.0699 86.91V76L35.8999 97.61V116.55H41.6999V99.62L59.0699 86.91Z" fill="#CF0373"/>
    <path d="M74.2299 85.13V76L59.0699 86.91V94.49L74.2299 85.13Z" fill="#A877B2"/>
    <path d="M59.0699 94.4899V116.55H74.2299V85.1299L59.0699 94.4899Z" fill="#01438F"/>
    <path d="M59.0699 94.4901V86.9102L41.7 99.6201V116.55H47.2599V101.62L59.0699 94.4901Z" fill="#990554"/>
    <path d="M47.2599 101.62V116.55H59.0699V94.49L47.2599 101.62Z" fill="#003063"/>
</svg>
