<svg width="386" height="242" viewBox="0 0 386 242" fill="none" xmlns="http://www.w3.org/2000/svg">
    <g clip-path="url(#clip0_522_615)">
        <path d="M385.641 0.411367V241.639H0.359055V0.411367H385.641ZM386 0H0V242H386V0Z" fill="#C2C2C2"/>
        <g clip-path="url(#clip1_522_615)">
            <path d="M113.684 98.6952V137.505H132.295V87.2095L113.684 98.6952Z" fill="#509FD7"/>
            <path d="M94.9504 100.751V87.2095L66 113.929V137.505H73.1768V116.589L94.9504 100.751Z" fill="#D01481"/>
            <path d="M113.684 98.6952V87.2095L94.9512 100.75V110.06L113.684 98.6952Z" fill="#8C7EB0"/>
            <path d="M94.9512 110.06V137.504H113.684V98.6948L94.9512 110.06Z" fill="#2E4E96"/>
            <path d="M94.9515 110.06V100.75L73.1777 116.589V137.505H80.2328V119.007L94.9515 110.06Z" fill="#721C59"/>
            <path d="M80.2324 119.006V137.504H94.951V110.06L80.2324 119.006Z" fill="#1D3563"/>
            <path fill-rule="evenodd" clip-rule="evenodd" d="M319 130.337V137.736H288.599V97.1536H318.612V104.65H298.891V113.139H317.644V120.544H298.891V130.337H319ZM260.426 112.245L273.635 97.1536H282.576V137.735H272.279V112.34L261.203 125.146H259.552L248.475 112.34V137.735H238.174V97.1536H247.121L260.426 112.245ZM221.67 97.1536H231.961V137.735H221.67V97.1536ZM193.888 104.65V113.846H199.328C200.973 113.846 202.241 113.453 203.21 112.847C204.38 112.045 204.958 110.844 204.958 109.155C204.958 106.152 203.014 104.65 199.128 104.65H193.888ZM183.588 97.1536H202.141C206.227 97.1536 209.525 98.3522 212.051 100.648C214.384 102.844 215.642 105.646 215.642 108.852C215.642 113.236 213.33 116.484 208.885 118.592L219.821 137.736H208.56L199.445 121.246H193.888V137.736H183.588V97.1536ZM157.943 104.65V114.044H162.709C165.037 114.044 166.688 113.642 167.658 112.846C168.629 112.043 169.117 110.842 169.117 109.343C169.117 107.544 168.532 106.346 167.464 105.644C166.294 104.949 164.359 104.649 161.543 104.649H157.943V104.65ZM147.648 97.1536H166.005C170.379 97.1536 173.877 98.4548 176.402 101.048C178.64 103.354 179.709 106.048 179.709 109.154C179.709 112.444 178.64 115.139 176.494 117.445C174.069 120.145 170.571 121.445 166.107 121.445H157.943V137.733H147.648V97.1536Z" fill="#1D3563"/>
            <path d="M152.017 144.142C152.599 144.142 153.644 144.174 154.375 144.744C154.823 145.08 155.269 145.694 155.269 146.737C155.269 147.491 154.986 148.105 154.614 148.474C154.361 148.72 153.93 148.981 153.508 149.119V149.148C153.956 149.241 154.375 149.442 154.689 149.703C155.167 150.104 155.583 150.747 155.583 151.775C155.583 152.788 155.149 153.513 154.658 153.941C153.84 154.648 152.763 154.678 152.123 154.678H147.646V144.143L152.017 144.142ZM149.526 148.473H151.406C151.899 148.473 152.48 148.428 152.899 148.06C153.105 147.874 153.344 147.552 153.344 147.015C153.344 146.557 153.18 146.216 152.851 145.985C152.463 145.709 151.913 145.68 151.524 145.68H149.524L149.526 148.473ZM149.526 153.139H151.688C152.122 153.139 152.672 153.049 153.032 152.758C153.329 152.495 153.553 152.048 153.553 151.557C153.553 151.036 153.329 150.668 153.122 150.455C152.642 149.96 152.135 149.946 151.568 149.946H149.524L149.526 153.139Z" fill="#1D3563"/>
            <path d="M159.07 144.145V150.806C159.07 151.543 159.098 152.142 159.443 152.618C159.681 152.939 160.145 153.292 161.099 153.292C161.98 153.292 162.425 152.956 162.652 152.663C163.069 152.142 163.098 151.435 163.098 150.806V144.145H164.649V150.837C164.649 151.774 164.59 152.865 163.782 153.757C163.008 154.598 161.95 154.829 160.979 154.829C159.576 154.829 158.679 154.446 158.115 153.877C157.189 152.957 157.189 151.711 157.189 150.9V144.145H159.07Z" fill="#1D3563"/>
            <path d="M172.227 147.059C172.107 146.538 171.81 146.215 171.583 146.031C171.152 145.678 170.556 145.524 169.961 145.524C168.587 145.524 168.213 146.306 168.213 146.875C168.213 147.765 169.258 148.043 169.779 148.166L171.167 148.503C171.824 148.655 172.584 148.826 173.195 149.347C173.748 149.823 174.197 150.607 174.197 151.543C174.197 152.54 173.688 153.447 173.016 153.984C172.227 154.615 171.123 154.828 170.213 154.828C168.825 154.828 167.855 154.429 167.215 153.939C166.663 153.507 166.066 152.803 165.795 151.788L167.543 151.449C167.735 152.064 168.123 152.54 168.542 152.832C169.109 153.216 169.72 153.291 170.198 153.291C171.854 153.291 172.227 152.415 172.227 151.865C172.227 151.404 171.973 150.682 170.675 150.361L169.168 149.99C168.72 149.885 167.87 149.606 167.32 149.146C166.872 148.777 166.334 148.102 166.334 147.076C166.334 145.937 166.886 145.138 167.512 144.68C168.181 144.188 169.124 143.988 170.079 143.988C171.048 143.988 172.065 144.249 172.749 144.803C173.301 145.247 173.689 145.908 173.869 146.568L172.227 147.059Z" fill="#1D3563"/>
            <path d="M177.669 144.145H175.789V154.677H177.669V144.145Z" fill="#1D3563"/>
            <path d="M186.32 151.837H186.442C186.396 151.495 186.337 150.914 186.337 150.698V144.145H187.919V154.677H186.219L181.518 146.262H181.428C181.472 146.83 181.548 146.693 181.548 147.535V154.675H179.967V144.143H182.024L186.32 151.837Z" fill="#1D3563"/>
            <path d="M197.09 144.145V145.681H192.092V148.473H196.077V149.946H192.092V153.139H197.18V154.677H190.213V144.145H197.09Z" fill="#1D3563"/>
            <path d="M204.218 147.059C204.101 146.538 203.802 146.215 203.575 146.031C203.144 145.678 202.549 145.524 201.95 145.524C200.578 145.524 200.204 146.306 200.204 146.875C200.204 147.765 201.249 148.043 201.773 148.166L203.158 148.503C203.816 148.655 204.576 148.826 205.187 149.347C205.74 149.823 206.189 150.607 206.189 151.543C206.189 152.54 205.68 153.447 205.01 153.984C204.218 154.615 203.115 154.828 202.204 154.828C200.816 154.828 199.848 154.429 199.205 153.939C198.654 153.507 198.057 152.803 197.789 151.788L199.535 151.449C199.727 152.064 200.114 152.54 200.533 152.832C201.101 153.216 201.712 153.291 202.189 153.291C203.845 153.291 204.218 152.415 204.218 151.865C204.218 151.404 203.965 150.682 202.667 150.361L201.159 149.99C200.711 149.885 199.864 149.606 199.308 149.146C198.864 148.777 198.325 148.102 198.325 147.076C198.325 145.937 198.877 145.138 199.503 144.68C200.176 144.188 201.116 143.988 202.071 143.988C203.04 143.988 204.056 144.249 204.74 144.803C205.293 145.247 205.68 145.908 205.86 146.568L204.218 147.059Z" fill="#1D3563"/>
            <path d="M213.212 147.059C213.09 146.538 212.793 146.215 212.572 146.031C212.135 145.678 211.541 145.524 210.944 145.524C209.57 145.524 209.198 146.306 209.198 146.875C209.198 147.765 210.243 148.043 210.764 148.166L212.149 148.503C212.81 148.655 213.572 148.826 214.181 149.347C214.734 149.823 215.18 150.607 215.18 151.543C215.18 152.54 214.677 153.447 214.001 153.984C213.212 154.615 212.106 154.828 211.198 154.828C209.81 154.828 208.84 154.429 208.199 153.939C207.648 153.507 207.051 152.803 206.783 151.788L208.529 151.449C208.719 152.064 209.108 152.54 209.527 152.832C210.095 153.216 210.706 153.291 211.183 153.291C212.837 153.291 213.212 152.415 213.212 151.865C213.212 151.404 212.959 150.682 211.661 150.361L210.153 149.99C209.705 149.885 208.855 149.606 208.302 149.146C207.858 148.777 207.32 148.102 207.32 147.076C207.32 145.937 207.871 145.138 208.497 144.68C209.168 144.188 210.108 143.988 211.065 143.988C212.034 143.988 213.047 144.249 213.734 144.803C214.287 145.247 214.677 145.908 214.854 146.568L213.212 147.059Z" fill="#1D3563"/>
            <path d="M226.605 151.837H226.728C226.681 151.495 226.623 150.914 226.623 150.698V144.145H228.202V154.677H226.504L221.803 146.262H221.714C221.759 146.83 221.834 146.693 221.834 147.535V154.675H220.25V144.143H222.309L226.605 151.837Z" fill="#1D3563"/>
            <path d="M237.375 144.145V145.681H232.377V148.473H236.358V149.946H232.377V153.139H237.465V154.677H230.496V144.145H237.375Z" fill="#1D3563"/>
            <path d="M239.967 144.145L241.815 151.866L243.742 144.145H245.261L247.322 151.866L249.08 144.145H250.632L248.082 154.677H246.35L244.379 147.29L242.505 154.677H240.77L238.086 144.145H239.967Z" fill="#1D3563"/>
            <path d="M257.373 147.059C257.253 146.538 256.953 146.215 256.729 146.031C256.298 145.678 255.702 145.524 255.105 145.524C253.733 145.524 253.359 146.306 253.359 146.875C253.359 147.765 254.402 148.043 254.928 148.166L256.313 148.503C256.967 148.655 257.731 148.826 258.342 149.347C258.894 149.823 259.34 150.607 259.34 151.543C259.34 152.54 258.834 153.447 258.163 153.984C257.373 154.615 256.266 154.828 255.359 154.828C253.974 154.828 253.002 154.429 252.359 153.939C251.809 153.507 251.209 152.803 250.943 151.788L252.689 151.449C252.881 152.064 253.27 152.54 253.688 152.832C254.255 153.216 254.869 153.291 255.344 153.291C257 153.291 257.373 152.415 257.373 151.865C257.373 151.404 257.118 150.682 255.821 150.361L254.315 149.99C253.869 149.885 253.018 149.606 252.464 149.146C252.019 148.777 251.482 148.102 251.482 147.076C251.482 145.937 252.033 145.138 252.661 144.68C253.33 144.188 254.27 143.988 255.225 143.988C256.194 143.988 257.21 144.249 257.896 144.803C258.447 145.247 258.836 145.908 259.015 146.568L257.373 147.059Z" fill="#1D3563"/>
            <path d="M271.973 154.677H269.976L269.156 151.945H265.782L264.978 154.677H263.336L266.605 144.145H268.694L271.973 154.677ZM267.469 146.109L266.156 150.468H268.769L267.469 146.109Z" fill="#1D3563"/>
            <path d="M281.073 154.722H279.985L279.609 153.494C279.385 153.801 279.045 154.138 278.672 154.369C278.121 154.692 277.435 154.829 276.748 154.829C275.956 154.829 274.629 154.661 273.599 153.356C272.825 152.373 272.437 150.9 272.437 149.533C272.437 148.179 272.792 146.586 273.628 145.541C274.387 144.604 275.598 143.99 277.046 143.99C278.061 143.99 279.133 144.313 279.849 145.002C280.4 145.541 280.804 146.37 280.954 147.23L279.133 147.538C279.073 147.154 278.937 146.736 278.73 146.43C278.404 145.939 277.775 145.526 276.972 145.526C275.868 145.526 275.24 146.262 274.958 146.814C274.597 147.506 274.466 148.473 274.466 149.396C274.466 150.945 274.806 151.712 275.002 152.036C275.328 152.62 276.003 153.296 277.074 153.296C277.656 153.296 278.209 153.065 278.597 152.649C279.106 152.128 279.195 151.529 279.195 151.068V150.669H276.911V149.135H281.073V154.722Z" fill="#1D3563"/>
            <path d="M290.096 144.145V145.681H285.098V148.473H289.081V149.946H285.098V153.139H290.183V154.677H283.218V144.145H290.096Z" fill="#1D3563"/>
            <path d="M298.151 151.837H298.269C298.224 151.495 298.166 150.914 298.166 150.698V144.145H299.748V154.677H298.047L293.346 146.262H293.256C293.302 146.83 293.378 146.693 293.378 147.535V154.675H291.794V144.143H293.852L298.151 151.837Z" fill="#1D3563"/>
            <path d="M308.143 147.829C308.1 147.337 307.934 146.877 307.695 146.508C307.261 145.832 306.742 145.526 305.981 145.526C305.07 145.526 304.473 145.957 304.054 146.832C303.684 147.584 303.609 148.444 303.609 149.333C303.609 150.653 303.787 151.376 304.014 151.868C304.31 152.512 304.904 153.293 305.996 153.293C306.593 153.293 307.113 153.048 307.529 152.541C307.847 152.16 308.115 151.604 308.19 150.96L309.919 151.194C309.786 152.222 309.322 153.114 308.74 153.71C307.923 154.57 307.011 154.831 306.083 154.831C304.191 154.831 303.07 153.848 302.43 152.803C301.638 151.515 301.576 149.963 301.576 149.334C301.576 146.908 302.548 145.682 302.906 145.297C303.966 144.132 305.218 143.991 306.024 143.991C306.828 143.991 307.873 144.161 308.753 145.035C309.321 145.601 309.829 146.494 309.918 147.615L308.143 147.829Z" fill="#1D3563"/>
            <path d="M315.583 150.238V154.677H313.706V150.238L310.303 144.142H312.453L314.84 148.503L317.241 144.142H318.941L315.583 150.238Z" fill="#1D3563"/>
        </g>
    </g>
    <defs>
        <clipPath id="clip0_522_615">
            <rect width="386" height="242" fill="white"/>
        </clipPath>
        <clipPath id="clip1_522_615">
            <rect width="253" height="68" fill="white" transform="translate(66 87)"/>
        </clipPath>
    </defs>
</svg>
