<svg width="301" height="192" viewBox="0 0 301 192" fill="none" xmlns="http://www.w3.org/2000/svg">
     <path d="M300.717 0.330017V191.66H0.282694V0.330017H300.717ZM301 0.039978H0V192H301V0V0.039978Z" fill="#C2C2C2"/>
    <path d="M100.29 92.66H108.09V67.71H123.46V92.66H131.26V61.46H100.29V92.66Z" fill="#003063"/>
    <path d="M160.23 70.8199C160.23 66.5899 157.11 61.6899 149.98 61.6899H136.17V92.88H144V80.4H150.24C157.1 80.18 160.23 75.2799 160.23 70.8199ZM147.52 74.39H144V67.25H146.67C150.9 67.25 152.47 68.1399 152.47 70.8199C152.2 73.2699 151.09 74.39 147.52 74.39Z" fill="#003063"/>
    <path d="M170 61.47L157.53 92.66H165.77L168 86.42H181.81L184.48 92.66H192.72L178.91 61.47H170ZM170 81.0699L174.68 69.0699L179.8 81.0699H170Z" fill="#003063"/>
    <path d="M219.04 61.46L202.33 81.3V61.46H194.53V92.66H201.21L218.37 71.9399V92.66H226.17V61.46H219.04Z" fill="#003063"/>
    <path d="M237.75 61.46L247.78 73.05L257.81 61.46H264.49V92.66H256.69V73.27L248.23 83.08H247.11L238.65 73.27V92.66H231.07V61.46H237.75Z" fill="#003063"/>
    <path d="M219 57.6801L216.77 52.5601C214.878 53.3741 212.828 53.7534 210.77 53.67C208.563 53.7548 206.362 53.3767 204.31 52.5601L202.08 57.6801C204.788 58.974 207.771 59.585 210.77 59.46C213.619 59.5602 216.447 58.9485 219 57.6801Z" fill="#003063"/>
    <path d="M74.2299 61.2401V92.6602H89.1499V52.1101L74.2299 61.2401Z" fill="#4F8FCC"/>
    <path d="M59.0699 63.0201V52.1101L35.8999 73.7201V92.6602H41.6999V75.7301L59.0699 63.0201Z" fill="#CF0373"/>
    <path d="M74.2299 61.2401V52.1101L59.0699 63.0201V70.6001L74.2299 61.2401Z" fill="#A877B2"/>
    <path d="M59.0699 70.6002V92.6603H74.2299V61.2402L59.0699 70.6002Z" fill="#01438F"/>
    <path d="M59.0699 70.6V63.02L41.7 75.73V92.66H47.2599V77.73L59.0699 70.6Z" fill="#990554"/>
    <path d="M47.2599 77.7301V92.6602H59.0699V70.6001L47.2599 77.7301Z" fill="#003063"/>
</svg>
