<svg width="386" height="243" viewBox="0 0 386 243" fill="none" xmlns="http://www.w3.org/2000/svg">
    <path d="M385.641 0.413067V242.637H0.359055V0.413067H385.641ZM386 0.0402797H0V243H386V0V0.0402797Z" fill="#C2C2C2"/>
    <path d="M132.58 92.2268H78V146.769L132.58 92.2268Z" fill="#92CFAE"/>
    <path d="M82.8711 151.757H137.442V97.2253L82.8711 151.757Z" fill="#2A8288"/>
    <path d="M192.327 110.156V109.869C192.327 98.4799 184.386 92.2058 169.96 92.2058H149.845V151.824H161.493V127.983H167.987L183.313 151.671L183.409 151.824H196.101L179.434 126.201C185.325 124.573 192.327 120.454 192.327 110.156ZM161.473 101.344H169.96C177.489 101.344 180.842 104.036 180.842 110.08V110.406C180.842 116.421 177.183 119.477 169.96 119.477H161.473V101.344Z" fill="#231F20"/>
    <path d="M236.81 120.665C242.414 118.558 245.249 114.353 245.249 108.213V107.877C245.249 97.4747 238.65 92.1968 225.613 92.1968H204.156V151.825H227.145C240.556 151.825 247.692 146.01 247.692 134.995V134.66C247.749 127.112 244.253 122.609 236.81 120.665ZM215.555 116.996V100.712H224.176C231.111 100.712 234.061 103.002 234.061 108.375V108.701C234.061 114.621 231.245 117.025 224.339 117.025L215.555 116.996ZM236.255 133.922V134.248C236.255 140.349 232.854 143.319 225.871 143.319H215.555V125.119H225.134C232.816 125.1 236.255 127.82 236.255 133.922Z" fill="#231F20"/>
    <path d="M297.553 130.34V130.628C296.471 138.473 291.231 142.793 282.792 142.793C272.055 142.793 265.895 135.216 265.895 122.016V121.365C265.895 108.443 272.342 100.416 282.716 100.416C290.858 100.416 295.235 104.104 296.49 112.016V112.294H308.291V111.93C307.046 98.8259 297.448 91 282.63 91C265.848 91 253.673 103.807 253.673 121.441V122.102C253.673 141.068 264.554 152.391 282.792 152.391C297.735 152.391 307.276 144.498 308.952 130.723L309 130.35L297.553 130.34Z" fill="#231F20"/>
</svg>
