<svg width="386" height="243" viewBox="0 0 386 243" fill="none" xmlns="http://www.w3.org/2000/svg">
    <path d="M385.641 0.413067V242.637H0.359055V0.413067H385.641ZM386 0.0402797H0V243H386V0V0.0402797Z" fill="#C2C2C2"/>
    <path d="M147.86 92H93V146.822L147.86 92Z" fill="#92CFAE"/>
    <path d="M97.8916 151.838H152.742V97.0259L97.8916 151.838Z" fill="#2A8288"/>
    <path d="M184.621 92.0767H165.201V151.838H177.198V129.51H184.9C198.909 129.51 206.948 122.771 206.948 111.082V110.716C206.91 98.8837 198.784 92.0767 184.621 92.0767ZM195.212 111.082C195.212 117.283 191.563 120.566 184.621 120.566H177.198V101.608H184.621C191.813 101.608 195.212 104.497 195.212 110.755V111.082Z" fill="#231F20"/>
    <path d="M236.13 115.53H226.329V101.772H252.324V92.0767H214.419V151.838H235.88C249.58 151.838 257.427 145.214 257.427 133.66V133.323C257.427 121.866 249.869 115.53 236.13 115.53ZM226.329 124.484H235.148C242.35 124.484 245.854 127.373 245.854 133.217V133.544C245.854 139.398 242.388 142.373 235.552 142.373H226.329V124.484Z" fill="#231F20"/>
    <path d="M287.033 120.605L311.796 92H298.635L276.933 117.736V92.077H264.946V151.838H276.933V125.38L298.712 151.838H313L287.033 120.605Z" fill="#231F20"/>
</svg>
