<svg width="386" height="243" viewBox="0 0 386 243" fill="none" xmlns="http://www.w3.org/2000/svg">
    <path d="M385.641 0.413067V242.637H0.359055V0.413067H385.641ZM386 0.0402797H0V243H386V0V0.0402797Z" fill="#C2C2C2"/>
    <path fill-rule="evenodd" clip-rule="evenodd" d="M158.724 95.1838C157.819 93.7557 156.512 92.7108 154.823 91.9271C153.134 91.1434 151.183 90.8125 148.832 90.8125H137.633V116.588H143.624V109.499H148.832C151.183 109.499 153.134 109.169 154.823 108.385C156.512 107.601 157.819 106.556 158.724 105.128C159.63 103.752 160.083 102.063 160.083 100.182C160.1 98.2489 159.647 96.6119 158.724 95.1838ZM154.039 100.13C154.039 101.558 153.517 102.673 152.611 103.456C151.705 104.24 150.329 104.623 148.501 104.623H143.624V95.6366H148.501C150.329 95.6366 151.688 96.0197 152.611 96.8034C153.586 97.5871 154.039 98.7017 154.039 100.13ZM169.209 90.8299H163.287V116.605H168.948L181.261 99.8163V116.675H187.183V90.8299H181.592L169.226 107.688V90.8299H169.209ZM197.999 111.067L195.717 116.605H189.604L201.133 90.8299H207.055L218.585 116.675H212.332L209.981 111.067H197.999ZM208.083 106.574L203.972 96.6815L199.862 106.574H208.083ZM161.406 152.551V126.689H155.415V136.842H143.694V126.689H137.702V152.533H143.694V141.927H155.415V152.533H161.406V152.551ZM173.842 151.245C171.7 150.078 169.993 148.51 168.756 146.49C167.52 144.47 166.927 142.189 166.927 139.646C166.927 137.103 167.52 134.822 168.756 132.802C169.993 130.781 171.682 129.162 173.842 128.047C175.984 126.88 178.405 126.288 181.07 126.288C183.734 126.288 186.155 126.88 188.298 128.047C190.44 129.214 192.147 130.781 193.383 132.802C194.62 134.822 195.212 137.103 195.212 139.646C195.212 142.189 194.62 144.47 193.383 146.49C192.147 148.51 190.457 150.13 188.298 151.245C186.155 152.411 183.734 153.004 181.07 153.004C178.405 153.004 175.984 152.411 173.842 151.245ZM185.232 146.873C186.469 146.159 187.444 145.184 188.158 143.948C188.872 142.711 189.203 141.283 189.203 139.646C189.203 138.026 188.872 136.65 188.158 135.344C187.444 134.108 186.469 133.132 185.232 132.418C183.996 131.704 182.62 131.373 181.07 131.373C179.572 131.373 178.144 131.704 176.907 132.418C175.671 133.132 174.695 134.108 173.981 135.344C173.267 136.581 172.936 138.009 172.936 139.646C172.936 141.265 173.267 142.641 173.981 143.948C174.695 145.184 175.671 146.159 176.907 146.873C178.144 147.587 179.52 147.918 181.07 147.918C182.62 147.918 183.996 147.535 185.232 146.873ZM223.514 145.254C223.514 143.686 223.131 142.398 222.277 141.353C221.424 140.308 220.257 139.524 218.689 139.071C219.804 138.549 220.71 137.765 221.354 136.79C221.998 135.814 222.329 134.7 222.329 133.411C222.329 131.269 221.476 129.632 219.787 128.465C218.097 127.298 215.746 126.706 212.75 126.706H200.698V152.481H213.464C216.652 152.481 219.125 151.889 220.884 150.6C222.66 149.346 223.514 147.535 223.514 145.254ZM212.315 137.434H206.724H206.655V131.182H212.245C213.551 131.182 214.527 131.443 215.171 131.966C215.885 132.558 216.216 133.341 216.216 134.317C216.216 135.362 215.885 136.145 215.241 136.668C214.596 137.173 213.621 137.434 212.315 137.434ZM213.221 141.596C216.025 141.596 217.453 142.641 217.453 144.783C217.453 146.995 216.077 148.11 213.221 148.11H206.637V141.596H213.221ZM234.26 151.245C232.118 150.078 230.411 148.51 229.174 146.49C227.938 144.47 227.345 142.189 227.345 139.646C227.345 137.103 227.938 134.822 229.174 132.802C230.411 130.781 232.1 129.162 234.26 128.047C236.402 126.88 238.823 126.288 241.488 126.288C244.152 126.288 246.573 126.88 248.715 128.047C250.858 129.214 252.565 130.781 253.801 132.802C255.038 134.822 255.63 137.103 255.63 139.646C255.63 142.189 255.038 144.47 253.801 146.49C252.565 148.51 250.875 150.13 248.715 151.245C246.573 152.411 244.152 153.004 241.488 153.004C238.805 153.004 236.402 152.411 234.26 151.245ZM245.65 146.873C246.887 146.159 247.862 145.184 248.576 143.948C249.29 142.711 249.621 141.283 249.621 139.646C249.621 138.026 249.29 136.65 248.576 135.344C247.862 134.108 246.887 133.132 245.65 132.418C244.414 131.704 243.038 131.373 241.488 131.373C239.99 131.373 238.562 131.704 237.325 132.418C236.088 133.132 235.113 134.108 234.399 135.344C233.685 136.581 233.354 138.009 233.354 139.646C233.354 141.265 233.685 142.641 234.399 143.948C235.113 145.184 236.088 146.159 237.325 146.873C238.562 147.587 239.938 147.918 241.488 147.918C243.038 147.918 244.414 147.535 245.65 146.873ZM261.273 146.56C262.509 148.58 264.146 150.147 266.289 151.314C268.379 152.429 270.782 153.004 273.377 153.004C275.659 153.004 277.679 152.62 279.49 151.837C281.302 151.053 282.817 149.886 284.054 148.388L280.205 144.871C278.445 146.891 276.303 147.936 273.691 147.936C272.071 147.936 270.625 147.605 269.389 146.891C268.152 146.177 267.177 145.201 266.463 143.965C265.749 142.659 265.418 141.3 265.418 139.663C265.418 138.044 265.749 136.598 266.463 135.362C267.177 134.125 268.152 133.15 269.389 132.436C270.695 131.722 272.054 131.391 273.691 131.391C276.286 131.391 278.445 132.366 280.205 134.386L284.054 130.868C282.817 129.371 281.319 128.256 279.49 127.49C277.662 126.723 275.641 126.323 273.43 126.323C270.765 126.323 268.414 126.845 266.271 128.012C264.129 129.127 262.492 130.746 261.255 132.767C260.019 134.787 259.427 137.121 259.427 139.663C259.444 142.258 260.036 144.54 261.273 146.56ZM308.419 131.582H300.146V152.551H294.225V131.582H286.022V126.706H308.419V131.582ZM319.026 126.689H313.104V152.533H318.765L331.078 135.745V152.533H337V126.689H331.409L319.043 143.547V126.689H319.026Z" fill="#183254"/>
    <path d="M92.2818 95.4972C92.4037 93.3551 93.1352 91.213 94.3021 89.2625C94.633 88.74 94.9465 88.2872 95.2774 87.7647C98.2034 88.4091 101.007 89.3844 103.672 90.7602C102.767 91.9967 102.052 93.4248 101.791 95.1141C101.53 96.8034 101.722 98.6321 102.383 100.252C103.097 101.871 104.142 103.299 105.379 104.414C106.616 105.581 107.974 106.434 109.472 107.201C112.398 108.629 115.515 109.482 118.703 109.743C119.347 109.813 120.009 109.813 120.653 109.813C120.775 110.196 120.984 110.666 121.106 111.119C119.87 111.241 118.703 111.38 117.466 111.38C112.92 111.502 108.288 110.927 104.073 109.43C99.8406 107.862 95.9393 105.337 93.8667 101.628C92.6824 99.7815 92.1599 97.6394 92.2818 95.4972ZM115.637 126.497C108.218 126.114 100.798 124.546 94.0409 121.359C90.6621 119.792 87.4052 117.789 84.5489 115.247C81.6925 112.704 79.2194 109.656 77.7216 106.086C76.1541 102.516 75.6316 98.4753 76.2238 94.7135C76.5547 92.5018 77.2687 90.3596 78.1744 88.4091C74.0118 89.5759 70.1802 91.5265 66.8536 94.0692C66.784 94.5916 66.7317 95.1663 66.6621 95.6888C66.3311 99.9208 67.2542 104.205 69.2571 107.915C71.2078 111.624 74.2034 114.863 77.5822 117.476C81.0307 120.071 84.8624 122.161 88.903 123.711C97.0365 126.898 105.884 128.186 114.662 128.134C117.205 128.134 119.73 127.943 122.273 127.681C122.343 127.298 122.395 126.898 122.465 126.445C120.183 126.619 117.919 126.619 115.637 126.497ZM87.5445 111.607C90.1396 113.627 93.0655 115.177 96.1309 116.413C102.314 118.817 109.071 119.862 115.777 119.722C118.111 119.722 120.392 119.531 122.674 119.27C122.674 119.078 122.674 118.886 122.604 118.747C122.604 118.556 122.534 118.364 122.534 118.155C120.775 118.225 119.016 118.225 117.257 118.155C111.98 117.824 106.72 116.657 101.843 114.393C99.44 113.226 97.0887 111.798 95.0858 110.039C93.0655 108.228 91.2542 106.016 90.0699 103.474C88.903 100.931 88.4502 98.0225 88.903 95.2186C89.2861 92.4843 90.4705 89.9591 92.0205 87.817C92.1425 87.6254 92.2818 87.4861 92.4037 87.3642C89.9306 86.981 87.3877 86.9113 84.7927 87.1029C83.7477 87.1726 82.7724 87.3642 81.797 87.4861C80.5605 89.8894 79.7071 92.4843 79.5155 95.0967C79.1846 98.2837 79.8464 101.523 81.3442 104.327C82.7201 107.201 84.932 109.656 87.5445 111.607ZM114.523 134.944C105.031 134.56 95.5213 132.61 86.813 128.709C82.4589 126.758 78.2963 124.285 74.5866 121.098C70.8769 117.981 67.6896 114.202 65.6171 109.726C63.7883 105.894 62.9523 101.54 63.1439 97.3085C56.1251 104.327 52.2238 114.271 53.1294 124.93C54.8188 144.104 71.7999 158.263 90.993 156.522C104.456 155.355 115.446 146.647 120.201 134.944C118.302 135.013 116.421 135.013 114.523 134.944ZM106.006 92.049C105.414 93.1461 105.1 94.3304 105.1 95.4276C105.1 96.5248 105.431 97.5697 106.006 98.4231C107.173 100.234 109.263 101.471 111.527 102.185C113.356 102.777 115.306 102.969 117.257 102.969C114.331 98.545 110.499 94.8529 106.006 92.049Z" fill="#1345AE"/>
</svg>
