<svg width="386" height="243" viewBox="0 0 386 243" fill="none" xmlns="http://www.w3.org/2000/svg">
    <path d="M385.641 0.413067V242.637H0.359055V0.413067H385.641ZM386 0.0402797H0V243H386V0V0.0402797Z" fill="#C2C2C2"/>
    <g clip-path="url(#clip0_499_210)">
        <path d="M165.919 142.625L152.776 126.603H147.709V152.977H153.711V136.951L166.851 152.977H171.855V126.603H165.919V142.625Z" fill="#003057"/>
        <path d="M182.729 89.9435H176.592V116.317H182.729V89.9435Z" fill="#003057"/>
        <path d="M153.843 108.906H159.508L164.578 116.248H171.068L165.173 107.836C168.575 106.369 170.577 103.429 170.577 99.4891C170.577 93.5471 166.171 89.8743 159.105 89.8743H147.706V116.248H153.843V108.906ZM153.843 94.8847H158.847C162.517 94.8847 164.449 96.5559 164.449 99.4923C164.449 102.363 162.583 104.1 158.847 104.1H153.843V94.8847Z" fill="#003057"/>
        <path d="M282.909 137.357C279.818 136.642 277.175 136.035 277.175 134.011C277.175 132.343 278.572 131.006 282.179 131.006C284.762 131.052 287.289 131.765 289.515 133.077L291.378 128.469C288.911 126.933 285.509 126.131 282.251 126.131C274.777 126.131 271.11 129.869 271.11 134.345C271.11 140.089 276.36 141.303 280.719 142.314C283.809 143.031 286.453 143.645 286.453 145.694C286.453 147.299 284.986 148.501 281.383 148.501C278.265 148.462 275.228 147.51 272.646 145.763L270.578 150.371C272.917 152.24 277.118 153.442 281.32 153.442C288.873 153.442 292.524 149.637 292.524 145.228C292.514 139.563 287.265 138.358 282.909 137.357Z" fill="#003057"/>
        <path d="M171.118 116.251H171.074L171.118 116.318V116.251Z" fill="#003057"/>
        <path d="M192.066 126.068C183.726 126.068 177.658 131.874 177.658 139.755C177.658 147.636 183.726 153.442 192.066 153.442C200.334 153.442 206.471 147.699 206.471 139.755C206.471 131.874 200.334 126.068 192.066 126.068ZM192.066 148.234C187.33 148.234 183.792 144.828 183.792 139.755C183.792 134.745 187.33 131.276 192.066 131.276C196.803 131.276 200.334 134.679 200.334 139.755C200.334 144.832 196.8 148.234 192.066 148.234Z" fill="#003057"/>
        <path d="M294.516 131.61H302.988V153.04H309.056V131.61H317.528V126.603H294.516V131.61Z" fill="#003057"/>
        <path d="M252.497 126.068C244.157 126.068 238.089 131.874 238.089 139.755C238.089 147.636 244.157 153.442 252.497 153.442C260.765 153.442 266.902 147.699 266.902 139.755C266.902 131.874 260.765 126.068 252.497 126.068ZM252.497 148.234C247.757 148.234 244.223 144.828 244.223 139.755C244.223 134.745 247.757 131.276 252.497 131.276C257.237 131.276 260.765 134.679 260.765 139.755C260.699 144.828 257.161 148.234 252.497 148.234Z" fill="#003057"/>
        <path d="M230.617 126.603L222.482 145.499L214.475 126.669H207.872L219.278 153.04H225.283L236.688 126.669H230.617V126.603Z" fill="#003057"/>
        <path d="M327.999 126.669H321.862V153.043H327.999V126.669Z" fill="#003057"/>
        <path d="M216.209 116.317L204.403 89.9435H198.402L186.659 116.317H192.932L195.267 110.652H207.541L209.81 116.317H216.209ZM197.133 105.969L201.335 95.8981L205.536 105.969H197.133Z" fill="#003057"/>
        <path d="M101.247 94.6958C101.414 92.4303 102.123 90.2381 103.314 88.3038C103.648 87.7719 103.982 87.3061 104.312 86.7742C107.297 87.4245 110.186 88.4536 112.91 89.8365C111.909 91.1412 111.245 92.6731 110.978 94.2961C110.71 96.0723 110.916 97.8876 111.576 99.5583C112.285 101.18 113.33 102.632 114.641 103.82C115.898 104.967 117.312 105.93 118.84 106.681C121.803 108.136 125.013 109.021 128.304 109.29C128.971 109.356 129.635 109.356 130.302 109.356C130.437 109.755 130.636 110.221 130.768 110.69C129.53 110.844 128.285 110.932 127.038 110.955C122.371 111.077 117.65 110.476 113.31 108.943C108.979 107.345 104.979 104.748 102.858 100.956C101.669 99.0936 101.104 96.9008 101.247 94.6958ZM125.166 126.458C117.571 126.058 109.974 124.459 103.044 121.196C99.514 119.601 96.2366 117.498 93.3156 114.955C90.3823 112.358 87.8519 109.227 86.3192 105.563C84.7253 101.903 84.1941 97.867 84.7865 93.9185C85.137 91.6734 85.8101 89.4908 86.785 87.4383C82.588 88.6208 78.6536 90.5891 75.1906 93.2387C75.1213 93.7706 75.0552 94.3685 74.9891 94.9036C74.6614 99.2389 75.5867 103.577 77.6549 107.401C79.6565 111.209 82.7156 114.539 86.1776 117.205C89.7295 119.861 93.6325 122.011 97.7752 123.594C106.106 126.858 115.167 128.189 124.165 128.123C126.77 128.101 129.372 127.945 131.961 127.657C132.03 127.257 132.096 126.858 132.162 126.398C129.835 126.583 127.498 126.603 125.169 126.458H125.166ZM96.381 111.209C99.0782 113.249 102.043 114.908 105.193 116.138C111.526 118.602 118.456 119.666 125.32 119.534C127.681 119.513 130.039 119.357 132.382 119.068C132.397 118.887 132.375 118.705 132.316 118.533C132.316 118.335 132.25 118.133 132.25 117.935C130.45 118.002 128.651 118.002 126.853 117.935C121.387 117.649 116.023 116.339 111.041 114.073C108.547 112.893 106.22 111.39 104.117 109.604C101.972 107.731 100.226 105.445 98.9838 102.882C97.7581 100.243 97.3409 97.3006 97.7847 94.4252C98.2151 91.6759 99.3082 89.0727 100.97 86.8403C101.085 86.6707 101.219 86.5145 101.369 86.3745C98.7929 85.9852 96.18 85.8965 93.5831 86.1102C92.5162 86.1762 91.5185 86.3745 90.5177 86.5099C89.2325 88.9264 88.4398 91.5741 88.1856 94.2993C87.86 97.5619 88.5095 100.848 90.0519 103.741C91.4493 106.681 93.731 109.211 96.381 111.209ZM124.039 135.129C114.308 134.729 104.58 132.733 95.6508 128.736C91.1196 126.754 86.8994 124.126 83.1216 120.934C79.3229 117.734 76.0592 113.872 73.9254 109.29C72.0687 105.318 71.2046 100.954 71.4076 96.5748C67.6893 100.327 64.8501 104.857 63.0948 109.839C61.3395 114.821 60.7118 120.13 61.2571 125.384C61.8023 130.638 63.5069 135.706 66.2478 140.221C68.9887 144.736 72.6976 148.587 77.107 151.495C81.5164 154.404 86.5164 156.297 91.7462 157.039C96.976 157.781 102.305 157.353 107.35 155.786C112.394 154.218 117.027 151.551 120.916 147.976C124.805 144.401 127.851 140.008 129.836 135.113C127.904 135.178 125.971 135.178 124.039 135.113V135.129ZM115.309 91.1678C114.718 92.2282 114.394 93.4163 114.364 94.6298C114.359 95.723 114.688 96.7917 115.309 97.692C116.508 99.5583 118.638 100.839 120.974 101.557C122.875 102.127 124.852 102.4 126.837 102.366C123.844 97.8479 119.911 94.0285 115.309 91.1678Z" fill="#1345AE"/>
    </g>
    <defs>
        <clipPath id="clip0_499_210">
            <rect width="267" height="71.3702" fill="white" transform="translate(61 86)"/>
        </clipPath>
    </defs>
</svg>


