<svg width="386" height="243" viewBox="0 0 386 243" fill="none" xmlns="http://www.w3.org/2000/svg">
    <path d="M385.641 0.413067V242.637H0.368696V0.413067H385.641ZM386 0.0402797H0V243H385.97V0L386 0.0402797Z" fill="#C2C2C2"/>
    <g clip-path="url(#clip0_481_422)">
        <path d="M192.335 61.9273V51H165.299V70.833C156.868 77.1624 150.96 86.2808 148.631 96.561C146.302 106.841 147.702 117.614 152.582 126.958C157.463 136.302 165.505 143.608 175.275 147.573C185.044 151.538 195.905 151.903 205.92 148.604C215.934 145.306 224.45 138.557 229.948 129.563C235.446 120.569 237.569 109.914 235.936 99.5004C234.304 89.0868 229.024 79.5917 221.038 72.7096C213.051 65.8275 202.878 62.0061 192.335 61.9273Z" fill="#245F34"/>
        <path fill-rule="evenodd" clip-rule="evenodd" d="M179.437 107.093L188.473 98.2058V92.1776L179.437 101.01V107.093Z" fill="#FFCB05"/>
        <path fill-rule="evenodd" clip-rule="evenodd" d="M179.437 84.6014L188.473 75.7139V70.0499L179.437 78.8828V84.6014Z" fill="#FFCB05"/>
        <path fill-rule="evenodd" clip-rule="evenodd" d="M179.437 92.0502L188.473 83.1627V77.4805L179.437 86.3134V92.0502Z" fill="#FFCB05"/>
        <path fill-rule="evenodd" clip-rule="evenodd" d="M176.849 70.1045L175.647 68.9389V54.8792H174.28V67.6094L173.096 66.4439V54.8792H171.73V65.0962L170.527 63.9306V54.8792H169.161V68.2833L178.215 77.1708V54.8792H176.849V70.1045Z" fill="#FFCB05"/>
        <path fill-rule="evenodd" clip-rule="evenodd" d="M179.437 99.4807L188.473 90.6114V84.9292L179.437 93.7439V99.4807Z" fill="#FFCB05"/>
        <path fill-rule="evenodd" clip-rule="evenodd" d="M169.161 98.2058L178.215 107.093V101.01L169.161 92.1776V98.2058Z" fill="#FFCB05"/>
        <path fill-rule="evenodd" clip-rule="evenodd" d="M187.125 63.9306L185.922 65.0962V54.8792H184.556V66.4439L183.353 67.6094V54.8792H182.005V68.9389L180.785 70.1045V54.8792H179.437V77.1708L188.473 68.2833V54.8792H187.125V63.9306Z" fill="#FFCB05"/>
        <path fill-rule="evenodd" clip-rule="evenodd" d="M169.161 75.7139L178.215 84.6014V78.8646L169.161 70.0499V75.7139Z" fill="#FFCB05"/>
        <path fill-rule="evenodd" clip-rule="evenodd" d="M169.161 83.1627L178.215 92.0502V86.3134L169.161 77.4805V83.1627Z" fill="#FFCB05"/>
        <path fill-rule="evenodd" clip-rule="evenodd" d="M169.161 90.6114L178.215 99.4807V93.7439L169.161 84.9292V90.6114Z" fill="#FFCB05"/>
        <path fill-rule="evenodd" clip-rule="evenodd" d="M223.014 95.2919H201.043C201.498 94.565 201.748 93.7281 201.764 92.8705C201.781 92.013 201.564 91.167 201.138 90.423C200.711 89.6789 200.09 89.0647 199.341 88.646C198.592 88.2272 197.744 88.0197 196.886 88.0455C196.029 88.0713 195.194 88.3295 194.472 88.7924C193.75 89.2554 193.167 89.9058 192.785 90.6742C192.404 91.4426 192.239 92.3 192.307 93.155C192.375 94.01 192.674 94.8305 193.173 95.5287C192.965 95.6706 192.796 95.8608 192.678 96.0829C192.561 96.305 192.499 96.5523 192.499 96.8035C192.499 97.0523 192.561 97.2971 192.678 97.5163C192.796 97.7355 192.966 97.9223 193.173 98.0602C192.605 98.8652 192.3 99.8255 192.298 100.81C192.288 101.547 192.45 102.276 192.772 102.939C193.093 103.602 193.564 104.181 194.149 104.629C194.733 105.078 195.414 105.384 196.138 105.524C196.861 105.663 197.608 105.632 198.317 105.433C199.026 105.233 199.679 104.871 200.224 104.375C200.769 103.879 201.191 103.263 201.455 102.575C201.72 101.888 201.82 101.148 201.749 100.415C201.677 99.6814 201.436 98.975 201.043 98.3516H217.439V99.335H215.818V100.737H217.439V102.176H215.818V104.835H217.439V103.633H219.826V104.835H221.429V102.14H219.826V100.701H221.429V99.2986H219.826V98.3516H223.05C223.356 98.3468 223.648 98.2219 223.863 98.0038C224.078 97.7857 224.198 97.492 224.198 97.186V96.5304C224.198 96.2261 224.077 95.9342 223.862 95.719C223.647 95.5039 223.355 95.383 223.05 95.383M199.513 100.847C199.475 101.204 199.36 101.549 199.174 101.857C198.988 102.164 198.736 102.427 198.437 102.626C198.138 102.825 197.798 102.956 197.442 103.008C197.087 103.061 196.724 103.035 196.38 102.931C196.035 102.827 195.718 102.649 195.451 102.408C195.184 102.168 194.973 101.871 194.834 101.54C194.695 101.208 194.63 100.85 194.645 100.491C194.661 100.132 194.755 99.7809 194.922 99.4625L195.596 98.3151C195.382 98.1257 195.212 97.8929 195.095 97.6322C194.979 97.3715 194.92 97.089 194.922 96.8035C194.921 96.5156 194.98 96.2306 195.096 95.9671C195.212 95.7036 195.383 95.4674 195.596 95.2737L194.922 94.1264C194.659 93.7327 194.52 93.27 194.521 92.7969C194.521 92.1496 194.778 91.5289 195.236 91.0712C195.694 90.6136 196.315 90.3564 196.962 90.3564C197.61 90.3564 198.231 90.6136 198.688 91.0712C199.146 91.5289 199.403 92.1496 199.403 92.7969C199.179 93.9676 198.792 95.1016 198.256 96.1661V97.441C198.795 98.5042 199.182 99.6386 199.403 100.81" fill="#FFCB05"/>
        <path fill-rule="evenodd" clip-rule="evenodd" d="M160.945 92.4144V98.3516C160.813 102.276 162.204 106.1 164.825 109.024L174.171 118.221C175.767 119.51 177.019 121.175 177.815 123.065V116.564C177.876 114.732 177.502 112.912 176.723 111.253C175.944 109.594 174.782 108.143 173.333 107.021C169.799 103.56 167.431 101.284 165.518 99.3715C163.479 97.4592 161.908 95.1037 160.927 92.4873" fill="white"/>
        <path fill-rule="evenodd" clip-rule="evenodd" d="M173.352 121.536C169.817 118.075 167.449 115.817 165.518 113.905C163.632 112.176 162.082 110.114 160.945 107.822V112.921C160.885 116.837 162.258 120.639 164.808 123.612L174.172 132.718C175.803 134.13 177.055 135.926 177.815 137.945V131.133C177.88 129.299 177.507 127.475 176.728 125.813C175.948 124.15 174.785 122.697 173.334 121.572" fill="white"/>
        <path fill-rule="evenodd" clip-rule="evenodd" d="M191.989 65.8065H190.057V68.6112C190.695 68.6112 191.351 68.6112 191.989 68.6112C200.881 68.6225 209.486 71.7645 216.292 77.4856C223.098 83.2067 227.672 91.1415 229.209 99.8974C230.747 108.653 229.15 117.671 224.7 125.367C220.25 133.064 213.231 138.948 204.874 141.986C196.517 145.025 187.356 145.024 179 141.983C170.643 138.943 163.625 133.058 159.176 125.36C154.728 117.663 153.133 108.645 154.673 99.8896C156.212 91.134 160.787 83.2002 167.595 77.4805V73.9656C159.897 79.7584 154.512 88.0998 152.402 97.4978C150.292 106.896 151.596 116.738 156.079 125.263C160.562 133.789 167.932 140.442 176.872 144.034C185.813 147.625 195.739 147.92 204.877 144.866C214.014 141.812 221.768 135.608 226.749 127.364C231.731 119.119 233.617 109.372 232.069 99.8656C230.522 90.3589 225.642 81.7125 218.302 75.4726C210.962 69.2328 201.642 65.8065 192.007 65.8065" fill="white"/>
        <path fill-rule="evenodd" clip-rule="evenodd" d="M220.719 127.491C221.356 126.635 221.939 125.761 222.541 124.85V119.387H220.719V127.491Z" fill="white"/>
        <path fill-rule="evenodd" clip-rule="evenodd" d="M225.893 117.492C226.148 116.709 226.366 115.926 226.567 115.125H220.719V116.564H221.611C223.116 116.314 224.66 116.646 225.929 117.492" fill="white"/>
        <path d="M186.706 114.925H185.103V131.097H186.706V114.925Z" fill="white"/>
        <path fill-rule="evenodd" clip-rule="evenodd" d="M181.422 111.81H186.705C187.725 111.707 188.747 111.993 189.565 112.612C189.885 113.007 190.122 113.461 190.262 113.949C190.403 114.437 190.445 114.948 190.385 115.453V130.569C190.445 131.073 190.403 131.584 190.262 132.072C190.122 132.56 189.885 133.015 189.565 133.41C188.494 134.124 187.198 134.422 185.922 134.248H185.12V141.405L186.723 141.696V135.777C187.675 135.906 188.643 135.738 189.494 135.294C190.346 134.85 191.039 134.154 191.478 133.301V142.061H193.1V115.744C192.995 114.701 193.281 113.657 193.901 112.812C194.292 112.491 194.743 112.251 195.228 112.108C195.713 111.964 196.222 111.918 196.725 111.974C198.091 111.974 200.095 111.774 201.134 112.812C201.74 113.663 202.012 114.706 201.899 115.744V123.484H198.255V115.198H196.689V141.769L198.255 141.532V125.05H201.899V140.695C202.646 140.476 203.393 140.239 204.121 139.984V125.67C204.001 124.952 204.14 124.215 204.514 123.591C204.888 122.967 205.472 122.497 206.162 122.264L204.34 112.32H207.984L208.585 123.247H209.04L209.642 112.32H213.504L211.318 122.246C213.139 122.865 213.376 123.94 213.376 125.651V134.903C214.445 134.107 215.467 133.25 216.437 132.335V112.302H227.167C227.167 111.81 227.295 111.337 227.368 110.845H202.336L202.7 112.666C202.236 111.912 201.565 111.306 200.768 110.919C199.972 110.532 199.081 110.38 198.201 110.481H196.634C195.575 110.332 194.498 110.568 193.598 111.146C192.699 111.725 192.037 112.607 191.733 113.631C191.168 111.428 189.492 110.335 186.705 110.335H179.837V140.021L181.422 140.567V111.81ZM214.706 123.229L212.884 121.59L214.706 112.666V123.229Z" fill="white"/>
        <path fill-rule="evenodd" clip-rule="evenodd" d="M207.911 138.418C208.458 138.139 209.004 137.848 209.551 137.544V125.214H207.911V138.418Z" fill="white"/>
        <path d="M51 192.636V172.129H60.5827C62.3366 172.129 64.0186 172.825 65.2588 174.065C66.499 175.305 67.1958 176.987 67.1958 178.74C67.1958 180.493 66.499 182.175 65.2588 183.415C64.0186 184.654 62.3366 185.351 60.5827 185.351H55.3723V192.636H51ZM63.0239 178.74C63.027 178.363 62.9527 177.99 62.8054 177.643C62.6581 177.296 62.4411 176.983 62.1677 176.723C61.8944 176.463 61.5706 176.263 61.2164 176.134C60.8623 176.004 60.4853 175.949 60.109 175.972H55.3723V181.435H60.109C60.4787 181.455 60.8485 181.4 61.1966 181.274C61.5448 181.149 61.8642 180.954 62.1359 180.703C62.4077 180.452 62.6263 180.149 62.7788 179.811C62.9313 179.474 63.0146 179.11 63.0239 178.74Z" fill="#245F34"/>
        <path d="M68.8897 182.401C68.8461 180.989 69.0936 179.584 69.6168 178.272C70.1399 176.96 70.9276 175.77 71.9308 174.776C72.9339 173.782 74.131 173.004 75.4476 172.493C76.7642 171.981 78.1721 171.745 79.5836 171.801C82.3957 171.801 85.0926 172.918 87.081 174.906C89.0694 176.893 90.1865 179.589 90.1865 182.401C90.1865 185.212 89.0694 187.908 87.081 189.895C85.0926 191.883 82.3957 193 79.5836 193C78.1721 193.056 76.7642 192.82 75.4476 192.308C74.131 191.797 72.9339 191.02 71.9308 190.025C70.9276 189.031 70.1399 187.841 69.6168 186.529C69.0936 185.217 68.8461 183.812 68.8897 182.401ZM85.8142 182.401C85.722 181.189 85.2783 180.03 84.5373 179.067C83.7963 178.103 82.7902 177.377 81.6424 176.976C80.4946 176.576 79.2548 176.519 78.0751 176.812C76.8953 177.105 75.8268 177.736 75.0003 178.628C74.1739 179.519 73.6256 180.632 73.4225 181.83C73.2193 183.029 73.3703 184.26 73.8567 185.374C74.3432 186.488 75.1441 187.435 76.1614 188.101C77.1786 188.766 78.3679 189.121 79.5836 189.121C80.4449 189.124 81.2974 188.948 82.0873 188.604C82.8772 188.261 83.5873 187.758 84.1727 187.126C84.7582 186.495 85.2064 185.749 85.4889 184.935C85.7714 184.122 85.8822 183.259 85.8142 182.401Z" fill="#245F34"/>
        <path d="M92.0811 182.401C92.0544 180.973 92.3214 179.556 92.8656 178.236C93.4098 176.916 94.2195 175.722 95.2445 174.728C96.2695 173.735 97.4878 172.962 98.824 172.458C100.16 171.955 101.586 171.731 103.012 171.801C104.768 171.749 106.503 172.191 108.02 173.077C109.537 173.962 110.775 175.255 111.593 176.809L107.84 178.631C107.386 177.739 106.696 176.988 105.844 176.461C104.993 175.935 104.013 175.652 103.012 175.644C101.287 175.734 99.6626 176.482 98.4735 177.734C97.2845 178.986 96.6215 180.647 96.6215 182.373C96.6215 184.1 97.2845 185.76 98.4735 187.013C99.6626 188.265 101.287 189.013 103.012 189.103C104.011 189.096 104.99 188.816 105.841 188.293C106.692 187.77 107.383 187.023 107.84 186.134L111.593 187.955C110.779 189.524 109.542 190.833 108.022 191.734C106.503 192.635 104.76 193.093 102.994 193.055C101.564 193.123 100.136 192.896 98.7983 192.387C97.4605 191.879 96.2417 191.101 95.2179 190.102C94.1941 189.102 93.3872 187.903 92.8475 186.578C92.3079 185.253 92.047 183.831 92.0811 182.401Z" fill="#245F34"/>
        <path d="M112.577 182.401C112.55 180.973 112.818 179.556 113.362 178.236C113.906 176.916 114.716 175.722 115.741 174.728C116.766 173.735 117.984 172.962 119.32 172.458C120.656 171.955 122.082 171.731 123.508 171.801C125.264 171.749 126.999 172.191 128.516 173.077C130.033 173.962 131.271 175.255 132.089 176.809L128.336 178.631C127.882 177.739 127.192 176.988 126.34 176.461C125.489 175.935 124.509 175.652 123.508 175.644C121.783 175.734 120.159 176.482 118.97 177.734C117.781 178.986 117.118 180.647 117.118 182.373C117.118 184.1 117.781 185.76 118.97 187.013C120.159 188.265 121.783 189.013 123.508 189.103C124.507 189.096 125.486 188.816 126.337 188.293C127.188 187.77 127.879 187.023 128.336 186.134L132.089 187.955C131.275 189.524 130.038 190.833 128.519 191.734C126.999 192.635 125.257 193.093 123.49 193.055C122.06 193.123 120.632 192.896 119.294 192.387C117.957 191.879 116.738 191.101 115.714 190.102C114.69 189.102 113.883 187.903 113.344 186.578C112.804 185.253 112.543 183.831 112.577 182.401Z" fill="#245F34"/>
        <path d="M134.056 192.636V172.129H148.63V175.972H138.446V180.306H148.375V184.149H138.446V188.793H148.594V192.636H134.056Z" fill="#245F34"/>
        <path d="M151.053 189.121C153.111 189.121 154.314 188.028 154.951 182.619L156.154 172.129H170.728V192.636H166.338V175.972H160.089L159.287 182.929C158.303 191.434 155.225 193.055 151.053 193.055V189.121Z" fill="#245F34"/>
        <path d="M178.179 172.129V179.414H183.408C185.162 179.414 186.844 180.11 188.084 181.35C189.324 182.59 190.021 184.271 190.021 186.025C190.021 187.778 189.324 189.46 188.084 190.699C186.844 191.939 185.162 192.636 183.408 192.636H173.825V172.129H178.179ZM178.179 183.257V188.72H182.825C183.229 188.801 183.647 188.792 184.047 188.692C184.448 188.593 184.821 188.405 185.14 188.144C185.459 187.883 185.717 187.554 185.893 187.181C186.07 186.808 186.161 186.401 186.161 185.988C186.161 185.576 186.07 185.169 185.893 184.796C185.717 184.423 185.459 184.094 185.14 183.833C184.821 183.571 184.448 183.384 184.047 183.284C183.647 183.185 183.229 183.175 182.825 183.257H178.179Z" fill="#245F34"/>
        <path d="M205.743 192.636L200.606 185.132L195.45 192.636H190.258L197.691 182.127L190.713 172.129H195.905L200.606 179.141L205.251 172.129H210.516L203.539 182.127L210.972 192.672L205.743 192.636Z" fill="#245F34"/>
        <path d="M210.079 182.401C210.068 180.28 210.688 178.203 211.859 176.434C213.03 174.666 214.701 173.285 216.658 172.466C218.615 171.648 220.772 171.429 222.854 171.838C224.936 172.246 226.85 173.264 228.353 174.761C229.856 176.258 230.88 178.168 231.296 180.248C231.711 182.328 231.5 184.484 230.688 186.444C229.876 188.404 228.5 190.078 226.735 191.255C224.97 192.432 222.895 193.058 220.773 193.055C219.357 193.111 217.944 192.874 216.624 192.359C215.303 191.844 214.103 191.062 213.099 190.061C212.096 189.061 211.309 187.864 210.789 186.546C210.27 185.228 210.028 183.817 210.079 182.401ZM227.022 182.401C226.93 181.19 226.486 180.032 225.746 179.068C225.006 178.105 224.001 177.379 222.854 176.978C221.707 176.577 220.469 176.519 219.289 176.81C218.11 177.102 217.041 177.732 216.214 178.621C215.387 179.511 214.837 180.622 214.632 181.819C214.427 183.016 214.575 184.247 215.059 185.361C215.543 186.475 216.341 187.424 217.356 188.092C218.37 188.76 219.558 189.117 220.773 189.121C221.636 189.126 222.49 188.952 223.282 188.61C224.074 188.268 224.787 187.765 225.374 187.133C225.962 186.501 226.411 185.754 226.695 184.94C226.979 184.125 227.09 183.26 227.022 182.401Z" fill="#245F34"/>
        <path d="M232.542 189.722L234.819 186.79C236.459 188.283 238.595 189.113 240.813 189.121C243.509 189.121 245.076 188.046 245.076 186.516C245.076 184.987 243.637 184.149 240.558 184.149H236.404V180.306H240.558C242.999 180.306 244.748 179.632 244.748 178.121C244.748 176.609 242.926 175.698 240.558 175.698C238.538 175.706 236.592 176.458 235.093 177.811L232.906 175.079C233.969 173.999 235.245 173.151 236.653 172.589C238.062 172.028 239.571 171.766 241.086 171.819C245.878 171.819 249.193 173.987 249.193 177.392C249.133 178.595 248.641 179.735 247.808 180.605C246.975 181.475 245.856 182.015 244.657 182.127C245.914 182.224 247.092 182.778 247.968 183.684C248.844 184.59 249.358 185.786 249.412 187.045C249.412 190.578 245.878 193.073 240.995 193.073C239.43 193.141 237.867 192.877 236.411 192.3C234.954 191.722 233.636 190.844 232.542 189.722Z" fill="#245F34"/>
        <path d="M268.213 172.129V176.664H257.482V179.396H262.656C263.555 179.348 264.454 179.485 265.299 179.796C266.143 180.107 266.915 180.587 267.568 181.207C268.221 181.826 268.741 182.572 269.097 183.399C269.452 184.225 269.635 185.116 269.635 186.016C269.635 186.915 269.452 187.806 269.097 188.633C268.741 189.459 268.221 190.205 267.568 190.824C266.915 191.444 266.143 191.924 265.299 192.235C264.454 192.547 263.555 192.683 262.656 192.636H252.199V172.129H268.213ZM257.482 183.949V187.973H262C262.274 187.993 262.549 187.957 262.808 187.866C263.067 187.776 263.305 187.633 263.506 187.447C263.708 187.261 263.869 187.035 263.98 186.784C264.09 186.534 264.148 186.263 264.15 185.988C264.159 185.709 264.108 185.43 264.002 185.172C263.895 184.913 263.735 184.68 263.532 184.487C263.329 184.294 263.088 184.147 262.824 184.054C262.56 183.961 262.279 183.925 262 183.949H257.482Z" fill="#245F34"/>
        <path d="M286.195 192.636L285.174 189.685H277.086L276.084 192.636H270.09L277.796 172.129H284.446L292.188 192.636H286.195ZM281.13 177.356L278.507 185.078H283.735L281.13 177.356Z" fill="#245F34"/>
        <path d="M308.092 192.636V184.404H299.584V192.636H294.301V172.129H299.584V179.778H308.092V172.129H313.339V192.636H308.092Z" fill="#245F34"/>
        <path d="M328.514 192.636L323.049 184.914L321.664 186.735V192.727H316.381V172.129H321.664V180.561L327.967 172.129H334.49L326.528 181.727L334.927 192.654L328.514 192.636Z" fill="#245F34"/>
    </g>
    <defs>
        <clipPath id="clip0_481_422">
            <rect width="284" height="142" fill="white" transform="translate(51 51)"/>
        </clipPath>
    </defs>
</svg>
