<svg width="386" height="243" viewBox="0 0 386 243" fill="none" xmlns="http://www.w3.org/2000/svg">
    <path d="M385.641 0.413067V242.637H0.368696V0.413067H385.641ZM386 0.0402797H0V243H385.97V0L386 0.0402797Z" fill="#C2C2C2"/>
    <g clip-path="url(#clip0_474_738)">
        <path d="M203.335 60.9273V50H176.299V69.833C167.868 76.1624 161.96 85.2808 159.631 95.561C157.302 105.841 158.702 116.614 163.582 125.958C168.463 135.302 176.505 142.608 186.275 146.573C196.044 150.538 206.905 150.903 216.92 147.604C226.934 144.306 235.45 137.557 240.948 128.563C246.446 119.569 248.569 108.914 246.936 98.5004C245.304 88.0868 240.024 78.5917 232.038 71.7096C224.051 64.8275 213.878 61.0061 203.335 60.9273Z" fill="#245F34"/>
        <path fill-rule="evenodd" clip-rule="evenodd" d="M190.437 106.093L199.473 97.2058V91.1776L190.437 100.01V106.093Z" fill="#FFCB05"/>
        <path fill-rule="evenodd" clip-rule="evenodd" d="M190.437 83.6014L199.473 74.7139V69.0499L190.437 77.8828V83.6014Z" fill="#FFCB05"/>
        <path fill-rule="evenodd" clip-rule="evenodd" d="M190.437 91.0502L199.473 82.1627V76.4805L190.437 85.3134V91.0502Z" fill="#FFCB05"/>
        <path fill-rule="evenodd" clip-rule="evenodd" d="M187.849 69.1045L186.647 67.9389V53.8792H185.28V66.6094L184.096 65.4439V53.8792H182.73V64.0962L181.527 62.9306V53.8792H180.161V67.2833L189.215 76.1708V53.8792H187.849V69.1045Z" fill="#FFCB05"/>
        <path fill-rule="evenodd" clip-rule="evenodd" d="M190.437 98.4807L199.473 89.6114V83.9292L190.437 92.7439V98.4807Z" fill="#FFCB05"/>
        <path fill-rule="evenodd" clip-rule="evenodd" d="M180.161 97.2058L189.215 106.093V100.01L180.161 91.1776V97.2058Z" fill="#FFCB05"/>
        <path fill-rule="evenodd" clip-rule="evenodd" d="M198.125 62.9306L196.922 64.0962V53.8792H195.556V65.4439L194.353 66.6094V53.8792H193.005V67.9389L191.785 69.1045V53.8792H190.437V76.1708L199.473 67.2833V53.8792H198.125V62.9306Z" fill="#FFCB05"/>
        <path fill-rule="evenodd" clip-rule="evenodd" d="M180.161 74.7139L189.215 83.6014V77.8646L180.161 69.0499V74.7139Z" fill="#FFCB05"/>
        <path fill-rule="evenodd" clip-rule="evenodd" d="M180.161 82.1627L189.215 91.0502V85.3134L180.161 76.4805V82.1627Z" fill="#FFCB05"/>
        <path fill-rule="evenodd" clip-rule="evenodd" d="M180.161 89.6114L189.215 98.4807V92.7439L180.161 83.9292V89.6114Z" fill="#FFCB05"/>
        <path fill-rule="evenodd" clip-rule="evenodd" d="M234.014 94.2919H212.043C212.498 93.565 212.748 92.7281 212.764 91.8705C212.781 91.013 212.564 90.167 212.138 89.423C211.711 88.6789 211.09 88.0647 210.341 87.646C209.592 87.2272 208.744 87.0197 207.886 87.0455C207.029 87.0713 206.194 87.3295 205.472 87.7924C204.75 88.2554 204.167 88.9058 203.785 89.6742C203.404 90.4426 203.239 91.3 203.307 92.155C203.375 93.01 203.674 93.8305 204.173 94.5287C203.965 94.6706 203.796 94.8608 203.678 95.0829C203.561 95.305 203.499 95.5523 203.499 95.8035C203.499 96.0523 203.561 96.2971 203.678 96.5163C203.796 96.7355 203.966 96.9223 204.173 97.0602C203.605 97.8652 203.3 98.8255 203.298 99.8102C203.288 100.547 203.45 101.276 203.772 101.939C204.093 102.602 204.564 103.181 205.149 103.629C205.733 104.078 206.414 104.384 207.138 104.524C207.861 104.663 208.608 104.632 209.317 104.433C210.026 104.233 210.679 103.871 211.224 103.375C211.769 102.879 212.191 102.263 212.455 101.575C212.72 100.888 212.82 100.148 212.749 99.4146C212.677 98.6814 212.436 97.975 212.043 97.3516H228.439V98.335H226.818V99.7374H228.439V101.176H226.818V103.835H228.439V102.633H230.826V103.835H232.429V101.14H230.826V99.7009H232.429V98.2986H230.826V97.3516H234.05C234.356 97.3468 234.648 97.2219 234.863 97.0038C235.078 96.7857 235.198 96.492 235.198 96.186V95.5304C235.198 95.2261 235.077 94.9342 234.862 94.719C234.647 94.5039 234.355 94.383 234.05 94.383M210.513 99.8466C210.475 100.204 210.36 100.549 210.174 100.857C209.988 101.164 209.736 101.427 209.437 101.626C209.138 101.825 208.798 101.956 208.442 102.008C208.087 102.061 207.724 102.035 207.38 101.931C207.035 101.827 206.718 101.649 206.451 101.408C206.184 101.168 205.973 100.871 205.834 100.54C205.695 100.208 205.63 99.8504 205.645 99.4913C205.661 99.1322 205.755 98.7809 205.922 98.4625L206.596 97.3151C206.382 97.1257 206.212 96.8929 206.095 96.6322C205.979 96.3715 205.92 96.089 205.922 95.8035C205.921 95.5156 205.98 95.2306 206.096 94.9671C206.212 94.7036 206.383 94.4674 206.596 94.2737L205.922 93.1264C205.659 92.7327 205.52 92.27 205.521 91.7969C205.521 91.1496 205.778 90.5289 206.236 90.0712C206.694 89.6136 207.315 89.3564 207.962 89.3564C208.61 89.3564 209.231 89.6136 209.688 90.0712C210.146 90.5289 210.403 91.1496 210.403 91.7969C210.179 92.9676 209.792 94.1016 209.256 95.1661V96.441C209.795 97.5042 210.182 98.6386 210.403 99.8102" fill="#FFCB05"/>
        <path fill-rule="evenodd" clip-rule="evenodd" d="M171.945 91.4144V97.3516C171.813 101.276 173.204 105.1 175.825 108.024L185.171 117.221C186.767 118.51 188.019 120.175 188.815 122.065V115.564C188.876 113.732 188.502 111.912 187.723 110.253C186.944 108.594 185.782 107.143 184.333 106.021C180.799 102.56 178.431 100.284 176.518 98.3715C174.479 96.4592 172.908 94.1037 171.927 91.4873" fill="white"/>
        <path fill-rule="evenodd" clip-rule="evenodd" d="M184.352 120.536C180.817 117.075 178.449 114.817 176.518 112.905C174.632 111.176 173.082 109.114 171.945 106.822V111.921C171.885 115.837 173.258 119.639 175.808 122.612L185.172 131.718C186.803 133.13 188.055 134.926 188.815 136.945V130.133C188.88 128.299 188.507 126.475 187.728 124.813C186.948 123.15 185.785 121.697 184.334 120.572" fill="white"/>
        <path fill-rule="evenodd" clip-rule="evenodd" d="M202.989 64.8065H201.057V67.6112C201.695 67.6112 202.351 67.6112 202.989 67.6112C211.881 67.6225 220.486 70.7645 227.292 76.4856C234.098 82.2067 238.672 90.1415 240.209 98.8974C241.747 107.653 240.15 116.671 235.7 124.367C231.25 132.064 224.231 137.948 215.874 140.986C207.517 144.025 198.356 144.024 190 140.983C181.643 137.943 174.625 132.058 170.176 124.36C165.728 116.663 164.133 107.645 165.673 98.8896C167.212 90.134 171.787 82.2002 178.595 76.4805V72.9656C170.897 78.7584 165.512 87.0998 163.402 96.4978C161.292 105.896 162.596 115.738 167.079 124.263C171.562 132.789 178.932 139.442 187.872 143.034C196.813 146.625 206.739 146.92 215.877 143.866C225.014 140.812 232.768 134.608 237.749 126.364C242.731 118.119 244.617 108.372 243.069 98.8656C241.522 89.3589 236.642 80.7125 229.302 74.4726C221.962 68.2328 212.642 64.8065 203.007 64.8065" fill="white"/>
        <path fill-rule="evenodd" clip-rule="evenodd" d="M231.719 126.491C232.356 125.635 232.939 124.761 233.541 123.85V118.387H231.719V126.491Z" fill="white"/>
        <path fill-rule="evenodd" clip-rule="evenodd" d="M236.893 116.492C237.148 115.709 237.366 114.926 237.567 114.125H231.719V115.564H232.611C234.116 115.314 235.66 115.646 236.929 116.492" fill="white"/>
        <path d="M197.706 113.925H196.103V130.097H197.706V113.925Z" fill="white"/>
        <path fill-rule="evenodd" clip-rule="evenodd" d="M192.422 110.81H197.705C198.725 110.707 199.747 110.993 200.565 111.612C200.885 112.007 201.122 112.461 201.262 112.949C201.403 113.437 201.445 113.948 201.385 114.453V129.569C201.445 130.073 201.403 130.584 201.262 131.072C201.122 131.56 200.885 132.015 200.565 132.41C199.494 133.124 198.198 133.422 196.922 133.248H196.12V140.405L197.723 140.696V134.777C198.675 134.906 199.643 134.738 200.494 134.294C201.346 133.85 202.039 133.154 202.478 132.301V141.061H204.1V114.744C203.995 113.701 204.281 112.657 204.901 111.812C205.292 111.491 205.743 111.251 206.228 111.108C206.713 110.964 207.222 110.918 207.725 110.974C209.091 110.974 211.095 110.774 212.134 111.812C212.74 112.663 213.012 113.706 212.899 114.744V122.484H209.255V114.198H207.689V140.769L209.255 140.532V124.05H212.899V139.695C213.646 139.476 214.393 139.239 215.121 138.984V124.67C215.001 123.952 215.14 123.215 215.514 122.591C215.888 121.967 216.472 121.497 217.162 121.264L215.34 111.32H218.984L219.585 122.247H220.04L220.642 111.32H224.504L222.318 121.246C224.139 121.865 224.376 122.94 224.376 124.651V133.903C225.445 133.107 226.467 132.25 227.437 131.335V111.302H238.167C238.167 110.81 238.295 110.337 238.368 109.845H213.336L213.7 111.666C213.236 110.912 212.565 110.306 211.768 109.919C210.972 109.532 210.081 109.38 209.201 109.481H207.634C206.575 109.332 205.498 109.568 204.598 110.146C203.699 110.725 203.037 111.607 202.733 112.631C202.168 110.428 200.492 109.335 197.705 109.335H190.837V139.021L192.422 139.567V110.81ZM225.706 122.229L223.884 120.59L225.706 111.666V122.229Z" fill="white"/>
        <path fill-rule="evenodd" clip-rule="evenodd" d="M218.911 137.418C219.458 137.139 220.004 136.848 220.551 136.544V124.214H218.911V137.418Z" fill="white"/>
        <path d="M62 191.636V171.129H71.5827C73.3366 171.129 75.0186 171.825 76.2588 173.065C77.499 174.305 78.1958 175.987 78.1958 177.74C78.1958 179.493 77.499 181.175 76.2588 182.415C75.0186 183.654 73.3366 184.351 71.5827 184.351H66.3723V191.636H62ZM74.0239 177.74C74.027 177.363 73.9527 176.99 73.8054 176.643C73.6581 176.296 73.4411 175.983 73.1677 175.723C72.8944 175.463 72.5706 175.263 72.2164 175.134C71.8623 175.004 71.4853 174.949 71.109 174.972H66.3723V180.435H71.109C71.4787 180.455 71.8485 180.4 72.1966 180.274C72.5448 180.149 72.8642 179.954 73.1359 179.703C73.4077 179.452 73.6263 179.149 73.7788 178.811C73.9313 178.474 74.0146 178.11 74.0239 177.74Z" fill="#245F34"/>
        <path d="M79.8897 181.401C79.8461 179.989 80.0936 178.584 80.6168 177.272C81.1399 175.96 81.9276 174.77 82.9308 173.776C83.9339 172.782 85.131 172.004 86.4476 171.493C87.7642 170.981 89.1721 170.745 90.5836 170.801C93.3957 170.801 96.0926 171.918 98.081 173.906C100.069 175.893 101.186 178.589 101.186 181.401C101.186 184.212 100.069 186.908 98.081 188.895C96.0926 190.883 93.3957 192 90.5836 192C89.1721 192.056 87.7642 191.82 86.4476 191.308C85.131 190.797 83.9339 190.02 82.9308 189.025C81.9276 188.031 81.1399 186.841 80.6168 185.529C80.0936 184.217 79.8461 182.812 79.8897 181.401ZM96.8142 181.401C96.722 180.189 96.2783 179.03 95.5373 178.067C94.7963 177.103 93.7902 176.377 92.6424 175.976C91.4946 175.576 90.2548 175.519 89.0751 175.812C87.8953 176.105 86.8268 176.736 86.0003 177.628C85.1739 178.519 84.6256 179.632 84.4225 180.83C84.2193 182.029 84.3703 183.26 84.8567 184.374C85.3432 185.488 86.1441 186.435 87.1614 187.101C88.1786 187.766 89.3679 188.121 90.5836 188.121C91.4449 188.124 92.2974 187.948 93.0873 187.604C93.8772 187.261 94.5873 186.758 95.1727 186.126C95.7582 185.495 96.2064 184.749 96.4889 183.935C96.7714 183.122 96.8822 182.259 96.8142 181.401Z" fill="#245F34"/>
        <path d="M103.081 181.401C103.054 179.973 103.321 178.556 103.866 177.236C104.41 175.916 105.219 174.722 106.244 173.728C107.269 172.735 108.488 171.962 109.824 171.458C111.16 170.955 112.586 170.731 114.012 170.801C115.768 170.749 117.503 171.191 119.02 172.077C120.537 172.962 121.775 174.255 122.593 175.809L118.84 177.631C118.386 176.739 117.696 175.988 116.844 175.461C115.993 174.935 115.013 174.652 114.012 174.644C112.287 174.734 110.663 175.482 109.474 176.734C108.284 177.986 107.622 179.647 107.622 181.373C107.622 183.1 108.284 184.76 109.474 186.013C110.663 187.265 112.287 188.013 114.012 188.103C115.011 188.096 115.99 187.816 116.841 187.293C117.692 186.77 118.383 186.023 118.84 185.134L122.593 186.955C121.779 188.524 120.542 189.833 119.022 190.734C117.503 191.635 115.76 192.093 113.994 192.055C112.564 192.123 111.136 191.896 109.798 191.387C108.46 190.879 107.242 190.101 106.218 189.102C105.194 188.102 104.387 186.903 103.848 185.578C103.308 184.253 103.047 182.831 103.081 181.401Z" fill="#245F34"/>
        <path d="M123.577 181.401C123.55 179.973 123.818 178.556 124.362 177.236C124.906 175.916 125.716 174.722 126.741 173.728C127.766 172.735 128.984 171.962 130.32 171.458C131.656 170.955 133.082 170.731 134.508 170.801C136.264 170.749 137.999 171.191 139.516 172.077C141.033 172.962 142.271 174.255 143.089 175.809L139.336 177.631C138.882 176.739 138.192 175.988 137.34 175.461C136.489 174.935 135.509 174.652 134.508 174.644C132.783 174.734 131.159 175.482 129.97 176.734C128.781 177.986 128.118 179.647 128.118 181.373C128.118 183.1 128.781 184.76 129.97 186.013C131.159 187.265 132.783 188.013 134.508 188.103C135.507 188.096 136.486 187.816 137.337 187.293C138.188 186.77 138.879 186.023 139.336 185.134L143.089 186.955C142.275 188.524 141.038 189.833 139.519 190.734C137.999 191.635 136.257 192.093 134.49 192.055C133.06 192.123 131.632 191.896 130.294 191.387C128.957 190.879 127.738 190.101 126.714 189.102C125.69 188.102 124.883 186.903 124.344 185.578C123.804 184.253 123.543 182.831 123.577 181.401Z" fill="#245F34"/>
        <path d="M145.056 191.636V171.129H159.63V174.972H149.446V179.306H159.375V183.149H149.446V187.793H159.594V191.636H145.056Z" fill="#245F34"/>
        <path d="M162.053 188.121C164.111 188.121 165.314 187.028 165.951 181.619L167.154 171.129H181.728V191.636H177.338V174.972H171.089L170.287 181.929C169.303 190.434 166.225 192.055 162.053 192.055V188.121Z" fill="#245F34"/>
        <path d="M189.179 171.129V178.414H194.408C196.162 178.414 197.844 179.11 199.084 180.35C200.324 181.59 201.021 183.271 201.021 185.025C201.021 186.778 200.324 188.46 199.084 189.699C197.844 190.939 196.162 191.636 194.408 191.636H184.825V171.129H189.179ZM189.179 182.257V187.72H193.825C194.229 187.801 194.647 187.792 195.047 187.692C195.448 187.593 195.821 187.405 196.14 187.144C196.459 186.883 196.717 186.554 196.893 186.181C197.07 185.808 197.161 185.401 197.161 184.988C197.161 184.576 197.07 184.169 196.893 183.796C196.717 183.423 196.459 183.094 196.14 182.833C195.821 182.571 195.448 182.384 195.047 182.284C194.647 182.185 194.229 182.175 193.825 182.257H189.179Z" fill="#245F34"/>
        <path d="M216.743 191.636L211.606 184.132L206.45 191.636H201.258L208.691 181.127L201.713 171.129H206.905L211.606 178.141L216.251 171.129H221.516L214.539 181.127L221.972 191.672L216.743 191.636Z" fill="#245F34"/>
        <path d="M221.079 181.401C221.068 179.28 221.688 177.203 222.859 175.434C224.03 173.666 225.701 172.285 227.658 171.466C229.615 170.648 231.772 170.429 233.854 170.838C235.936 171.246 237.85 172.264 239.353 173.761C240.856 175.258 241.88 177.168 242.296 179.248C242.711 181.328 242.5 183.484 241.688 185.444C240.876 187.404 239.5 189.078 237.735 190.255C235.97 191.432 233.895 192.058 231.773 192.055C230.357 192.111 228.944 191.874 227.624 191.359C226.303 190.844 225.103 190.062 224.099 189.061C223.096 188.061 222.309 186.864 221.789 185.546C221.27 184.228 221.028 182.817 221.079 181.401ZM238.022 181.401C237.93 180.19 237.486 179.032 236.746 178.068C236.006 177.105 235.001 176.379 233.854 175.978C232.707 175.577 231.469 175.519 230.289 175.81C229.11 176.102 228.041 176.732 227.214 177.621C226.387 178.511 225.837 179.622 225.632 180.819C225.427 182.016 225.575 183.247 226.059 184.361C226.543 185.475 227.341 186.424 228.356 187.092C229.37 187.76 230.558 188.117 231.773 188.121C232.636 188.126 233.49 187.952 234.282 187.61C235.074 187.268 235.787 186.765 236.374 186.133C236.962 185.501 237.411 184.754 237.695 183.94C237.979 183.125 238.09 182.26 238.022 181.401Z" fill="#245F34"/>
        <path d="M243.542 188.722L245.819 185.79C247.459 187.283 249.595 188.113 251.813 188.121C254.509 188.121 256.076 187.046 256.076 185.516C256.076 183.987 254.637 183.149 251.558 183.149H247.404V179.306H251.558C253.999 179.306 255.748 178.632 255.748 177.121C255.748 175.609 253.926 174.698 251.558 174.698C249.538 174.706 247.592 175.458 246.093 176.811L243.906 174.079C244.969 172.999 246.245 172.151 247.653 171.589C249.062 171.028 250.571 170.766 252.086 170.819C256.878 170.819 260.193 172.987 260.193 176.392C260.133 177.595 259.641 178.735 258.808 179.605C257.975 180.475 256.856 181.015 255.657 181.127C256.914 181.224 258.092 181.778 258.968 182.684C259.844 183.59 260.358 184.786 260.412 186.045C260.412 189.578 256.878 192.073 251.995 192.073C250.43 192.141 248.867 191.877 247.411 191.3C245.954 190.722 244.636 189.844 243.542 188.722Z" fill="#245F34"/>
        <path d="M279.213 171.129V175.664H268.482V178.396H273.656C274.555 178.348 275.454 178.485 276.299 178.796C277.143 179.107 277.915 179.587 278.568 180.207C279.221 180.826 279.741 181.572 280.097 182.399C280.452 183.225 280.635 184.116 280.635 185.016C280.635 185.915 280.452 186.806 280.097 187.633C279.741 188.459 279.221 189.205 278.568 189.824C277.915 190.444 277.143 190.924 276.299 191.235C275.454 191.547 274.555 191.683 273.656 191.636H263.199V171.129H279.213ZM268.482 182.949V186.973H273C273.274 186.993 273.549 186.957 273.808 186.866C274.067 186.776 274.305 186.633 274.506 186.447C274.708 186.261 274.869 186.035 274.98 185.784C275.09 185.534 275.148 185.263 275.15 184.988C275.159 184.709 275.108 184.43 275.002 184.172C274.895 183.913 274.735 183.68 274.532 183.487C274.329 183.294 274.088 183.147 273.824 183.054C273.56 182.961 273.279 182.925 273 182.949H268.482Z" fill="#245F34"/>
        <path d="M297.195 191.636L296.174 188.685H288.086L287.084 191.636H281.09L288.796 171.129H295.446L303.188 191.636H297.195ZM292.13 176.356L289.507 184.078H294.735L292.13 176.356Z" fill="#245F34"/>
        <path d="M319.092 191.636V183.404H310.584V191.636H305.301V171.129H310.584V178.778H319.092V171.129H324.339V191.636H319.092Z" fill="#245F34"/>
        <path d="M339.514 191.636L334.049 183.914L332.664 185.735V191.727H327.381V171.129H332.664V179.561L338.967 171.129H345.49L337.528 180.727L345.927 191.654L339.514 191.636Z" fill="#245F34"/>
    </g>
    <defs>
        <clipPath id="clip0_474_738">
            <rect width="284" height="142" fill="white" transform="translate(62 50)"/>
        </clipPath>
    </defs>
</svg>
