<svg width="386" height="243" viewBox="0 0 386 243" fill="none" xmlns="http://www.w3.org/2000/svg">
    <path d="M385.641 0.413067V242.637H0.368696V0.413067H385.641ZM386 0.0402797H0V243H385.97V0L386 0.0402797Z" fill="#C2C2C2"/>
    <g clip-path="url(#clip0_499_254)">
        <path fill-rule="evenodd" clip-rule="evenodd" d="M191.692 150.475C182.326 150.477 173.197 147.535 165.597 142.065C157.996 136.596 152.31 128.876 149.341 119.998C146.372 111.12 146.273 101.534 149.056 92.5964C151.839 83.6588 157.364 75.8222 164.848 70.1958L165.327 69.8467V50H190.941V61.2486H191.692C197.643 61.1054 203.563 62.1533 209.104 64.3306C214.644 66.5079 219.692 69.7707 223.952 73.927C228.212 78.0833 231.597 83.0491 233.909 88.5324C236.22 94.0156 237.41 99.9054 237.41 105.855C237.41 111.805 236.22 117.695 233.909 123.178C231.597 128.662 228.212 133.627 223.952 137.784C219.692 141.94 214.644 145.203 209.104 147.38C203.563 149.557 197.643 150.605 191.692 150.462" fill="#245E2E"/>
        <path d="M58.9625 179.54H62.6494C63.506 179.61 64.3592 179.371 65.0556 178.868C65.3173 178.636 65.5239 178.348 65.6604 178.026C65.7969 177.704 65.8599 177.356 65.8447 177.006C65.8535 176.675 65.7871 176.345 65.6504 176.043C65.5137 175.741 65.3104 175.473 65.0556 175.261C64.4433 174.777 63.6737 174.538 62.8952 174.588H59.0142V179.54M68.8719 188.591H65.6895L63.1022 181.842H58.9625V188.591H56V172.235H63.128C64.6982 172.083 66.2661 172.547 67.5006 173.528C67.9779 173.977 68.3531 174.524 68.6008 175.131C68.8485 175.737 68.963 176.39 68.9365 177.045C68.9885 177.995 68.7267 178.936 68.1915 179.724C67.6563 180.511 66.8772 181.101 65.9741 181.402L68.8719 188.591Z" fill="#245E2E"/>
        <path d="M81.5234 188.656H78.9361V186.07C78.7111 186.918 78.2048 187.666 77.4999 188.189C76.7949 188.713 75.933 188.982 75.0551 188.953C74.5757 188.97 74.098 188.886 73.6525 188.708C73.207 188.53 72.8036 188.261 72.4678 187.919C71.7823 187.125 71.4342 186.095 71.4976 185.048V176.502H74.2919V184.467C74.2497 184.781 74.2802 185.1 74.3811 185.401C74.4821 185.701 74.6507 185.974 74.874 186.199C75.2021 186.449 75.6003 186.589 76.0124 186.6C76.6938 186.563 77.3381 186.278 77.8236 185.798C78.2002 185.321 78.4769 184.773 78.6369 184.186C78.7969 183.6 78.8371 182.987 78.755 182.385V176.502H81.4975V188.656" fill="#245E2E"/>
        <path d="M83.3477 185.863L85.935 185.372C86.1489 185.864 86.5166 186.273 86.9831 186.539C87.4495 186.805 87.9896 186.912 88.5223 186.846C90.2299 186.846 91.1096 186.354 91.1096 185.346C91.1106 185.191 91.0762 185.039 91.0089 184.9C90.9416 184.761 90.8433 184.639 90.7215 184.544C90.4387 184.342 90.1172 184.202 89.7771 184.13L87.565 183.717C85.107 183.234 83.8781 182.032 83.8781 180.109C83.87 179.598 83.9695 179.092 84.1701 178.622C84.3707 178.152 84.6679 177.729 85.0423 177.381C85.5199 176.974 86.0731 176.665 86.6702 176.472C87.2674 176.279 87.8967 176.206 88.5223 176.256C91.1096 176.256 92.662 177.187 93.2312 179.075L90.7991 179.566C90.6541 179.115 90.3535 178.729 89.9508 178.478C89.5481 178.227 89.0695 178.127 88.5999 178.196C87.1381 178.196 86.4007 178.661 86.4007 179.579C86.4007 180.2 86.9958 180.639 88.173 180.872L90.7603 181.402C91.4624 181.518 92.1141 181.841 92.6322 182.328C93.1504 182.816 93.5116 183.446 93.6698 184.14C93.828 184.833 93.776 185.558 93.5205 186.222C93.265 186.886 92.8175 187.458 92.2351 187.867C91.1143 188.549 89.8211 188.895 88.5093 188.863C87.3655 188.881 86.234 188.624 85.2105 188.113C84.7548 187.883 84.3531 187.558 84.032 187.162C83.7109 186.765 83.4776 186.305 83.3477 185.811" fill="#245E2E"/>
        <path d="M94.5373 185.863L97.1247 185.372C97.342 185.861 97.7104 186.268 98.1759 186.534C98.6415 186.799 99.1798 186.908 99.712 186.846C101.407 186.846 102.299 186.354 102.299 185.346C102.301 185.19 102.265 185.036 102.196 184.897C102.126 184.757 102.024 184.636 101.898 184.544C101.622 184.34 101.304 184.199 100.967 184.13L98.69 183.717C96.232 183.234 95.0031 182.032 95.0031 180.109C94.995 179.598 95.0945 179.092 95.2951 178.622C95.4957 178.152 95.7929 177.729 96.1673 177.381C96.6439 176.972 97.1967 176.661 97.7938 176.466C98.391 176.27 99.0209 176.195 99.6473 176.243C102.235 176.243 103.787 177.187 104.356 179.075L101.911 179.566C101.771 179.114 101.473 178.727 101.072 178.476C100.671 178.224 100.193 178.125 99.7249 178.196C98.2631 178.196 97.5257 178.661 97.5257 179.566C97.5257 180.2 98.1208 180.639 99.298 180.859L101.885 181.389C102.587 181.505 103.239 181.828 103.757 182.315C104.275 182.803 104.637 183.433 104.795 184.127C104.953 184.82 104.901 185.545 104.646 186.209C104.39 186.873 103.942 187.445 103.36 187.854C102.245 188.537 100.955 188.883 99.6473 188.85C98.5034 188.868 97.3719 188.611 96.3485 188.1C95.8923 187.868 95.4896 187.544 95.1666 187.148C94.8435 186.751 94.6071 186.292 94.4727 185.798" fill="#245E2E"/>
        <path d="M109.957 188.656H107.215V176.502H109.957V188.656ZM109.957 175.08H107.215V172.222H109.957V175.08Z" fill="#245E2E"/>
        <path d="M120.684 182.475C117.13 182.475 115.354 183.337 115.354 185.061C115.351 185.303 115.397 185.542 115.491 185.764C115.584 185.987 115.723 186.187 115.897 186.354C116.118 186.545 116.375 186.69 116.653 186.781C116.93 186.872 117.223 186.907 117.514 186.884C117.959 186.915 118.405 186.842 118.817 186.669C119.228 186.496 119.593 186.229 119.882 185.889C120.406 185.257 120.69 184.46 120.684 183.639V182.527M123.711 188.707H121.124C120.879 187.91 120.74 187.084 120.71 186.251C120.412 187.09 119.847 187.809 119.102 188.297C118.357 188.785 117.472 189.016 116.583 188.953C116.049 188.981 115.515 188.902 115.013 188.72C114.511 188.538 114.05 188.256 113.659 187.893C113.301 187.547 113.018 187.13 112.829 186.67C112.64 186.209 112.548 185.714 112.56 185.216C112.56 182.424 115.013 181.027 119.92 181.027H120.684V180.109C120.684 178.816 119.817 178.222 118.096 178.222C116.376 178.222 115.509 178.855 115.263 180.109L112.935 179.76C112.996 179.256 113.167 178.772 113.435 178.341C113.704 177.91 114.062 177.543 114.487 177.265C115.681 176.533 117.074 176.19 118.472 176.282C119.242 176.265 120.011 176.343 120.761 176.515C121.324 176.655 121.843 176.93 122.275 177.317C122.646 177.645 122.934 178.057 123.116 178.519C123.275 179.24 123.327 179.981 123.271 180.717V186.199C123.281 187.03 123.403 187.857 123.633 188.656" fill="#245E2E"/>
        <path d="M136.66 188.656H133.904V181.053C133.952 180.404 133.758 179.759 133.361 179.243C133.198 179.06 132.998 178.913 132.776 178.811C132.553 178.709 132.312 178.653 132.067 178.648C131.705 178.654 131.348 178.741 131.024 178.902C130.699 179.063 130.415 179.294 130.191 179.579C129.591 180.396 129.306 181.401 129.389 182.411V188.656H126.582V176.502H129.092V179.295C129.971 177.252 131.187 176.23 132.779 176.23C133.787 176.21 134.766 176.57 135.521 177.239C135.948 177.72 136.269 178.285 136.465 178.897C136.661 179.509 136.727 180.155 136.66 180.795V188.643" fill="#245E2E"/>
        <path d="M153.878 182.359L151.484 175.041L149.143 182.359H153.878ZM159.156 188.643H155.999L154.705 184.764H148.354L147.06 188.643H144.473L149.932 172.209H153.58L159.156 188.643Z" fill="#245E2E"/>
        <path d="M166.296 181.997C167.797 181.997 168.547 181.299 168.547 179.89C168.542 179.647 168.49 179.408 168.392 179.186C168.294 178.964 168.154 178.764 167.978 178.597C167.761 178.392 167.505 178.233 167.225 178.131C166.944 178.028 166.646 177.985 166.348 178.002C166.043 177.983 165.738 178.025 165.449 178.125C165.16 178.225 164.894 178.381 164.666 178.584C164.285 178.967 164.07 179.485 164.07 180.025C164.07 180.566 164.285 181.084 164.666 181.467C165.117 181.856 165.701 182.055 166.296 182.023M163.295 188.022C163.127 188.142 162.987 188.296 162.885 188.475C162.782 188.653 162.719 188.852 162.7 189.057C162.723 189.366 162.828 189.664 163.003 189.92C163.177 190.177 163.416 190.383 163.696 190.518C164.661 191.014 165.745 191.233 166.827 191.151C168.948 191.151 169.996 190.608 169.996 189.535C170.001 189.345 169.951 189.157 169.852 188.995C169.754 188.832 169.611 188.701 169.44 188.617C169.044 188.399 168.597 188.292 168.146 188.307H165.261C164.597 188.293 163.936 188.198 163.295 188.022ZM172.532 174.123V176.243H171.691C171.367 176.236 171.044 176.279 170.734 176.373C170.361 176.544 170.065 176.848 169.906 177.226C170.329 177.518 170.679 177.903 170.931 178.351C171.182 178.799 171.327 179.299 171.354 179.812C171.364 180.328 171.251 180.839 171.027 181.304C170.802 181.769 170.471 182.175 170.061 182.488C169.018 183.229 167.756 183.598 166.477 183.536C165.717 183.527 164.961 183.423 164.226 183.225C163.972 183.317 163.753 183.486 163.6 183.709C163.447 183.931 163.367 184.196 163.373 184.467C163.379 184.626 163.419 184.782 163.491 184.925C163.562 185.067 163.663 185.193 163.787 185.294C164.155 185.577 164.618 185.707 165.08 185.656H168.547C169.606 185.593 170.648 185.941 171.458 186.626C171.795 186.92 172.063 187.284 172.244 187.693C172.425 188.102 172.514 188.545 172.506 188.992C172.508 189.565 172.363 190.128 172.085 190.629C171.806 191.129 171.403 191.55 170.915 191.849C169.491 192.693 167.844 193.086 166.193 192.974C162.312 192.974 160.307 191.888 160.307 189.69C160.306 189.146 160.477 188.616 160.795 188.175C161.113 187.734 161.563 187.405 162.079 187.233C161.751 187.003 161.478 186.703 161.281 186.354C161.084 186.005 160.968 185.616 160.941 185.216C160.974 184.65 161.177 184.107 161.523 183.658C161.869 183.208 162.342 182.873 162.881 182.695C162.369 182.425 161.941 182.019 161.645 181.522C161.348 181.025 161.194 180.455 161.199 179.877C161.2 179.375 161.318 178.88 161.542 178.432C161.767 177.983 162.092 177.592 162.493 177.291C163.585 176.496 164.924 176.116 166.27 176.218C167.057 176.217 167.842 176.3 168.612 176.463C168.711 175.78 169.065 175.16 169.602 174.726C170.139 174.292 170.821 174.077 171.51 174.123H172.532Z" fill="#245E2E"/>
        <path d="M176.969 188.643H174.227V176.489H176.697V179.385C176.942 178.441 177.449 177.585 178.159 176.916C178.679 176.435 179.353 176.155 180.061 176.127H180.423V179.075C179.886 178.997 179.337 179.078 178.845 179.307C178.353 179.537 177.94 179.906 177.655 180.368C177.22 181.161 176.984 182.049 176.969 182.954V188.578" fill="#245E2E"/>
        <path d="M185.133 188.643H182.391V176.489H185.133V188.643ZM185.133 175.067H182.391V172.222H185.133V175.067Z" fill="#245E2E"/>
        <path d="M195.457 184.182L197.811 184.415C197.63 185.712 197.009 186.908 196.052 187.802C195.163 188.54 194.037 188.93 192.882 188.901C192.134 188.938 191.389 188.789 190.712 188.469C190.035 188.149 189.447 187.667 189.001 187.065C188.097 185.743 187.644 184.166 187.708 182.566C187.627 180.924 188.131 179.307 189.131 178.002C189.6 177.43 190.193 176.972 190.865 176.662C191.538 176.353 192.272 176.201 193.012 176.218C195.668 176.218 197.246 177.61 197.746 180.394L195.392 180.73C195.172 179.217 194.448 178.454 193.154 178.454C192.733 178.434 192.316 178.54 191.957 178.759C191.597 178.978 191.311 179.3 191.136 179.683C190.687 180.603 190.469 181.62 190.502 182.643C190.442 183.631 190.671 184.615 191.162 185.475C191.349 185.792 191.619 186.053 191.942 186.231C192.265 186.408 192.63 186.495 192.999 186.484C194.202 186.484 194.991 185.708 195.392 184.156" fill="#245E2E"/>
        <path d="M209.945 188.643H207.358V186.057C207.133 186.905 206.627 187.653 205.922 188.176C205.217 188.7 204.355 188.969 203.477 188.94C202.998 188.954 202.521 188.869 202.076 188.691C201.631 188.513 201.227 188.246 200.89 187.906C200.204 187.112 199.856 186.082 199.919 185.035V176.489H202.727V184.466C202.682 184.781 202.712 185.101 202.813 185.401C202.914 185.702 203.084 185.975 203.309 186.199C203.633 186.446 204.027 186.586 204.434 186.6C205.119 186.56 205.766 186.275 206.258 185.798C206.879 185.268 207.177 184.13 207.177 182.385V176.489H209.945V188.643Z" fill="#245E2E"/>
        <path d="M215.961 172.222H213.205V188.643H215.961V172.222Z" fill="#245E2E"/>
        <path d="M224.899 186.497V188.643C224.276 188.793 223.639 188.88 222.998 188.901C222.338 188.923 221.683 188.776 221.096 188.475C220.583 188.211 220.173 187.783 219.932 187.259C219.641 186.515 219.513 185.717 219.557 184.919V178.622H218.043V176.489H219.712L219.971 173.321L222.221 173.115V176.489H224.666V178.622H222.221V184.544C222.151 185.1 222.3 185.66 222.635 186.109C223.092 186.438 223.654 186.585 224.214 186.522C224.442 186.535 224.671 186.535 224.899 186.522" fill="#245E2E"/>
        <path d="M237.203 188.643H234.615V186.057C234.39 186.905 233.884 187.653 233.179 188.176C232.474 188.7 231.612 188.969 230.734 188.94C230.255 188.957 229.777 188.873 229.332 188.695C228.886 188.517 228.483 188.248 228.147 187.906C227.805 187.514 227.543 187.06 227.376 186.567C227.21 186.075 227.142 185.554 227.177 185.035V176.489H229.971V184.466C229.928 184.779 229.958 185.097 230.059 185.395C230.16 185.693 230.329 185.964 230.553 186.186C230.884 186.43 231.281 186.57 231.692 186.587C232.372 186.545 233.015 186.261 233.503 185.785C233.88 185.308 234.156 184.76 234.316 184.173C234.476 183.587 234.516 182.974 234.434 182.372V176.489H237.164V188.643" fill="#245E2E"/>
        <path d="M243.256 188.643H240.514V176.489H242.997V179.385C243.238 178.442 243.741 177.586 244.446 176.916C244.964 176.432 245.64 176.152 246.348 176.127H246.71V179.075C246.173 178.999 245.625 179.08 245.134 179.31C244.642 179.539 244.228 179.907 243.942 180.368C243.512 181.164 243.277 182.05 243.256 182.954V188.591" fill="#245E2E"/>
        <path d="M256.05 182.45C252.505 182.45 250.733 183.311 250.733 185.035C250.73 185.277 250.777 185.516 250.87 185.738C250.964 185.961 251.102 186.162 251.276 186.328C251.496 186.522 251.753 186.668 252.03 186.759C252.308 186.85 252.602 186.884 252.893 186.858C253.338 186.89 253.785 186.816 254.196 186.643C254.607 186.47 254.972 186.203 255.261 185.863C255.78 185.229 256.059 184.432 256.05 183.613V182.488M259.09 188.682H256.503C256.26 187.883 256.116 187.058 256.076 186.225C255.794 186.867 255.366 187.434 254.827 187.882C254.287 188.33 253.651 188.646 252.968 188.806C252.285 188.965 251.574 188.963 250.892 188.8C250.21 188.637 249.575 188.318 249.038 187.867C248.679 187.522 248.395 187.106 248.206 186.645C248.017 186.184 247.926 185.689 247.939 185.191C247.939 182.398 250.392 181.001 255.3 181.001H256.076V180.083C256.076 178.79 255.222 178.196 253.489 178.196C251.755 178.196 250.901 178.829 250.655 180.083L248.314 179.734C248.379 179.23 248.552 178.746 248.823 178.315C249.093 177.884 249.453 177.517 249.879 177.239C251.074 176.507 252.466 176.164 253.864 176.256C254.634 176.239 255.403 176.317 256.153 176.489C256.711 176.631 257.226 176.906 257.654 177.291C258.036 177.618 258.33 178.036 258.508 178.506C258.697 179.227 258.775 179.972 258.741 180.717V186.212C258.751 187.043 258.873 187.87 259.103 188.669" fill="#245E2E"/>
        <path d="M264.744 172.222H262.002V188.643H264.744V172.222Z" fill="#245E2E"/>
        <path d="M278.057 181.635V185.591H281.019C281.771 185.667 282.525 185.48 283.154 185.061C283.366 184.878 283.533 184.649 283.643 184.391C283.753 184.134 283.802 183.854 283.788 183.574C283.787 183.316 283.732 183.061 283.628 182.825C283.523 182.589 283.37 182.378 283.18 182.204C282.61 181.772 281.899 181.569 281.187 181.635H278.057ZM278.057 175.17V178.765H280.967C282.041 178.765 282.714 178.545 282.986 178.131C283.243 177.777 283.387 177.353 283.4 176.916C283.412 176.53 283.293 176.152 283.063 175.843C282.88 175.578 282.617 175.379 282.313 175.274C281.779 175.18 281.237 175.146 280.696 175.17H278.057ZM274.176 172.261H281.834C282.885 172.205 283.935 172.377 284.913 172.765C285.606 173.059 286.212 173.527 286.672 174.123C287.146 174.795 287.387 175.603 287.358 176.424C287.376 177.283 287.087 178.119 286.545 178.785C286.002 179.45 285.24 179.901 284.396 180.058C285.418 180.236 286.339 180.784 286.983 181.596C287.538 182.304 287.839 183.179 287.837 184.079C287.84 184.679 287.717 185.273 287.476 185.823C287.235 186.373 286.882 186.867 286.44 187.272C285.151 188.265 283.531 188.727 281.912 188.565H274.253L274.176 172.261Z" fill="#245E2E"/>
        <path d="M296.918 182.812C294.408 183.057 293.153 183.82 293.153 185.087C293.15 185.49 293.292 185.88 293.554 186.186C293.696 186.342 293.87 186.465 294.065 186.545C294.259 186.626 294.469 186.662 294.68 186.652C294.988 186.652 295.292 186.581 295.568 186.444C295.844 186.307 296.085 186.108 296.271 185.863C296.715 185.311 296.945 184.618 296.918 183.911V182.812ZM300.721 188.63H297.241C297.114 188.005 297.058 187.367 297.073 186.729C296.619 187.446 295.991 188.037 295.249 188.449C294.604 188.742 293.901 188.888 293.192 188.876C292.185 188.923 291.197 188.591 290.424 187.945C290.076 187.634 289.802 187.25 289.621 186.821C289.44 186.392 289.356 185.928 289.376 185.462C289.371 184.716 289.583 183.984 289.984 183.355C290.465 182.657 291.153 182.128 291.95 181.842C293.563 181.355 295.233 181.081 296.918 181.027V180.329C296.952 180.09 296.93 179.846 296.854 179.616C296.778 179.386 296.65 179.178 296.479 179.006C296.309 178.834 296.101 178.705 295.872 178.627C295.642 178.549 295.398 178.525 295.158 178.558C294.901 178.523 294.64 178.543 294.391 178.615C294.142 178.688 293.911 178.811 293.713 178.978C293.514 179.145 293.353 179.351 293.239 179.584C293.124 179.816 293.06 180.07 293.05 180.329L289.738 180.019C289.8 179.406 290.012 178.818 290.355 178.306C290.698 177.795 291.161 177.375 291.704 177.084C292.847 176.493 294.118 176.195 295.404 176.218C296.194 176.21 296.981 176.306 297.746 176.502C298.376 176.651 298.961 176.948 299.453 177.368C299.836 177.721 300.121 178.167 300.281 178.661C300.467 179.396 300.542 180.154 300.501 180.911V186.406C300.471 187.171 300.545 187.937 300.721 188.682" fill="#245E2E"/>
        <path d="M314.033 188.63H310.462V181.881C310.479 181.31 310.444 180.739 310.359 180.174C310.291 179.872 310.128 179.6 309.893 179.398C309.624 179.188 309.29 179.078 308.949 179.088C307.655 179.088 307.06 180.019 307.06 181.881V188.695H303.477V176.541H306.801V178.597C307.173 177.834 307.74 177.182 308.444 176.709C308.985 176.433 309.584 176.291 310.191 176.295C311.205 176.249 312.201 176.581 312.985 177.226C313.399 177.736 313.705 178.324 313.885 178.955C314.065 179.586 314.115 180.247 314.033 180.898V188.656" fill="#245E2E"/>
        <path d="M325.079 180.588L329.038 188.617H325.079L322.492 183.174L320.384 185.604V188.682H316.994V172.209H320.371V182.049L320.901 181.389C321.121 181.079 321.315 180.846 321.47 180.652L325.079 176.489H328.572L325.079 180.588Z" fill="#245E2E"/>
        <path d="M178.729 106.528L188.03 97.3866V91.1804L178.729 100.283V106.528Z" fill="#FFCC00"/>
        <path d="M178.729 83.3839L188.03 74.2428V68.3857L178.729 77.4881V83.3839Z" fill="#FFCC00"/>
        <path d="M178.729 91.0381L188.03 81.897V76.0399L178.729 85.1423V91.0381Z" fill="#FFCC00"/>
        <path d="M176.064 68.4632L174.822 67.2608V52.7798H173.425V65.8903L172.183 64.6878V52.7798H170.786V63.3173L169.557 62.1019V52.7798H168.16V66.5885L177.462 75.7296V52.7798H176.064V68.4632Z" fill="#FFCC00"/>
        <path d="M178.729 98.6924L188.03 89.5513V83.7072L178.729 92.7836V98.6924Z" fill="#FFCC00"/>
        <path d="M168.16 97.3866L177.462 106.528V100.27L168.16 91.1804V97.3866Z" fill="#FFCC00"/>
        <path d="M186.633 62.1019L185.404 63.3044V52.7798H183.994V64.6878L182.752 65.8773V52.7798H181.381V67.2479L180.139 68.4503V52.7798H178.729V75.7296L188.03 66.5885V52.7798H186.633V62.1019Z" fill="#FFCC00"/>
        <path d="M168.16 74.2428L177.462 83.3839V77.4881L168.16 68.3857V74.2428Z" fill="#FFCC00"/>
        <path d="M168.16 81.897L177.462 91.0381V85.1423L168.16 76.0399V81.897Z" fill="#FFCC00"/>
        <path d="M168.16 89.5513L177.462 98.6924V92.7836L168.16 83.6942V89.5513Z" fill="#FFCC00"/>
        <path d="M199.363 100.063C199.387 100.408 199.341 100.755 199.226 101.082C199.11 101.408 198.929 101.708 198.693 101.961C198.457 102.215 198.171 102.417 197.853 102.555C197.536 102.693 197.193 102.765 196.847 102.765C196.5 102.765 196.157 102.693 195.84 102.555C195.522 102.417 195.236 102.215 195 101.961C194.764 101.708 194.583 101.408 194.467 101.082C194.352 100.755 194.306 100.408 194.33 100.063C194.334 99.5718 194.478 99.092 194.744 98.6795L195.443 97.5029C195.222 97.3062 195.044 97.0654 194.921 96.7959C194.799 96.5265 194.734 96.2344 194.731 95.9384C194.734 95.6405 194.799 95.3464 194.921 95.0749C195.044 94.8033 195.221 94.5602 195.443 94.361L194.744 93.1844C194.473 92.7741 194.329 92.2928 194.33 91.801C194.376 91.1652 194.661 90.5702 195.128 90.1359C195.595 89.7016 196.209 89.4602 196.847 89.4602C197.484 89.4602 198.098 89.7016 198.565 90.1359C199.032 90.5702 199.317 91.1652 199.363 91.801C199.136 93.0099 198.739 94.1807 198.185 95.279V96.572C198.738 97.6664 199.134 98.8327 199.363 100.037M223.606 94.361H200.98C201.454 93.6112 201.716 92.7464 201.736 91.8593C201.757 90.9722 201.535 90.0964 201.095 89.3257C200.655 88.555 200.013 87.9186 199.239 87.4846C198.465 87.0507 197.587 86.8357 196.699 86.8626C195.812 86.8895 194.948 87.1574 194.202 87.6374C193.455 88.1175 192.853 88.7917 192.461 89.5876C192.069 90.3835 191.9 91.2712 191.975 92.1554C192.049 93.0396 192.362 93.887 192.881 94.6067C192.665 94.7461 192.487 94.9375 192.364 95.1634C192.241 95.3893 192.176 95.6424 192.176 95.8996C192.176 96.1569 192.241 96.41 192.364 96.6359C192.487 96.8617 192.665 97.0531 192.881 97.1926C192.361 97.9114 192.046 98.7583 191.971 99.6423C191.895 100.526 192.062 101.414 192.453 102.211C192.844 103.007 193.445 103.682 194.191 104.164C194.937 104.645 195.8 104.914 196.687 104.942C197.574 104.971 198.453 104.757 199.228 104.324C200.003 103.892 200.645 103.256 201.087 102.487C201.528 101.717 201.751 100.841 201.732 99.954C201.713 99.0669 201.453 98.2017 200.98 97.4512H217.797V98.4726H216.115V99.9078H217.797V101.395H216.115V104.174H217.797V102.882H220.294V104.174H221.963V101.433H220.294V99.9465H221.963V98.5114H220.294V97.4899H223.632C223.945 97.4865 224.244 97.3597 224.465 97.137C224.685 96.9143 224.809 96.6137 224.809 96.3004V95.5764C224.809 95.2631 224.685 94.9625 224.465 94.7398C224.244 94.5171 223.945 94.3903 223.632 94.3869" fill="#FFCC00"/>
        <path d="M159.699 91.3743V97.4511C159.558 101.491 160.986 105.429 163.683 108.441L173.308 117.906C176.012 120.491 176.478 121.409 177.073 122.909V116.212C177.133 114.32 176.744 112.44 175.936 110.727C175.129 109.015 173.927 107.518 172.429 106.36C168.768 102.804 166.323 100.477 164.356 98.5243C162.277 96.5283 160.684 94.0822 159.699 91.3743Z" fill="white"/>
        <path d="M172.429 121.397C168.794 117.828 166.336 115.501 164.383 113.535C162.429 111.765 160.827 109.642 159.661 107.278V112.514C159.589 116.559 161.007 120.488 163.645 123.556C164.486 124.383 173.167 132.865 173.27 132.981C174.965 134.417 176.262 136.265 177.035 138.347V131.236C177.101 129.349 176.718 127.473 175.917 125.762C175.116 124.052 173.921 122.555 172.429 121.397Z" fill="white"/>
        <path d="M191.652 64.0284C190.992 64.0284 190.358 64.0284 189.66 64.0284V66.8729C190.319 66.8729 190.953 66.8729 191.652 66.8729C200.812 66.8675 209.682 70.0869 216.704 75.9659C223.726 81.845 228.453 90.0081 230.053 99.0226C231.654 108.037 230.026 117.327 225.457 125.262C220.888 133.197 213.668 139.27 205.065 142.415C196.462 145.56 187.026 145.577 178.412 142.461C169.798 139.346 162.557 133.298 157.96 125.379C153.363 117.46 151.704 108.176 153.273 99.1557C154.843 90.1357 159.54 81.9562 166.542 76.0529V72.4197C158.612 78.3817 153.063 86.969 150.888 96.6454C148.713 106.322 150.053 116.456 154.668 125.236C159.284 134.015 166.875 140.867 176.082 144.565C185.289 148.264 195.513 148.568 204.924 145.423C214.335 142.278 222.319 135.889 227.449 127.399C232.579 118.91 234.519 108.873 232.923 99.0844C231.327 89.2958 226.298 80.3941 218.737 73.9715C211.176 67.5489 201.575 64.0244 191.652 64.0284Z" fill="white"/>
        <path d="M206.762 119.431V137.843C207.434 137.494 208.055 137.119 208.715 136.731V119.431H206.762Z" fill="white"/>
        <path d="M186.658 121.112C186.658 120.013 185.908 119.548 184.873 119.548H184.498V140.7C185.222 140.843 185.921 140.972 186.62 141.075V121.112H186.658Z" fill="white"/>
        <path d="M186.658 111.919C186.658 110.82 185.934 110.329 184.873 110.329H184.498V117.388H184.873C185.934 117.388 186.658 116.884 186.658 115.772V111.919Z" fill="white"/>
        <path d="M219.906 121.009C219.906 119.91 219.156 119.444 218.134 119.444H217.707V128.87C218.522 127.887 219.246 126.917 219.893 125.999V121.539L219.906 121.009Z" fill="white"/>
        <path d="M224.667 114.647V111.855C224.714 111.15 224.583 110.444 224.287 109.803C223.991 109.162 223.539 108.605 222.972 108.183C221.886 107.433 220.592 107.044 219.272 107.071H202.015V109.657C201.316 107.717 199.427 106.864 197.008 106.864C193.968 106.864 191.834 108.002 191.239 110.743C191.166 110.225 190.987 109.729 190.714 109.284C190.44 108.839 190.077 108.455 189.647 108.157C188.568 107.393 187.27 106.998 185.948 107.032H179.699V139.356L180.669 139.627V108.053H185.844C186.952 108.023 188.04 108.35 188.949 108.984C189.386 109.308 189.735 109.738 189.961 110.233C190.187 110.729 190.284 111.273 190.242 111.816V114.647C190.269 115.417 190.025 116.171 189.552 116.778C189.079 117.385 188.408 117.807 187.655 117.97L186.491 118.371L187.681 118.694C188.355 118.824 188.967 119.174 189.421 119.689C189.875 120.204 190.146 120.854 190.191 121.539V141.373C191.786 141.454 193.386 141.424 194.977 141.282C194.101 141.064 193.327 140.547 192.791 139.82C192.255 139.093 191.99 138.202 192.041 137.3V123.22H195.378C195.378 127.926 195.378 132.619 195.378 137.326C195.364 137.487 195.385 137.65 195.442 137.802C195.498 137.954 195.588 138.092 195.705 138.205C195.821 138.318 195.962 138.403 196.116 138.454C196.27 138.506 196.433 138.522 196.594 138.502C196.754 138.521 196.916 138.503 197.067 138.45C197.219 138.398 197.357 138.312 197.472 138.199C197.586 138.086 197.673 137.949 197.727 137.798C197.781 137.647 197.801 137.485 197.785 137.326V124.306C197.643 123.08 197.086 121.939 196.206 121.073C195.417 120.207 194.628 119.328 193.865 118.423C193.606 118.125 193.36 117.815 193.114 117.505C192.948 117.298 192.792 117.082 192.649 116.858C192.217 116.208 191.991 115.441 192.002 114.66V112.062C192.002 108.946 193.942 107.885 196.853 107.885C199.44 107.885 201.174 108.868 201.174 111.648V115.32H197.785V111.441C197.8 111.3 197.784 111.156 197.738 111.022C197.692 110.887 197.617 110.764 197.519 110.662C197.42 110.56 197.3 110.48 197.167 110.429C197.034 110.378 196.892 110.357 196.75 110.368C196.555 110.362 196.362 110.412 196.193 110.51C195.994 110.711 195.846 110.956 195.763 111.227C195.679 111.497 195.663 111.784 195.715 112.062L195.805 113.587C195.955 114.83 196.525 115.985 197.422 116.858C198.211 117.712 198.988 118.578 199.738 119.444C200.154 119.977 200.539 120.534 200.889 121.112C201.37 121.888 201.617 122.786 201.601 123.698C201.601 128.107 201.601 132.516 201.601 136.938C201.667 138.152 201.315 139.352 200.605 140.338C201.407 140.119 202.183 139.873 202.946 139.588V108.015H206.724V117.35H208.729V108.015H212.532V134.042C213.011 133.654 213.477 133.24 213.929 132.826V108.015H219.104C220.212 107.985 221.3 108.311 222.209 108.946C222.647 109.272 222.996 109.704 223.222 110.201C223.449 110.699 223.545 111.245 223.502 111.79V114.647C223.529 115.418 223.285 116.174 222.813 116.783C222.34 117.393 221.669 117.817 220.915 117.983L219.751 118.384L220.941 118.694C221.845 118.971 222.632 119.54 223.179 120.311C223.502 119.638 223.671 119.237 223.671 119.237C223.367 118.918 223.038 118.624 222.687 118.358C223.321 117.975 223.839 117.428 224.188 116.775C224.536 116.122 224.701 115.387 224.667 114.647ZM193.231 119.134C193.994 120.039 194.783 120.931 195.585 121.797L195.948 122.25H191.329V121.5C191.286 120.864 191.094 120.247 190.768 119.699C190.442 119.151 189.992 118.687 189.453 118.345C189.91 118.057 190.303 117.679 190.61 117.234C190.917 116.79 191.131 116.288 191.239 115.759C191.361 116.355 191.598 116.922 191.937 117.427C192.333 118.026 192.765 118.601 193.231 119.147V119.134ZM202.015 120.841C201.968 120.747 201.916 120.657 201.86 120.569C201.469 119.954 201.036 119.367 200.566 118.811C199.867 117.97 199.143 117.169 198.405 116.354H202.054L202.015 120.841Z" fill="white"/>
        <path d="M219.906 111.893C219.906 110.781 219.182 110.29 218.134 110.29H217.707V117.35H218.082C219.143 117.35 219.855 116.845 219.855 115.733L219.906 111.893Z" fill="white"/>
    </g>
    <defs>
        <clipPath id="clip0_499_254">
            <rect width="273" height="143" fill="white" transform="translate(56 50)"/>
        </clipPath>
    </defs>
</svg>
