<svg width="386" height="243" viewBox="0 0 386 243" fill="none" xmlns="http://www.w3.org/2000/svg">
    <path d="M385.641 0.413067V242.637H0.359055V0.413067H385.641ZM386 0.0402797H0V243H386V0V0.0402797Z" fill="#C2C2C2"/>
    <g clip-path="url(#clip0_481_222)">
        <path d="M281.911 98.8283V125.233H272.487V106.711H263.413V125.233H253.989V98.8265H281.911V98.8283Z" fill="black"/>
        <path fill-rule="evenodd" clip-rule="evenodd" d="M234.635 126.177C243.071 126.177 249.336 121.002 249.336 113.156C249.336 105.563 244.714 100.633 236.989 100.633C233.424 100.633 230.483 101.888 228.267 104.055C228.796 99.5771 232.58 96.3083 236.747 96.3083C237.709 96.3083 244.949 96.293 244.949 96.293L249.043 88.4549C249.043 88.4549 239.953 88.6619 235.728 88.6619C226.074 88.8302 219.553 97.6097 219.553 108.273C219.553 120.696 225.913 126.177 234.635 126.177ZM234.686 107.575C237.819 107.575 239.99 109.635 239.99 113.155C239.99 116.324 238.061 118.935 234.686 118.942C231.459 118.942 229.287 116.523 229.287 113.209C229.287 109.688 231.459 107.575 234.686 107.575Z" fill="black"/>
        <path d="M211.882 116.393C211.882 116.393 209.656 117.676 206.332 117.919C202.511 118.033 199.106 115.618 199.106 111.328C199.106 107.143 202.11 104.744 206.236 104.744C208.766 104.744 212.112 106.498 212.112 106.498C212.112 106.498 214.561 102.003 215.829 99.7545C213.506 97.9932 210.413 97.0275 206.814 97.0275C197.733 97.0275 190.699 102.951 190.699 111.274C190.699 119.704 197.31 125.49 206.814 125.315C209.471 125.216 213.136 124.283 215.369 122.848L211.882 116.393Z" fill="black"/>
        <path d="M96 91.508L109.073 114.885V129.145L96.0153 152.477L96 91.508Z" fill="#5B57A2"/>
        <path d="M146.194 106.379L158.444 98.8673L183.513 98.8439L146.194 121.716V106.379Z" fill="#D90751"/>
        <path d="M146.125 91.3703L146.194 122.321L133.091 114.266V68L146.125 91.3703Z" fill="#FAB718"/>
        <path d="M183.513 98.8439L158.443 98.8673L146.125 91.3703L133.091 68L183.513 98.8439Z" fill="#ED6F26"/>
        <path d="M146.194 152.606V137.59L133.091 129.688L133.098 176L146.194 152.606Z" fill="#63B22F"/>
        <path d="M158.413 145.163L109.072 114.885L96 91.508L183.46 145.133L158.413 145.163Z" fill="#1487C9"/>
        <path d="M133.099 176L146.193 152.606L158.412 145.163L183.459 145.133L133.099 176Z" fill="#017F36"/>
        <path d="M96.0156 152.477L133.198 129.689L120.697 122.015L109.073 129.145L96.0156 152.477Z" fill="#984995"/>
        <path d="M199.108 143.003C198.82 143.37 198.442 143.647 197.987 143.835C197.521 144.024 197.023 144.121 196.519 144.119C196.019 144.126 195.521 144.042 195.05 143.872C194.627 143.719 194.241 143.479 193.915 143.169C193.593 142.858 193.341 142.482 193.174 142.067C192.993 141.612 192.903 141.126 192.908 140.637C192.908 140.151 192.992 139.701 193.166 139.274C193.332 138.847 193.574 138.481 193.877 138.173C194.18 137.859 194.544 137.619 194.952 137.432C195.369 137.252 195.823 137.155 196.322 137.155C196.86 137.155 197.36 137.222 197.814 137.356C198.268 137.491 198.654 137.716 198.972 138.031L198.419 138.967C198.152 138.725 197.838 138.541 197.495 138.427C197.17 138.323 196.83 138.27 196.489 138.271C196.187 138.271 195.899 138.33 195.619 138.443C195.343 138.554 195.091 138.717 194.877 138.922C194.657 139.134 194.485 139.389 194.369 139.671C194.241 139.963 194.18 140.285 194.18 140.644C194.18 141.011 194.248 141.341 194.377 141.625C194.506 141.918 194.68 142.165 194.899 142.374C195.119 142.585 195.376 142.741 195.671 142.846C195.967 142.959 196.277 143.011 196.61 143.011C197.019 143.011 197.39 142.928 197.708 142.771C198.022 142.619 198.305 142.408 198.541 142.15L199.108 143.003ZM200.667 143.962V137.297H201.864V142.262L205.754 137.297H206.951V143.962H205.754V138.997L201.864 143.962L200.667 143.962ZM214.876 143.003C214.582 143.373 214.196 143.66 213.756 143.835C213.29 144.024 212.791 144.121 212.287 144.119C211.787 144.126 211.29 144.042 210.819 143.872C210.396 143.719 210.009 143.479 209.683 143.169C209.361 142.858 209.109 142.482 208.942 142.067C208.761 141.612 208.671 141.126 208.676 140.637C208.676 140.151 208.76 139.701 208.934 139.274C209.101 138.847 209.343 138.481 209.645 138.173C209.948 137.859 210.312 137.619 210.72 137.432C211.152 137.242 211.619 137.147 212.09 137.155C212.628 137.155 213.127 137.222 213.582 137.356C214.036 137.491 214.422 137.716 214.74 138.031L214.187 138.967C213.92 138.725 213.606 138.541 213.264 138.427C212.939 138.323 212.599 138.27 212.258 138.271C211.656 138.273 211.079 138.506 210.645 138.922C210.427 139.136 210.255 139.39 210.137 139.671C210.009 139.963 209.948 140.285 209.948 140.644C209.948 141.011 210.017 141.341 210.145 141.625C210.274 141.918 210.448 142.165 210.667 142.374C210.887 142.585 211.145 142.741 211.44 142.846C211.735 142.951 212.045 143.011 212.378 143.011C212.787 143.011 213.151 142.928 213.476 142.771C213.79 142.619 214.073 142.408 214.309 142.15L214.876 143.003ZM215.49 137.297H221.628V138.481H219.161V143.962H217.964V138.481H215.497V137.297H215.49Z" fill="black"/>
        <path fill-rule="evenodd" clip-rule="evenodd" d="M227.216 143.895C227.67 143.753 228.056 143.535 228.389 143.236L228.026 142.307C227.806 142.503 227.511 142.667 227.156 142.802C226.799 142.937 226.398 143.004 225.959 143.004C225.301 143.004 224.756 142.832 224.324 142.48C223.893 142.127 223.658 141.634 223.605 141.004H228.783C228.836 140.772 228.859 140.51 228.859 140.203C228.859 139.746 228.775 139.335 228.608 138.96C228.454 138.597 228.227 138.268 227.943 137.994C227.654 137.722 227.315 137.511 226.943 137.373C226.555 137.222 226.141 137.145 225.724 137.148C225.164 137.148 224.672 137.245 224.241 137.425C223.834 137.596 223.465 137.849 223.158 138.166C222.86 138.483 222.63 138.857 222.485 139.267C222.325 139.703 222.246 140.165 222.25 140.63C222.25 141.154 222.341 141.633 222.507 142.061C222.669 142.475 222.917 142.85 223.234 143.161C223.545 143.467 223.923 143.701 224.37 143.865C224.848 144.035 225.353 144.119 225.861 144.112C226.321 144.109 226.778 144.035 227.216 143.895ZM224.188 138.765C224.559 138.428 225.051 138.264 225.671 138.264C226.254 138.264 226.724 138.421 227.065 138.736C227.406 139.05 227.587 139.485 227.617 140.038H223.529C223.587 139.548 223.821 139.095 224.188 138.765Z" fill="black"/>
        <path d="M230.486 137.297H231.577L234.166 140.6L236.618 137.297H237.678V143.962H236.482V139.102L234.15 142.195H234.104L231.683 139.102V143.962H230.486V137.297Z" fill="black"/>
        <path fill-rule="evenodd" clip-rule="evenodd" d="M240.932 137.32C240.569 137.414 240.222 137.563 239.903 137.761L240.22 138.706C240.493 138.571 240.765 138.458 241.038 138.361C241.311 138.263 241.659 138.218 242.075 138.218C242.408 138.218 242.673 138.271 242.878 138.375C243.082 138.472 243.233 138.623 243.339 138.803C243.445 138.983 243.514 139.207 243.551 139.469C243.589 139.731 243.604 140.015 243.604 140.323C243.36 140.152 243.081 140.037 242.787 139.985C242.503 139.929 242.214 139.899 241.924 139.895C241.568 139.895 241.235 139.948 240.917 140.038C240.599 140.128 240.326 140.263 240.107 140.443C239.883 140.622 239.702 140.85 239.577 141.109C239.444 141.392 239.376 141.702 239.38 142.015C239.38 142.666 239.57 143.176 239.948 143.536C240.326 143.895 240.826 144.074 241.446 144.074C242.007 144.074 242.454 143.977 242.794 143.782C243.135 143.587 243.407 143.363 243.604 143.108V143.97H244.724V139.881C244.724 139.012 244.536 138.338 244.15 137.866C243.771 137.394 243.097 137.155 242.144 137.155C241.719 137.155 241.318 137.214 240.932 137.32ZM242.932 142.72C242.659 142.914 242.303 143.003 241.864 143.003C241.478 143.003 241.175 142.906 240.963 142.719C240.751 142.524 240.645 142.27 240.645 141.955C240.645 141.768 240.683 141.611 240.766 141.469C240.85 141.326 240.963 141.214 241.092 141.124C241.233 141.03 241.389 140.961 241.553 140.921C241.728 140.876 241.902 140.854 242.083 140.854C242.674 140.854 243.181 140.996 243.597 141.296V142.142C243.401 142.362 243.177 142.557 242.932 142.72ZM255.286 134.953C255.528 134.841 255.754 134.654 255.967 134.377L255.315 133.441C255.149 133.666 254.96 133.822 254.748 133.905C254.523 133.993 254.289 134.058 254.051 134.099L253.825 134.14C253.628 134.174 253.416 134.212 253.189 134.25C252.824 134.317 252.468 134.428 252.129 134.579C251.591 134.811 251.16 135.125 250.834 135.522C250.509 135.919 250.251 136.368 250.077 136.863C249.9 137.365 249.781 137.885 249.722 138.413C249.66 138.953 249.631 139.469 249.631 139.963C249.631 140.6 249.714 141.176 249.88 141.693C250.047 142.21 250.281 142.644 250.592 142.996C250.902 143.356 251.273 143.626 251.712 143.82C252.151 144.015 252.643 144.112 253.196 144.112C253.703 144.112 254.173 144.015 254.596 143.835C255.005 143.662 255.375 143.41 255.687 143.094C255.989 142.786 256.232 142.419 256.398 142.008C256.572 141.595 256.656 141.154 256.656 140.689C256.656 140.188 256.58 139.732 256.436 139.327C256.304 138.94 256.092 138.586 255.815 138.286C255.538 137.991 255.199 137.761 254.823 137.611C254.409 137.448 253.967 137.367 253.521 137.372C253.234 137.372 252.954 137.41 252.681 137.484C252.416 137.559 252.162 137.667 251.924 137.806C251.693 137.939 251.482 138.102 251.296 138.292C251.114 138.481 250.963 138.69 250.857 138.93H250.826C250.85 138.623 250.887 138.309 250.955 137.986C251.023 137.664 251.121 137.356 251.251 137.065C251.38 136.773 251.546 136.51 251.75 136.271C251.969 136.029 252.238 135.838 252.537 135.709C252.867 135.552 253.216 135.439 253.575 135.373L253.812 135.33C254.049 135.286 254.274 135.245 254.49 135.2C254.778 135.141 255.043 135.064 255.286 134.953ZM251.076 141.356C250.959 140.978 250.903 140.584 250.91 140.188C250.961 139.961 251.053 139.745 251.183 139.552C251.311 139.349 251.478 139.17 251.675 139.012C252.119 138.663 252.669 138.476 253.234 138.481C253.938 138.481 254.468 138.697 254.838 139.125C255.21 139.559 255.392 140.098 255.392 140.749C255.392 141.072 255.331 141.364 255.225 141.633C255.123 141.899 254.968 142.141 254.771 142.345C254.573 142.55 254.336 142.713 254.075 142.824C253.802 142.944 253.506 143.004 253.173 143.004C252.84 143.004 252.537 142.936 252.258 142.801C251.979 142.669 251.734 142.477 251.538 142.24C251.333 141.975 251.176 141.676 251.076 141.356ZM265.83 137.297H264.634V143.962H265.83V137.297ZM258.381 137.297H259.577V139.297H260.683C261.205 139.297 261.628 139.364 261.969 139.491C262.31 139.619 262.583 139.791 262.787 140.001C262.991 140.21 263.135 140.458 263.219 140.734C263.302 141.011 263.348 141.296 263.348 141.595C263.348 141.895 263.302 142.18 263.204 142.465C263.113 142.749 262.954 142.996 262.741 143.221C262.53 143.446 262.242 143.626 261.879 143.761C261.515 143.895 261.076 143.97 260.546 143.97H258.374V137.297H258.381ZM259.577 140.412V142.854H260.448C261.046 142.854 261.47 142.749 261.712 142.539C261.955 142.329 262.076 142.03 262.076 141.633C262.076 141.228 261.947 140.922 261.705 140.712C261.455 140.502 261.038 140.397 260.464 140.397H259.577V140.412Z" fill="black"/>
        <path d="M273.742 143.003C273.454 143.37 273.076 143.647 272.621 143.835C272.155 144.024 271.656 144.121 271.153 144.119C270.653 144.126 270.155 144.042 269.684 143.872C269.261 143.719 268.875 143.479 268.549 143.169C268.227 142.857 267.974 142.482 267.807 142.067C267.627 141.612 267.537 141.126 267.542 140.637C267.542 140.151 267.625 139.701 267.8 139.274C267.966 138.847 268.208 138.481 268.511 138.173C268.814 137.859 269.177 137.619 269.586 137.432C270.017 137.242 270.485 137.147 270.956 137.155C271.493 137.155 271.993 137.222 272.448 137.356C272.902 137.491 273.288 137.716 273.605 138.031L273.053 138.967C272.786 138.725 272.471 138.541 272.129 138.427C271.804 138.323 271.464 138.27 271.123 138.271C270.82 138.271 270.532 138.33 270.252 138.443C269.976 138.554 269.725 138.717 269.511 138.922C269.293 139.135 269.12 139.39 269.003 139.671C268.875 139.963 268.814 140.285 268.814 140.644C268.814 141.011 268.882 141.341 269.01 141.625C269.139 141.918 269.314 142.165 269.533 142.374C269.753 142.585 270.01 142.741 270.305 142.846C270.601 142.951 270.911 143.011 271.244 143.011C271.652 143.011 272.016 142.928 272.341 142.771C272.656 142.619 272.939 142.408 273.175 142.15L273.742 143.003ZM274.355 137.297H280.494V138.481H278.026V143.962H276.83V138.481H274.363V137.297H274.355Z" fill="black"/>
        <path fill-rule="evenodd" clip-rule="evenodd" d="M282.992 137.298H281.796V146.928H282.992V143.655C283.234 143.813 283.522 143.925 283.855 144C284.188 144.075 284.536 144.112 284.892 144.112C285.422 144.112 285.899 144.015 286.331 143.835C286.745 143.658 287.12 143.401 287.435 143.079C287.746 142.756 287.981 142.382 288.147 141.94C288.313 141.499 288.397 141.027 288.397 140.525C288.397 140.03 288.321 139.574 288.178 139.162C288.042 138.77 287.831 138.409 287.557 138.099C287.288 137.796 286.954 137.558 286.58 137.402C286.171 137.227 285.73 137.14 285.285 137.148C284.817 137.148 284.378 137.238 283.961 137.418C283.545 137.598 283.219 137.814 282.992 138.084V137.298ZM283.825 138.534C284.166 138.354 284.537 138.264 284.938 138.264C285.286 138.264 285.597 138.316 285.877 138.428C286.15 138.541 286.377 138.698 286.566 138.908C286.755 139.118 286.899 139.358 286.99 139.641C287.088 139.926 287.134 140.234 287.134 140.57C287.134 140.93 287.073 141.252 286.968 141.551C286.868 141.835 286.711 142.096 286.505 142.315C286.299 142.532 286.048 142.703 285.771 142.817C285.462 142.946 285.129 143.01 284.794 143.004C284.469 143.004 284.166 142.967 283.878 142.892C283.563 142.806 283.264 142.67 282.993 142.487V139.184C283.205 138.93 283.485 138.714 283.825 138.534ZM297.572 137.297H296.375V143.962H297.572V137.297ZM290.115 137.297H291.312V139.297H292.416C292.939 139.297 293.363 139.364 293.704 139.491C294.045 139.619 294.317 139.791 294.521 140.001C294.726 140.21 294.87 140.458 294.952 140.734C295.036 141.011 295.081 141.296 295.081 141.595C295.081 141.895 295.036 142.18 294.938 142.465C294.847 142.749 294.688 142.996 294.476 143.221C294.264 143.446 293.976 143.626 293.613 143.761C293.249 143.895 292.81 143.97 292.281 143.97H290.108V137.297H290.115ZM291.32 140.412V142.854H292.191C292.788 142.854 293.212 142.749 293.454 142.539C293.696 142.329 293.818 142.03 293.818 141.633C293.818 141.228 293.689 140.922 293.447 140.712C293.197 140.502 292.781 140.397 292.206 140.397H291.32V140.412Z" fill="black"/>
        <path d="M303.311 140.51L305.869 143.962H304.401L302.424 141.266L300.418 143.962H299.026L301.569 140.569L299.177 137.297H300.646L302.47 139.813L304.324 137.297H305.718L303.311 140.51ZM198.224 152.2H194.553V157.757H193.356V151.092H199.42V157.757H198.224V152.2ZM206.21 152.275H203.848L203.772 153.398C203.689 154.349 203.576 155.113 203.416 155.697C203.257 156.282 203.06 156.731 202.834 157.045C202.607 157.36 202.341 157.577 202.038 157.682C201.726 157.795 201.395 157.851 201.062 157.847L200.971 156.693C201.1 156.7 201.251 156.67 201.418 156.596C201.585 156.521 201.751 156.356 201.91 156.11C202.069 155.854 202.213 155.495 202.341 155.031C202.47 154.559 202.554 153.945 202.599 153.173L202.72 151.099H207.406V157.764H206.21V152.275Z" fill="black"/>
        <path fill-rule="evenodd" clip-rule="evenodd" d="M210.631 151.108C210.244 151.212 209.896 151.361 209.601 151.549L209.919 152.493C210.192 152.358 210.465 152.245 210.736 152.148C211.009 152.051 211.358 152.006 211.774 152.006C212.107 152.006 212.372 152.058 212.576 152.162C212.781 152.26 212.932 152.41 213.038 152.59C213.144 152.77 213.212 152.995 213.25 153.256C213.288 153.519 213.303 153.803 213.303 154.11C213.058 153.94 212.779 153.825 212.485 153.773C212.201 153.717 211.912 153.687 211.622 153.683C211.267 153.683 210.933 153.736 210.616 153.826C210.297 153.916 210.025 154.051 209.805 154.231C209.581 154.41 209.4 154.638 209.275 154.897C209.142 155.18 209.075 155.49 209.079 155.803C209.079 156.454 209.268 156.964 209.647 157.323C210.025 157.682 210.525 157.862 211.146 157.862C211.706 157.862 212.152 157.765 212.493 157.57C212.833 157.375 213.106 157.15 213.303 156.895V157.757H214.424V153.668C214.424 152.8 214.234 152.125 213.848 151.654C213.469 151.181 212.795 150.943 211.842 150.943C211.433 150.943 211.026 150.999 210.631 151.108ZM212.637 156.506C212.365 156.701 212.009 156.791 211.57 156.791C211.176 156.791 210.881 156.694 210.67 156.506C210.457 156.311 210.351 156.057 210.351 155.743C210.351 155.555 210.389 155.398 210.473 155.256C210.555 155.113 210.67 155.001 210.798 154.911C210.927 154.821 211.085 154.753 211.26 154.708C211.433 154.664 211.611 154.641 211.79 154.642C212.38 154.642 212.887 154.784 213.304 155.083V155.929C213.107 156.149 212.883 156.343 212.637 156.506Z" fill="black"/>
        <path d="M215.596 151.092H221.735V152.275H219.267V157.757H218.071V152.276H215.604V151.092H215.596Z" fill="black"/>
        <path fill-rule="evenodd" clip-rule="evenodd" d="M227.322 157.689C227.777 157.547 228.162 157.329 228.495 157.03L228.132 156.102C227.912 156.297 227.617 156.462 227.261 156.597C226.906 156.732 226.505 156.798 226.066 156.798C225.407 156.798 224.862 156.626 224.43 156.274C223.998 155.923 223.764 155.428 223.711 154.798H228.889C228.941 154.567 228.965 154.304 228.965 153.997C228.965 153.541 228.881 153.129 228.715 152.755C228.56 152.391 228.333 152.063 228.048 151.789C227.76 151.517 227.421 151.305 227.05 151.167C226.661 151.016 226.248 150.94 225.831 150.942C225.27 150.942 224.778 151.039 224.347 151.219C223.94 151.39 223.571 151.643 223.264 151.961C222.966 152.277 222.737 152.652 222.59 153.061C222.431 153.498 222.351 153.959 222.356 154.424C222.356 154.949 222.446 155.428 222.613 155.855C222.78 156.282 223.029 156.649 223.34 156.956C223.65 157.263 224.029 157.495 224.476 157.66C224.954 157.83 225.459 157.913 225.967 157.907C226.414 157.907 226.868 157.831 227.322 157.689ZM224.287 152.552C224.658 152.215 225.15 152.051 225.77 152.051C226.361 152.051 226.823 152.215 227.164 152.522C227.504 152.837 227.686 153.271 227.716 153.826H223.629C223.686 153.335 223.92 152.882 224.287 152.552ZM229.548 151.092H231.062L233.37 154.305L230.903 157.757H229.434L232.023 154.304L229.548 151.092ZM233.665 151.092H234.862V157.757H233.665V151.092ZM239.138 157.757L236.504 154.304L238.965 151.091H237.48L235.157 154.304L237.655 157.757H239.138ZM244.604 157.689C245.058 157.547 245.444 157.329 245.777 157.03L245.414 156.102C245.194 156.297 244.899 156.462 244.544 156.597C244.188 156.732 243.786 156.798 243.347 156.798C242.689 156.798 242.144 156.626 241.712 156.274C241.281 155.923 241.046 155.428 240.993 154.798H246.171C246.224 154.567 246.247 154.304 246.247 153.997C246.247 153.541 246.164 153.129 245.997 152.755C245.842 152.391 245.615 152.063 245.331 151.789C245.043 151.517 244.703 151.305 244.332 151.167C243.943 151.016 243.529 150.94 243.113 150.942C242.553 150.942 242.061 151.039 241.629 151.219C241.222 151.39 240.854 151.643 240.547 151.961C240.248 152.277 240.019 152.652 239.873 153.061C239.713 153.498 239.634 153.959 239.638 154.424C239.638 154.949 239.729 155.428 239.896 155.855C240.062 156.282 240.312 156.649 240.623 156.956C240.933 157.263 241.311 157.495 241.758 157.66C242.236 157.83 242.741 157.913 243.249 157.907C243.709 157.904 244.166 157.83 244.604 157.689ZM241.569 152.552C241.94 152.215 242.432 152.051 243.053 152.051C243.636 152.051 244.105 152.215 244.446 152.522C244.787 152.837 244.968 153.271 244.998 153.826H240.91C240.968 153.335 241.202 152.882 241.569 152.552ZM251.1 148.853C250.396 148.853 250.01 148.463 249.949 147.685H248.821C248.821 147.984 248.874 148.254 248.972 148.508C249.071 148.763 249.215 148.98 249.404 149.16C249.593 149.34 249.836 149.482 250.116 149.594C250.396 149.706 250.721 149.758 251.092 149.758C251.433 149.758 251.736 149.706 252.009 149.594C252.281 149.489 252.508 149.34 252.705 149.16C252.894 148.98 253.046 148.763 253.151 148.508C253.257 148.254 253.31 147.984 253.31 147.685H252.19C252.137 148.463 251.766 148.853 251.1 148.853ZM247.867 151.091V157.757H249.063L252.954 152.791V157.757H254.15V151.091H252.954L249.063 156.057V151.091H247.867Z" fill="black"/>
    </g>
    <defs>
        <clipPath id="clip0_481_222">
            <rect width="215" height="108" fill="white" transform="translate(96 68)"/>
        </clipPath>
    </defs>
</svg>
