<svg width="386" height="243" viewBox="0 0 386 243" fill="none" xmlns="http://www.w3.org/2000/svg">
    <path d="M385.641 0.413067V242.637H0.368696V0.413067H385.641ZM386 0.0402797H0V243H385.97V0L386 0.0402797Z" fill="#C2C2C2"/>
    <path d="M102.093 110.124C106.219 110.124 109.589 111.94 111.013 113.294L108.632 116.201C107.477 115.174 104.936 113.756 102.061 113.756C96.8752 113.756 93.6407 117.324 93.6407 122.208C93.6407 127.092 96.7148 130.667 102.131 130.667C105.27 130.667 107.978 129.017 109.165 127.856L111.411 130.859C109.993 132.348 106.457 134.293 102.099 134.293C94.4686 134.293 89.7451 129.171 89.7451 122.202C89.7387 115.245 94.5905 110.124 102.093 110.124Z" fill="#003790"/>
    <path d="M125.666 110.124C132.732 110.124 137.885 115.245 137.885 122.215C137.885 129.184 132.732 134.306 125.666 134.306C118.6 134.306 113.446 129.184 113.446 122.215C113.446 115.245 118.6 110.124 125.666 110.124ZM125.666 130.667C130.453 130.667 133.989 127.066 133.989 122.208C133.989 117.356 130.453 113.756 125.666 113.756C120.878 113.756 117.342 117.356 117.342 122.208C117.342 127.066 120.878 130.667 125.666 130.667Z" fill="#003790"/>
    <path d="M162.163 127.066C162.163 130.468 159.981 133.773 154.334 133.773H142.012V110.65H153.609C158.3 110.65 161.008 113.557 161.008 116.824C161.008 118.672 160.148 120.36 158.101 121.714C160.18 122.407 162.163 123.896 162.163 127.066ZM145.811 114.282V120.424L153.146 120.392C155.758 120.392 157.113 118.942 157.113 117.222C157.113 115.636 155.957 114.282 153.647 114.282H145.811ZM154.565 130.14C157.241 130.14 158.261 128.652 158.261 127.034C158.261 125.282 157.042 123.864 154.629 123.864H145.811V130.14H154.565Z" fill="#003790"/>
    <path d="M177.353 121.849L187.596 133.773H182.539L173.984 123.665H169.594V133.773H165.795V110.65H169.594V120.199H173.984L182.34 110.65H187.397L177.353 121.849Z" fill="#003790"/>
    <path d="M199.322 110.124C206.388 110.124 211.541 115.245 211.541 122.215C211.541 129.184 206.388 134.306 199.322 134.306C192.25 134.306 187.103 129.184 187.103 122.215C187.096 115.245 192.25 110.124 199.322 110.124ZM199.322 130.667C204.109 130.667 207.646 127.066 207.646 122.208C207.646 117.356 204.109 113.756 199.322 113.756C194.534 113.756 190.998 117.356 190.998 122.208C190.998 127.066 194.528 130.667 199.322 130.667Z" fill="#003790"/>
    <path d="M237.102 110.65H240.773V133.773H236.974V116.599L229.375 126.739H227.065L219.466 116.599V133.773H215.667V110.65H219.331L228.22 122.51L237.102 110.65Z" fill="#003790"/>
    <path d="M258.179 120.097C263.268 120.097 266.04 123.068 266.04 126.9C266.04 130.731 263.268 133.773 258.442 133.773H245.889V110.65H263.89V114.282H249.688V120.097H258.179ZM258.275 130.14C260.919 130.14 262.106 128.69 262.106 126.938C262.106 125.218 260.919 123.736 258.275 123.736H249.688V130.14H258.275Z" fill="#003790"/>
    <path d="M287.141 133.773L284.632 127.991H273.696L271.187 133.773H267.028L277.072 110.65H281.269L291.313 133.773H287.141ZM275.185 124.525H283.143L279.183 115.309L275.185 124.525Z" fill="#003790"/>
    <path d="M311.285 110.65H315.084V133.773H311.285V123.864H297.911V133.773H294.111V110.65H297.911V120.232H311.285V110.65Z" fill="#003790"/>
    <path d="M331.763 121.849L342 133.773H336.949L328.394 123.665H323.998V133.773H320.205V110.65H323.998V120.199H328.394L336.75 110.65H341.807L331.763 121.849Z" fill="#003790"/>
    <path d="M44 122.208C44 132.817 52.5997 141.416 63.2082 141.416C63.4649 141.416 63.7216 141.41 63.9783 141.397V134.119H63.2082C56.6301 134.119 51.3034 128.786 51.3034 122.208C51.3034 115.63 56.6301 110.303 63.2082 110.303H63.9783V103.019C63.7216 103.013 63.4649 103 63.2082 103C52.5997 103.006 44 111.606 44 122.208Z" fill="#FC5055"/>
    <path d="M67.0461 103.391V113.377H63.2083C58.3244 113.377 54.3711 117.331 54.3711 122.215C54.3711 127.098 58.3308 131.052 63.2083 131.052H67.0461V141.038C75.8191 139.26 82.4101 131.507 82.4101 122.215C82.4165 112.922 75.8191 105.169 67.0461 103.391Z" fill="#003790"/>
</svg>
