<svg width="386" height="243" viewBox="0 0 386 243" fill="none" xmlns="http://www.w3.org/2000/svg">
    <path d="M385.641 0.413067V242.637H0.368696V0.413067H385.641ZM386 0.0402797H0V243H385.97V0L386 0.0402797Z" fill="#C2C2C2"/>
    <g clip-path="url(#clip0_492_777)">
        <path d="M44 122.131C44.0028 127.232 46.0303 132.123 49.6372 135.73C53.244 139.337 58.1351 141.364 63.236 141.367H63.9718V134.114H63.236C60.0857 134.114 57.0645 132.863 54.837 130.635C52.6094 128.407 51.358 125.386 51.358 122.236C51.358 119.086 52.6094 116.065 54.837 113.837C57.0645 111.609 60.0857 110.358 63.236 110.358H63.9718V103H63.236C58.1516 102.997 53.2731 105.008 49.6681 108.594C46.063 112.179 44.025 117.047 44 122.131Z" fill="#FC5055"/>
        <path d="M92.0371 127.176C94.5064 129.361 97.6752 130.591 100.972 130.645C103.81 130.645 106.438 129.699 106.438 127.387C106.438 125.389 104.441 124.759 101.708 124.128L97.7133 123.182C95.8851 122.845 94.2004 121.966 92.878 120.659C91.9561 119.619 91.4672 118.265 91.5116 116.875C91.5116 112.565 95.1906 110.253 100.446 110.253C103.647 110.25 106.769 111.242 109.381 113.091L107.174 116.034C105.151 114.574 102.73 113.767 100.236 113.722C97.9236 113.722 95.1906 114.457 95.1906 116.56C95.1906 118.242 96.6622 119.083 98.7645 119.503L101.918 120.239C105.387 121.08 106.963 121.71 108.225 122.762C108.881 123.289 109.404 123.963 109.751 124.73C110.098 125.497 110.259 126.335 110.222 127.176C110.222 131.591 106.438 134.219 100.867 134.219C96.7872 134.307 92.819 132.885 89.7246 130.225L92.0371 127.176Z" fill="#003790"/>
        <path d="M124.834 110.043C126.441 109.988 128.042 110.262 129.54 110.849C131.037 111.435 132.398 112.322 133.54 113.454C134.682 114.586 135.581 115.94 136.181 117.432C136.78 118.924 137.068 120.523 137.027 122.131C137.027 125.365 135.743 128.466 133.456 130.753C131.169 133.039 128.068 134.324 124.834 134.324C121.6 134.324 118.499 133.039 116.212 130.753C113.925 128.466 112.641 125.365 112.641 122.131C112.599 120.523 112.888 118.924 113.487 117.432C114.087 115.94 114.985 114.586 116.127 113.454C117.269 112.322 118.631 111.435 120.128 110.849C121.625 110.262 123.227 109.988 124.834 110.043ZM124.834 130.645C125.941 130.675 127.043 130.477 128.071 130.063C129.099 129.65 130.031 129.03 130.809 128.241C131.588 127.453 132.196 126.513 132.597 125.48C132.997 124.447 133.181 123.343 133.138 122.236C133.138 120.034 132.263 117.921 130.706 116.364C129.148 114.807 127.036 113.932 124.834 113.932C122.631 113.932 120.519 114.807 118.962 116.364C117.405 117.921 116.53 120.034 116.53 122.236C116.495 123.341 116.686 124.441 117.09 125.47C117.494 126.499 118.102 127.435 118.879 128.221C119.655 129.007 120.584 129.628 121.607 130.045C122.631 130.461 123.729 130.666 124.834 130.645Z" fill="#003790"/>
        <path d="M157.524 110.568H161.729L151.953 133.693H147.749L138.078 110.568H142.178L149.851 129.174L157.524 110.568Z" fill="#003790"/>
        <path d="M174.867 110.043C178.164 109.957 181.379 111.078 183.907 113.196L181.594 116.034C179.703 114.467 177.323 113.612 174.867 113.617C173.757 113.578 172.651 113.769 171.619 114.179C170.587 114.589 169.651 115.209 168.87 116C168.09 116.79 167.482 117.733 167.085 118.771C166.688 119.808 166.51 120.916 166.563 122.026C166.563 126.861 169.717 130.435 174.867 130.435C177.543 130.469 180.133 129.494 182.12 127.702L184.327 130.645C181.738 132.976 178.349 134.218 174.867 134.114C167.404 134.114 162.674 128.963 162.674 122.026C162.674 115.088 167.614 110.043 174.867 110.043Z" fill="#003790"/>
        <path d="M198.939 110.043C200.546 109.988 202.148 110.262 203.645 110.849C205.142 111.435 206.504 112.322 207.646 113.454C208.788 114.586 209.686 115.94 210.286 117.432C210.886 118.924 211.174 120.523 211.133 122.131C211.133 125.365 209.848 128.466 207.561 130.753C205.275 133.04 202.173 134.324 198.939 134.324C195.705 134.324 192.604 133.04 190.317 130.753C188.031 128.466 186.746 125.365 186.746 122.131C186.696 120.521 186.977 118.918 187.574 117.421C188.17 115.925 189.068 114.567 190.212 113.433C191.356 112.299 192.721 111.413 194.223 110.83C195.724 110.246 197.33 109.978 198.939 110.043ZM198.939 130.645C200.047 130.675 201.149 130.477 202.176 130.063C203.204 129.65 204.136 129.03 204.915 128.241C205.693 127.453 206.302 126.513 206.702 125.48C207.103 124.447 207.287 123.343 207.243 122.236C207.243 120.034 206.368 117.921 204.811 116.364C203.254 114.807 201.142 113.932 198.939 113.932C196.737 113.932 194.625 114.807 193.067 116.364C191.51 117.921 190.635 120.034 190.635 122.236C190.592 123.343 190.776 124.447 191.176 125.48C191.577 126.513 192.185 127.453 192.964 128.241C193.742 129.03 194.674 129.65 195.702 130.063C196.73 130.477 197.832 130.675 198.939 130.645Z" fill="#003790"/>
        <path d="M265.897 127.071C265.897 130.435 263.69 133.799 258.119 133.799H245.82V110.673H257.383C262.113 110.673 264.741 113.617 264.741 116.875C264.736 117.886 264.46 118.878 263.943 119.746C263.425 120.615 262.685 121.33 261.798 121.815C263.014 122.022 264.109 122.675 264.867 123.648C265.626 124.62 265.993 125.842 265.897 127.071ZM249.604 114.247V120.344H257.068C259.59 120.344 260.852 118.872 260.852 117.19C260.852 115.509 259.59 114.247 257.278 114.247H249.604ZM258.329 130.12C260.957 130.12 262.008 128.648 262.008 126.966C262.008 125.284 260.957 123.813 258.434 123.813H249.604V130.12H258.329Z" fill="#003790"/>
        <path d="M287.129 133.693L284.607 127.912H273.675L271.152 133.693H266.947L277.038 110.568H281.243L291.334 133.693H287.129ZM275.146 124.443H283.135L279.141 115.193L275.146 124.443Z" fill="#003790"/>
        <path d="M311.411 110.568H315.09V133.693H311.831L297.956 116.875V133.693H294.277V110.568H297.536L311.411 127.492V110.568Z" fill="#003790"/>
        <path d="M332.224 121.816L341.999 133.693H336.954L328.86 123.602H324.13V133.693H320.346V110.568H324.13V120.134H328.86L336.744 110.568H341.789L332.224 121.816Z" fill="#003790"/>
        <path d="M236.885 110.568H240.564V133.693H236.675V116.56L229.106 126.651H226.794L219.226 116.56V133.693H215.441V110.568H219.12L227.95 122.446L236.885 110.568Z" fill="#003790"/>
        <path d="M67.0197 103.315V113.301H63.1304C61.9709 113.301 60.8227 113.53 59.7515 113.973C58.6802 114.417 57.7068 115.067 56.8869 115.887C56.067 116.707 55.4166 117.681 54.9729 118.752C54.5292 119.823 54.3008 120.971 54.3008 122.131C54.3008 123.29 54.5292 124.439 54.9729 125.51C55.4166 126.581 56.067 127.554 56.8869 128.374C57.7068 129.194 58.6802 129.845 59.7515 130.288C60.8227 130.732 61.9709 130.961 63.1304 130.961H67.0197V140.946C71.3733 140.081 75.2923 137.733 78.1085 134.302C80.9248 130.871 82.4641 126.57 82.4641 122.131C82.4641 117.692 80.9248 113.391 78.1085 109.96C75.2923 106.529 71.3733 104.181 67.0197 103.315Z" fill="#003790"/>
    </g>
    <defs>
        <clipPath id="clip0_492_777">
            <rect width="298" height="38.3668" fill="white" transform="translate(44 103)"/>
        </clipPath>
    </defs>
</svg>
