<svg width="386" height="243" viewBox="0 0 386 243" fill="none" xmlns="http://www.w3.org/2000/svg">
    <path d="M385.641 0.413067V242.637H0.359055V0.413067H385.641ZM386 0.0402797H0V243H386V0V0.0402797Z" fill="#C2C2C2"/>
    <path fill-rule="evenodd" clip-rule="evenodd" d="M58.6 116.4V99.286H60.833C61.955 99.286 64.017 98.947 64.017 104.298V111.071C64.017 115.342 62.335 116.4 60.767 116.4H58.6ZM46.718 137.8L43.5 137.781V139.849H62.667C70.955 139.849 76.982 135.678 76.982 127.319C76.982 121.519 71.082 117.809 66.109 117.896V117.285C71.869 116.537 74.784 112.351 74.784 106.643C74.784 100.898 69.51 97.169 62.494 97.169L43.5 97.165V99.3L46.716 99.265L46.718 137.8ZM58.6 137.8L58.568 118.533L60.768 118.488C62.58 118.488 65.084 119.828 65.084 123.61V132.55C65.084 137.926 61.956 137.8 60.834 137.8H58.6ZM82.35 99.263H79.128V97.263H106.128V112.157H105.078C104.335 96.926 94.151 99.3 94.151 99.3L94.207 116.408H95.301C98.701 116.408 100.384 112.267 100.701 107.855H101.779V127.1H100.7C100.232 122.81 98.747 118.549 95.3 118.549L94.15 118.57L94.206 137.708C102.806 137.727 105.364 131.488 106.237 123.884H107.1V139.851H79.128V137.768H82.35V99.263ZM123.36 99.308V137.789H116.331V136.719C117.907 132.997 119.043 122.085 119.043 115.341V103.583C119.043 100.393 120.094 99.308 121.202 99.308H123.36ZM111.5 97.15H138.47V99.291L135.229 99.308V137.789H139.546V149.546H138.471C138.471 142.72 135.298 139.925 129.836 139.925H117.964C112.709 139.925 110.411 143.571 110.411 149.546H109.333V137.789H112.567C115.797 135.91 116.885 125.938 116.885 115.956V103.562C116.885 100.342 115.856 99.291 114.8 99.291H111.5V97.15ZM178.416 105.715H177.316L177.292 133.438C177.292 136.457 179.069 137.786 181.574 137.809C181.68 137.919 181.607 139.916 181.607 139.916H170.858V137.831C172.416 137.831 175.169 137.559 175.169 133.486L175.176 99.249H171.945V97.271H186.818L190.273 111.751L193.724 97.271L209.687 97.266V99.2H206.4L206.456 137.782H209.69V139.854H191.333V137.777H194.589V105.691H193.724L187.033 139.869L186.047 139.849L178.416 105.715ZM270.047 112.093H269.064C268.653 104.975 265.921 98.193 262.013 98.193C258.436 98.193 257.113 102.513 257.113 108.776V126.778C257.113 133.525 257.733 137.796 261.533 137.796C266.549 137.796 269.287 129.524 270.082 123.896H271.182C270.826 131.096 267.73 141.024 259.289 141.024C250.453 141.027 244.2 132.6 244.2 118.589C244.2 106.428 250.326 96.067 259.215 96.067C260.963 96.067 265.001 96.798 266.715 98.411L269.4 95H270.046L270.047 112.093ZM284.147 99.257C278.676 99.257 275.579 105.726 275.579 112.113H274.436V97.236L305.702 97.271V112.113H304.562C304.562 106.26 301.92 99.254 295.962 99.254V137.813H300.313V139.851H279.88V137.813H284.147V99.257ZM311.152 99.242H307.9V97.271H325.185V99.242H322.985V122.8H323.847L328.42 101.47V99.224H326.22V97.271H343.5V99.242H340.182V137.805H343.5V139.851H326.219V137.805H328.419L328.355 113.226H327.489L322.919 135.676V137.738L325.126 137.805V139.851H307.919V137.813H311.152V99.242ZM152.452 101.38C152.452 98.78 153.752 97.931 155.186 97.931C156.62 97.931 157.91 98.777 157.91 101.38V135.552C157.91 138.152 156.623 139.111 155.186 139.111C153.749 139.111 152.452 138.156 152.452 135.552V101.38ZM140.615 118.605C140.615 129.139 145.195 140.98 155.185 140.98C165.175 140.98 169.767 129.27 169.767 118.744C169.767 108.218 165.187 96.066 155.185 96.066C145.183 96.066 140.615 108.075 140.615 118.605ZM223.678 101.38C223.678 98.78 224.978 97.931 226.414 97.931C227.85 97.931 229.14 98.777 229.14 101.38V135.552C229.14 138.152 227.851 139.111 226.414 139.111C224.977 139.111 223.678 138.156 223.678 135.552V101.38ZM211.844 118.605C211.844 129.139 216.421 140.98 226.414 140.98C236.407 140.98 240.993 129.27 240.993 118.744C240.993 108.218 236.415 96.066 226.414 96.066C216.413 96.066 211.844 108.075 211.844 118.605Z" fill="black"/>
</svg>
