<svg width="386" height="243" viewBox="0 0 386 243" fill="none" xmlns="http://www.w3.org/2000/svg">
    <path d="M385.641 0.413067V242.637H0.359055V0.413067H385.641ZM386 0.0402797H0V243H386V0V0.0402797Z" fill="#C2C2C2"/>
    <path d="M277.322 99.0005L275.162 101.331C272.522 99.6202 270.098 99.0877 267.363 99.0877V99.0863C261.831 99.0863 256.887 103.186 255.689 108.401C254.491 113.618 256.228 118.829 259.497 122.301L269.112 132.911C271.573 135.605 272.399 136.649 272.399 139.037C272.399 141.425 270.56 143.486 267.504 143.486H267.503C261.562 143.486 258.37 136.113 256.681 127.381H255.432V145.051H256.331L258.723 142.47C261.647 144.366 264.474 145.201 267.503 145.201H267.504C274.716 145.201 279.951 139.759 280.898 134.148C281.807 128.758 279.41 125.12 275.941 121.296L266.417 110.735L266.336 110.651C264.612 108.847 262.907 107.064 262.907 105.163C262.907 102.737 265.052 100.624 267.363 100.624V100.622C272.727 100.624 275.481 106.751 277.005 115.114H278.134V99H277.322V99.0005Z" fill="black"/>
    <path fill-rule="evenodd" clip-rule="evenodd" d="M163.778 104.202C163.778 101.59 164.958 100.698 166.377 100.698C167.796 100.698 168.906 101.59 168.906 104.202V140.086C168.906 142.697 167.797 143.486 166.377 143.486C164.956 143.486 163.778 142.697 163.778 140.086V104.202ZM151.516 122.18C151.516 132.742 156.485 145.199 166.377 145.199C176.268 145.199 181.234 132.743 181.234 122.18C181.234 111.617 176.272 99.1648 166.377 99.1648C156.481 99.1648 151.516 111.617 151.516 122.18Z" fill="black"/>
    <path d="M291.102 102.423C285.712 102.427 284.263 109.941 283.74 115.114H282.561V100.711H311.61V115.114H310.43C309.945 109.945 308.315 102.423 303.062 102.423V141.792H306.48V143.485H287.685V141.792H291.102V102.423Z" fill="black"/>
    <path fill-rule="evenodd" clip-rule="evenodd" d="M237.099 100.705C235.68 100.705 234.501 101.597 234.501 104.208V140.089C234.501 142.699 235.679 143.487 237.099 143.487C238.519 143.487 239.628 142.699 239.628 140.089V104.208C239.627 101.597 238.518 100.705 237.099 100.705ZM237.099 145.2C227.208 145.2 222.238 132.745 222.238 122.185C222.238 111.624 227.203 99.1726 237.099 99.1726C246.995 99.1726 251.957 111.624 251.957 122.185C251.957 132.746 246.991 145.2 237.099 145.2Z" fill="black"/>
    <path d="M187.505 109.268H188.362L195.521 143.485L196.906 143.503L204.593 109.268H205.451V141.897H202.887V143.484H220.829V141.897H217.413V102.416H220.829V100.702L204.595 100.708L201.179 115.258L197.762 100.708H182.381V102.422H185.798L185.842 137.531C185.842 141.623 183.062 141.897 181.523 141.897V143.484H191.776V141.897H190.58C189.238 141.897 187.505 140.913 187.505 137.485V109.268Z" fill="black"/>
    <path d="M75.8732 100.709V102.423H77.6634C78.5388 102.446 79.1002 103.05 78.858 104.163L74.2534 121.667L69.0011 102.423H72.3294V100.709H53V102.423H56.6806L68.5256 143.44L68.5209 143.458H68.5312H70.0226L80.5357 104.988C80.9692 103.555 82.2167 102.478 84.2019 102.423H88.2633V141.792H84.8463V143.486H113.213V127.346H112.121C111.257 134.986 108.733 141.807 100.218 141.792V122.106H101.927C105.337 122.106 106.996 126.546 106.875 130.89H107.905V111.046H106.875C106.996 115.403 105.286 120.393 101.927 120.393H100.218V102.29H100.932C101.03 102.29 101.139 102.288 101.256 102.286C103.707 102.251 110.124 102.158 111.334 115.129H112.502V100.708L75.8732 100.709Z" fill="black"/>
    <path d="M333 100.708H314.859V102.422H318.265V120.393H318.263V122.106H318.265V141.791H318.263H314.868V143.486H332.993V141.791H329.596V122.106H329.597V120.393H329.596V102.422H333V100.708Z" fill="black"/>
    <path fill-rule="evenodd" clip-rule="evenodd" d="M132.111 122.106V141.766C135.52 141.701 136.626 140.218 136.626 136.922V107.273C136.626 103.977 135.52 102.493 132.111 102.429V120.393H132.113V122.106H132.111ZM132.113 100.71C143.752 100.849 148.297 111.186 148.31 122.052V122.057C148.297 132.924 143.752 143.344 132.113 143.485V143.486H117.384V141.792H120.801V102.423H117.376V100.708H132.113V100.71Z" fill="black"/>
</svg>
