<svg width="386" height="242" viewBox="0 0 386 242" fill="none" xmlns="http://www.w3.org/2000/svg">
    <path d="M124.455 88.7227H65.2835L69.5462 77H128.718L124.455 88.7227ZM122.324 94.584H63.1255L58.8628 106.307H118.035L122.324 94.584ZM115.93 112.168H56.7315L52.4688 123.891H111.641L115.93 112.168Z" fill="#00AAFF"/>
    <path d="M265.444 153.171H276.048C280.071 153.171 282.495 152.185 284.2 150C285.053 148.908 286.278 146.963 286.278 143.313C286.278 139.663 285.053 137.105 282.628 135.267C281.163 134.175 279.218 133.562 275.941 133.562H265.471V153.171H265.444ZM251.457 164.973V94.584H297.255L293.232 106.387H265.444V121.972H276.767C285.905 121.972 290.648 124.157 293.925 126.955C296.482 129.139 300.878 134.015 300.878 143.633C300.878 153.144 296.376 158.366 292.593 161.057C288.197 164.094 283.588 164.947 274.21 164.947H251.457V164.973ZM210.908 164.973V106.387H190.58V94.584H247.088L243.065 106.387H225.055V164.973H210.908ZM154.507 122.718H162.42C164.844 122.718 166.07 122.718 167.295 122.345C170.572 121.36 172.65 118.456 172.65 114.433C172.65 109.69 170.466 107.612 167.295 106.626C165.963 106.253 164.605 106.147 161.94 106.147H154.507V122.718ZM154.64 134.894V153.411H164.391C167.322 153.411 169.986 153.171 171.931 151.332C173.876 149.494 174.729 147.203 174.729 144.139C174.729 141.821 174.116 139.636 172.89 138.038C170.812 135.48 168.255 134.867 163.885 134.867H154.64V134.894ZM177.18 127.461V127.701C179.87 128.686 182.428 130.391 183.76 131.484C187.89 134.894 189.728 139.397 189.728 145.258C189.728 154.876 184.613 161.83 176.22 164.014C173.663 164.734 170.972 165 165.99 165H140.547V94.584H163.086C167.722 94.584 170.892 94.8238 173.689 95.5698C181.842 97.7545 187.197 103.376 187.197 112.248C187.197 116.99 185.492 121.013 182.694 123.704C181.416 124.903 179.711 126.368 177.18 127.461Z" fill="#002882"/>
    <path d="M385.632 0.411367V241.639H0.368096V0.411367H385.632ZM386 0H0V242H386V0Z" fill="#C2C2C2"/>
</svg>
