<svg width="386" height="242" viewBox="0 0 386 242" fill="none" xmlns="http://www.w3.org/2000/svg">
    <g clip-path="url(#clip0_492_576)">
        <path d="M113.978 112.47H56.0483L52 123.934H109.93L113.978 112.47ZM120.273 95.3134H62.4473L58.1378 106.725H116.068L120.273 95.3134ZM126.594 78H68.6634L64.4584 89.49H122.519L126.594 78Z" fill="#00AAFF"/>
        <path d="M154.2 164.175L132.496 95.2872H147.723L156.133 125.24C158.562 134.144 159.868 138.845 161.487 146.287C162.95 139.158 163.916 135.842 166.711 125.71L175.095 95.2872H189.669L167.651 164.175H154.2ZM212.444 164.175V106.725H192.516V95.2872H247.886L243.968 106.856H226.286V164.175H212.444ZM265.934 122.837H273.769C275.341 122.902 276.913 122.753 278.444 122.393C280.072 121.869 281.474 120.809 282.422 119.386C283.37 117.964 283.81 116.263 283.668 114.559C283.88 112.866 283.466 111.155 282.504 109.746C281.542 108.337 280.098 107.328 278.444 106.908C276.734 106.506 274.976 106.347 273.221 106.438H265.934V122.837ZM265.934 134.771V153.051H275.493C278.128 153.357 280.779 152.627 282.885 151.014C283.801 150.101 284.51 149 284.961 147.788C285.411 146.575 285.594 145.279 285.496 143.989C285.557 141.858 284.935 139.762 283.72 138.009C281.683 135.398 279.176 134.902 274.866 134.902L265.934 134.771ZM288.134 127.616V127.851C290.462 128.734 292.631 129.986 294.559 131.559C296.528 133.185 298.084 135.253 299.101 137.595C300.118 139.937 300.566 142.486 300.41 145.034C300.41 154.461 295.395 161.276 287.168 163.313C283.883 164.074 280.506 164.364 277.139 164.175H252.196V95.2872H274.266C277.774 95.1576 281.284 95.4734 284.713 96.2273C292.705 98.3687 297.955 103.879 297.955 112.574C298.018 114.648 297.66 116.712 296.901 118.642C296.143 120.573 294.999 122.328 293.541 123.803C292.019 125.431 290.179 126.729 288.134 127.616Z" fill="#002882"/>
    </g>
    <path d="M385.632 0.411367V241.639H0.368096V0.411367H385.632ZM386 0H0V242H386V0Z" fill="#C2C2C2"/>
    <defs>
        <clipPath id="clip0_492_576">
            <rect width="248.41" height="86.2535" fill="white" transform="translate(52 78)"/>
        </clipPath>
    </defs>
</svg>
