<svg width="216" height="55" viewBox="0 0 216 55" fill="none" xmlns="http://www.w3.org/2000/svg">
<path d="M27 0.120117C21.6599 0.120117 16.4398 1.70361 11.9996 4.67041C7.55951 7.63721 4.09886 11.854 2.0553 16.7876C0.0117311 21.7212 -0.523003 27.1497 0.518798 32.3872C1.5606 37.6247 4.13206 42.4359 7.90808 46.2119C11.6841 49.9879 16.4951 52.5593 21.7325 53.6011C26.97 54.6429 32.3988 54.1085 37.3324 52.0649C42.266 50.0214 46.4829 46.5607 49.4497 42.1206C52.4165 37.6805 54 32.4602 54 27.1201C54 19.9593 51.1554 13.0918 46.0919 8.02832C41.0284 2.96484 34.1608 0.120117 27 0.120117ZM27 52.1201C22.0671 52.1102 17.2478 50.6381 13.1511 47.8901C9.05448 45.1422 5.86433 41.2416 3.98389 36.6812C2.10344 32.1207 1.61715 27.1049 2.5863 22.2681C3.55545 17.4313 5.93665 12.9903 9.42895 9.50635C12.9213 6.02243 17.3679 3.65186 22.207 2.69434C27.0461 1.73681 32.0604 2.23555 36.6163 4.12695C41.1723 6.01835 45.0653 9.21757 47.8035 13.3208C50.5416 17.424 52.002 22.2472 52 27.1802C52 30.4604 51.3529 33.708 50.0958 36.7378C48.8387 39.7676 46.9963 42.5197 44.6741 44.8364C42.3518 47.1531 39.5953 48.989 36.5625 50.2388C33.5297 51.4886 30.2802 52.128 27 52.1201Z" fill="#74777B"/>
<path d="M27 47.48C27.2009 47.4911 27.4019 47.4604 27.5905 47.3901C27.779 47.3198 27.951 47.2112 28.0956 47.0713C28.2402 46.9314 28.3543 46.7633 28.4308 46.5771C28.5073 46.391 28.5445 46.1909 28.54 45.9897C28.6164 46.1719 28.7351 46.3335 28.8865 46.4604C29.0378 46.5874 29.2174 46.6766 29.41 46.7202C29.8042 46.7952 30.2118 46.7496 30.58 46.5898C30.9419 46.4389 31.2369 46.162 31.41 45.8101C31.5645 45.4319 31.5645 45.008 31.41 44.6299C31.603 44.9232 31.8965 45.1359 32.2354 45.228C32.5742 45.3201 32.9351 45.2852 33.25 45.1299C33.4498 45.0618 33.6327 44.9523 33.7869 44.8081C33.941 44.6639 34.0629 44.4887 34.1442 44.2939C34.2255 44.0992 34.2644 43.8892 34.2585 43.6782C34.2527 43.4673 34.202 43.2598 34.11 43.0698C33 40.4398 31.9 37.84 30.78 35.21C30.68 34.97 30.6 34.7297 30.48 34.4897C30.4154 34.3175 30.3315 34.1534 30.23 34C30.1583 33.9052 30.0702 33.8237 29.97 33.7598C31.0601 33.8599 32.0999 34.2658 32.97 34.9302C33.1 35.0102 33.0901 35.0201 33.5601 34.8701C33.7649 34.8156 33.9828 34.8405 34.17 34.9399C34.3842 35.0522 34.5882 35.1828 34.78 35.3301C35.4 35.8101 36.03 36.2698 36.61 36.7998C36.88 37.0398 37.28 37.4498 37.22 37.7998C37.16 38.1498 36.33 38.9499 36.08 39.1899C35.48 39.7599 36.39 40.83 37.6 40.73C37.4716 40.6247 37.3716 40.4891 37.3087 40.3354C37.2459 40.1818 37.2222 40.0151 37.24 39.8501C37.4462 39.8671 37.651 39.8023 37.8101 39.6699C38.0701 39.4399 37.95 38.7398 38.2 38.5098C38.6199 38.0898 40.01 38.05 40.85 38.02C41.2 38.02 41.57 37.9099 41.54 37.3599C42.07 37.3599 42.1801 37.7899 42.1801 38.1499C42.6401 37.8899 43.03 36.6501 41.34 36.3701C41.408 36.2997 41.4896 36.2434 41.5798 36.2051C41.67 36.1668 41.767 36.147 41.865 36.147C41.963 36.147 42.06 36.1668 42.1501 36.2051C42.2403 36.2434 42.3219 36.2997 42.39 36.3701C42.66 35.9101 41.97 35.02 40.73 35.52C40.73 35.52 40.17 34.7799 38.48 36.6699C38.27 36.5099 38.06 36.3499 37.86 36.1699C37.21 35.5799 35.5699 33.9702 35.5699 33.9702C35.6098 33.2956 35.5125 32.6198 35.2839 31.9839C35.0553 31.3479 34.7002 30.7649 34.24 30.27C33.6591 29.7673 32.9351 29.4596 32.17 29.3901C32.4055 29.0299 32.6063 28.648 32.77 28.25C33.71 29.19 35.6 29.4699 35.6 27.8799C37.13 29.4199 38.6 28.5999 38.6 27.6299C38.6541 28.1177 38.7649 28.5978 38.9301 29.0601C39.1201 29.5801 39.83 31.5698 41.64 31.5698C41.69 32.2598 41.69 34.5698 43.86 35.0298C43.9606 35.0462 44.0544 35.0918 44.13 35.1602C45.01 36.2502 48.66 37.3998 49.13 37.0898C48.85 36.8898 48.4 36.6198 48.33 35.3398C48.33 34.4898 48.1899 30.1099 48.1899 23.9199C48.1899 21.7399 47.96 14.6502 40.95 13.6602C40.4352 13.5539 39.9044 13.5522 39.389 13.6553C38.8737 13.7583 38.3842 13.9637 37.95 14.2598C37.2999 14.7241 36.8323 15.4011 36.6278 16.1733C36.4233 16.9456 36.4948 17.7646 36.83 18.4897C36.83 18.5497 36.83 18.6199 36.91 18.6699C37.0253 18.841 37.0717 19.0495 37.0402 19.2534C37.0087 19.4573 36.9015 19.6417 36.74 19.77C36.1849 20.3534 35.4479 20.7306 34.65 20.8398C34.4091 20.8621 34.1664 20.8268 33.942 20.7363C33.7176 20.6459 33.5181 20.5029 33.36 20.3198C32.5628 19.5451 32.0338 18.5362 31.85 17.4399C31.599 16.3547 31.6791 15.2194 32.08 14.1802C32.3891 13.5898 32.843 13.087 33.3992 12.7197C33.9553 12.3525 34.5956 12.1326 35.26 12.0801C35.91 10.8801 37.75 11.3501 37.75 11.3501C38.21 11.4501 38.37 11.5901 38.49 11.8101C38.49 11.8101 39.3 10.5798 38.49 10.0898C37.7121 9.71868 36.877 9.48229 36.02 9.39014C36.02 8.59014 34.69 7.96014 32.29 8.39014C29.39 8.91014 28.77 7.77002 28.77 7.77002C28.7387 8.23603 28.8428 8.70126 29.0699 9.10938C29.2971 9.51749 29.6375 9.85086 30.05 10.0698C28.3423 12.0318 27.293 14.4801 27.05 17.0698C26.8111 14.4791 25.7613 12.0296 24.05 10.0698C24.4626 9.85086 24.8029 9.51749 25.03 9.10938C25.2572 8.70126 25.3613 8.23603 25.33 7.77002C25.33 7.77002 24.7 8.91014 21.8 8.39014C19.4 7.96014 18.08 8.59014 18.08 9.39014C17.2228 9.48114 16.3875 9.71758 15.61 10.0898C14.85 10.5798 15.61 11.8101 15.61 11.8101C15.73 11.5901 15.89 11.4501 16.35 11.3501C16.35 11.3501 18.2 10.8801 18.84 12.0801C19.5046 12.1364 20.1446 12.3578 20.7018 12.7246C21.2589 13.0914 21.7156 13.5919 22.03 14.1802C22.4038 15.2221 22.482 16.347 22.2561 17.4307C22.0302 18.5143 21.509 19.5141 20.75 20.3198C20.5903 20.501 20.3906 20.6426 20.1666 20.7329C19.9427 20.8232 19.7006 20.8596 19.46 20.8398C18.6621 20.7306 17.9251 20.3534 17.37 19.77C17.2085 19.6417 17.1013 19.4573 17.0698 19.2534C17.0383 19.0495 17.0847 18.841 17.2 18.6699C17.229 18.6123 17.2525 18.5519 17.27 18.4897C17.6101 17.7664 17.6853 16.947 17.4824 16.1738C17.2795 15.4007 16.8115 14.7229 16.16 14.2598C15.7252 13.9648 15.2358 13.7598 14.7206 13.6567C14.2054 13.5537 13.6748 13.5551 13.16 13.6602C6.16003 14.6602 5.92004 21.7399 5.92004 23.9199C5.92004 30.1099 5.83003 34.4898 5.78003 35.3398C5.71003 36.6198 5.25998 36.8898 4.97998 37.0898C5.42998 37.3998 9.06998 36.2502 9.97998 35.1602C10.058 35.0954 10.1507 35.0504 10.25 35.0298C12.42 34.5298 12.43 32.2598 12.47 31.5698C14.29 31.5698 14.9901 29.5701 15.1801 29.0601C15.3452 28.5978 15.4559 28.1177 15.51 27.6299C15.51 28.6299 16.94 29.4199 18.51 27.8799C18.51 29.4699 20.4 29.19 21.33 28.25C21.4961 28.6488 21.7004 29.0307 21.9399 29.3901C21.1718 29.4595 20.4447 29.7671 19.86 30.27C19.3998 30.7649 19.0446 31.3479 18.816 31.9839C18.5874 32.6198 18.4902 33.2956 18.53 33.9702C18.53 33.9702 16.89 35.5799 16.24 36.1699C16.0443 36.3498 15.8372 36.5168 15.62 36.6699C13.94 34.7799 13.37 35.52 13.38 35.52C12.13 35.02 11.44 35.9101 11.71 36.3701C11.8453 36.2429 12.0242 36.1719 12.21 36.1719C12.3958 36.1719 12.5746 36.2429 12.71 36.3701C11.03 36.6501 11.42 37.8899 11.87 38.1499C11.87 37.7899 11.98 37.3999 12.51 37.3599C12.51 37.9099 12.86 38 13.2 38.02C14.04 38.02 15.43 38.0898 15.86 38.5098C16.1 38.7398 15.98 39.4399 16.25 39.6699C16.406 39.8007 16.6071 39.8655 16.8101 39.8501C16.829 40.0143 16.8068 40.1804 16.7457 40.334C16.6846 40.4876 16.5865 40.6236 16.46 40.73C17.67 40.83 18.58 39.7299 17.98 39.1899C17.73 38.9499 16.88 38.1898 16.83 37.7998C16.78 37.4098 17.1699 37.0098 17.4399 36.7998C18.0299 36.2698 18.66 35.8001 19.28 35.3301C19.4683 35.1829 19.6691 35.0523 19.88 34.9399C20.0709 34.8408 20.2918 34.816 20.5 34.8701C20.96 35.0201 20.96 35.0102 21.08 34.9302C21.9524 34.27 22.9909 33.8646 24.08 33.7598C23.9748 33.8209 23.8831 33.9028 23.8101 34C23.7125 34.1557 23.6288 34.3194 23.5601 34.4897C23.4501 34.7297 23.36 34.97 23.26 35.21C22.15 37.84 21.0401 40.4398 19.9301 43.0698C19.838 43.2598 19.7874 43.4673 19.7815 43.6782C19.7756 43.8892 19.8146 44.0992 19.8959 44.2939C19.9772 44.4887 20.0989 44.6639 20.2531 44.8081C20.4072 44.9523 20.5903 45.0618 20.79 45.1299C21.105 45.2852 21.4657 45.3201 21.8046 45.228C22.1434 45.1359 22.437 44.9232 22.63 44.6299C22.5395 44.8138 22.4892 45.0148 22.4827 45.2197C22.4761 45.4246 22.5133 45.6285 22.5919 45.8179C22.6705 46.0072 22.7885 46.1778 22.9382 46.3179C23.0879 46.4579 23.2658 46.5641 23.46 46.6299C23.8281 46.7896 24.2358 46.8348 24.63 46.7598C24.822 46.7147 25.0007 46.6253 25.1519 46.4985C25.303 46.3717 25.4222 46.2111 25.5 46.0298C25.5013 46.2241 25.5413 46.4166 25.6178 46.5952C25.6943 46.7738 25.8055 46.9353 25.9452 47.0703C26.0849 47.2054 26.2502 47.311 26.4313 47.3813C26.6124 47.4517 26.8058 47.4853 27 47.48Z" fill="#74777B"/>
<path d="M72.6899 17.7202C74.1799 17.7202 77.22 17.58 78.96 17.48C78.9141 17.8115 78.8874 18.1454 78.88 18.48C78.88 18.66 78.94 19.0899 78.96 19.3799C77.41 19.1699 74.85 19.0098 74.05 19.0098C73.49 19.0098 71.33 19.0599 70.15 19.1699V25.8799H71.51C74.3 25.8799 80.14 26.4097 80.14 31.2397C80.14 35.1597 76.86 36.9502 72.54 36.9302C72.05 36.9302 70.24 36.8501 69.08 36.8501C68.5656 36.85 68.0516 36.8767 67.54 36.9302C67.7 33.9902 67.75 29.9298 67.75 26.5698C67.75 23.5698 67.75 18.98 67.54 17.52C69.25 17.6 72.0699 17.7598 72.6899 17.7598M70.15 35.3799C70.85 35.3799 71.67 35.4302 72.42 35.4302C75.58 35.4302 77.42 33.96 77.42 31.21C77.42 28.21 75.24 27.29 70.16 27.29L70.15 35.3799Z" fill="#74777B"/>
<path d="M83.17 24.9502C83.7582 24.3375 84.4696 23.8567 85.2574 23.5395C86.0453 23.2223 86.8914 23.0756 87.74 23.1098C90.54 23.1098 92.49 24.5001 92.49 27.8301V34.48C92.49 35.84 92.78 36.1601 93.34 36.1601C93.5572 36.1512 93.7723 36.1139 93.98 36.0498L94.14 36.6899C93.5196 37.0066 92.8363 37.1811 92.14 37.2002C91.7697 37.2393 91.3979 37.1421 91.0941 36.9267C90.7904 36.7113 90.5755 36.3922 90.49 36.0298L90.33 35.4399C89.1185 36.4853 87.5972 37.1039 86 37.2002C83.57 37.2002 82 35.9202 82 33.6802C82 31.2702 83.8 30.1502 86.25 29.6802L88.97 29.1699C89.88 29.0099 90.37 28.7401 90.37 28.0801C90.37 25.1701 89.14 24.4199 87.11 24.4199C86.3526 24.3471 85.5921 24.5209 84.9415 24.9155C84.291 25.3101 83.7853 25.9045 83.5 26.6098H83.1801L83.17 24.9502ZM90.36 30L88.59 30.2597C86.67 30.5597 84.53 31.2597 84.53 33.2597C84.53 34.8097 85.39 35.6299 87.12 35.6299C87.7375 35.624 88.3465 35.4854 88.9056 35.2231C89.4647 34.9608 89.9608 34.581 90.36 34.1098V30Z" fill="#74777B"/>
<path d="M97.8 23.48C98.1 23.48 98.65 23.4199 99.05 23.3999C98.84 25.3999 98.8101 28.7899 98.8101 28.9199C99.9401 28.9799 101.56 29.0298 102.42 29.0298C103.28 29.0298 104.99 28.9799 105.79 28.9199C105.79 28.7599 105.79 25.3999 105.55 23.3999C105.99 23.3999 106.55 23.48 106.9 23.48C107.25 23.48 107.76 23.4199 108.16 23.3999C107.95 25.3999 107.92 28.7599 107.92 30.1499C107.92 31.2699 107.92 34.8802 108.16 36.9102C107.752 36.8582 107.341 36.8314 106.93 36.8301C106.469 36.8303 106.008 36.8571 105.55 36.9102C105.76 34.9102 105.79 31.2699 105.79 30.4199C104.61 30.3399 103.01 30.23 102.4 30.23C101.79 30.23 99.8901 30.2801 98.8101 30.3701C98.8101 31.2701 98.81 34.8802 99.05 36.9102C98.6454 36.8586 98.2379 36.8318 97.83 36.8301C97.3655 36.8301 96.9014 36.8569 96.4399 36.9102C96.6499 34.9102 96.6801 31.2699 96.6801 30.1499C96.6801 28.7899 96.6799 25.3999 96.4399 23.3999C96.8899 23.3999 97.44 23.48 97.8 23.48Z" fill="#74777B"/>
<path d="M113.15 23.48C113.44 23.48 114 23.4199 114.4 23.3999C114.19 25.3999 114.17 28.79 114.17 29.27H114.6C115.48 29.27 119.99 24.1399 120.42 23.3999C120.79 23.3999 121.42 23.48 121.72 23.48C122.02 23.48 122.63 23.4199 123.03 23.3999L116.65 29.1099C117.45 30.1099 121.65 34.8502 123.65 36.9102C122.93 36.8602 122.42 36.8301 122.05 36.8301C121.68 36.8301 120.84 36.8302 120.29 36.9102C118.537 34.4975 116.647 32.1866 114.63 29.9897H114.2C114.2 30.9897 114.2 34.8802 114.43 36.9102C114.025 36.8586 113.618 36.8318 113.21 36.8301C112.745 36.8303 112.281 36.8571 111.82 36.9102C112.04 34.9102 112.07 31.2699 112.07 30.1499C112.07 28.7899 112.07 25.3999 111.82 23.3999C112.27 23.3999 112.82 23.48 113.18 23.48" fill="#74777B"/>
<path d="M135.42 17.5601C136.35 17.5601 137.55 17.48 138.24 17.48C143.18 17.48 145.11 18.9701 145.11 22.3301C145.11 26.6901 141.45 28.0801 137.11 28.0801C136.87 28.0801 135.85 28.0202 135.34 27.9702V32.5898C135.334 34.0261 135.407 35.462 135.56 36.8901C135.109 36.8386 134.654 36.8118 134.2 36.8101C133.706 36.8101 133.212 36.8369 132.72 36.8901C132.89 33.9501 132.94 29.8898 132.94 26.5298C132.94 23.5298 132.94 18.94 132.72 17.48C133.61 17.48 134.81 17.5601 135.43 17.5601M136.43 26.6602C140.16 26.6602 142.36 25.1701 142.36 22.3301C142.36 19.6901 140.27 18.9702 137.68 18.9702C137.23 18.9702 135.68 18.9698 135.3 19.0498V26.5498C135.674 26.6132 136.051 26.6503 136.43 26.6602Z" fill="#74777B"/>
<path d="M159 30.0498C159 34.1398 156.35 37.1802 152.17 37.1802C151.278 37.213 150.389 37.06 149.559 36.7314C148.729 36.4029 147.976 35.906 147.348 35.2715C146.72 34.637 146.231 33.8788 145.911 33.0454C145.591 32.2121 145.448 31.3218 145.49 30.4302C145.49 26.0002 148.32 23.1099 152.4 23.1099C156.48 23.1099 159 26.0498 159 30.0498ZM148 30.3501C148 33.3501 149.25 36.1401 152.08 36.1401C154.91 36.1401 156.44 33.5199 156.44 29.9399C156.44 27.0599 155.31 24.1499 152.29 24.1499C149.27 24.1499 148 27.1501 148 30.3501Z" fill="#74777B"/>
<path d="M172.1 26.2901H171.78C171.415 25.6298 170.876 25.0817 170.222 24.7046C169.569 24.3276 168.824 24.1356 168.07 24.1499C164.94 24.1499 163.45 27.1501 163.45 30.1001C163.45 33.4901 165.31 36.1001 168.63 36.1001C169.72 36.1001 170.71 35.9398 172.26 34.2598L172.5 34.5498L172.18 35.8599C170.885 36.7228 169.356 37.1697 167.8 37.1402C163.63 37.1402 160.91 34.2302 160.91 30.1402C160.91 25.8402 163.85 23.0899 168.15 23.0899C169.765 23.0854 171.355 23.4916 172.77 24.2701L172.1 26.2901Z" fill="#74777B"/>
<path d="M185.58 26.2901H185.26C184.895 25.629 184.357 25.0803 183.703 24.7032C183.049 24.326 182.305 24.1345 181.55 24.1499C178.42 24.1499 176.93 27.1501 176.93 30.1001C176.93 33.4901 178.8 36.1001 182.11 36.1001C183.2 36.1001 184.19 35.9398 185.74 34.2598L185.98 34.5498L185.66 35.8599C184.365 36.724 182.837 37.1709 181.28 37.1402C177.12 37.1402 174.4 34.2302 174.4 30.1402C174.4 25.8402 177.33 23.0899 181.63 23.0899C183.245 23.0854 184.835 23.4916 186.25 24.2701L185.58 26.2901Z" fill="#74777B"/>
<path d="M189.53 36.8101C189.37 36.8101 188.89 36.8601 188.68 36.8901C188.89 34.8901 188.92 31.2499 188.92 30.1299C188.92 28.7699 188.92 25.3799 188.68 23.3799C189.13 23.3799 189.68 23.46 190.04 23.46C190.4 23.46 190.89 23.3999 191.3 23.3799C191.08 25.3799 191.06 28.7399 191.06 30.1299C191.06 31.2499 191.06 32.8301 191.06 33.5801C192.53 31.7901 197.76 25.1399 199.06 23.3799C199.32 23.4333 199.585 23.4602 199.85 23.46C200.01 23.46 200.57 23.3999 200.85 23.3799C200.64 25.3799 200.61 28.7399 200.61 30.1299C200.61 31.2499 200.61 34.8601 200.85 36.8901C200.442 36.8386 200.031 36.8118 199.62 36.8101C199.156 36.8106 198.691 36.8374 198.23 36.8901C198.45 34.8901 198.47 31.2499 198.47 30.1299C198.47 28.7399 198.47 27.0402 198.47 26.4702C195.564 29.7884 192.846 33.2672 190.33 36.8901C190.073 36.8367 189.812 36.8098 189.55 36.8101" fill="#74777B"/>
<path d="M204.66 36.8101C204.49 36.8101 204.01 36.8601 203.8 36.8901C204.01 34.8901 204.04 31.2499 204.04 30.1299C204.04 28.7699 204.04 25.3799 203.8 23.3799C204.25 23.3799 204.8 23.46 205.16 23.46C205.52 23.46 206.02 23.3999 206.42 23.3799C206.2 25.3799 206.18 28.7399 206.18 30.1299C206.18 31.2499 206.18 32.8301 206.18 33.5801C207.65 31.7901 212.88 25.1399 214.18 23.3799C214.447 23.4322 214.718 23.4591 214.99 23.46C215.14 23.46 215.71 23.3999 215.99 23.3799C215.78 25.3799 215.75 28.7399 215.75 30.1299C215.75 31.2499 215.75 34.8601 215.99 36.8901C215.582 36.8386 215.171 36.8118 214.76 36.8101C214.299 36.81 213.838 36.8368 213.38 36.8901C213.59 34.8901 213.62 31.2499 213.62 30.1299C213.62 28.7399 213.62 27.0402 213.57 26.4702C210.66 29.7907 207.936 33.2692 205.41 36.8901C205.16 36.8362 204.905 36.8093 204.65 36.8101" fill="#74777B"/>
</svg>
