<svg xmlns="http://www.w3.org/2000/svg" width="211" height="48"><path d="M23.996 0C37.254 0 48 10.746 48 24S37.254 48 23.996 48C10.746 48 0 37.254 0 24S10.746 0 23.996 0zm0 1.854c-12.23 0-22.14 9.914-22.14 22.145 0 12.232 9.91 22.147 22.14 22.147 12.234 0 22.148-9.915 22.148-22.147 0-12.231-9.914-22.145-22.148-22.145zM26.024 7s.552.999 3.117.543c2.122-.378 3.294.173 3.294.881 0 0 1.51.18 2.185.616.675.435-.04 1.524-.04 1.524-.104-.2-.249-.318-.655-.407 0 0-1.633-.42-2.2.64-1.241.106-2.31.846-2.815 1.854-.027.058-.5.99-.207 2.87.155.987.642 1.825 1.337 2.538.304.313.682.513 1.14.46.726-.083 1.328-.43 1.846-.941.283-.28.37-.6.153-.969-.028-.048-.045-.104-.065-.16-.641-1.547-.105-2.916.985-3.726.8-.594 1.727-.664 2.665-.532 6.197.872 6.404 7.12 6.404 9.046l.001.768c.007 5.044.084 8.586.123 9.296.062 1.13.457 1.367.708 1.545-.396.273-3.62-.74-4.396-1.7-.05-.064-.158-.09-.24-.113-1.92-.445-1.924-2.448-1.961-3.055-1.607 0-2.23-1.75-2.4-2.207a5.507 5.507 0 01-.29-1.264l-.001.001-.003.08c-.075.79-1.222 1.416-2.488.27l-.131-.126c0 1.398-1.667 1.15-2.497.323-.072.282-.534 1.002-.534 1.002.954.173 1.383.382 1.833.776 1.054.924 1.174 2.468 1.174 3.265 0 0 1.454 1.416 2.03 1.941.171.158.357.296.546.437 1.49-1.664 1.987-1.015 1.983-1.01 1.104-.444 1.716.341 1.475.741-.258-.29-.677-.205-.928.02 1.49.251 1.144 1.34.74 1.57 0-.313-.096-.661-.566-.693.023.48-.302.565-.611.577-.737.031-1.97.065-2.348.432-.214.208-.11.82-.342 1.029-.191.171-.397.151-.503.153-.035.225.032.48.317.779-1.073.087-1.876-.855-1.344-1.358.224-.21.973-.918 1.012-1.227.047-.328-.3-.696-.542-.91-.516-.46-1.072-.87-1.62-1.295a4.098 4.098 0 00-.534-.34.713.713 0 00-.546-.059c-.412.128-.405.118-.513.048-.403-.266-1.137-.865-2.66-1.033a.812.812 0 01.233.21c.08.115.138.25.224.436.1.21.176.425.265.635.985 2.325 1.96 4.607 2.942 6.93.325.77.035 1.442-.76 1.812-.578.27-1.237.125-1.625-.434.11.384.163.715.006 1.034-.155.32-.406.549-.735.688-.317.14-.692.189-1.038.12-.352-.071-.587-.303-.767-.644-.03.758-.53 1.313-1.358 1.313-.826 0-1.327-.555-1.358-1.313-.18.341-.415.573-.767.644-.344.069-.72.02-1.038-.12a1.389 1.389 0 01-.733-.688c-.159-.32-.105-.649.006-1.034-.388.559-1.047.703-1.627.434-.793-.37-1.083-1.043-.758-1.811.98-2.324 1.957-4.606 2.94-6.93.09-.21.167-.426.265-.636.088-.187.145-.323.226-.436a.827.827 0 01.231-.21c-1.523.167-2.255.767-2.658 1.033-.108.07-.103.08-.513-.048a.713.713 0 00-.546.06c-.184.1-.373.213-.533.34-.549.425-1.105.837-1.621 1.294-.243.214-.589.582-.542.91.039.308.788 1.017 1.012 1.227.532.503-.271 1.447-1.344 1.358.285-.3.352-.554.317-.779-.108-.002-.312.018-.503-.153-.232-.209-.128-.82-.342-1.03-.378-.366-1.61-.4-2.35-.431-.308-.012-.634-.096-.61-.577-.47.03-.565.378-.565.693-.404-.23-.751-1.32.738-1.57-.25-.225-.668-.31-.926-.02-.24-.4.371-1.185 1.475-.741-.004-.005.492-.653 1.983 1.01.187-.14.375-.279.547-.437.575-.523 2.029-1.94 2.029-1.94 0-.796.12-2.34 1.174-3.266.45-.394.879-.603 1.833-.776 0 0-.462-.72-.534-1.002-.83.83-2.497 1.075-2.497-.323-1.36 1.357-2.623.627-2.623-.225v.001l-.032.252a5.65 5.65 0 01-.177.77l-.08.241c-.171.456-.794 2.207-2.401 2.207-.037.607-.04 2.608-1.962 3.055-.08.02-.189.05-.24.113-.775.962-3.999 1.973-4.395 1.7.251-.18.646-.415.708-1.545.039-.71.116-4.252.123-9.296v-.87c.01-2.035.313-8.087 6.404-8.944.94-.132 1.865-.062 2.666.532 1.09.81 1.626 2.18.985 3.727-.02.055-.037.11-.067.16-.216.368-.128.687.155.968.518.511 1.12.858 1.846.942.457.052.836-.148 1.138-.461.697-.713 1.167-1.552 1.34-2.538.322-1.871-.181-2.812-.208-2.87-.504-1.008-1.574-1.748-2.815-1.854-.521-.97-1.935-.7-2.167-.648l-.033.008c-.408.089-.551.206-.654.407 0 0-.716-1.089-.04-1.524.674-.436 2.184-.616 2.184-.616 0-.708 1.172-1.26 3.294-.88 2.309.41 2.985-.359 3.097-.516L22.974 7c.107 1.224-.83 1.855-1.13 2.026.972 1.053 2.333 3.157 2.655 6.142.324-2.985 1.685-5.089 2.657-6.142-.3-.171-1.238-.802-1.132-2.026zM60 15c.581.023 2.003.07 2.378.07.628 0 1.745-.068 2.165-.068 3.312 0 5.922.63 5.922 3.623 0 2.129-1.353 3.321-3.73 4.138C70.069 23.465 71 25.01 71 27.02c0 3.44-2.916 4.98-6.62 4.98-.885 0-2.282-.068-2.983-.068-.305 0-1.072.046-1.397.068.13-2.389.178-5.625.184-8.433v-1.225c-.003-2.614-.036-6.15-.184-7.342zm92.046 0c3.07 0 5.037 1.31 5.037 3.857 0 2.292-1.729 4.28-5.159 4.629 4.462 5.566 5.397 6.667 7.076 8.514a20.3 20.3 0 00-1.677-.072c-.53 0-1.105.024-1.583.072-1.705-2.434-4.58-6.012-6.524-8.257h-.865c0 2.806.025 5.683.191 8.257A11.458 11.458 0 00146 32c.144-2.574.19-6.129.19-9.075 0-2.64-.022-6.642-.19-7.925a59.4 59.4 0 002.738.068c.647 0 2.393-.068 3.308-.068zm36.362 5c1.301 0 2.066.273 2.901.773a15.85 15.85 0 00-.738 1.66c-.764-1.252-1.648-1.546-2.532-1.546-1.184 0-2.094.727-2.094 1.866 0 1.412 1.281 1.981 2.684 2.302 2.14.502 3.371 1.116 3.371 3.097 0 2.185-2.291 3.848-4.75 3.848-1.256 0-2.362-.319-3.25-.934.27-.454.615-1.207.786-1.66.937 1.413 1.897 1.709 2.93 1.709 1.429 0 2.56-.778 2.56-2.097 0-1.503-1.353-1.889-2.902-2.278-1.923-.476-3.15-1.366-3.15-3.21 0-2.14 1.696-3.53 4.184-3.53zm-51.08-7c.312 0 .502.024.672.074-.022.333-.072.886-.072 1.078 0 .238.048.717.072 1.124-.767-.289-1.176-.36-1.486-.36-1.367 0-2.086.722-2.086 2.134 0 .552.048 1.607.216 2.899.695 0 1.846-.096 2.637-.193a9.465 9.465 0 00-.048.768c0 .216.026.503.048.695-.815-.118-1.677-.192-1.966-.192h-.717v3.784c0 1.87.024 5.368.214 7.189a8.228 8.228 0 00-1.103-.072 9.91 9.91 0 00-1.245.072c.178-1.707.212-4.889.215-6.82v-4.153h-.408c-.216 0-.55.022-1.271.192a4.8 4.8 0 00.072-.719c0-.12-.024-.477-.072-.744.527.169.89.193 1.27.193h.41c0-3.882 2.659-6.949 4.647-6.949zm67.907 7c2.558 0 4.33 1.207 4.33 4.188v5.49c0 1.296.267 1.434.778 1.434.17 0 .367-.024.511-.049l.146.573c-.95.317-1.484.364-1.754.364-.8 0-1.31-.342-1.507-1.002l-.146-.5c-1.312.977-2.747 1.502-3.943 1.502-2.21 0-3.65-1.093-3.65-3.006 0-2.049 1.484-3.005 3.408-3.324l2.943-.503c.827-.136 1.265-.362 1.265-.932 0-2.482-1.12-3.345-2.967-3.345-1.434 0-2.628.5-3.285 1.821h-.293V21.39h.001c1.39-1.002 2.701-1.389 4.163-1.389zm-26.829 0c1.305 0 2.068.273 2.903.773-.244.478-.54 1.114-.737 1.66-.763-1.252-1.649-1.546-2.537-1.546-1.181 0-2.09.727-2.09 1.866 0 1.412 1.28 1.981 2.683 2.302 2.141.502 3.372 1.116 3.372 3.097 0 2.185-2.29 3.848-4.75 3.848-1.256 0-2.362-.319-3.25-.934.27-.454.615-1.207.786-1.66.935 1.413 1.897 1.709 2.93 1.709 1.427 0 2.557-.778 2.557-2.097 0-1.503-1.352-1.889-2.9-2.278-1.922-.476-3.153-1.366-3.153-3.21 0-2.14 1.702-3.53 4.186-3.53zm-55.263 0c3.604 0 5.857 2.503 5.857 5.92 0 3.484-2.346 6.08-6.07 6.08-3.65 0-5.93-2.572-5.93-5.76 0-3.78 2.514-6.24 6.143-6.24zM171 20c-.175 1.646-.205 4.343-.208 5.656v.217c0 .975.023 4.109.208 5.873a8.21 8.21 0 00-1.066-.071c-.392 0-.857.025-1.203.071a23.96 23.96 0 00.115-1.81c-.764 1.39-2.244 2.064-3.704 2.064-2.242 0-4.003-1.438-4.003-3.809 0-.578.068-1.575.068-2.318v-.3c-.006-1.21-.04-3.962-.207-5.573.398.022.904.07 1.184.07.253 0 .74-.047 1.088-.07-.187 1.764-.21 4.898-.21 5.873 0 3.552 1.066 4.802 2.872 4.802 2.753 0 2.997-2.758 3.007-4.939v-.3c-.004-.76-.037-3.798-.208-5.436.392.023.901.07 1.18.07.255 0 .74-.047 1.087-.07zm-79.144 0c2.246 0 4.003 1.42 4.003 3.79 0 .584-.067 1.582-.067 2.326 0 .977.023 4.117.208 5.884a8.234 8.234 0 00-1.066-.071c-.394 0-.855.024-1.204.071.185-1.767.208-4.907.208-5.884 0-3.558-1.065-4.79-2.869-4.79-2.753 0-2.998 2.742-3.008 4.926v.3c.003.76.035 3.807.206 5.448a8.15 8.15 0 00-1.065-.071A9.83 9.83 0 0086 32c.177-1.69.206-4.637.208-5.744v-.14c0-1.186-.023-4.138-.208-5.883.392.021.901.07 1.18.07.254 0 .741-.047 1.087-.07a23.93 23.93 0 00-.116 1.814C88.917 20.653 90.395 20 91.856 20zm9.576-7c-.186 1.716-.22 4.898-.223 6.858v5.246h.397c.82 0 5.016-4.63 5.416-5.306.344.024.917.072 1.215.072.248 0 .844-.048 1.217-.072l-5.936 5.161c.745.867 4.694 5.184 6.482 7.041a21.14 21.14 0 00-1.492-.072c-.445 0-1.116.022-1.637.072-.92-1.398-3.727-4.607-5.265-6.245h-.397c0 .892.024 4.413.223 6.245a8.764 8.764 0 00-1.14-.072c-.425 0-.921.022-1.292.072.185-1.718.22-4.92.223-6.862v-4.903c0-1.905-.026-5.403-.223-7.233.417.022.965.069 1.267.069.27 0 .793-.047 1.165-.071zm95.374 6.773c-.21 1.719-.247 4.539-.25 5.9v.214c0 1.015.03 4.277.25 6.113a11.32 11.32 0 00-1.276-.074c-.474 0-1.032.026-1.447.074.213-1.757.248-4.818.25-5.969v-.144c0-1.233-.027-4.3-.25-6.114.47.023 1.082.073 1.417.073.304 0 .889-.049 1.306-.073zM78.235 20c2.554 0 4.33 1.207 4.33 4.188v5.49c0 1.296.267 1.434.78 1.434.17 0 .363-.024.51-.049l.145.573c-.948.317-1.483.364-1.75.364-.804 0-1.315-.342-1.51-1.002l-.146-.5C79.278 31.476 77.842 32 76.653 32 74.436 32 73 30.907 73 28.994c0-2.049 1.485-3.005 3.406-3.324l2.945-.503c.83-.136 1.267-.362 1.267-.932 0-2.482-1.12-3.345-2.97-3.345-1.435 0-2.63.5-3.285 1.821h-.292V21.39c1.387-1.003 2.702-1.39 4.164-1.39zm44.837.888c-2.56 0-3.819 2.572-3.819 5.282 0 2.573 1.117 4.943 3.633 4.943 2.416 0 3.86-2.233 3.86-5.283 0-2.46-.994-4.942-3.674-4.942zm-60.135 2.67h-.654v7.087c.513.024 1.375.047 1.98.047 2.378 0 4.36-1.007 4.36-3.697 0-2.103-1.143-3.437-5.686-3.437zm144.679 2.315l-1.602.23c-1.754.248-3.699.82-3.699 2.548 0 1.32.779 2.027 2.36 2.027.972 0 1.943-.32 2.941-1.298v-3.507zm-126.998 0l-1.608.23c-1.75.248-3.698.82-3.698 2.548 0 1.32.78 2.027 2.361 2.027.974 0 1.948-.32 2.945-1.298v-3.507zm69.7-9.563c-.816 0-1.63.023-1.966.068v6.127h.793c2.28 0 5.347-.561 5.347-3.39 0-1.753-1.39-2.805-4.175-2.805zm-86.077.001c-.538 0-1.47.024-1.958.046v5.915c.256.023.676.049 1.234.049 2.59 0 4.567-1.076 4.567-3.23 0-1.986-1.721-2.78-3.843-2.78zM195.5 14c.944 0 1.5.407 1.5 1.279 0 .773-.554 1.329-1.5 1.329s-1.5-.556-1.5-1.33c0-.724.613-1.278 1.5-1.278z" fill="#F2F3F5" fill-rule="evenodd"/></svg>
