<svg width="271" height="141" viewBox="0 0 271 141" fill="none" xmlns="http://www.w3.org/2000/svg">
<path d="M95.5301 57.1699H93.8701V55.1699H93.7501C92.6825 55.1747 91.6193 55.0335 90.5901 54.75C89.6251 54.4931 88.707 54.0847 87.8701 53.54C87.0492 53.0065 86.3808 52.269 85.9301 51.3999C85.4967 50.5288 85.253 49.5757 85.2151 48.6035C85.1771 47.6313 85.3459 46.662 85.7101 45.7598C86.0069 45.024 86.4608 44.362 87.0401 43.8198C87.6369 43.2902 88.3114 42.8551 89.0401 42.5298C89.7864 42.1826 90.5722 41.9276 91.3801 41.77C92.2106 41.6116 93.0546 41.5346 93.9001 41.54V39.9502H95.5601V41.48C96.6297 41.4742 97.6954 41.6086 98.7301 41.8799C99.7082 42.1343 100.642 42.5355 101.5 43.0698C102.337 43.603 103.025 44.3393 103.5 45.21C104.003 46.1576 104.258 47.2173 104.24 48.29C104.25 49.1666 104.087 50.0366 103.76 50.8501C103.458 51.5806 103.009 52.241 102.44 52.79C101.867 53.3265 101.212 53.7687 100.5 54.1001C99.7634 54.4562 98.9835 54.7151 98.1801 54.8701C97.3633 55.0316 96.5326 55.1117 95.7001 55.1099H95.5601L95.5301 57.1699ZM86.9401 48.2998C86.9237 49.1516 87.1305 49.9927 87.5401 50.7397C87.9227 51.4267 88.4776 52.0027 89.1501 52.4102C89.8288 52.8152 90.5633 53.1183 91.3301 53.3101C92.1288 53.5042 92.948 53.6016 93.7701 53.6001H93.8701V43C92.7406 42.9887 91.6165 43.1575 90.5401 43.5C89.5431 43.8282 88.6591 44.4311 87.9901 45.2397C87.2787 46.0976 86.9053 47.1859 86.9401 48.2998ZM95.6001 43H95.5301V53.6001H95.6701C96.7874 53.6125 97.899 53.4399 98.9601 53.0898C99.9454 52.7557 100.816 52.1489 101.47 51.3398C102.141 50.4862 102.495 49.4256 102.47 48.3398C102.492 47.4803 102.293 46.6299 101.89 45.8701C101.524 45.1834 100.978 44.6094 100.31 44.21C99.6295 43.8039 98.891 43.5037 98.1201 43.3198C97.2956 43.1142 96.4498 43.007 95.6001 43Z" fill="#878787"/>
<path d="M118.86 43.0898L108.16 56.8198H106.72V40.25H108.4V53.98L119.07 40.25H120.54V56.8198H118.86V43.0898Z" fill="#878787"/>
<path d="M138.19 56.8198H136.51V49.1802H125.86V56.8198H124.18V40.25H125.86V47.6099H136.51V40.25H138.19V56.8198Z" fill="#878787"/>
<path d="M141.79 56.8198H140.09L147.35 40.21H148.72L155.99 56.8198H154.24L152.24 52.2798H143.74L141.79 56.8198ZM151.61 50.7598L148 42.48L144.43 50.8101L151.61 50.7598Z" fill="#878787"/>
<path d="M171.89 56.8198H170.21V49.1802H159.56V56.8198H157.88V40.25H159.56V47.6099H170.21V40.25H171.89V56.8198Z" fill="#878787"/>
<path d="M188.48 53.1804L189.43 54.2599C188.724 55.1793 187.78 55.8885 186.7 56.3102C185.587 56.7844 184.39 57.029 183.18 57.03C181.511 56.9935 179.888 56.4761 178.506 55.5397C177.124 54.6034 176.042 53.2881 175.389 51.7516C174.737 50.2152 174.542 48.5233 174.827 46.8786C175.113 45.2339 175.867 43.7065 177 42.4802C177.781 41.6891 178.717 41.0682 179.75 40.6569C180.782 40.2456 181.889 40.0526 183 40.09C184.198 40.0893 185.385 40.3133 186.5 40.7502C187.575 41.1558 188.519 41.8474 189.23 42.7502L188.23 43.8102C187.513 43.1302 186.684 42.5789 185.78 42.1804C184.881 41.8482 183.928 41.6885 182.97 41.7101C182.077 41.6631 181.184 41.8125 180.355 42.1476C179.525 42.4828 178.78 42.9956 178.17 43.6501C176.965 45.0296 176.339 46.8204 176.42 48.6501C176.379 49.5716 176.529 50.4917 176.862 51.3522C177.194 52.2128 177.701 52.9951 178.35 53.6501C179.763 54.9339 181.622 55.6142 183.53 55.5451C185.438 55.476 187.244 54.6627 188.56 53.28L188.48 53.1804Z" fill="#878787"/>
<path d="M190.23 48.54C190.211 47.4279 190.416 46.3234 190.834 45.2925C191.251 44.2615 191.872 43.3253 192.66 42.54C194.247 40.9664 196.391 40.0835 198.625 40.0835C200.86 40.0835 203.004 40.9664 204.59 42.54C206.123 44.1795 206.976 46.3403 206.976 48.585C206.976 50.8297 206.123 52.9904 204.59 54.6299C203.005 56.206 200.86 57.0908 198.625 57.0908C196.39 57.0908 194.245 56.206 192.66 54.6299C191.864 53.832 191.238 52.8808 190.821 51.834C190.403 50.7872 190.202 49.6667 190.23 48.54ZM191.96 48.54C191.928 50.3609 192.614 52.121 193.87 53.4399C194.474 54.0891 195.209 54.603 196.026 54.9478C196.843 55.2925 197.724 55.4601 198.61 55.4399C199.499 55.4687 200.384 55.3047 201.204 54.9595C202.024 54.6143 202.759 54.096 203.36 53.4399C204.574 52.0948 205.247 50.3473 205.247 48.5352C205.247 46.723 204.574 44.975 203.36 43.6299C202.748 42.9869 202.012 42.4753 201.197 42.1255C200.381 41.7757 199.503 41.5952 198.615 41.5952C197.728 41.5952 196.849 41.7757 196.034 42.1255C195.218 42.4753 194.482 42.9869 193.87 43.6299C192.626 44.9571 191.954 46.7212 192 48.54H191.96Z" fill="#878787"/>
<path d="M216.07 56.8196H209.68V40.2498H216.14C216.864 40.2449 217.586 40.3017 218.3 40.4197C218.932 40.5304 219.547 40.7218 220.13 40.9896C220.711 41.2493 221.194 41.6871 221.51 42.2396C221.862 42.8746 222.035 43.5938 222.01 44.3196C222.028 45.1604 221.798 45.9883 221.35 46.7C220.901 47.3958 220.238 47.9258 219.46 48.2098C219.921 48.2554 220.368 48.394 220.773 48.6175C221.179 48.8409 221.535 49.1444 221.82 49.5096C222.379 50.2773 222.664 51.2108 222.63 52.16C222.63 55.2666 220.443 56.8196 216.07 56.8196ZM216.12 41.8196H211.36V47.5896H216.45C217.41 47.6169 218.358 47.3672 219.18 46.8699C219.554 46.6404 219.859 46.3134 220.061 45.9241C220.264 45.5348 220.357 45.098 220.33 44.66C220.349 44.1313 220.229 43.6069 219.98 43.1399C219.748 42.7533 219.397 42.4514 218.98 42.2796C218.563 42.1038 218.127 41.98 217.68 41.91C217.163 41.844 216.642 41.8136 216.12 41.8196ZM216.38 49.1297H211.38V55.2596H216.19C216.762 55.2645 217.334 55.2247 217.9 55.1399C218.413 55.055 218.913 54.9073 219.39 54.7C219.871 54.4998 220.275 54.149 220.54 53.7C220.825 53.1946 220.964 52.6196 220.94 52.0398C220.927 50.1065 219.407 49.1364 216.38 49.1297Z" fill="#878787"/>
<path d="M225.56 40.25H227.24V46.6201H231.24C232.05 46.6123 232.859 46.6961 233.65 46.8701C234.384 47.0262 235.092 47.2888 235.75 47.6499C236.402 47.9984 236.937 48.5306 237.29 49.1802C237.674 49.9062 237.863 50.7191 237.84 51.54C237.863 52.4081 237.667 53.2679 237.27 54.04C236.917 54.7212 236.38 55.2897 235.72 55.6802C235.056 56.0854 234.329 56.3789 233.57 56.5498C232.736 56.7354 231.884 56.826 231.03 56.8198H225.56V40.25ZM231.17 48.1802H227.24V55.2598H231.12C234.453 55.2598 236.103 54.02 236.07 51.54C236.083 50.9531 235.93 50.3745 235.63 49.8701C235.344 49.4159 234.934 49.0517 234.45 48.8198C233.958 48.5861 233.436 48.4179 232.9 48.3198C232.328 48.2257 231.75 48.1792 231.17 48.1802ZM241.87 56.8198H240.19V40.25H241.87V56.8198Z" fill="#878787"/>
<path d="M257.65 43.0898L247 56.8198H245.56V40.25H247.24V53.98L257.91 40.25H259.38V56.8198H257.7L257.65 43.0898ZM248.33 36.0898L249.75 35.8599C249.991 36.3562 250.377 36.7672 250.858 37.0371C251.339 37.3071 251.891 37.4233 252.44 37.3701C253.015 37.3714 253.583 37.241 254.1 36.9897C254.342 36.8911 254.559 36.738 254.732 36.542C254.906 36.346 255.032 36.1125 255.1 35.8599L256.5 36.0898C256.418 36.5044 256.248 36.897 256.004 37.2417C255.759 37.5864 255.444 37.8753 255.08 38.0898C254.296 38.539 253.404 38.7673 252.5 38.75C250.273 38.71 248.883 37.8067 248.33 36.04V36.0898Z" fill="#878787"/>
<path d="M88.0001 79.1299H86.3201V62.5698H88.0001V71.04L97.0001 62.5698H99.2001L91.2001 70.1201L99.8401 79.1201H97.5401L89.9901 71.2202L87.9901 73.04L88.0001 79.1299Z" fill="#878787"/>
<path d="M99.83 70.8501C99.8096 69.7378 100.014 68.6327 100.432 67.6016C100.85 66.5705 101.471 65.6347 102.26 64.8501C103.851 63.2806 105.995 62.4004 108.23 62.4004C110.465 62.4004 112.609 63.2806 114.2 64.8501C114.975 65.6518 115.582 66.5996 115.988 67.6382C116.393 68.6768 116.587 69.7854 116.56 70.8999C116.587 72.0179 116.389 73.1299 115.976 74.1694C115.564 75.2089 114.946 76.1548 114.16 76.9502C112.578 78.5281 110.435 79.4141 108.2 79.4141C105.966 79.4141 103.822 78.5281 102.24 76.9502C101.444 76.1515 100.819 75.198 100.404 74.1489C99.99 73.0999 99.7945 71.9775 99.83 70.8501ZM101.56 70.8501C101.526 72.6731 102.217 74.4351 103.48 75.75C104.093 76.3904 104.83 76.8999 105.645 77.248C106.461 77.5962 107.338 77.7759 108.225 77.7759C109.112 77.7759 109.989 77.5962 110.805 77.248C111.62 76.8999 112.357 76.3904 112.97 75.75C114.207 74.4182 114.878 72.6572 114.84 70.8398C114.872 69.019 114.186 67.2589 112.93 65.9399C112.317 65.2996 111.58 64.79 110.765 64.4419C109.949 64.0937 109.072 63.9141 108.185 63.9141C107.298 63.9141 106.421 64.0937 105.605 64.4419C104.79 64.79 104.053 65.2996 103.44 65.9399C102.199 67.2702 101.525 69.0313 101.56 70.8501Z" fill="#878787"/>
<path d="M133.29 79.1299H131.61V71.48H121V79.1201H119.32V62.5601H121V69.9199H131.64V62.5601H133.32L133.29 79.1299Z" fill="#878787"/>
<path d="M138.62 79.1299H136.94V62.5698H148.51V64.1299H138.62V79.1299Z" fill="#878787"/>
<path d="M152 72.7397V79.1299H150.32V62.5698H156.32C160.8 62.5698 163.04 64.2565 163.04 67.6299C163.055 68.4759 162.856 69.3122 162.46 70.0601C162.089 70.7274 161.543 71.2807 160.88 71.6602C160.211 72.0376 159.49 72.3138 158.74 72.48C157.936 72.6612 157.114 72.7482 156.29 72.7397H152ZM156.4 64.1099H152V71.21H156.21C156.821 71.2122 157.43 71.1553 158.03 71.04C158.585 70.9313 159.123 70.7497 159.63 70.5C160.138 70.2534 160.559 69.8598 160.84 69.3701C161.142 68.8336 161.294 68.2254 161.28 67.6099C161.29 65.2699 159.66 64.1099 156.41 64.1099H156.4Z" fill="#878787"/>
<path d="M177.78 79.1299H165.78V62.5698H177.59V64.1299H167.42V69.9302H176.88V71.48H167.42V77.5601H177.78V79.1299Z" fill="#878787"/>
<path d="M193.78 75.4799L194.78 76.5698C194.065 77.4686 193.123 78.1593 192.05 78.5698C190.939 79.0505 189.741 79.2989 188.53 79.2997C187.389 79.3837 186.243 79.2221 185.17 78.8256C184.097 78.4291 183.122 77.807 182.309 77.0014C181.497 76.1958 180.867 75.2255 180.462 74.1557C180.057 73.0859 179.885 71.9413 179.96 70.7997C179.919 69.6769 180.106 68.5577 180.51 67.5092C180.914 66.4608 181.526 65.5052 182.31 64.7001C183.089 63.9066 184.025 63.284 185.058 62.8725C186.091 62.461 187.199 62.2695 188.31 62.31C189.508 62.3093 190.695 62.5333 191.81 62.9702C192.888 63.3712 193.833 64.0636 194.54 64.9702L193.54 66.04C192.826 65.354 191.996 64.7987 191.09 64.3998C190.191 64.0677 189.238 63.9085 188.28 63.9301C187.387 63.8858 186.495 64.036 185.666 64.371C184.837 64.706 184.091 65.2177 183.48 65.8701C182.276 67.2501 181.65 69.0405 181.73 70.8701C181.691 71.7914 181.842 72.7105 182.174 73.5707C182.506 74.431 183.012 75.214 183.66 75.8701C185.076 77.1502 186.935 77.8268 188.842 77.7558C190.75 77.6848 192.554 76.8716 193.87 75.4897L193.78 75.4799Z" fill="#878787"/>
<path d="M209.4 75.4799L210.34 76.5698C209.629 77.4686 208.69 78.1594 207.62 78.5698C206.509 79.0505 205.311 79.2989 204.1 79.2997C202.417 79.2814 200.776 78.774 199.377 77.8388C197.977 76.9036 196.881 75.5811 196.22 74.0331C195.56 72.4852 195.364 70.7784 195.657 69.121C195.95 67.4637 196.719 65.9278 197.87 64.7001C198.649 63.9066 199.585 63.284 200.618 62.8725C201.651 62.461 202.759 62.2695 203.87 62.31C205.068 62.3093 206.255 62.5333 207.37 62.9702C208.446 63.3686 209.389 64.0616 210.09 64.9702L209.09 66.04C208.376 65.354 207.547 64.7987 206.64 64.3998C205.741 64.0677 204.788 63.9085 203.83 63.9301C202.937 63.8858 202.045 64.036 201.216 64.371C200.387 64.706 199.641 65.2177 199.03 65.8701C197.826 67.2501 197.2 69.0405 197.28 70.8701C197.241 71.7914 197.392 72.7105 197.724 73.5707C198.056 74.431 198.562 75.214 199.21 75.8701C200.626 77.1502 202.485 77.8268 204.392 77.7558C206.3 77.6848 208.104 76.8716 209.42 75.4897L209.4 75.4799Z" fill="#878787"/>
<path d="M86.34 84.8799H98V86.48H88V91.8999H93.16C93.9195 91.8949 94.6772 91.972 95.42 92.1299C96.0909 92.2722 96.7353 92.5185 97.33 92.8599C97.9159 93.2023 98.3914 93.7057 98.7 94.3101C99.0464 94.9942 99.2182 95.7534 99.2 96.52C99.2388 97.6078 98.8837 98.673 98.2 99.52C97.5898 100.269 96.7671 100.817 95.84 101.09C94.8064 101.385 93.7349 101.527 92.66 101.51H86.29L86.34 84.8799ZM93 93.48H88V99.9399H92.86C95.9333 99.9399 97.47 98.8098 97.47 96.5498C97.4834 94.4698 95.9934 93.4466 93 93.48Z" fill="#878787"/>
<path d="M101.87 101.48H100.16L107.43 84.8599H108.8L116.07 101.48H114.32L112.32 96.9302H103.83L101.87 101.48ZM111.69 95.4199L108.07 87.0898L104.49 95.4199H111.69Z" fill="#878787"/>
<path d="M132 101.48H130.32V93.8301H119.64V101.48H118V84.8799H119.68V92.2397H130.33V84.8799H132V101.48Z" fill="#878787"/>
<path d="M137.29 101.48H135.61V84.8799H137.29V93.3501L146.29 84.8799H148.49L140.49 92.4302L149.13 101.43H146.83L139.28 93.52L137.28 95.3501L137.29 101.48Z" fill="#878787"/>
<path d="M150.55 101.48H148.84L156.11 84.8599H157.48L164.74 101.48H163L161 96.9302H152.51L150.55 101.48ZM160.37 95.4199L156.75 87.0898L153.17 95.4199H160.37Z" fill="#878787"/>
<path d="M175.42 95.0601V101.48H173.74V84.8799H179.74C184.22 84.8799 186.46 86.5702 186.46 89.9502C186.483 90.7939 186.283 91.6286 185.88 92.3701C185.513 93.0371 184.97 93.5906 184.31 93.9702C183.637 94.3492 182.913 94.6284 182.16 94.7998C181.359 94.9756 180.54 95.063 179.72 95.0601H175.42ZM179.82 86.4199H175.42V93.52H179.63C180.237 93.5218 180.844 93.4649 181.44 93.3501C181.998 93.2397 182.539 93.0582 183.05 92.8101C183.552 92.564 183.97 92.174 184.25 91.6899C184.557 91.1516 184.709 90.5391 184.69 89.9199C184.69 87.5933 183.067 86.4266 179.82 86.4199Z" fill="#878787"/>
<path d="M187.91 93.1602C187.89 92.0479 188.094 90.9427 188.512 89.9116C188.93 88.8805 189.551 87.9448 190.34 87.1602C191.929 85.5883 194.075 84.7065 196.31 84.7065C198.545 84.7065 200.691 85.5883 202.28 87.1602C203.809 88.8018 204.659 90.9618 204.659 93.2051C204.659 95.4484 203.809 97.6083 202.28 99.25C200.695 100.826 198.55 101.711 196.315 101.711C194.08 101.711 191.935 100.826 190.35 99.25C189.553 98.4526 188.925 97.5018 188.506 96.4551C188.087 95.4083 187.884 94.2875 187.91 93.1602ZM189.64 93.1602C189.622 94.063 189.783 94.9605 190.112 95.8013C190.442 96.6421 190.934 97.4096 191.56 98.0601C192.172 98.7014 192.907 99.2117 193.722 99.5605C194.537 99.9094 195.414 100.089 196.3 100.089C197.186 100.089 198.063 99.9094 198.878 99.5605C199.693 99.2117 200.428 98.7014 201.04 98.0601C202.28 96.7258 202.951 94.961 202.91 93.1401C202.946 91.3234 202.263 89.5657 201.01 88.25C200.398 87.6083 199.661 87.0975 198.846 86.7485C198.03 86.3996 197.152 86.2197 196.265 86.2197C195.378 86.2197 194.5 86.3996 193.685 86.7485C192.869 87.0975 192.133 87.6083 191.52 88.25C190.279 89.5802 189.605 91.3414 189.64 93.1602Z" fill="#878787"/>
<path d="M220.31 97.7997L221.25 98.8901C220.548 99.8095 219.607 100.518 218.53 100.94C217.417 101.414 216.22 101.659 215.01 101.66C213.327 101.642 211.686 101.134 210.287 100.199C208.887 99.2635 207.791 97.941 207.13 96.393C206.47 94.845 206.274 93.1382 206.567 91.4809C206.86 89.8236 207.629 88.2877 208.78 87.06C209.559 86.2665 210.495 85.6439 211.528 85.2324C212.561 84.8209 213.669 84.6294 214.78 84.6699C215.978 84.6692 217.165 84.8932 218.28 85.33C219.355 85.7318 220.296 86.4242 221 87.33L220 88.3901C219.284 87.7089 218.455 87.157 217.55 86.7597C216.653 86.4193 215.699 86.2563 214.74 86.2797C213.846 86.2346 212.953 86.3862 212.124 86.7231C211.295 87.06 210.549 87.5742 209.94 88.2299C208.734 89.6089 208.108 91.4001 208.19 93.2299C208.15 94.1514 208.3 95.0711 208.632 95.9316C208.965 96.792 209.471 97.5746 210.12 98.2299C211.536 99.5101 213.395 100.187 215.302 100.116C217.21 100.045 219.014 99.2319 220.33 97.85L220.31 97.7997Z" fill="#878787"/>
<path d="M235.93 97.7997L236.87 98.8901C236.168 99.8095 235.227 100.518 234.15 100.94C233.033 101.413 231.833 101.658 230.62 101.66C228.938 101.64 227.298 101.131 225.9 100.195C224.503 99.2588 223.407 97.9362 222.748 96.3886C222.089 94.841 221.894 93.1349 222.187 91.4785C222.48 89.822 223.249 88.2871 224.4 87.06C225.179 86.2665 226.115 85.6439 227.148 85.2324C228.181 84.8209 229.289 84.6294 230.4 84.6699C231.598 84.6701 232.785 84.8941 233.9 85.33C234.975 85.7318 235.916 86.4242 236.62 87.33L235.62 88.3901C234.909 87.7071 234.083 87.1549 233.18 86.7597C232.283 86.4201 231.329 86.2571 230.37 86.2797C229.476 86.2339 228.583 86.3852 227.754 86.7221C226.924 87.059 226.179 87.5736 225.57 88.2299C224.364 89.6089 223.738 91.4001 223.82 93.2299C223.78 94.1504 223.93 95.0695 224.26 95.9296C224.591 96.7898 225.094 97.5727 225.74 98.2299C226.404 98.8645 227.189 99.3588 228.048 99.6835C228.907 100.008 229.822 100.157 230.74 100.12C231.722 100.134 232.695 99.9338 233.591 99.5331C234.488 99.1325 235.286 98.5407 235.93 97.7997Z" fill="#878787"/>
<path d="M251.35 87.7202L240.66 101.48H239.21V84.8799H240.9V98.6099L251.57 84.8799H253V101.48H251.32L251.35 87.7202Z" fill="#878787"/>
<path d="M268.82 87.7202L258.12 101.48H256.68V84.8799H258.36V98.6099L269 84.8799H270.47V101.48H268.79L268.82 87.7202Z" fill="#878787"/>
<path d="M32.46 53.04C46.9188 53.04 58.64 41.3187 58.64 26.8599C58.64 12.401 46.9188 0.680176 32.46 0.680176C18.0012 0.680176 6.28003 12.401 6.28003 26.8599C6.28003 41.3187 18.0012 53.04 32.46 53.04Z" fill="#BB3E3F"/>
<path d="M61.3781 55.3637L7.22363 62.0034L7.89415 67.4722L62.0486 60.8325L61.3781 55.3637Z" fill="#E39A4F"/>
<path d="M55.8376 64.7694L1.68311 71.4092L1.82792 72.5903L55.9824 65.9505L55.8376 64.7694Z" fill="#4D8955"/>
<path d="M64.02 77.48H0.820068V140.68H64.02V77.48Z" fill="#4A4A49"/>
</svg>
