<?xml version="1.0" encoding="utf-8"?>
<!-- Generator: Adobe Illustrator 24.0.1, SVG Export Plug-In . SVG Version: 6.00 Build 0)  -->
<svg version="1.1" id="Слой_1" xmlns="http://www.w3.org/2000/svg" xmlns:xlink="http://www.w3.org/1999/xlink" x="0px" y="0px"
	 viewBox="0 0 629.3 415.8" style="enable-background:new 0 0 629.3 415.8;" xml:space="preserve">
<style type="text/css">
	.st0{fill:#BC3E3F;}
	.st1{fill:#E29A49;}
	.st2{fill:#4D8A55;}
	.st3{fill:#4B4A49;}
</style>
<g>
	<g>
		<circle class="st0" cx="129.8" cy="117.2" r="54.2"/>
		
			<rect x="78.3" y="182.9" transform="matrix(0.9926 -0.1217 0.1217 0.9926 -21.9648 17.801)" class="st1" width="112.9" height="11.4"/>
		
			<rect x="66.3" y="202.4" transform="matrix(0.9926 -0.1217 0.1217 0.9926 -23.8802 16.4516)" class="st2" width="112.9" height="2.5"/>
		<rect x="64.3" y="222" class="st3" width="130.8" height="130.8"/>
	</g>
	<g>
		<path class="st3" d="M244.7,155.5h-3.5v-34.3h24.2v3.2h-20.7v13.1H264v3.2h-19.3V155.5z"/>
		<path class="st3" d="M275,155.5h-3.5v-34.3h3.5V155.5z"/>
		<path class="st3" d="M311.5,121.2v34.3h-2.7l-22.4-28v28H283v-34.3h2.7l22.4,28.1v-28.1H311.5z"/>
		<path class="st3" d="M319,155.5h-3.5l15-34.4h2.8l15,34.4h-3.6l-4.2-9.4H323L319,155.5z M339.3,142.9l-7.5-17.2l-7.4,17.2H339.3z"
			/>
		<path class="st3" d="M380.8,121.2v34.3h-2.7l-22.4-28v28h-3.3v-34.3h2.7l22.4,28.1v-28.1H380.8z"/>
		<path class="st3" d="M415.2,147.9l2,2.3c-1.4,1.8-3.3,3.2-5.6,4.2c-2.4,1-4.8,1.5-7.3,1.5c-5.4,0-9.7-1.6-12.9-4.9
			c-3.2-3.2-4.8-7.5-4.8-12.7c0-5.1,1.6-9.3,4.9-12.6c3.2-3.3,7.4-4.9,12.4-4.9c2.5,0,4.9,0.5,7.3,1.4c2.4,0.9,4.2,2.3,5.6,4.1
			l-2.1,2.2c-1.8-1.6-3.5-2.7-5.1-3.4s-3.6-1-5.8-1c-4.2,0-7.5,1.3-9.9,4c-2.4,2.7-3.6,6.1-3.6,10.3c0,4.3,1.3,7.8,4,10.4
			c2.7,2.6,6.1,3.9,10.3,3.9C408.7,152.6,412.4,151.1,415.2,147.9z"/>
		<path class="st3" d="M426,155.5h-3.5v-34.3h3.5V155.5z"/>
		<path class="st3" d="M433.9,155.5h-3.5l15-34.4h2.8l15,34.4h-3.6l-4.2-9.4h-17.6L433.9,155.5z M454.3,142.9l-7.5-17.2l-7.4,17.2
			H454.3z"/>
		<path class="st3" d="M491.6,155.5h-24.4v-34.3h3.5v31.1h20.9V155.5z"/>
		<path class="st3" d="M268.1,193.9l2,2.3c-1.4,1.8-3.3,3.2-5.6,4.2c-2.4,1-4.8,1.5-7.3,1.5c-5.4,0-9.7-1.6-12.9-4.9
			c-3.2-3.2-4.8-7.5-4.8-12.7c0-5.1,1.6-9.3,4.9-12.6c3.2-3.3,7.4-4.9,12.4-4.9c2.5,0,4.9,0.5,7.3,1.4c2.4,0.9,4.2,2.3,5.6,4.1
			l-2.1,2.2c-1.8-1.6-3.5-2.7-5.1-3.4c-1.6-0.7-3.6-1-5.8-1c-4.2,0-7.5,1.3-9.9,4c-2.4,2.7-3.6,6.1-3.6,10.3c0,4.3,1.3,7.8,4,10.4
			c2.7,2.6,6.1,3.9,10.3,3.9C261.6,198.6,265.2,197.1,268.1,193.9z"/>
		<path class="st3" d="M271.7,184.3c0-4.9,1.7-9.1,5-12.5c3.3-3.4,7.5-5.1,12.3-5.1c5,0,9.1,1.7,12.4,5.1c3.3,3.4,4.9,7.6,4.9,12.5
			c0,5-1.7,9.1-5,12.5c-3.3,3.4-7.4,5.1-12.3,5.1c-4.9,0-9.1-1.7-12.4-5.1C273.3,193.4,271.7,189.2,271.7,184.3z M275.3,184.3
			c0,4,1.3,7.3,4,10.1s5.9,4.2,9.8,4.2c4,0,7.3-1.4,9.8-4.2c2.6-2.8,3.9-6.2,3.9-10.2c0-4-1.3-7.3-3.9-10.1
			c-2.6-2.8-5.9-4.2-9.8-4.2c-4,0-7.3,1.4-9.9,4.2S275.3,180.3,275.3,184.3z"/>
		<path class="st3" d="M340.4,167.2v34.3h-2.7l-22.4-28v28H312v-34.3h2.7l22.4,28.1v-28.1H340.4z"/>
		<path class="st3" d="M373.7,187.7H364v-3.2h13v12.4c-1.4,1.6-3.4,2.8-5.9,3.7c-2.5,0.9-4.9,1.3-7.2,1.3c-5.3,0-9.5-1.6-12.9-4.9
			c-3.3-3.3-5-7.5-5-12.7c0-4.9,1.7-9.1,5.1-12.5s7.5-5.1,12.4-5.1c5.5,0,9.7,1.7,12.6,4.9l-2.1,2.3c-2.5-2.7-6-4-10.3-4
			c-4.2,0-7.6,1.4-10.2,4.1c-2.6,2.7-3.9,6.1-3.9,10.3c0,4.3,1.3,7.7,4,10.4c2.7,2.6,6.1,4,10.3,4c3.8,0,7-1.1,9.7-3.3V187.7z"/>
		<path class="st3" d="M386.1,187.4v14h-3.5v-34.3h12.9c8.7,0,13,3.3,13,10c0,2.5-0.8,4.7-2.5,6.4c-1.7,1.7-3.8,2.8-6.4,3.2
			l11.4,14.7h-4.2l-10.8-14H386.1z M395.5,170.4h-9.3v13.8h9.6c2.5,0,4.7-0.6,6.5-1.8c1.9-1.2,2.8-2.9,2.8-5.3
			C405.1,172.6,401.9,170.4,395.5,170.4z"/>
		<path class="st3" d="M440.7,201.5h-24.9v-34.3h24.5v3.2h-21v12h19.6v3.2h-19.6v12.6h21.5V201.5z"/>
		<path class="st3" d="M467.5,192.5c0-2.1-1.1-3.7-3.4-4.8c-1-0.5-3.2-1.2-6.5-2c-3.2-0.8-5.4-1.5-6.5-2.1c-3.6-1.7-5.4-4.3-5.4-7.7
			c0-1.5,0.4-2.9,1.2-4.1c0.8-1.2,1.8-2.2,3.1-2.9c1.3-0.7,2.6-1.2,4-1.6c1.4-0.4,2.8-0.6,4.3-0.6c2.4,0,4.7,0.4,6.9,1.1
			c2.2,0.8,4,1.9,5.3,3.6l-2.2,2.2c-2.5-2.5-5.9-3.7-10-3.7c-1.3,0-2.6,0.2-3.9,0.5c-1.3,0.3-2.4,1-3.5,1.9c-1,0.9-1.6,2.1-1.6,3.4
			c0,1.9,0.9,3.3,2.8,4.5c1,0.7,3.3,1.4,6.7,2.3c3.3,0.8,5.7,1.6,7.1,2.2c1.8,0.8,3.1,1.9,3.9,3s1.3,2.7,1.3,4.5
			c0,3.1-1.2,5.5-3.7,7.2c-2.5,1.7-5.3,2.5-8.5,2.5c-2.6,0-5.2-0.6-7.8-1.7c-2.6-1.2-4.6-2.7-6-4.7l2.4-2.4c1.3,1.8,3,3.1,5.2,4.1
			c2.2,1,4.4,1.5,6.6,1.5c2.1,0,4-0.5,5.7-1.6C466.7,196,467.5,194.5,467.5,192.5z"/>
		<path class="st3" d="M497.6,192.5c0-2.1-1.1-3.7-3.4-4.8c-1-0.5-3.2-1.2-6.5-2c-3.2-0.8-5.4-1.5-6.5-2.1c-3.6-1.7-5.4-4.3-5.4-7.7
			c0-1.5,0.4-2.9,1.2-4.1c0.8-1.2,1.8-2.2,3.1-2.9c1.3-0.7,2.6-1.2,4-1.6c1.4-0.4,2.8-0.6,4.3-0.6c2.4,0,4.7,0.4,6.9,1.1
			c2.2,0.8,4,1.9,5.3,3.6l-2.2,2.2c-2.5-2.5-5.9-3.7-10-3.7c-1.3,0-2.6,0.2-3.9,0.5c-1.3,0.3-2.4,1-3.5,1.9c-1,0.9-1.6,2.1-1.6,3.4
			c0,1.9,0.9,3.3,2.8,4.5c1,0.7,3.3,1.4,6.7,2.3c3.3,0.8,5.7,1.6,7.1,2.2c1.8,0.8,3.1,1.9,3.9,3s1.3,2.7,1.3,4.5
			c0,3.1-1.2,5.5-3.7,7.2c-2.5,1.7-5.3,2.5-8.5,2.5c-2.6,0-5.2-0.6-7.8-1.7c-2.6-1.2-4.6-2.7-6-4.7l2.4-2.4c1.3,1.8,3,3.1,5.2,4.1
			c2.2,1,4.4,1.5,6.6,1.5c2.1,0,4-0.5,5.7-1.6C496.7,196,497.6,194.5,497.6,192.5z"/>
		<path class="st3" d="M239.3,230.3c0-4.9,1.7-9.1,5-12.5c3.3-3.4,7.5-5.1,12.3-5.1c5,0,9.1,1.7,12.4,5.1c3.3,3.4,4.9,7.6,4.9,12.5
			c0,5-1.7,9.1-5,12.5c-3.3,3.4-7.4,5.1-12.3,5.1c-4.9,0-9.1-1.7-12.4-5.1C241,239.4,239.3,235.2,239.3,230.3z M242.9,230.3
			c0,4,1.3,7.3,4,10.1s5.9,4.2,9.8,4.2c4,0,7.3-1.4,9.8-4.2c2.6-2.8,3.9-6.2,3.9-10.2c0-4-1.3-7.3-3.9-10.1
			c-2.6-2.8-5.9-4.2-9.8-4.2c-4,0-7.3,1.4-9.9,4.2S242.9,226.3,242.9,230.3z"/>
		<path class="st3" d="M283.1,247.5h-3.5v-34.3h24.2v3.2h-20.7v13.1h19.3v3.2h-19.3V247.5z"/>
		<path class="st3" d="M332.7,216.4h-12.3v-3.2h28v3.2h-12.3v31.1h-3.5V216.4z"/>
		<path class="st3" d="M381.4,247.5h-3.5v-15.8h-22.1v15.8h-3.5v-34.3h3.5v15.2h22.1v-15.2h3.5V247.5z"/>
		<path class="st3" d="M413.9,247.5h-24.9v-34.3h24.5v3.2h-21v12H412v3.2h-19.6v12.6h21.5V247.5z"/>
		<path class="st3" d="M448.1,247.5h-13.2v-34.3h13.4c1.7,0,3.2,0.1,4.5,0.3c1.3,0.2,2.6,0.6,3.8,1.2c1.2,0.6,2.2,1.4,2.9,2.6
			c0.7,1.2,1,2.6,1,4.3c0,1.9-0.5,3.5-1.4,4.9c-0.9,1.4-2.2,2.5-3.9,3.1c2.2,0.3,3.8,1.2,4.9,2.7c1.1,1.5,1.7,3.3,1.7,5.5
			C461.7,244.2,457.2,247.5,448.1,247.5z M448.2,216.4h-9.8v12h10.5c2.2,0,4.1-0.5,5.7-1.5c1.6-1,2.4-2.5,2.4-4.6
			c0-1.3-0.2-2.3-0.7-3.1c-0.5-0.8-1.2-1.4-2.1-1.8c-0.9-0.4-1.8-0.6-2.7-0.8C450.5,216.5,449.5,216.4,448.2,216.4z M448.8,231.5
			h-10.4v12.7h9.9c1.3,0,2.5-0.1,3.6-0.2c1-0.2,2.1-0.5,3.1-0.9c1-0.4,1.8-1.1,2.4-2c0.6-0.9,0.8-2.1,0.8-3.4
			C458.2,233.6,455,231.5,448.8,231.5z"/>
		<path class="st3" d="M467.7,247.5h-3.5l15-34.4h2.8l15,34.4h-3.6l-4.2-9.4h-17.6L467.7,247.5z M488,234.9l-7.5-17.2l-7.4,17.2H488
			z"/>
		<path class="st3" d="M529.5,213.2v34.3h-2.7l-22.4-28v28H501v-34.3h2.7l22.4,28.1v-28.1H529.5z"/>
		<path class="st3" d="M540.5,247.5h-3.5v-34.3h3.5v17.5l18.7-17.5h4.6l-16.6,15.6l17.9,18.7h-4.8l-15.6-16.4l-4.1,3.8V247.5z"/>
		<path class="st3" d="M239.3,276.3c0-4.9,1.7-9.1,5-12.5c3.3-3.4,7.5-5.1,12.3-5.1c5,0,9.1,1.7,12.4,5.1c3.3,3.4,4.9,7.6,4.9,12.5
			c0,5-1.7,9.1-5,12.5c-3.3,3.4-7.4,5.1-12.3,5.1c-4.9,0-9.1-1.7-12.4-5.1C241,285.4,239.3,281.2,239.3,276.3z M242.9,276.3
			c0,4,1.3,7.3,4,10.1s5.9,4.2,9.8,4.2c4,0,7.3-1.4,9.8-4.2c2.6-2.8,3.9-6.2,3.9-10.2c0-4-1.3-7.3-3.9-10.1
			c-2.6-2.8-5.9-4.2-9.8-4.2c-4,0-7.3,1.4-9.9,4.2S242.9,272.3,242.9,276.3z"/>
		<path class="st3" d="M283.1,293.5h-3.5v-34.3h24.2v3.2h-20.7v13.1h19.3v3.2h-19.3V293.5z"/>
		<path class="st3" d="M327.6,279.4v14h-3.5v-34.3H337c8.7,0,13,3.3,13,10c0,2.5-0.8,4.7-2.5,6.4c-1.7,1.7-3.8,2.8-6.4,3.2
			l11.4,14.7h-4.2l-10.8-14H327.6z M336.9,262.4h-9.3v13.8h9.6c2.5,0,4.7-0.6,6.5-1.8c1.9-1.2,2.8-2.9,2.8-5.3
			C346.5,264.6,343.3,262.4,336.9,262.4z"/>
		<path class="st3" d="M381.8,259.2h3.5v19.9c0,4.4-1.2,7.9-3.7,10.7c-2.5,2.7-5.8,4.1-10.1,4.1c-4.5,0-8.1-1.4-10.7-4.3
			s-4-6.5-4-10.9v-19.6h3.5v19c0,3.6,1,6.6,3,8.9c2,2.4,4.8,3.5,8.2,3.5c3.5,0,6.1-1.1,7.8-3.4c1.7-2.3,2.5-5.2,2.5-8.8V259.2z"/>
		<path class="st3" d="M412.9,284.5c0-2.1-1.1-3.7-3.4-4.8c-1-0.5-3.2-1.2-6.5-2c-3.2-0.8-5.4-1.5-6.5-2.1c-3.6-1.7-5.4-4.3-5.4-7.7
			c0-1.5,0.4-2.9,1.2-4.1c0.8-1.2,1.8-2.2,3.1-2.9c1.3-0.7,2.6-1.2,4-1.6c1.4-0.4,2.8-0.6,4.3-0.6c2.4,0,4.7,0.4,6.9,1.1
			c2.2,0.8,4,1.9,5.3,3.6l-2.2,2.2c-2.5-2.5-5.9-3.7-10-3.7c-1.3,0-2.6,0.2-3.9,0.5c-1.3,0.3-2.4,1-3.5,1.9c-1,0.9-1.6,2.1-1.6,3.4
			c0,1.9,0.9,3.3,2.8,4.5c1,0.7,3.3,1.4,6.7,2.3c3.3,0.8,5.7,1.6,7.1,2.2c1.8,0.8,3.1,1.9,3.9,3s1.3,2.7,1.3,4.5
			c0,3.1-1.2,5.5-3.7,7.2c-2.5,1.7-5.3,2.5-8.5,2.5c-2.6,0-5.2-0.6-7.8-1.7c-2.6-1.2-4.6-2.7-6-4.7l2.4-2.4c1.3,1.8,3,3.1,5.2,4.1
			c2.2,1,4.4,1.5,6.6,1.5c2.1,0,4-0.5,5.7-1.6C412.1,288,412.9,286.5,412.9,284.5z"/>
		<path class="st3" d="M443,284.5c0-2.1-1.1-3.7-3.4-4.8c-1-0.5-3.2-1.2-6.5-2c-3.2-0.8-5.4-1.5-6.5-2.1c-3.6-1.7-5.4-4.3-5.4-7.7
			c0-1.5,0.4-2.9,1.2-4.1c0.8-1.2,1.8-2.2,3.1-2.9c1.3-0.7,2.6-1.2,4-1.6c1.4-0.4,2.8-0.6,4.3-0.6c2.4,0,4.7,0.4,6.9,1.1
			c2.2,0.8,4,1.9,5.3,3.6l-2.2,2.2c-2.5-2.5-5.9-3.7-10-3.7c-1.3,0-2.6,0.2-3.9,0.5c-1.3,0.3-2.4,1-3.5,1.9c-1,0.9-1.6,2.1-1.6,3.4
			c0,1.9,0.9,3.3,2.8,4.5c1,0.7,3.3,1.4,6.7,2.3c3.3,0.8,5.7,1.6,7.1,2.2c1.8,0.8,3.1,1.9,3.9,3s1.3,2.7,1.3,4.5
			c0,3.1-1.2,5.5-3.7,7.2c-2.5,1.7-5.3,2.5-8.5,2.5c-2.6,0-5.2-0.6-7.8-1.7c-2.6-1.2-4.6-2.7-6-4.7l2.4-2.4c1.3,1.8,3,3.1,5.2,4.1
			c2.2,1,4.4,1.5,6.6,1.5c2.1,0,4-0.5,5.7-1.6C442.2,288,443,286.5,443,284.5z"/>
		<path class="st3" d="M456.6,293.5h-3.5v-34.3h3.5V293.5z"/>
		<path class="st3" d="M464.5,293.5H461l15-34.4h2.8l15,34.4h-3.6l-4.2-9.4h-17.6L464.5,293.5z M484.8,280.9l-7.5-17.2l-7.4,17.2
			H484.8z"/>
	</g>
</g>
</svg>
