<svg width="1903" height="491" viewBox="0 0 1903 491" fill="none" xmlns="http://www.w3.org/2000/svg">
<path d="M1901 11.5219L1159.25 102.505" stroke="#4D8955" stroke-width="23.1987" stroke-miterlimit="10"/>
<path d="M1106.86 363.497L243.39 469.41" stroke="#C2C2C2" stroke-width="41.981" stroke-miterlimit="10"/>
<path d="M1868.19 124.324L1126.43 215.307" stroke="#4D8955" stroke-width="23.1987" stroke-miterlimit="10"/>
<path d="M1319.8 274.965L943.785 321.087" stroke="#C2C2C2" stroke-width="16.5172" stroke-miterlimit="10"/>
<path d="M602.661 369.22L911.348 331.36" stroke="#4D8955" stroke-width="27" stroke-miterlimit="10"/>
<path d="M1323.44 47.9095L1060.96 80.1079" stroke="#263378" stroke-width="10.9114" stroke-miterlimit="10"/>
<path d="M962.265 265.775L716.691 295.895" stroke="#BB3E3F" stroke-width="10.9114" stroke-miterlimit="10"/>
<path d="M1198.17 278.932L984.896 305.09" stroke="#E39A3F" stroke-width="23.1987" stroke-miterlimit="10"/>
<path d="M1561.34 373.582L819.587 464.565" stroke="#E7929C" stroke-width="23.1987" stroke-miterlimit="10"/>
<path d="M962.065 391.284L1452.07 331.182" stroke="#E39A3F" stroke-width="26.2641" stroke-miterlimit="10"/>
<path d="M1024.52 157.289L1514.53 97.1876" stroke="#E39A3F" stroke-width="26.2641" stroke-miterlimit="10"/>
<path d="M1196.04 217.713L1686.05 157.612" stroke="#263378" stroke-width="26.2641" stroke-miterlimit="10"/>
<path d="M478.463 205.767L146.895 246.439" stroke="#E39A3F" stroke-width="18.7498" stroke-miterlimit="10"/>
<path d="M240.618 196.794L90.583 215.041" stroke="#BB3E3F" stroke-width="8.08435" stroke-miterlimit="10"/>
<path d="M1 311.836L237.478 282.832" stroke="#E7929C" stroke-width="11.1957" stroke-miterlimit="10"/>
<path d="M281.995 236.154L147.829 252.612" stroke="#4D8955" stroke-width="9.35553" stroke-miterlimit="10"/>
</svg>
