<svg width="40" height="40" viewBox="0 0 40 40" fill="none" xmlns="http://www.w3.org/2000/svg">
<circle cx="20" cy="20" r="20" fill="white" fill-opacity="0.7"/>
<path d="M11.111 28.8889C10.4999 28.8889 9.97657 28.6711 9.54102 28.2355C9.10546 27.8 8.88806 27.277 8.8888 26.6666V13.3333C8.8888 12.7222 9.10657 12.1989 9.54213 11.7633C9.97768 11.3278 10.5006 11.1103 11.111 11.1111H28.8888C29.4999 11.1111 30.0232 11.3289 30.4588 11.7644C30.8944 12.2 31.1118 12.7229 31.111 13.3333V26.6666C31.111 27.2778 30.8932 27.8011 30.4577 28.2366C30.0221 28.6722 29.4992 28.8896 28.8888 28.8889H11.111ZM19.9999 21.1111L11.111 15.5555V26.6666H28.8888V15.5555L19.9999 21.1111ZM19.9999 18.8889L28.8888 13.3333H11.111L19.9999 18.8889ZM11.111 15.5555V13.3333V26.6666V15.5555Z" fill="#4A4A49"/>
</svg>
