<svg width="40" height="40" viewBox="0 0 40 40" fill="none" xmlns="http://www.w3.org/2000/svg">
<circle cx="20" cy="20" r="20" fill="#BB3E3F" fill-opacity="0.8"/>
<path d="M14 10H23C23.5304 10 24.0391 10.2107 24.4142 10.5858C24.7893 10.9609 25 11.4696 25 12V14H23V12H14V28H23V26H25V28C25 28.5304 24.7893 29.0391 24.4142 29.4142C24.0391 29.7893 23.5304 30 23 30H14C13.4696 30 12.9609 29.7893 12.5858 29.4142C12.2107 29.0391 12 28.5304 12 28V12C12 11.4696 12.2107 10.9609 12.5858 10.5858C12.9609 10.2107 13.4696 10 14 10Z" fill="white"/>
<path d="M24.09 23.59L25.5 25L30.5 20L25.5 15L24.09 16.41L26.67 19H17V21H26.67L24.09 23.59Z" fill="white"/>
</svg>
