<svg width="710" height="364" viewBox="0 0 710 364" fill="none" xmlns="http://www.w3.org/2000/svg">
<path d="M248.906 301.415L33.9756 327.767L37.5997 357.326L252.53 330.974L248.906 301.415Z" fill="#4D8955"/>
<path d="M425.609 297.036L125.973 333.774L129.597 363.332L429.233 326.595L425.609 297.036Z" fill="#E7929C"/>
<path d="M365.027 114.897L0 159.652L8.19015 226.452L373.217 181.697L365.027 114.897Z" fill="#263378"/>
<path d="M454.903 41.779L46.4712 91.8557L49.1242 113.494L457.556 63.4169L454.903 41.779Z" fill="#E7929C"/>
<path d="M355.903 181.634L126.024 209.819L127.284 220.092L357.162 191.907L355.903 181.634Z" fill="#E39A4F"/>
<path d="M707.925 0.399397L321.032 47.8353L322.292 58.1084L709.185 10.6725L707.925 0.399397Z" fill="#E39A4F"/>
</svg>
