<svg width="40" height="50" viewBox="0 0 40 50" fill="none" xmlns="http://www.w3.org/2000/svg">
<rect x="0.5" y="0.5" width="39" height="49" stroke="white"/>
<rect x="3" y="42" width="34" height="8" fill="white"/>
<path d="M19.9997 23.7018C25.164 23.7018 29.3506 19.5153 29.3506 14.3509C29.3506 9.18655 25.164 5 19.9997 5C14.8353 5 10.6487 9.18655 10.6487 14.3509C10.6487 19.5153 14.8353 23.7018 19.9997 23.7018Z" fill="white"/>
<path d="M20 28.3773C10.6303 28.3773 3 34.6611 3 42.4037C3 42.9273 3.41144 43.3388 3.93509 43.3388H36.0649C36.5886 43.3388 37 42.9273 37 42.4037C37 34.6611 29.3697 28.3773 20 28.3773Z" fill="white"/>
</svg>
