<svg xmlns="http://www.w3.org/2000/svg" viewBox="0 0 427 34.46">
    <defs>
        <style>
            .cls-1,.cls-6,.cls-9{fill:#232324;}.cls-1,.cls-5{opacity:0.6;}.cls-2{fill:#9d9d9c;}.cls-3{fill:#878787;}.cls-4{fill:#b2b2b2;}.cls-7{fill:#fff;}.cls-10,.cls-11,.cls-14,.cls-7,.cls-8,.cls-9{fill-rule:evenodd;}.cls-8{fill:#b3b3b2;}.cls-10{fill:#b4b4b5;}.cls-11,.cls-13{fill:#8b8b8c;}.cls-12{fill:#2a2929;}.cls-14{fill:#747474;}
        </style>
    </defs>

    <g id="Layer_2" data-name="Layer 2">
        <g id="NEWS">
            <path class="cls-1"
                  d="M276.14,22.57a1,1,0,0,1-.37.28,1.28,1.28,0,0,1-.48.09,1.42,1.42,0,0,1-.48-.08,1.06,1.06,0,0,1-.62-.6,1.42,1.42,0,0,1-.08-.48,1.16,1.16,0,0,1,.08-.45,1.11,1.11,0,0,1,.23-.36,1,1,0,0,1,.36-.25,1.06,1.06,0,0,1,.45-.09,1.57,1.57,0,0,1,.49.07.91.91,0,0,1,.38.22l-.19.31a.78.78,0,0,0-.3-.18,1.14,1.14,0,0,0-.33-.05.67.67,0,0,0-.28.06.6.6,0,0,0-.25.16.67.67,0,0,0-.16.24.88.88,0,0,0-.07.32.81.81,0,0,0,.07.33.74.74,0,0,0,.17.25.82.82,0,0,0,.25.16,1.06,1.06,0,0,0,.31.05.83.83,0,0,0,.36-.08.79.79,0,0,0,.27-.2Z"/>
            <polygon class="cls-1"
                     points="276.65 22.89 276.65 20.68 277.04 20.68 277.04 22.32 278.32 20.68 278.71 20.68 278.71 22.89 278.32 22.89 278.32 21.25 277.04 22.89 276.65 22.89"/>
            <path class="cls-1"
                  d="M281.31,22.57a1,1,0,0,1-.37.28,1.28,1.28,0,0,1-.48.09,1.51,1.51,0,0,1-.48-.08,1.16,1.16,0,0,1-.37-.23,1,1,0,0,1-.24-.37,1.21,1.21,0,0,1-.09-.48,1.38,1.38,0,0,1,.08-.45,1.13,1.13,0,0,1,.24-.36,1,1,0,0,1,.35-.25,1.13,1.13,0,0,1,.45-.09,1.53,1.53,0,0,1,.49.07.91.91,0,0,1,.38.22l-.18.31a.9.9,0,0,0-.31-.18,1.14,1.14,0,0,0-.33-.05.71.71,0,0,0-.28.06.63.63,0,0,0-.24.16.7.7,0,0,0-.17.24.87.87,0,0,0-.06.32.81.81,0,0,0,.06.33.74.74,0,0,0,.17.25.76.76,0,0,0,.26.16.94.94,0,0,0,.3.05.8.8,0,0,0,.36-.08,1,1,0,0,0,.28-.2Z"/>
            <polygon class="cls-1"
                     points="281.51 20.68 283.53 20.68 283.53 21.07 282.72 21.07 282.72 22.89 282.32 22.89 282.32 21.07 281.51 21.07 281.51 20.68"/>
            <path class="cls-1"
                  d="M285.75,22.65a1.07,1.07,0,0,1-.39.22,1.35,1.35,0,0,1-.44.07,1.48,1.48,0,0,1-.49-.08,1.06,1.06,0,0,1-.37-.23,1,1,0,0,1-.24-.37,1.19,1.19,0,0,1-.09-.47,1.34,1.34,0,0,1,.08-.46A1,1,0,0,1,284,21a1,1,0,0,1,.36-.25,1.21,1.21,0,0,1,.48-.09,1.29,1.29,0,0,1,.4.07.93.93,0,0,1,.33.21,1,1,0,0,1,.22.32,1.07,1.07,0,0,1,.08.41,2.13,2.13,0,0,1,0,.27h-1.7a.65.65,0,0,0,.23.49.85.85,0,0,0,.54.17,1,1,0,0,0,.39-.07.81.81,0,0,0,.29-.16Zm-.9-1.65a.69.69,0,0,0-.48.17.67.67,0,0,0-.22.42h1.34a.58.58,0,0,0-.64-.59"/>
            <polygon class="cls-1"
                     points="286.44 20.68 286.8 20.68 287.64 21.77 288.45 20.68 288.8 20.68 288.8 22.89 288.4 22.89 288.4 21.28 287.64 22.31 287.62 22.31 286.83 21.28 286.83 22.89 286.44 22.89 286.44 20.68"/>
            <path class="cls-1"
                  d="M289.53,20.83a1.43,1.43,0,0,1,.33-.15,1.75,1.75,0,0,1,.4-.05.81.81,0,0,1,.66.24,1.06,1.06,0,0,1,.19.66v1.36h-.37v-.28a1,1,0,0,1-.27.22.93.93,0,0,1-.44.09.67.67,0,0,1-.49-.17.69.69,0,0,1-.19-.51.6.6,0,0,1,.07-.3.62.62,0,0,1,.17-.22.75.75,0,0,1,.27-.13,1.14,1.14,0,0,1,.33-.05l.28,0a.81.81,0,0,1,.27.11,2.46,2.46,0,0,0,0-.28.48.48,0,0,0-.07-.22.29.29,0,0,0-.15-.14.5.5,0,0,0-.26-.06,1.06,1.06,0,0,0-.34.05l-.27.12Zm.64,1.74a.63.63,0,0,0,.35-.09,1.44,1.44,0,0,0,.22-.19V22a.82.82,0,0,0-.5-.15l-.17,0a.52.52,0,0,0-.15.07.29.29,0,0,0-.11.11.29.29,0,0,0,0,.16.38.38,0,0,0,.1.26.45.45,0,0,0,.3.09"/>
            <path class="cls-1"
                  d="M294.8,19.71a.67.67,0,0,1-.23.19,1.12,1.12,0,0,1-.26.08L294,20a1.33,1.33,0,0,0-.34.11.83.83,0,0,0-.26.19,1.13,1.13,0,0,0-.16.26,1.6,1.6,0,0,0-.1.31c0,.1,0,.21,0,.31h0a.77.77,0,0,1,.14-.21,1.06,1.06,0,0,1,.21-.16,1.12,1.12,0,0,1,.25-.11,1.26,1.26,0,0,1,.28,0,1.16,1.16,0,0,1,.42.08,1,1,0,0,1,.33.23,1.13,1.13,0,0,1,.2.34,1.33,1.33,0,0,1,.07.45,1.27,1.27,0,0,1-.08.44,1.31,1.31,0,0,1-.23.36,1,1,0,0,1-.36.25,1.18,1.18,0,0,1-.46.09,1.1,1.1,0,0,1-.49-.1,1,1,0,0,1-.37-.27,1.18,1.18,0,0,1-.23-.43,1.73,1.73,0,0,1-.08-.58,4.63,4.63,0,0,1,0-.51,2.11,2.11,0,0,1,.12-.51,1.5,1.5,0,0,1,.24-.45,1.16,1.16,0,0,1,.43-.31,2,2,0,0,1,.35-.11l.28-.05a.86.86,0,0,0,.23-.06.39.39,0,0,0,.18-.16Zm-1.66,1.93a1.23,1.23,0,0,0,.05.39,1.13,1.13,0,0,0,.15.29.69.69,0,0,0,.24.18.6.6,0,0,0,.3.07.68.68,0,0,0,.29-.06.63.63,0,0,0,.23-.16.76.76,0,0,0,.15-.23.73.73,0,0,0,.05-.3.79.79,0,0,0-.18-.53.62.62,0,0,0-.52-.22.88.88,0,0,0-.29.05.8.8,0,0,0-.22.13.73.73,0,0,0-.17.18.6.6,0,0,0-.08.21"/>
            <path class="cls-1"
                  d="M295.59,20.68H296v.66h.36a1,1,0,0,1,.42.07.6.6,0,0,1,.27.17.49.49,0,0,1,.14.24.92.92,0,0,1,.05.28.93.93,0,0,1-.05.29.64.64,0,0,1-.15.25.68.68,0,0,1-.28.18,1.16,1.16,0,0,1-.44.07h-.71Zm.39,1v.81h.28a.65.65,0,0,0,.42-.1.38.38,0,0,0,.12-.3.39.39,0,0,0-.12-.31.72.72,0,0,0-.41-.1Zm1.66-1H298v2.21h-.39Z"/>
            <path class="cls-1"
                  d="M300.63,22.57a1,1,0,0,1-.37.28,1.28,1.28,0,0,1-.48.09,1.53,1.53,0,0,1-.49-.08,1.28,1.28,0,0,1-.37-.23,1.31,1.31,0,0,1-.24-.37,1.21,1.21,0,0,1-.09-.48,1.17,1.17,0,0,1,.09-.45,1,1,0,0,1,.23-.36,1.07,1.07,0,0,1,.35-.25,1.13,1.13,0,0,1,.45-.09,1.53,1.53,0,0,1,.49.07.85.85,0,0,1,.38.22l-.18.31a1,1,0,0,0-.3-.18,1.26,1.26,0,0,0-.33-.05.72.72,0,0,0-.29.06.63.63,0,0,0-.24.16.7.7,0,0,0-.17.24.87.87,0,0,0-.06.32.81.81,0,0,0,.06.33.76.76,0,0,0,.18.25.72.72,0,0,0,.25.16,1.06,1.06,0,0,0,.31.05.86.86,0,0,0,.36-.08,1.05,1.05,0,0,0,.27-.2Z"/>
            <polygon class="cls-1"
                     points="300.83 20.68 302.84 20.68 302.84 21.07 302.03 21.07 302.03 22.89 301.64 22.89 301.64 21.07 300.83 21.07 300.83 20.68"/>
            <path class="cls-1"
                  d="M303.27,20.68h.39v.26a.86.86,0,0,1,.32-.22,1,1,0,0,1,.43-.09,1.18,1.18,0,0,1,.43.08,1.08,1.08,0,0,1,.32.24.81.81,0,0,1,.2.35,1.33,1.33,0,0,1,.07.45,1.22,1.22,0,0,1-.08.47,1,1,0,0,1-.23.38,1.16,1.16,0,0,1-.36.25,1.19,1.19,0,0,1-.47.09,1.34,1.34,0,0,1-.35,0,.78.78,0,0,1-.28-.11v1.08h-.39Zm1,.32a.81.81,0,0,0-.37.09,1,1,0,0,0-.27.21v1.1a1.08,1.08,0,0,0,.59.17.83.83,0,0,0,.32-.06.81.81,0,0,0,.24-.17.58.58,0,0,0,.15-.25.87.87,0,0,0,.06-.32,1,1,0,0,0,0-.31.63.63,0,0,0-.14-.24.53.53,0,0,0-.23-.16.7.7,0,0,0-.3-.06"/>
            <path class="cls-1"
                  d="M306,20.68h.39v.66h.37a1,1,0,0,1,.42.07.73.73,0,0,1,.27.17.72.72,0,0,1,.14.24.9.9,0,0,1,0,.28.93.93,0,0,1-.05.29.64.64,0,0,1-.15.25.62.62,0,0,1-.28.18,1.16,1.16,0,0,1-.44.07H306Zm.39,1v.81h.29a.63.63,0,0,0,.41-.1.38.38,0,0,0,.12-.3.39.39,0,0,0-.12-.31.7.7,0,0,0-.41-.1Zm1.66-1h.39v2.21h-.39Z"/>
            <polygon class="cls-1"
                     points="310.33 21.75 311.17 22.89 310.69 22.89 310.04 22 309.38 22.89 308.92 22.89 309.76 21.77 308.97 20.68 309.45 20.68 310.05 21.52 310.66 20.68 311.12 20.68 310.33 21.75"/>
            <polygon class="cls-1"
                     points="275.85 25.62 274.65 25.62 274.65 27.46 274.25 27.46 274.25 25.25 276.24 25.25 276.24 27.46 275.85 27.46 275.85 25.62"/>
            <path class="cls-1"
                  d="M278.47,25.65h-.78l0,.37a5.07,5.07,0,0,1-.12.76,1.6,1.6,0,0,1-.19.45.64.64,0,0,1-.26.21.86.86,0,0,1-.32,0l0-.38.15,0a.48.48,0,0,0,.16-.16,1.59,1.59,0,0,0,.14-.36,3.79,3.79,0,0,0,.09-.62l0-.69h1.54v2.21h-.39Z"/>
            <path class="cls-1"
                  d="M279.58,25.41a1,1,0,0,1,.34-.15,1.34,1.34,0,0,1,.4-.06.81.81,0,0,1,.66.24,1.09,1.09,0,0,1,.19.67v1.35h-.37v-.28a1,1,0,0,1-.27.22.82.82,0,0,1-.44.1.67.67,0,0,1-.49-.18.65.65,0,0,1-.19-.5.56.56,0,0,1,.07-.3.54.54,0,0,1,.17-.22.69.69,0,0,1,.27-.14,1.14,1.14,0,0,1,.33-.05l.28,0a.66.66,0,0,1,.27.12,2.48,2.48,0,0,0,0-.29.52.52,0,0,0-.07-.22.29.29,0,0,0-.15-.14.67.67,0,0,0-.26-.05.81.81,0,0,0-.34.05,1.28,1.28,0,0,0-.27.11Zm.65,1.73a.63.63,0,0,0,.35-.09,1,1,0,0,0,.22-.19v-.28a.84.84,0,0,0-.5-.15.47.47,0,0,0-.17,0,.44.44,0,0,0-.16.06.35.35,0,0,0-.1.11.31.31,0,0,0,0,.17.32.32,0,0,0,.1.25.45.45,0,0,0,.3.09"/>
            <polygon class="cls-1"
                     points="281.55 25.25 283.56 25.25 283.56 25.65 282.75 25.65 282.75 27.46 282.36 27.46 282.36 25.65 281.55 25.65 281.55 25.25"/>
            <path class="cls-1"
                  d="M285.78,27.22a1,1,0,0,1-.38.22,1.41,1.41,0,0,1-.45.07,1.29,1.29,0,0,1-.49-.08,1,1,0,0,1-.37-.23,1.08,1.08,0,0,1-.24-.37,1.4,1.4,0,0,1-.08-.47,1.33,1.33,0,0,1,.07-.45,1.16,1.16,0,0,1,.23-.37,1,1,0,0,1,.35-.24,1.07,1.07,0,0,1,.49-.1,1.1,1.1,0,0,1,.4.08,1.38,1.38,0,0,1,.33.2,1,1,0,0,1,.29.74,1,1,0,0,1,0,.26h-1.7a.7.7,0,0,0,.24.49.79.79,0,0,0,.53.18,1.13,1.13,0,0,0,.39-.07.89.89,0,0,0,.29-.17Zm-.89-1.65a.71.71,0,0,0-.49.17.65.65,0,0,0-.21.42h1.34a.63.63,0,0,0-.18-.43.69.69,0,0,0-.46-.16"/>
            <path class="cls-1"
                  d="M286.13,25.25h.49l.76,1.07-.81,1.14h-.48l.85-1.14Zm1.35,0h.39v2.21h-.39Zm.93,1.07.86,1.14h-.48L288,26.32l.76-1.07h.49Z"/>
            <path class="cls-1"
                  d="M291.45,27.22a1.07,1.07,0,0,1-.39.22,1.31,1.31,0,0,1-.44.07,1.29,1.29,0,0,1-.49-.08,1,1,0,0,1-.37-.23,1.08,1.08,0,0,1-.24-.37,1.19,1.19,0,0,1-.08-.47,1.33,1.33,0,0,1,.07-.45,1,1,0,0,1,.58-.61,1.07,1.07,0,0,1,.49-.1,1.1,1.1,0,0,1,.4.08,1.16,1.16,0,0,1,.32.2.87.87,0,0,1,.22.32,1,1,0,0,1,.08.42,1.84,1.84,0,0,1,0,.26h-1.7a.69.69,0,0,0,.23.49.82.82,0,0,0,.54.18,1.18,1.18,0,0,0,.39-.07.89.89,0,0,0,.29-.17Zm-.89-1.65a.69.69,0,0,0-.49.17.72.72,0,0,0-.22.42h1.35a.6.6,0,0,0-.19-.43.65.65,0,0,0-.45-.16"/>
            <path class="cls-1"
                  d="M292.14,27.46V25.25h.39V26.9l1.28-1.65h.39v2.21h-.39V25.82l-1.28,1.64Zm.68-3.34c0,.26.15.39.38.39s.34-.13.36-.39h.37a.67.67,0,0,1-.06.28.6.6,0,0,1-.14.21.91.91,0,0,1-.23.15.94.94,0,0,1-.3,0,1,1,0,0,1-.32,0,.82.82,0,0,1-.24-.15.6.6,0,0,1-.14-.21.87.87,0,0,1-.05-.28Z"/>
            <polygon class="cls-1"
                     points="303.62 8.47 303.62 17.31 300.51 17.31 300.51 11.1 297.52 11.1 297.52 17.31 294.41 17.31 294.41 8.47 303.62 8.47"/>
            <path class="cls-1"
                  d="M292.88,13.17c.05,2.57-2,4.39-5,4.39-2.78,0-5.13-1.68-5.13-5.78,0-3.48,2.23-6.35,5.52-6.41h4.58L291.43,8h-2.8a2.81,2.81,0,0,0-2.87,2.42,4.66,4.66,0,0,1,3.15-1.13,4,4,0,0,1,4,3.9m-3.1.2a1.84,1.84,0,0,0-1.85-1.87,1.86,1.86,0,1,0,1.85,1.87"/>
            <path class="cls-1"
                  d="M280.39,14.29A4.58,4.58,0,0,1,278,15a2.1,2.1,0,0,1,0-4.19,4.5,4.5,0,0,1,2.43.67l1.16-2.09a5.48,5.48,0,0,0-3.42-1.14A5,5,0,0,0,273,12.86a5,5,0,0,0,5.1,4.71,5.53,5.53,0,0,0,3.45-1.16Z"/>
            <polygon class="cls-2" points="248.57 17.23 244.07 19.82 239.9 27.05 256.91 17.23 248.57 17.23"/>
            <polygon class="cls-2" points="261.41 9.82 256.91 12.42 252.74 19.64 269.75 9.82 261.41 9.82"/>
            <polygon class="cls-3"
                     points="256.91 7.23 252.74 0 252.74 14.82 252.74 19.64 252.74 34.46 256.91 27.23 256.91 7.23"/>
            <polygon class="cls-4" points="252.74 0 256.91 7.23 261.41 9.82 269.75 9.82 252.74 0"/>
            <polygon class="cls-3" points="252.74 14.82 252.74 34.46 256.91 27.23 256.91 22.04 252.74 14.82"/>
            <polygon class="cls-2" points="261.41 24.64 256.91 27.23 252.74 34.46 269.75 24.64 261.41 24.64"/>
            <polygon class="cls-3" points="239.9 7.41 239.9 27.05 244.07 19.82 244.07 14.63 239.9 7.41"/>
            <polygon class="cls-4"
                     points="252.74 14.82 252.74 14.82 239.9 7.41 244.07 14.63 261.41 24.64 269.75 24.64 252.74 14.82"/>
            <g class="cls-5">
                <rect class="cls-6" x="345.57" y="4.5" width="81.43" height="25.91"/>
                <path class="cls-7"
                      d="M351.44,17.54l3.7-3.7-3.7-3.7h2.76l3.7,3.7-3.7,3.7h-2.76m4.87,0,3.7-3.7-3.7-3.7h2.77l3.7,3.7-3.7,3.7Z"/>
                <path class="cls-7"
                      d="M417.11,25.8c.55,0,.86-.26,1.13-1l1.36-3.51h-.82l-.89,2.54-1-2.54h-.83l1.42,3.42c-.13.29-.26.39-.48.39a.91.91,0,0,1-.46-.13l-.27.58a1.6,1.6,0,0,0,.81.21M414,24.14a1.1,1.1,0,0,1,0-2.2,1.11,1.11,0,0,1,0,2.2Zm.18.68A1.64,1.64,0,0,0,415.77,23a1.64,1.64,0,0,0-1.59-1.78,1.35,1.35,0,0,0-1.16.64V20h-.78v4.73H413v-.53A1.4,1.4,0,0,0,414.18,24.82Zm-6.62-.68a1,1,0,0,1-1-1.1,1,1,0,0,1,1-1.1,1,1,0,0,1,1,1.09A1,1,0,0,1,407.56,24.14Zm-.19.68a1.38,1.38,0,0,0,1.16-.64v.57h.79V20h-.79v1.84a1.39,1.39,0,0,0-1.16-.6A1.63,1.63,0,0,0,405.78,23,1.64,1.64,0,0,0,407.37,24.82Zm-4.73-2a.92.92,0,0,1,.88-.9.88.88,0,0,1,.87.9Zm1,2a1.72,1.72,0,0,0,1.4-.64l-.46-.4a1.24,1.24,0,0,1-.92.4,1,1,0,0,1-1-.86h2.51a1.5,1.5,0,0,0,0-.22,1.65,1.65,0,0,0-1.64-1.84,1.78,1.78,0,0,0,.08,3.56Zm-4.12-.07h.78v-1.3c0-.91.48-1.36,1.17-1.36h0v-.83a1.23,1.23,0,0,0-1.21.84v-.77h-.78Zm-2.84.07a1.24,1.24,0,0,0,1.07-.6v.53h.78V21.33h-.78v1.93a.76.76,0,0,1-.77.85c-.47,0-.73-.31-.73-.84V21.33h-.78V23.5A1.17,1.17,0,0,0,396.65,24.82Zm-3.29,0a1.73,1.73,0,0,0,1.4-.64l-.48-.46a1.18,1.18,0,0,1-.88.42,1.1,1.1,0,0,1,0-2.2,1.14,1.14,0,0,1,.88.43l.49-.52a1.72,1.72,0,0,0-1.37-.59,1.78,1.78,0,0,0,0,3.56Zm-4.9-2a.93.93,0,0,1,.88-.9.88.88,0,0,1,.87.9Zm1,2a1.72,1.72,0,0,0,1.4-.64l-.46-.4a1.24,1.24,0,0,1-.92.4,1,1,0,0,1-1-.86H391s0-.17,0-.22a1.65,1.65,0,0,0-1.64-1.84,1.78,1.78,0,0,0,.08,3.56Zm-3.63,0c.72,0,1.27-.35,1.27-1.07s-.56-.86-1.06-1l-.06,0c-.38-.13-.71-.23-.71-.46s.17-.36.48-.36a1.9,1.9,0,0,1,1,.33l.31-.56a2.33,2.33,0,0,0-1.25-.39,1.09,1.09,0,0,0-1.22,1c0,.67.56.88,1.07,1l.06,0c.37.11.7.2.7.46s-.19.38-.53.38a1.91,1.91,0,0,1-1.12-.42l-.35.53A2.4,2.4,0,0,0,385.8,24.81Z"/>
                <path class="cls-7"
                      d="M382.1,16.8a2.09,2.09,0,0,1-1.65.71A2.38,2.38,0,0,1,378,14.82V12h1.26v2.79c0,.94.38,1.55,1.36,1.55s1.5-.77,1.5-1.75V12h1.25V16.8a2.63,2.63,0,0,1-2.76,2.85,3.73,3.73,0,0,1-2.42-.86l-.08-.06.74-.78.06,0a3.08,3.08,0,0,0,1.7.5A1.34,1.34,0,0,0,382.1,17Zm-6.58.09a2.49,2.49,0,0,1-1.8.76,2.79,2.79,0,0,1-2.78-2.88,2.79,2.79,0,0,1,2.77-2.88,2.46,2.46,0,0,1,1.81.77V12h1.25v5.63h-1.25Zm-9-1.42H368a2.65,2.65,0,0,0,1-.21,2.84,2.84,0,0,0,.84-.57,2.54,2.54,0,0,0,.57-.85,2.64,2.64,0,0,0-.57-2.91,2.84,2.84,0,0,0-.84-.57,2.65,2.65,0,0,0-1-.21h-2.76v7.37h1.33Zm0-1.33V11.48H368a1.28,1.28,0,0,1,.94.39h0a1.24,1.24,0,0,1,.4.93A1.37,1.37,0,0,1,368,14.14h-1.43Zm7.29,2.29a1.62,1.62,0,0,0,1.62-1.66,1.63,1.63,0,0,0-.82-1.45,1.59,1.59,0,0,0-.8-.21,1.67,1.67,0,0,0-.81.22,1.7,1.7,0,0,0,0,2.86A1.61,1.61,0,0,0,373.81,16.43Z"/>
                <path class="cls-8"
                      d="M417.34,12.69a2.54,2.54,0,0,1,2-.8h.3v1.25h-.54c-1.21,0-1.71.82-1.71,1.94v2.48h-1.3V12h1.29ZM411,14.12h2.89a1.52,1.52,0,0,0-.09-.28,1.41,1.41,0,0,0-1.32-.81,1.48,1.48,0,0,0-1.44,1Zm-12.76,0h2.89a1.57,1.57,0,0,0-.1-.28,1.41,1.41,0,0,0-1.31-.81,1.49,1.49,0,0,0-1.45,1Zm-6.2,0h2.89c0-.09-.06-.19-.1-.28a1.41,1.41,0,0,0-1.31-.81,1.5,1.5,0,0,0-1.45,1Zm12.44.63a1.58,1.58,0,1,0,3.15,0A1.58,1.58,0,1,0,404.49,14.75Zm6.45.37a1.44,1.44,0,0,0,1.61,1.34,3.3,3.3,0,0,0,1.7-.47l.06,0,.7.75-.07.06a3.94,3.94,0,0,1-2.39.85,2.78,2.78,0,0,1-2.91-2.87,2.76,2.76,0,0,1,2.84-2.88,2.56,2.56,0,0,1,2.6,3.19l0,.06Zm-12.77,0a1.45,1.45,0,0,0,1.61,1.34,3.33,3.33,0,0,0,1.71-.47l.06,0,.7.75-.08.06a3.92,3.92,0,0,1-2.39.85,2.76,2.76,0,0,1-2.9-2.87,2.76,2.76,0,0,1,2.84-2.88,2.54,2.54,0,0,1,2.59,3.19l0,.06Zm-6.2,0a1.45,1.45,0,0,0,1.61,1.34,3.33,3.33,0,0,0,1.71-.47l.06,0,.69.75-.07.06a3.94,3.94,0,0,1-2.39.85,2.76,2.76,0,0,1-2.9-2.87,2.76,2.76,0,0,1,2.83-2.88,2.57,2.57,0,0,1,2.5,1.59,2.65,2.65,0,0,1,.1,1.6l0,.06Zm-4.2-1.29,3.07,3.7h-1.75l-3-3.7,3-3.69h1.75Zm-3.15-3.69H386v7.37h-1.33Zm18.92,3.34h0l0-.08v0h0l0-.07h0v-.06h0l0-.05h0l0,0h0l0,0h0l.06-.09h0l0,0h0a2.78,2.78,0,0,1,2.21-1.09h.12a2.78,2.78,0,0,1,2.71,2.87,2.78,2.78,0,0,1-2.77,2.88,2.15,2.15,0,0,1-1.63-.73v2.66h-1.25V14.63h0a3,3,0,0,1,.23-1h0l0,0v0l0,0v0Z"/>
                <polygon class="cls-9" points="18.18 25.14 20.81 9.79 25 9.79 22.38 25.14 18.18 25.14"/>
                <path class="cls-9"
                      d="M37.55,10.17a11.33,11.33,0,0,0-3.74-.63c-4.15,0-7,2.07-7.07,5.06,0,2.2,2.07,3.43,3.66,4.17s2.18,1.23,2.16,1.9c0,1-1.29,1.51-2.5,1.51a8.85,8.85,0,0,1-3.94-.81l-.55-.25L25,24.55a13,13,0,0,0,4.66.82c4.4,0,7.24-2.05,7.28-5.25,0-1.73-1.1-3.07-3.51-4.17-1.46-.7-2.35-1.16-2.35-1.88s.76-1.34,2.39-1.34a7.48,7.48,0,0,1,3.13.6l.38.17Z"/>
                <path class="cls-9"
                      d="M43.12,19.7l1.67-4.28c0,.05.34-.89.56-1.46l.27,1.32s.8,3.66,1,4.42Zm5.17-9.89H45.05a2.1,2.1,0,0,0-2.2,1.27L36.64,25.16H41s.72-1.9.89-2.31h5.35c.13.53.51,2.31.51,2.31h3.87Z"/>
                <path class="cls-9"
                      d="M14.69,9.81,10.58,20.27l-.42-2.12a12,12,0,0,0-5.8-6.43L8.11,25.14h4.42L19.12,9.81Z"/>
                <path class="cls-10"
                      d="M6.8,9.79H0l0,.34c5.23,1.27,8.72,4.34,10.16,8l-1.48-7A1.75,1.75,0,0,0,6.8,9.79"/>
                <path class="cls-9"
                      d="M173.46,9.64h4.9v9.28H179c1-2.28,2-4.56,3-6.85.67-1.55,1.33-2.23,3-2.43h4.2V25.27h-4.9V16h-.48c-1,2.27-2,4.55-3,6.84-.64,1.49-1.35,2.28-3,2.43h-4.36Zm22.79,10.67h5.3a5.36,5.36,0,0,0,5-3.52H191.35v8.48h4.9ZM151.66,9.64h4.94c1.57,0,2.28,1.14,2.68,2.43L161.36,19h.42l2.08-6.89c.39-1.29,1.1-2.41,2.65-2.43h4.89V25.27h-4.89V16h-.35l-2.88,9.27h-3.42L157,16h-.42v9.27h-4.9Z"/>
                <path class="cls-11"
                      d="M206.76,16.09a5.13,5.13,0,0,0,.12-1.12,5.35,5.35,0,0,0-5.33-5.33H190.66l.17.7a7.76,7.76,0,0,0,7.11,5.75Z"/>
                <path class="cls-12"
                      d="M91,30.34V28.61A1,1,0,0,0,90,27.53,1,1,0,0,0,89,28a1,1,0,0,0-.91-.49,1,1,0,0,0-.83.4V27.6H86.7v2.74h.56V28.77A.66.66,0,0,1,88,28c.39,0,.62.26.62.72v1.58h.55V28.77a.66.66,0,0,1,.7-.73c.41,0,.62.26.62.72v1.58ZM100,27.6H99v-.84H98.4v.84h-.58v.5h.58v1.29c0,.64.22,1,.93,1a1.43,1.43,0,0,0,.75-.21l-.18-.49a1.11,1.11,0,0,1-.52.16c-.3,0-.42-.19-.42-.46V28.1h1Zm5.09-.07a.87.87,0,0,0-.75.4V27.6h-.54v2.74h.55V28.8c0-.46.22-.75.61-.75a1,1,0,0,1,.37.07l.18-.52A1.28,1.28,0,0,0,105.05,27.53Zm-7.7.29a2,2,0,0,0-1.12-.29c-.69,0-1.12.32-1.12.87s.31.72.92.8l.29,0c.32.05.5.17.5.32s-.24.35-.65.35a1.39,1.39,0,0,1-.91-.29l-.28.43a2,2,0,0,0,1.19.36c.79,0,1.23-.37,1.23-.89s-.34-.73-.94-.82l-.28,0c-.26,0-.49-.11-.49-.29s.22-.34.55-.34a1.8,1.8,0,0,1,.85.23ZM105.68,29a1.36,1.36,0,0,0,1.44,1.44,1.43,1.43,0,0,0,1-.33l-.29-.43a1.23,1.23,0,0,1-.72.25.93.93,0,0,1,0-1.86,1.23,1.23,0,0,1,.72.25l.29-.44a1.47,1.47,0,0,0-1-.32A1.36,1.36,0,0,0,105.68,29Zm-3.86-1.44A1.33,1.33,0,0,0,100.46,29a1.35,1.35,0,0,0,1.4,1.45A1.66,1.66,0,0,0,103,30l-.29-.41a1.32,1.32,0,0,1-.8.28.8.8,0,0,1-.84-.71h2c0-.07,0-.15,0-.23A1.3,1.3,0,0,0,101.82,27.53Zm0,.51a.7.7,0,0,1,.72.69h-1.48A.73.73,0,0,1,101.81,28ZM94.38,29V27.6h-.56v.33a1.08,1.08,0,0,0-.89-.4,1.44,1.44,0,0,0,0,2.88,1.08,1.08,0,0,0,.89-.4v.33h.56Zm-2.23,0a.85.85,0,1,1,.86.93A.86.86,0,0,1,92.15,29Zm21.19-1.44a.84.84,0,0,0-.74.4V27.6h-.55v2.74h.55V28.8c0-.46.22-.75.61-.75a1,1,0,0,1,.37.07l.19-.52A1.33,1.33,0,0,0,113.34,27.53ZM111.23,29V27.6h-.55v.33a1.08,1.08,0,0,0-.89-.4,1.44,1.44,0,0,0,0,2.88,1.08,1.08,0,0,0,.89-.4v.33h.55ZM109,29a.85.85,0,1,1,.85.93A.85.85,0,0,1,109,29Zm7.76,0V26.49h-.55v1.44a1.08,1.08,0,0,0-.89-.4,1.44,1.44,0,0,0,0,2.88,1.08,1.08,0,0,0,.89-.4v.33h.55Zm-2.22,0a.85.85,0,1,1,.85.93A.85.85,0,0,1,114.55,29Z"/>
                <rect class="cls-13" x="97.16" y="6.71" width="9.03" height="16.23"/>
                <path class="cls-14"
                      d="M97.73,14.83a10.31,10.31,0,0,1,4-8.12,10.33,10.33,0,1,0,0,16.23,10.31,10.31,0,0,1-4-8.11"/>
                <path class="cls-10"
                      d="M118.38,14.83a10.32,10.32,0,0,1-16.7,8.11,10.33,10.33,0,0,0,0-16.23,10.32,10.32,0,0,1,16.7,8.12"/>
            </g>
        </g>
    </g>
</svg>
