<?xml version="1.0" encoding="utf-8"?>
<!-- Generator: Adobe Illustrator 24.0.1, SVG Export Plug-In . SVG Version: 6.00 Build 0)  -->
<svg version="1.1" xmlns="http://www.w3.org/2000/svg" xmlns:xlink="http://www.w3.org/1999/xlink" x="0px" y="0px"
	 viewBox="0 0 3160 3028" style="enable-background:new 0 0 3160 3028;" xml:space="preserve">
<style type="text/css">
	.st0{opacity:0.6;}
	.st1{clip-path:url(#SVGID_2_);}
	.st2{fill:none;stroke:#BB3E3F;stroke-width:65.0875;stroke-miterlimit:10;}
	.st3{fill:none;stroke:#4D8955;stroke-width:65.0875;stroke-miterlimit:10;}
	.st4{fill:none;stroke:#E7929C;stroke-width:38.8064;stroke-miterlimit:10;}
	.st5{fill:none;stroke:#E39A3F;stroke-width:65.0875;stroke-miterlimit:10;}
	.st6{fill:none;stroke:#4D8955;stroke-width:38.8064;stroke-miterlimit:10;}
	.st7{fill:none;stroke:#4D8955;stroke-width:27.6297;stroke-miterlimit:10;}
	.st8{fill:none;stroke:#263378;stroke-width:18.2523;stroke-miterlimit:10;}
	.st9{fill:none;stroke:#E39A3F;stroke-width:38.8064;stroke-miterlimit:10;}
	.st10{fill:none;stroke:#BB3E3F;stroke-width:38.8064;stroke-miterlimit:10;}
	.st11{fill:none;stroke:#263378;stroke-width:38.8064;stroke-miterlimit:10;}
	.st12{clip-path:url(#SVGID_2_);fill:none;stroke:#E7929C;stroke-width:43.9341;stroke-miterlimit:10;}
	.st13{clip-path:url(#SVGID_2_);fill:none;stroke:#BB3E3F;stroke-width:43.9341;stroke-miterlimit:10;}
	.st14{clip-path:url(#SVGID_2_);fill:none;stroke:#4D8955;stroke-width:43.9341;stroke-miterlimit:10;}
	.st15{clip-path:url(#SVGID_2_);fill:none;stroke:#E7929C;stroke-width:25.6357;stroke-miterlimit:10;}
	.st16{clip-path:url(#SVGID_2_);fill:none;stroke:#E39A3F;stroke-width:43.9341;stroke-miterlimit:10;}
	.st17{clip-path:url(#SVGID_2_);fill:none;stroke:#4D8955;stroke-width:25.6357;stroke-miterlimit:10;}
	.st18{clip-path:url(#SVGID_2_);fill:none;stroke:#4D8955;stroke-width:18.2523;stroke-miterlimit:10;}
	.st19{clip-path:url(#SVGID_2_);fill:none;stroke:#263378;stroke-width:43.9341;stroke-miterlimit:10;}
	.st20{clip-path:url(#SVGID_2_);fill:none;stroke:#E39A3F;stroke-width:25.6357;stroke-miterlimit:10;}
	.st21{clip-path:url(#SVGID_2_);fill:none;stroke:#BB3E3F;stroke-width:25.6357;stroke-miterlimit:10;}
	.st22{clip-path:url(#SVGID_2_);fill:none;stroke:#BB3E3F;stroke-width:65.0875;stroke-miterlimit:10;}
	.st23{clip-path:url(#SVGID_2_);fill:none;stroke:#E7929C;stroke-width:38.8064;stroke-miterlimit:10;}
	.st24{clip-path:url(#SVGID_2_);fill:none;stroke:#E39A3F;stroke-width:65.0875;stroke-miterlimit:10;}
	.st25{clip-path:url(#SVGID_2_);fill:none;stroke:#4D8955;stroke-width:38.8064;stroke-miterlimit:10;}
	.st26{clip-path:url(#SVGID_2_);fill:none;stroke:#4D8955;stroke-width:65.0875;stroke-miterlimit:10;}
	.st27{clip-path:url(#SVGID_2_);fill:none;stroke:#263378;stroke-width:18.2523;stroke-miterlimit:10;}
	.st28{clip-path:url(#SVGID_2_);fill:none;stroke:#263378;stroke-width:65.0875;stroke-miterlimit:10;}
	.st29{clip-path:url(#SVGID_4_);}
	.st30{clip-path:url(#SVGID_4_);fill:none;stroke:#E7929C;stroke-width:43.9341;stroke-miterlimit:10;}
	.st31{clip-path:url(#SVGID_4_);fill:none;stroke:#BB3E3F;stroke-width:43.9341;stroke-miterlimit:10;}
	.st32{clip-path:url(#SVGID_4_);fill:none;stroke:#4D8955;stroke-width:43.9341;stroke-miterlimit:10;}
	.st33{clip-path:url(#SVGID_4_);fill:none;stroke:#E7929C;stroke-width:25.6357;stroke-miterlimit:10;}
	.st34{clip-path:url(#SVGID_4_);fill:none;stroke:#E39A3F;stroke-width:43.9341;stroke-miterlimit:10;}
	.st35{clip-path:url(#SVGID_4_);fill:none;stroke:#4D8955;stroke-width:25.6357;stroke-miterlimit:10;}
	.st36{clip-path:url(#SVGID_4_);fill:none;stroke:#4D8955;stroke-width:18.2523;stroke-miterlimit:10;}
	.st37{clip-path:url(#SVGID_4_);fill:none;stroke:#263378;stroke-width:43.9341;stroke-miterlimit:10;}
	.st38{clip-path:url(#SVGID_4_);fill:none;stroke:#E39A3F;stroke-width:25.6357;stroke-miterlimit:10;}
	.st39{clip-path:url(#SVGID_4_);fill:none;stroke:#BB3E3F;stroke-width:25.6357;stroke-miterlimit:10;}
	.st40{clip-path:url(#SVGID_4_);fill:none;stroke:#BB3E3F;stroke-width:65.0875;stroke-miterlimit:10;}
	.st41{clip-path:url(#SVGID_4_);fill:none;stroke:#E7929C;stroke-width:38.8064;stroke-miterlimit:10;}
	.st42{clip-path:url(#SVGID_4_);fill:none;stroke:#E39A3F;stroke-width:65.0875;stroke-miterlimit:10;}
	.st43{clip-path:url(#SVGID_4_);fill:none;stroke:#4D8955;stroke-width:38.8064;stroke-miterlimit:10;}
	.st44{clip-path:url(#SVGID_4_);fill:none;stroke:#4D8955;stroke-width:65.0875;stroke-miterlimit:10;}
	.st45{clip-path:url(#SVGID_4_);fill:none;stroke:#263378;stroke-width:18.2523;stroke-miterlimit:10;}
	.st46{clip-path:url(#SVGID_4_);fill:none;stroke:#263378;stroke-width:65.0875;stroke-miterlimit:10;}
	.st47{fill:#FFFFFF;}
</style>
<g id="fon">
	<g class="st0">
		<defs>
			<rect id="SVGID_1_" class="st0" width="3160" height="3015"/>
		</defs>
		<clipPath id="SVGID_2_">
			<use xlink:href="#SVGID_1_"  style="overflow:visible;"/>
		</clipPath>
		<g class="st1">
			<line class="st2" x1="4576.8" y1="753.8" x2="950.5" y2="1198.6"/>
			<line class="st3" x1="3264.4" y1="94.5" x2="720" y2="406.5"/>
			<line class="st4" x1="2390.4" y1="1295.2" x2="157.3" y2="1569.1"/>
			<line class="st4" x1="2106.1" y1="485.3" x2="-127" y2="759.2"/>
			<line class="st5" x1="5077.9" y1="510.3" x2="2844.7" y2="784.2"/>
			<line class="st5" x1="1437.5" y1="1604.8" x2="-795.6" y2="1878.7"/>
			<line class="st2" x1="1233.2" y1="179.7" x2="-999.9" y2="453.6"/>
			<line class="st2" x1="2766.5" y1="1612.3" x2="533.4" y2="1886.2"/>
			<line class="st6" x1="3835.8" y1="1002.5" x2="1602.6" y2="1276.5"/>
			<line class="st7" x1="3638.5" y1="1343.6" x2="2506.5" y2="1482.5"/>
			<line class="st5" x1="698.7" y1="1242.8" x2="-1534.5" y2="1516.8"/>
			<line class="st8" x1="4246" y1="497.9" x2="2012.8" y2="771.8"/>
			<line class="st8" x1="2216.9" y1="1337.1" x2="-16.3" y2="1611"/>
			<line class="st9" x1="2966.3" y1="1407.2" x2="733.2" y2="1681.1"/>
			<line class="st10" x1="4695.6" y1="145.9" x2="2462.5" y2="419.8"/>
			<line class="st3" x1="1151.5" y1="920.3" x2="-1081.6" y2="1194.2"/>
			<line class="st4" x1="4120.9" y1="1667.3" x2="1887.7" y2="1941.2"/>
			<line class="st11" x1="1015.9" y1="1917.6" x2="-1217.3" y2="2191.6"/>
		</g>
		<line class="st12" x1="969.6" y1="37.6" x2="1582.8" y2="-37.7"/>
		<line class="st13" x1="137.1" y1="1181.1" x2="2532.7" y2="887.3"/>
		<line class="st14" x1="789.6" y1="1645.2" x2="2470.5" y2="1439"/>
		<line class="st15" x1="2186.2" y1="904.5" x2="3661.4" y2="723.6"/>
		<line class="st16" x1="-286.5" y1="1412.6" x2="1188.7" y2="1231.6"/>
		<line class="st16" x1="815.5" y1="337.6" x2="2290.8" y2="156.6"/>
		<line class="st16" x1="2316.7" y1="1720.6" x2="3791.9" y2="1539.7"/>
		<line class="st13" x1="1274.6" y1="722.1" x2="2749.9" y2="541.2"/>
		<line class="st17" x1="-548.3" y1="231.8" x2="927" y2="50.8"/>
		<line class="st18" x1="680.9" y1="912.1" x2="1428.8" y2="820.4"/>
		<line class="st16" x1="2606.4" y1="1042" x2="4081.7" y2="861.1"/>
		<line class="st19" x1="-1046" y1="755.3" x2="429.3" y2="574.3"/>
		<line class="st20" x1="350" y1="783.3" x2="1825.2" y2="602.3"/>
		<line class="st21" x1="-1010.3" y1="1879.2" x2="465" y2="1698.3"/>
		<line class="st19" x1="2792.5" y1="1165" x2="4267.7" y2="984.1"/>
		<line class="st22" x1="-1424.4" y1="2430.1" x2="2201.9" y2="1985.3"/>
		<line class="st23" x1="691" y1="2217.7" x2="2924.2" y2="1943.7"/>
		<line class="st24" x1="-1925.5" y1="2673.6" x2="307.7" y2="2399.6"/>
		<line class="st25" x1="-315.4" y1="2848.3" x2="1917.8" y2="2574.4"/>
		<line class="st26" x1="2382.7" y1="2270" x2="4615.9" y2="1996.1"/>
		<line class="st27" x1="-1093.6" y1="2686" x2="1139.6" y2="2412.1"/>
		<line class="st27" x1="864.5" y1="2175.8" x2="3097.7" y2="1901.9"/>
		<line class="st28" x1="2096.8" y1="2542.3" x2="3596" y2="2358.4"/>
		<line class="st13" x1="2749.6" y1="2313.6" x2="354" y2="2607.5"/>
		<line class="st15" x1="966.3" y1="2279.4" x2="-509" y2="2460.3"/>
		<line class="st16" x1="3367.9" y1="2100.3" x2="1892.7" y2="2281.3"/>
		<line class="st12" x1="1621" y1="2756" x2="145.8" y2="2937"/>
		<line class="st16" x1="546" y1="2141.9" x2="-929.2" y2="2322.8"/>
		<line class="st20" x1="2731.4" y1="2729.6" x2="1256.2" y2="2910.6"/>
		<line class="st19" x1="728" y1="2685.8" x2="-747.3" y2="2866.8"/>
		<line class="st20" x1="1222.7" y1="513.5" x2="2698" y2="332.6"/>
		<line class="st20" x1="226" y1="349.6" x2="1701.3" y2="168.7"/>
		<line class="st13" x1="4132.5" y1="2502.8" x2="1737" y2="2796.6"/>
	</g>
	<g class="st0">
		<defs>
			<rect id="SVGID_3_" x="3234" class="st0" width="3160" height="3015"/>
		</defs>
		<clipPath id="SVGID_4_">
			<use xlink:href="#SVGID_3_"  style="overflow:visible;"/>
		</clipPath>
		<g class="st29">
			<line class="st4" x1="5340.1" y1="485.3" x2="3107" y2="759.2"/>
			<line class="st5" x1="4671.5" y1="1604.8" x2="2438.4" y2="1878.7"/>
			<line class="st2" x1="4467.2" y1="179.7" x2="2234.1" y2="453.6"/>
			<line class="st5" x1="3932.7" y1="1242.8" x2="1699.5" y2="1516.8"/>
			<line class="st3" x1="4385.5" y1="920.3" x2="2152.4" y2="1194.2"/>
			<line class="st11" x1="4249.9" y1="1917.6" x2="2016.7" y2="2191.6"/>
		</g>
		<line class="st34" x1="2947.5" y1="1412.6" x2="4422.7" y2="1231.6"/>
		<line class="st35" x1="2685.7" y1="231.8" x2="4161" y2="50.8"/>
		<line class="st37" x1="2188" y1="755.3" x2="3663.3" y2="574.3"/>
		<line class="st39" x1="2223.7" y1="1879.2" x2="3699" y2="1698.3"/>
		<line class="st40" x1="1809.6" y1="2430.1" x2="5435.9" y2="1985.3"/>
		<line class="st42" x1="1308.5" y1="2673.6" x2="3541.7" y2="2399.6"/>
		<line class="st43" x1="2918.6" y1="2848.3" x2="5151.8" y2="2574.4"/>
		<line class="st45" x1="2140.4" y1="2686" x2="4373.6" y2="2412.1"/>
		<line class="st33" x1="4200.3" y1="2279.4" x2="2725" y2="2460.3"/>
		<line class="st34" x1="3780" y1="2141.9" x2="2304.8" y2="2322.8"/>
		<line class="st37" x1="3962" y1="2685.8" x2="2486.7" y2="2866.8"/>
	</g>
</g>
<g id="Слой_10">
</g>
<g id="IMG">
</g>
<g id="poloski">
</g>
<g id="Content">
</g>
<g id="Footer">
</g>
<g id="INFO">
</g>
<g id="PARTNERS">
</g>
<g id="SPEAkER">
</g>
<g id="NEWS">
</g>
</svg>
